%TF.GenerationSoftware,KiCad,Pcbnew,(6.0.7)*%
%TF.CreationDate,2022-08-21T17:21:21+03:00*%
%TF.ProjectId,ArduinoUnoHat,41726475-696e-46f5-956e-6f4861742e6b,rev?*%
%TF.SameCoordinates,Original*%
%TF.FileFunction,Legend,Top*%
%TF.FilePolarity,Positive*%
%FSLAX46Y46*%
G04 Gerber Fmt 4.6, Leading zero omitted, Abs format (unit mm)*
G04 Created by KiCad (PCBNEW (6.0.7)) date 2022-08-21 17:21:21*
%MOMM*%
%LPD*%
G01*
G04 APERTURE LIST*
%ADD10C,0.150000*%
%ADD11C,0.120000*%
G04 APERTURE END LIST*
D10*
X148984723Y-105666980D02*
X148651390Y-105190790D01*
X148413295Y-105666980D02*
X148413295Y-104666980D01*
X148794247Y-104666980D01*
X148889485Y-104714600D01*
X148937104Y-104762219D01*
X148984723Y-104857457D01*
X148984723Y-105000314D01*
X148937104Y-105095552D01*
X148889485Y-105143171D01*
X148794247Y-105190790D01*
X148413295Y-105190790D01*
X149318057Y-105666980D02*
X149841866Y-105000314D01*
X149318057Y-105000314D02*
X149841866Y-105666980D01*
X150079961Y-104666980D02*
X150651390Y-104666980D01*
X150365676Y-105666980D02*
X150365676Y-104666980D01*
X150889485Y-105666980D02*
X151413295Y-105000314D01*
X150889485Y-105000314D02*
X151413295Y-105666980D01*
X152413295Y-104666980D02*
X152984723Y-104666980D01*
X152699009Y-105666980D02*
X152699009Y-104666980D01*
X153699009Y-105619361D02*
X153603771Y-105666980D01*
X153413295Y-105666980D01*
X153318057Y-105619361D01*
X153270438Y-105524123D01*
X153270438Y-105143171D01*
X153318057Y-105047933D01*
X153413295Y-105000314D01*
X153603771Y-105000314D01*
X153699009Y-105047933D01*
X153746628Y-105143171D01*
X153746628Y-105238409D01*
X153270438Y-105333647D01*
X154127580Y-105619361D02*
X154222819Y-105666980D01*
X154413295Y-105666980D01*
X154508533Y-105619361D01*
X154556152Y-105524123D01*
X154556152Y-105476504D01*
X154508533Y-105381266D01*
X154413295Y-105333647D01*
X154270438Y-105333647D01*
X154175200Y-105286028D01*
X154127580Y-105190790D01*
X154127580Y-105143171D01*
X154175200Y-105047933D01*
X154270438Y-105000314D01*
X154413295Y-105000314D01*
X154508533Y-105047933D01*
X154841866Y-105000314D02*
X155222819Y-105000314D01*
X154984723Y-104666980D02*
X154984723Y-105524123D01*
X155032342Y-105619361D01*
X155127580Y-105666980D01*
X155222819Y-105666980D01*
X155556152Y-105666980D02*
X155556152Y-104666980D01*
X155556152Y-105047933D02*
X155651390Y-105000314D01*
X155841866Y-105000314D01*
X155937104Y-105047933D01*
X155984723Y-105095552D01*
X156032342Y-105190790D01*
X156032342Y-105476504D01*
X155984723Y-105571742D01*
X155937104Y-105619361D01*
X155841866Y-105666980D01*
X155651390Y-105666980D01*
X155556152Y-105619361D01*
X156603771Y-105666980D02*
X156508533Y-105619361D01*
X156460914Y-105571742D01*
X156413295Y-105476504D01*
X156413295Y-105190790D01*
X156460914Y-105095552D01*
X156508533Y-105047933D01*
X156603771Y-105000314D01*
X156746628Y-105000314D01*
X156841866Y-105047933D01*
X156889485Y-105095552D01*
X156937104Y-105190790D01*
X156937104Y-105476504D01*
X156889485Y-105571742D01*
X156841866Y-105619361D01*
X156746628Y-105666980D01*
X156603771Y-105666980D01*
X157794247Y-105666980D02*
X157794247Y-105143171D01*
X157746628Y-105047933D01*
X157651390Y-105000314D01*
X157460914Y-105000314D01*
X157365676Y-105047933D01*
X157794247Y-105619361D02*
X157699009Y-105666980D01*
X157460914Y-105666980D01*
X157365676Y-105619361D01*
X157318057Y-105524123D01*
X157318057Y-105428885D01*
X157365676Y-105333647D01*
X157460914Y-105286028D01*
X157699009Y-105286028D01*
X157794247Y-105238409D01*
X158270438Y-105666980D02*
X158270438Y-105000314D01*
X158270438Y-105190790D02*
X158318057Y-105095552D01*
X158365676Y-105047933D01*
X158460914Y-105000314D01*
X158556152Y-105000314D01*
X159318057Y-105666980D02*
X159318057Y-104666980D01*
X159318057Y-105619361D02*
X159222819Y-105666980D01*
X159032342Y-105666980D01*
X158937104Y-105619361D01*
X158889485Y-105571742D01*
X158841866Y-105476504D01*
X158841866Y-105190790D01*
X158889485Y-105095552D01*
X158937104Y-105047933D01*
X159032342Y-105000314D01*
X159222819Y-105000314D01*
X159318057Y-105047933D01*
X160556152Y-105666980D02*
X160556152Y-105000314D01*
X160556152Y-105190790D02*
X160603771Y-105095552D01*
X160651390Y-105047933D01*
X160746628Y-105000314D01*
X160841866Y-105000314D01*
X161556152Y-105619361D02*
X161460914Y-105666980D01*
X161270438Y-105666980D01*
X161175200Y-105619361D01*
X161127580Y-105524123D01*
X161127580Y-105143171D01*
X161175200Y-105047933D01*
X161270438Y-105000314D01*
X161460914Y-105000314D01*
X161556152Y-105047933D01*
X161603771Y-105143171D01*
X161603771Y-105238409D01*
X161127580Y-105333647D01*
X161937104Y-105000314D02*
X162175200Y-105666980D01*
X162413295Y-105000314D01*
X162794247Y-105571742D02*
X162841866Y-105619361D01*
X162794247Y-105666980D01*
X162746628Y-105619361D01*
X162794247Y-105571742D01*
X162794247Y-105666980D01*
X164556152Y-105666980D02*
X163984723Y-105666980D01*
X164270438Y-105666980D02*
X164270438Y-104666980D01*
X164175200Y-104809838D01*
X164079961Y-104905076D01*
X163984723Y-104952695D01*
X164984723Y-105571742D02*
X165032342Y-105619361D01*
X164984723Y-105666980D01*
X164937104Y-105619361D01*
X164984723Y-105571742D01*
X164984723Y-105666980D01*
X165651390Y-104666980D02*
X165746628Y-104666980D01*
X165841866Y-104714600D01*
X165889485Y-104762219D01*
X165937104Y-104857457D01*
X165984723Y-105047933D01*
X165984723Y-105286028D01*
X165937104Y-105476504D01*
X165889485Y-105571742D01*
X165841866Y-105619361D01*
X165746628Y-105666980D01*
X165651390Y-105666980D01*
X165556152Y-105619361D01*
X165508533Y-105571742D01*
X165460914Y-105476504D01*
X165413295Y-105286028D01*
X165413295Y-105047933D01*
X165460914Y-104857457D01*
X165508533Y-104762219D01*
X165556152Y-104714600D01*
X165651390Y-104666980D01*
X154508533Y-106276980D02*
X154603771Y-106276980D01*
X154699009Y-106324600D01*
X154746628Y-106372219D01*
X154794247Y-106467457D01*
X154841866Y-106657933D01*
X154841866Y-106896028D01*
X154794247Y-107086504D01*
X154746628Y-107181742D01*
X154699009Y-107229361D01*
X154603771Y-107276980D01*
X154508533Y-107276980D01*
X154413295Y-107229361D01*
X154365676Y-107181742D01*
X154318057Y-107086504D01*
X154270438Y-106896028D01*
X154270438Y-106657933D01*
X154318057Y-106467457D01*
X154365676Y-106372219D01*
X154413295Y-106324600D01*
X154508533Y-106276980D01*
X155413295Y-106705552D02*
X155318057Y-106657933D01*
X155270438Y-106610314D01*
X155222819Y-106515076D01*
X155222819Y-106467457D01*
X155270438Y-106372219D01*
X155318057Y-106324600D01*
X155413295Y-106276980D01*
X155603771Y-106276980D01*
X155699009Y-106324600D01*
X155746628Y-106372219D01*
X155794247Y-106467457D01*
X155794247Y-106515076D01*
X155746628Y-106610314D01*
X155699009Y-106657933D01*
X155603771Y-106705552D01*
X155413295Y-106705552D01*
X155318057Y-106753171D01*
X155270438Y-106800790D01*
X155222819Y-106896028D01*
X155222819Y-107086504D01*
X155270438Y-107181742D01*
X155318057Y-107229361D01*
X155413295Y-107276980D01*
X155603771Y-107276980D01*
X155699009Y-107229361D01*
X155746628Y-107181742D01*
X155794247Y-107086504D01*
X155794247Y-106896028D01*
X155746628Y-106800790D01*
X155699009Y-106753171D01*
X155603771Y-106705552D01*
X156222819Y-107181742D02*
X156270438Y-107229361D01*
X156222819Y-107276980D01*
X156175200Y-107229361D01*
X156222819Y-107181742D01*
X156222819Y-107276980D01*
X156651390Y-106372219D02*
X156699009Y-106324600D01*
X156794247Y-106276980D01*
X157032342Y-106276980D01*
X157127580Y-106324600D01*
X157175200Y-106372219D01*
X157222819Y-106467457D01*
X157222819Y-106562695D01*
X157175200Y-106705552D01*
X156603771Y-107276980D01*
X157222819Y-107276980D01*
X157841866Y-106276980D02*
X157937104Y-106276980D01*
X158032342Y-106324600D01*
X158079961Y-106372219D01*
X158127580Y-106467457D01*
X158175200Y-106657933D01*
X158175200Y-106896028D01*
X158127580Y-107086504D01*
X158079961Y-107181742D01*
X158032342Y-107229361D01*
X157937104Y-107276980D01*
X157841866Y-107276980D01*
X157746628Y-107229361D01*
X157699009Y-107181742D01*
X157651390Y-107086504D01*
X157603771Y-106896028D01*
X157603771Y-106657933D01*
X157651390Y-106467457D01*
X157699009Y-106372219D01*
X157746628Y-106324600D01*
X157841866Y-106276980D01*
X158556152Y-106372219D02*
X158603771Y-106324600D01*
X158699009Y-106276980D01*
X158937104Y-106276980D01*
X159032342Y-106324600D01*
X159079961Y-106372219D01*
X159127580Y-106467457D01*
X159127580Y-106562695D01*
X159079961Y-106705552D01*
X158508533Y-107276980D01*
X159127580Y-107276980D01*
X159508533Y-106372219D02*
X159556152Y-106324600D01*
X159651390Y-106276980D01*
X159889485Y-106276980D01*
X159984723Y-106324600D01*
X160032342Y-106372219D01*
X160079961Y-106467457D01*
X160079961Y-106562695D01*
X160032342Y-106705552D01*
X159460914Y-107276980D01*
X160079961Y-107276980D01*
%TO.C,A1*%
X141551114Y-76569866D02*
X142027304Y-76569866D01*
X141455876Y-76855580D02*
X141789209Y-75855580D01*
X142122542Y-76855580D01*
X142979685Y-76855580D02*
X142408257Y-76855580D01*
X142693971Y-76855580D02*
X142693971Y-75855580D01*
X142598733Y-75998438D01*
X142503495Y-76093676D01*
X142408257Y-76141295D01*
D11*
X179225400Y-118063200D02*
X181765400Y-115523200D01*
X112925400Y-89863200D02*
X112925400Y-109933200D01*
X179225400Y-80213200D02*
X179225400Y-77543200D01*
X106575400Y-121613200D02*
X112925400Y-121613200D01*
X112925400Y-77543200D02*
X112925400Y-80723200D01*
X112925400Y-121613200D02*
X112925400Y-131143200D01*
X112925400Y-109933200D02*
X106575400Y-109933200D01*
X106575400Y-109933200D02*
X106575400Y-121613200D01*
X177575400Y-131143200D02*
X179225400Y-129493200D01*
X181765400Y-82753200D02*
X179225400Y-80213200D01*
X112925400Y-131143200D02*
X177575400Y-131143200D01*
X179225400Y-129493200D02*
X179225400Y-118063200D01*
X112925400Y-80723200D02*
X111025400Y-80723200D01*
X111025400Y-89863200D02*
X112925400Y-89863200D01*
X111025400Y-80723200D02*
X111025400Y-89863200D01*
X179225400Y-77543200D02*
X112925400Y-77543200D01*
X181765400Y-115523200D02*
X181765400Y-82753200D01*
%TD*%
M02*
