%TF.GenerationSoftware,KiCad,Pcbnew,(6.0.7)*%
%TF.CreationDate,2022-08-21T17:21:21+03:00*%
%TF.ProjectId,ArduinoUnoHat,41726475-696e-46f5-956e-6f4861742e6b,rev?*%
%TF.SameCoordinates,Original*%
%TF.FileFunction,Copper,L1,Top*%
%TF.FilePolarity,Positive*%
%FSLAX46Y46*%
G04 Gerber Fmt 4.6, Leading zero omitted, Abs format (unit mm)*
G04 Created by KiCad (PCBNEW (6.0.7)) date 2022-08-21 17:21:21*
%MOMM*%
%LPD*%
G01*
G04 APERTURE LIST*
%TA.AperFunction,ComponentPad*%
%ADD10C,2.000000*%
%TD*%
%TA.AperFunction,ComponentPad*%
%ADD11O,1.600000X1.600000*%
%TD*%
%TA.AperFunction,ComponentPad*%
%ADD12C,1.600000*%
%TD*%
%TA.AperFunction,ComponentPad*%
%ADD13R,1.700000X1.700000*%
%TD*%
%TA.AperFunction,ComponentPad*%
%ADD14O,1.700000X1.700000*%
%TD*%
%TA.AperFunction,ComponentPad*%
%ADD15R,3.960000X1.980000*%
%TD*%
%TA.AperFunction,ComponentPad*%
%ADD16O,3.960000X1.980000*%
%TD*%
%TA.AperFunction,ComponentPad*%
%ADD17C,1.800000*%
%TD*%
%TA.AperFunction,ComponentPad*%
%ADD18R,1.800000X1.800000*%
%TD*%
%TA.AperFunction,ComponentPad*%
%ADD19R,1.600000X1.600000*%
%TD*%
%TA.AperFunction,ViaPad*%
%ADD20C,0.800000*%
%TD*%
%TA.AperFunction,Conductor*%
%ADD21C,0.500000*%
%TD*%
%TA.AperFunction,Conductor*%
%ADD22C,0.250000*%
%TD*%
G04 APERTURE END LIST*
D10*
%TO.P,SW1,2,2*%
%TO.N,GND*%
X133809600Y-92536400D03*
X140309600Y-92536400D03*
%TO.P,SW1,1,1*%
%TO.N,nReset*%
X140309600Y-88036400D03*
X133809600Y-88036400D03*
%TD*%
D11*
%TO.P,R4,2*%
%TO.N,Net-(D3-Pad1)*%
X180086000Y-105308400D03*
D12*
%TO.P,R4,1*%
%TO.N,GND*%
X169926000Y-105308400D03*
%TD*%
D11*
%TO.P,R3,2*%
%TO.N,Net-(D4-Pad1)*%
X132435600Y-114808000D03*
D12*
%TO.P,R3,1*%
%TO.N,GND*%
X132435600Y-124968000D03*
%TD*%
%TO.P,R2,1*%
%TO.N,GND*%
X161848800Y-124256800D03*
D11*
%TO.P,R2,2*%
%TO.N,Net-(D2-Pad1)*%
X172008800Y-124256800D03*
%TD*%
%TO.P,R1,2*%
%TO.N,Net-(D1-Pad1)*%
X146710400Y-84886800D03*
D12*
%TO.P,R1,1*%
%TO.N,GND*%
X156870400Y-84886800D03*
%TD*%
D13*
%TO.P,J9,1,Pin_1*%
%TO.N,+5V*%
X166522400Y-86969600D03*
D14*
%TO.P,J9,2,Pin_2*%
%TO.N,/Vdd_Tx1*%
X166522400Y-89509600D03*
%TO.P,J9,3,Pin_3*%
%TO.N,+3.3V*%
X166522400Y-92049600D03*
%TD*%
D13*
%TO.P,J8,1,Pin_1*%
%TO.N,+5V*%
X152994600Y-110083600D03*
D14*
%TO.P,J8,2,Pin_2*%
%TO.N,/Vdd_Tx0*%
X150454600Y-110083600D03*
%TO.P,J8,3,Pin_3*%
%TO.N,+3.3V*%
X147914600Y-110083600D03*
%TD*%
D13*
%TO.P,J7,1,Pin_1*%
%TO.N,GND*%
X172180800Y-86984600D03*
D14*
%TO.P,J7,2,Pin_2*%
%TO.N,/Vdd_Tx1*%
X172180800Y-89524600D03*
%TO.P,J7,3,Pin_3*%
%TO.N,Data_Tx1*%
X172180800Y-92064600D03*
%TD*%
D13*
%TO.P,J6,1,Pin_1*%
%TO.N,GND*%
X149976600Y-119303400D03*
D14*
%TO.P,J6,2,Pin_2*%
%TO.N,/Vdd_Tx0*%
X152516600Y-119303400D03*
%TO.P,J6,3,Pin_3*%
%TO.N,Data_Tx0*%
X155056600Y-119303400D03*
%TD*%
D13*
%TO.P,J5,1,Pin_1*%
%TO.N,+5V*%
X163474400Y-111455200D03*
D14*
%TO.P,J5,2,Pin_2*%
%TO.N,/Vdd_Rx1*%
X163474400Y-113995200D03*
%TO.P,J5,3,Pin_3*%
%TO.N,+3.3V*%
X163474400Y-116535200D03*
%TD*%
D13*
%TO.P,J4,1,Pin_1*%
%TO.N,+5V*%
X157769800Y-89509600D03*
D14*
%TO.P,J4,2,Pin_2*%
%TO.N,/Vdd_Rx0*%
X155229800Y-89509600D03*
%TO.P,J4,3,Pin_3*%
%TO.N,+3.3V*%
X152689800Y-89509600D03*
%TD*%
D13*
%TO.P,J3,1,Pin_1*%
%TO.N,GND*%
X172231600Y-109840400D03*
D14*
%TO.P,J3,2,Pin_2*%
%TO.N,Data_Rx1*%
X172231600Y-112380400D03*
%TO.P,J3,3,Pin_3*%
%TO.N,unconnected-(J3-Pad3)*%
X172231600Y-114920400D03*
%TO.P,J3,4,Pin_4*%
%TO.N,/Vdd_Rx1*%
X172231600Y-117460400D03*
%TD*%
%TO.P,J2,4,Pin_4*%
%TO.N,/Vdd_Rx0*%
X160426400Y-101803200D03*
%TO.P,J2,3,Pin_3*%
%TO.N,unconnected-(J2-Pad3)*%
X157886400Y-101803200D03*
%TO.P,J2,2,Pin_2*%
%TO.N,Data_Rx0*%
X155346400Y-101803200D03*
D13*
%TO.P,J2,1,Pin_1*%
%TO.N,GND*%
X152806400Y-101803200D03*
%TD*%
D15*
%TO.P,J1,1,Pin_1*%
%TO.N,GND*%
X136042400Y-100660200D03*
D16*
%TO.P,J1,2,Pin_2*%
%TO.N,VDD*%
X136042400Y-105660200D03*
%TD*%
D17*
%TO.P,D4,2,A*%
%TO.N,Data_Tx0*%
X140919200Y-119126000D03*
D18*
%TO.P,D4,1,K*%
%TO.N,Net-(D4-Pad1)*%
X138379200Y-119126000D03*
%TD*%
D17*
%TO.P,D3,2,A*%
%TO.N,Data_Tx1*%
X176077800Y-98602800D03*
D18*
%TO.P,D3,1,K*%
%TO.N,Net-(D3-Pad1)*%
X178617800Y-98602800D03*
%TD*%
D17*
%TO.P,D2,2,A*%
%TO.N,Data_Rx_Hb1*%
X177647600Y-123748800D03*
D18*
%TO.P,D2,1,K*%
%TO.N,Net-(D2-Pad1)*%
X175107600Y-123748800D03*
%TD*%
D17*
%TO.P,D1,2,A*%
%TO.N,Data_Rx_Hb0*%
X145440400Y-95300800D03*
D18*
%TO.P,D1,1,K*%
%TO.N,Net-(D1-Pad1)*%
X147980400Y-95300800D03*
%TD*%
D11*
%TO.P,A1,32,SCL/A5*%
%TO.N,unconnected-(A1-Pad32)*%
X131855400Y-128473200D03*
%TO.P,A1,31,SDA/A4*%
%TO.N,unconnected-(A1-Pad31)*%
X134395400Y-128473200D03*
%TO.P,A1,30,AREF*%
%TO.N,unconnected-(A1-Pad30)*%
X136935400Y-128473200D03*
%TO.P,A1,29,GND*%
%TO.N,GND*%
X139475400Y-128473200D03*
%TO.P,A1,28,D13*%
%TO.N,unconnected-(A1-Pad28)*%
X142015400Y-128473200D03*
%TO.P,A1,27,D12*%
%TO.N,unconnected-(A1-Pad27)*%
X144555400Y-128473200D03*
%TO.P,A1,26,D11*%
%TO.N,unconnected-(A1-Pad26)*%
X147095400Y-128473200D03*
%TO.P,A1,25,D10*%
%TO.N,unconnected-(A1-Pad25)*%
X149635400Y-128473200D03*
%TO.P,A1,24,D9*%
%TO.N,unconnected-(A1-Pad24)*%
X152175400Y-128473200D03*
%TO.P,A1,23,D8*%
%TO.N,Data_Rx_Hb1*%
X154715400Y-128473200D03*
%TO.P,A1,22,D7*%
%TO.N,Data_Rx_Hb0*%
X158775400Y-128473200D03*
%TO.P,A1,21,D6*%
%TO.N,unconnected-(A1-Pad21)*%
X161315400Y-128473200D03*
%TO.P,A1,20,D5*%
%TO.N,Data_Tx1*%
X163855400Y-128473200D03*
%TO.P,A1,19,D4*%
%TO.N,Data_Tx0*%
X166395400Y-128473200D03*
%TO.P,A1,18,D3*%
%TO.N,Data_Rx0*%
X168935400Y-128473200D03*
%TO.P,A1,17,D2*%
%TO.N,Data_Rx1*%
X171475400Y-128473200D03*
%TO.P,A1,16,D1/TX*%
%TO.N,unconnected-(A1-Pad16)*%
X174015400Y-128473200D03*
%TO.P,A1,15,D0/RX*%
%TO.N,unconnected-(A1-Pad15)*%
X176555400Y-128473200D03*
%TO.P,A1,14,SCL/A5*%
%TO.N,unconnected-(A1-Pad14)*%
X176555400Y-80213200D03*
%TO.P,A1,13,SDA/A4*%
%TO.N,unconnected-(A1-Pad13)*%
X174015400Y-80213200D03*
%TO.P,A1,12,A3*%
%TO.N,unconnected-(A1-Pad12)*%
X171475400Y-80213200D03*
%TO.P,A1,11,A2*%
%TO.N,unconnected-(A1-Pad11)*%
X168935400Y-80213200D03*
%TO.P,A1,10,A1*%
%TO.N,unconnected-(A1-Pad10)*%
X166395400Y-80213200D03*
%TO.P,A1,9,A0*%
%TO.N,unconnected-(A1-Pad9)*%
X163855400Y-80213200D03*
%TO.P,A1,8,VIN*%
%TO.N,VDD*%
X158775400Y-80213200D03*
%TO.P,A1,7,GND*%
%TO.N,GND*%
X156235400Y-80213200D03*
%TO.P,A1,6,GND*%
X153695400Y-80213200D03*
%TO.P,A1,5,+5V*%
%TO.N,+5V*%
X151155400Y-80213200D03*
%TO.P,A1,4,3V3*%
%TO.N,+3.3V*%
X148615400Y-80213200D03*
%TO.P,A1,3,~{RESET}*%
%TO.N,nReset*%
X146075400Y-80213200D03*
%TO.P,A1,2,IOREF*%
%TO.N,unconnected-(A1-Pad2)*%
X143535400Y-80213200D03*
D19*
%TO.P,A1,1,NC*%
%TO.N,unconnected-(A1-Pad1)*%
X140995400Y-80213200D03*
%TD*%
D20*
%TO.N,Data_Rx1*%
X167894000Y-116382800D03*
%TO.N,Data_Rx_Hb1*%
X159512000Y-121869200D03*
X168706800Y-121869200D03*
%TD*%
D21*
%TO.N,+5V*%
X152994600Y-110083600D02*
X162102800Y-110083600D01*
X162102800Y-110083600D02*
X163474400Y-111455200D01*
%TO.N,+3.3V*%
X147914600Y-110083600D02*
X147914600Y-112913400D01*
X147914600Y-112913400D02*
X150114000Y-115112800D01*
X150114000Y-115112800D02*
X157226000Y-115112800D01*
X157226000Y-115112800D02*
X158481000Y-113857800D01*
X158481000Y-113857800D02*
X160797000Y-113857800D01*
X160797000Y-113857800D02*
X163474400Y-116535200D01*
D22*
%TO.N,Data_Rx1*%
X170027600Y-114249200D02*
X170027600Y-112979200D01*
X170027600Y-112979200D02*
X170626400Y-112380400D01*
X167894000Y-116382800D02*
X170027600Y-114249200D01*
X170626400Y-112380400D02*
X172231600Y-112380400D01*
%TO.N,Data_Rx_Hb1*%
X159512000Y-121869200D02*
X168706800Y-121869200D01*
%TO.N,Data_Tx1*%
X172180800Y-92064600D02*
X172180800Y-94705800D01*
X172180800Y-94705800D02*
X176077800Y-98602800D01*
X163855400Y-128473200D02*
X174599600Y-117729000D01*
X174599600Y-117729000D02*
X174599600Y-100081000D01*
X174599600Y-100081000D02*
X176077800Y-98602800D01*
D21*
%TO.N,+3.3V*%
X152689800Y-89509600D02*
X152689800Y-91780600D01*
X152689800Y-91780600D02*
X152689800Y-94042083D01*
X166522400Y-92049600D02*
X152958800Y-92049600D01*
X152958800Y-92049600D02*
X152689800Y-91780600D01*
X152689800Y-94042083D02*
X147914600Y-98817283D01*
X147914600Y-98817283D02*
X147914600Y-110083600D01*
D22*
%TO.N,Data_Rx_Hb0*%
X145440400Y-95300800D02*
X145440400Y-117298644D01*
X145440400Y-117298644D02*
X156614956Y-128473200D01*
X156614956Y-128473200D02*
X158775400Y-128473200D01*
%TD*%
%TA.AperFunction,Conductor*%
%TO.N,GND*%
G36*
X179609172Y-77929763D02*
G01*
X179615496Y-77930922D01*
X179615498Y-77930922D01*
X179624323Y-77932539D01*
X179642470Y-77930658D01*
X179665819Y-77930414D01*
X179924177Y-77951740D01*
X179938050Y-77953666D01*
X180015353Y-77968819D01*
X180220115Y-78008959D01*
X180233678Y-78012410D01*
X180433790Y-78075363D01*
X180507864Y-78098666D01*
X180520970Y-78103605D01*
X180783887Y-78219759D01*
X180796363Y-78226122D01*
X181044760Y-78370735D01*
X181056454Y-78378444D01*
X181199590Y-78484667D01*
X181287271Y-78549736D01*
X181298032Y-78558691D01*
X181508411Y-78754543D01*
X181518114Y-78764639D01*
X181705461Y-78982635D01*
X181713971Y-78993729D01*
X181772331Y-79079269D01*
X181875967Y-79231171D01*
X181883205Y-79243161D01*
X182017841Y-79497104D01*
X182023704Y-79509824D01*
X182129327Y-79777151D01*
X182133741Y-79790443D01*
X182209038Y-80067820D01*
X182211951Y-80081520D01*
X182256000Y-80365564D01*
X182257373Y-80379502D01*
X182268116Y-80631286D01*
X182266468Y-80657659D01*
X182264834Y-80667327D01*
X182265882Y-80676239D01*
X182265882Y-80676241D01*
X182269038Y-80703078D01*
X182269900Y-80717793D01*
X182269900Y-127920750D01*
X182268685Y-127938204D01*
X182266023Y-127957237D01*
X182264673Y-127966887D01*
X182265975Y-127975769D01*
X182267289Y-127984735D01*
X182268515Y-128008191D01*
X182262377Y-128157250D01*
X182257474Y-128276322D01*
X182256081Y-128290522D01*
X182214350Y-128558552D01*
X182210489Y-128583347D01*
X182207500Y-128597295D01*
X182165597Y-128750030D01*
X182129091Y-128883090D01*
X182124545Y-128896609D01*
X182018844Y-129160429D01*
X182014320Y-129171720D01*
X182008273Y-129184639D01*
X181936657Y-129317500D01*
X181867658Y-129445506D01*
X181860187Y-129457663D01*
X181690983Y-129700954D01*
X181682188Y-129712187D01*
X181560458Y-129850700D01*
X181486548Y-129934800D01*
X181476537Y-129944967D01*
X181256993Y-130144024D01*
X181245896Y-130152994D01*
X181005248Y-130325957D01*
X180993216Y-130333611D01*
X180787245Y-130448790D01*
X180734555Y-130478254D01*
X180721727Y-130484502D01*
X180448374Y-130598971D01*
X180434922Y-130603728D01*
X180150378Y-130686559D01*
X180136481Y-130689764D01*
X179844383Y-130739892D01*
X179830213Y-130741505D01*
X179569520Y-130756290D01*
X179542998Y-130754991D01*
X179542353Y-130754890D01*
X179542344Y-130754890D01*
X179533476Y-130753509D01*
X179502776Y-130757524D01*
X179486106Y-130758586D01*
X132790285Y-130631834D01*
X132771240Y-130630334D01*
X132755548Y-130627890D01*
X132755544Y-130627890D01*
X132746676Y-130626509D01*
X132737774Y-130627673D01*
X132737772Y-130627673D01*
X132733464Y-130628237D01*
X132728680Y-130628862D01*
X132705283Y-130629728D01*
X132448908Y-130615331D01*
X132434876Y-130613750D01*
X132294448Y-130589890D01*
X132154024Y-130566030D01*
X132140249Y-130562886D01*
X131866509Y-130484023D01*
X131853172Y-130479356D01*
X131589982Y-130370339D01*
X131577252Y-130364208D01*
X131327932Y-130226414D01*
X131315968Y-130218897D01*
X131083638Y-130054051D01*
X131072590Y-130045241D01*
X130860176Y-129855415D01*
X130850185Y-129845424D01*
X130727764Y-129708436D01*
X130660358Y-129633008D01*
X130651549Y-129621962D01*
X130486703Y-129389632D01*
X130479186Y-129377668D01*
X130341392Y-129128348D01*
X130335261Y-129115618D01*
X130226244Y-128852428D01*
X130221577Y-128839091D01*
X130142714Y-128565351D01*
X130139570Y-128551576D01*
X130126253Y-128473200D01*
X130541902Y-128473200D01*
X130561857Y-128701287D01*
X130621116Y-128922443D01*
X130623439Y-128927424D01*
X130623439Y-128927425D01*
X130715551Y-129124962D01*
X130715554Y-129124967D01*
X130717877Y-129129949D01*
X130849202Y-129317500D01*
X131011100Y-129479398D01*
X131015608Y-129482555D01*
X131015611Y-129482557D01*
X131093789Y-129537298D01*
X131198651Y-129610723D01*
X131203633Y-129613046D01*
X131203638Y-129613049D01*
X131392153Y-129700954D01*
X131406157Y-129707484D01*
X131411465Y-129708906D01*
X131411467Y-129708907D01*
X131621998Y-129765319D01*
X131622000Y-129765319D01*
X131627313Y-129766743D01*
X131855400Y-129786698D01*
X132083487Y-129766743D01*
X132088800Y-129765319D01*
X132088802Y-129765319D01*
X132299333Y-129708907D01*
X132299335Y-129708906D01*
X132304643Y-129707484D01*
X132318647Y-129700954D01*
X132507162Y-129613049D01*
X132507167Y-129613046D01*
X132512149Y-129610723D01*
X132617011Y-129537298D01*
X132695189Y-129482557D01*
X132695192Y-129482555D01*
X132699700Y-129479398D01*
X132861598Y-129317500D01*
X132992923Y-129129949D01*
X132995246Y-129124967D01*
X132995249Y-129124962D01*
X133011205Y-129090743D01*
X133058122Y-129037458D01*
X133126399Y-129017997D01*
X133194359Y-129038539D01*
X133239595Y-129090743D01*
X133255551Y-129124962D01*
X133255554Y-129124967D01*
X133257877Y-129129949D01*
X133389202Y-129317500D01*
X133551100Y-129479398D01*
X133555608Y-129482555D01*
X133555611Y-129482557D01*
X133633789Y-129537298D01*
X133738651Y-129610723D01*
X133743633Y-129613046D01*
X133743638Y-129613049D01*
X133932153Y-129700954D01*
X133946157Y-129707484D01*
X133951465Y-129708906D01*
X133951467Y-129708907D01*
X134161998Y-129765319D01*
X134162000Y-129765319D01*
X134167313Y-129766743D01*
X134395400Y-129786698D01*
X134623487Y-129766743D01*
X134628800Y-129765319D01*
X134628802Y-129765319D01*
X134839333Y-129708907D01*
X134839335Y-129708906D01*
X134844643Y-129707484D01*
X134858647Y-129700954D01*
X135047162Y-129613049D01*
X135047167Y-129613046D01*
X135052149Y-129610723D01*
X135157011Y-129537298D01*
X135235189Y-129482557D01*
X135235192Y-129482555D01*
X135239700Y-129479398D01*
X135401598Y-129317500D01*
X135532923Y-129129949D01*
X135535246Y-129124967D01*
X135535249Y-129124962D01*
X135551205Y-129090743D01*
X135598122Y-129037458D01*
X135666399Y-129017997D01*
X135734359Y-129038539D01*
X135779595Y-129090743D01*
X135795551Y-129124962D01*
X135795554Y-129124967D01*
X135797877Y-129129949D01*
X135929202Y-129317500D01*
X136091100Y-129479398D01*
X136095608Y-129482555D01*
X136095611Y-129482557D01*
X136173789Y-129537298D01*
X136278651Y-129610723D01*
X136283633Y-129613046D01*
X136283638Y-129613049D01*
X136472153Y-129700954D01*
X136486157Y-129707484D01*
X136491465Y-129708906D01*
X136491467Y-129708907D01*
X136701998Y-129765319D01*
X136702000Y-129765319D01*
X136707313Y-129766743D01*
X136935400Y-129786698D01*
X137163487Y-129766743D01*
X137168800Y-129765319D01*
X137168802Y-129765319D01*
X137379333Y-129708907D01*
X137379335Y-129708906D01*
X137384643Y-129707484D01*
X137398647Y-129700954D01*
X137587162Y-129613049D01*
X137587167Y-129613046D01*
X137592149Y-129610723D01*
X137697011Y-129537298D01*
X137775189Y-129482557D01*
X137775192Y-129482555D01*
X137779700Y-129479398D01*
X137941598Y-129317500D01*
X138072923Y-129129949D01*
X138075246Y-129124967D01*
X138075249Y-129124962D01*
X138091481Y-129090151D01*
X138138398Y-129036866D01*
X138206675Y-129017405D01*
X138274635Y-129037947D01*
X138319871Y-129090151D01*
X138335986Y-129124711D01*
X138341469Y-129134207D01*
X138466428Y-129312667D01*
X138473484Y-129321075D01*
X138627525Y-129475116D01*
X138635933Y-129482172D01*
X138814393Y-129607131D01*
X138823889Y-129612614D01*
X139021347Y-129704690D01*
X139031639Y-129708436D01*
X139203903Y-129754594D01*
X139217999Y-129754258D01*
X139221400Y-129746316D01*
X139221400Y-129741167D01*
X139729400Y-129741167D01*
X139733373Y-129754698D01*
X139741922Y-129755927D01*
X139919161Y-129708436D01*
X139929453Y-129704690D01*
X140126911Y-129612614D01*
X140136407Y-129607131D01*
X140314867Y-129482172D01*
X140323275Y-129475116D01*
X140477316Y-129321075D01*
X140484372Y-129312667D01*
X140609331Y-129134207D01*
X140614814Y-129124711D01*
X140630929Y-129090151D01*
X140677846Y-129036866D01*
X140746123Y-129017405D01*
X140814083Y-129037947D01*
X140859319Y-129090151D01*
X140875551Y-129124962D01*
X140875554Y-129124967D01*
X140877877Y-129129949D01*
X141009202Y-129317500D01*
X141171100Y-129479398D01*
X141175608Y-129482555D01*
X141175611Y-129482557D01*
X141253789Y-129537298D01*
X141358651Y-129610723D01*
X141363633Y-129613046D01*
X141363638Y-129613049D01*
X141552153Y-129700954D01*
X141566157Y-129707484D01*
X141571465Y-129708906D01*
X141571467Y-129708907D01*
X141781998Y-129765319D01*
X141782000Y-129765319D01*
X141787313Y-129766743D01*
X142015400Y-129786698D01*
X142243487Y-129766743D01*
X142248800Y-129765319D01*
X142248802Y-129765319D01*
X142459333Y-129708907D01*
X142459335Y-129708906D01*
X142464643Y-129707484D01*
X142478647Y-129700954D01*
X142667162Y-129613049D01*
X142667167Y-129613046D01*
X142672149Y-129610723D01*
X142777011Y-129537298D01*
X142855189Y-129482557D01*
X142855192Y-129482555D01*
X142859700Y-129479398D01*
X143021598Y-129317500D01*
X143152923Y-129129949D01*
X143155246Y-129124967D01*
X143155249Y-129124962D01*
X143171205Y-129090743D01*
X143218122Y-129037458D01*
X143286399Y-129017997D01*
X143354359Y-129038539D01*
X143399595Y-129090743D01*
X143415551Y-129124962D01*
X143415554Y-129124967D01*
X143417877Y-129129949D01*
X143549202Y-129317500D01*
X143711100Y-129479398D01*
X143715608Y-129482555D01*
X143715611Y-129482557D01*
X143793789Y-129537298D01*
X143898651Y-129610723D01*
X143903633Y-129613046D01*
X143903638Y-129613049D01*
X144092153Y-129700954D01*
X144106157Y-129707484D01*
X144111465Y-129708906D01*
X144111467Y-129708907D01*
X144321998Y-129765319D01*
X144322000Y-129765319D01*
X144327313Y-129766743D01*
X144555400Y-129786698D01*
X144783487Y-129766743D01*
X144788800Y-129765319D01*
X144788802Y-129765319D01*
X144999333Y-129708907D01*
X144999335Y-129708906D01*
X145004643Y-129707484D01*
X145018647Y-129700954D01*
X145207162Y-129613049D01*
X145207167Y-129613046D01*
X145212149Y-129610723D01*
X145317011Y-129537298D01*
X145395189Y-129482557D01*
X145395192Y-129482555D01*
X145399700Y-129479398D01*
X145561598Y-129317500D01*
X145692923Y-129129949D01*
X145695246Y-129124967D01*
X145695249Y-129124962D01*
X145711205Y-129090743D01*
X145758122Y-129037458D01*
X145826399Y-129017997D01*
X145894359Y-129038539D01*
X145939595Y-129090743D01*
X145955551Y-129124962D01*
X145955554Y-129124967D01*
X145957877Y-129129949D01*
X146089202Y-129317500D01*
X146251100Y-129479398D01*
X146255608Y-129482555D01*
X146255611Y-129482557D01*
X146333789Y-129537298D01*
X146438651Y-129610723D01*
X146443633Y-129613046D01*
X146443638Y-129613049D01*
X146632153Y-129700954D01*
X146646157Y-129707484D01*
X146651465Y-129708906D01*
X146651467Y-129708907D01*
X146861998Y-129765319D01*
X146862000Y-129765319D01*
X146867313Y-129766743D01*
X147095400Y-129786698D01*
X147323487Y-129766743D01*
X147328800Y-129765319D01*
X147328802Y-129765319D01*
X147539333Y-129708907D01*
X147539335Y-129708906D01*
X147544643Y-129707484D01*
X147558647Y-129700954D01*
X147747162Y-129613049D01*
X147747167Y-129613046D01*
X147752149Y-129610723D01*
X147857011Y-129537298D01*
X147935189Y-129482557D01*
X147935192Y-129482555D01*
X147939700Y-129479398D01*
X148101598Y-129317500D01*
X148232923Y-129129949D01*
X148235246Y-129124967D01*
X148235249Y-129124962D01*
X148251205Y-129090743D01*
X148298122Y-129037458D01*
X148366399Y-129017997D01*
X148434359Y-129038539D01*
X148479595Y-129090743D01*
X148495551Y-129124962D01*
X148495554Y-129124967D01*
X148497877Y-129129949D01*
X148629202Y-129317500D01*
X148791100Y-129479398D01*
X148795608Y-129482555D01*
X148795611Y-129482557D01*
X148873789Y-129537298D01*
X148978651Y-129610723D01*
X148983633Y-129613046D01*
X148983638Y-129613049D01*
X149172153Y-129700954D01*
X149186157Y-129707484D01*
X149191465Y-129708906D01*
X149191467Y-129708907D01*
X149401998Y-129765319D01*
X149402000Y-129765319D01*
X149407313Y-129766743D01*
X149635400Y-129786698D01*
X149863487Y-129766743D01*
X149868800Y-129765319D01*
X149868802Y-129765319D01*
X150079333Y-129708907D01*
X150079335Y-129708906D01*
X150084643Y-129707484D01*
X150098647Y-129700954D01*
X150287162Y-129613049D01*
X150287167Y-129613046D01*
X150292149Y-129610723D01*
X150397011Y-129537298D01*
X150475189Y-129482557D01*
X150475192Y-129482555D01*
X150479700Y-129479398D01*
X150641598Y-129317500D01*
X150772923Y-129129949D01*
X150775246Y-129124967D01*
X150775249Y-129124962D01*
X150791205Y-129090743D01*
X150838122Y-129037458D01*
X150906399Y-129017997D01*
X150974359Y-129038539D01*
X151019595Y-129090743D01*
X151035551Y-129124962D01*
X151035554Y-129124967D01*
X151037877Y-129129949D01*
X151169202Y-129317500D01*
X151331100Y-129479398D01*
X151335608Y-129482555D01*
X151335611Y-129482557D01*
X151413789Y-129537298D01*
X151518651Y-129610723D01*
X151523633Y-129613046D01*
X151523638Y-129613049D01*
X151712153Y-129700954D01*
X151726157Y-129707484D01*
X151731465Y-129708906D01*
X151731467Y-129708907D01*
X151941998Y-129765319D01*
X151942000Y-129765319D01*
X151947313Y-129766743D01*
X152175400Y-129786698D01*
X152403487Y-129766743D01*
X152408800Y-129765319D01*
X152408802Y-129765319D01*
X152619333Y-129708907D01*
X152619335Y-129708906D01*
X152624643Y-129707484D01*
X152638647Y-129700954D01*
X152827162Y-129613049D01*
X152827167Y-129613046D01*
X152832149Y-129610723D01*
X152937011Y-129537298D01*
X153015189Y-129482557D01*
X153015192Y-129482555D01*
X153019700Y-129479398D01*
X153181598Y-129317500D01*
X153312923Y-129129949D01*
X153315246Y-129124967D01*
X153315249Y-129124962D01*
X153331205Y-129090743D01*
X153378122Y-129037458D01*
X153446399Y-129017997D01*
X153514359Y-129038539D01*
X153559595Y-129090743D01*
X153575551Y-129124962D01*
X153575554Y-129124967D01*
X153577877Y-129129949D01*
X153709202Y-129317500D01*
X153871100Y-129479398D01*
X153875608Y-129482555D01*
X153875611Y-129482557D01*
X153953789Y-129537298D01*
X154058651Y-129610723D01*
X154063633Y-129613046D01*
X154063638Y-129613049D01*
X154252153Y-129700954D01*
X154266157Y-129707484D01*
X154271465Y-129708906D01*
X154271467Y-129708907D01*
X154481998Y-129765319D01*
X154482000Y-129765319D01*
X154487313Y-129766743D01*
X154715400Y-129786698D01*
X154943487Y-129766743D01*
X154948800Y-129765319D01*
X154948802Y-129765319D01*
X155159333Y-129708907D01*
X155159335Y-129708906D01*
X155164643Y-129707484D01*
X155178647Y-129700954D01*
X155367162Y-129613049D01*
X155367167Y-129613046D01*
X155372149Y-129610723D01*
X155477011Y-129537298D01*
X155555189Y-129482557D01*
X155555192Y-129482555D01*
X155559700Y-129479398D01*
X155721598Y-129317500D01*
X155852923Y-129129949D01*
X155855246Y-129124967D01*
X155855249Y-129124962D01*
X155942584Y-128937670D01*
X155989501Y-128884385D01*
X156057778Y-128864924D01*
X156125738Y-128885466D01*
X156143029Y-128899068D01*
X156172623Y-128926858D01*
X156175465Y-128929613D01*
X156195187Y-128949335D01*
X156198311Y-128951758D01*
X156198315Y-128951762D01*
X156198380Y-128951812D01*
X156207401Y-128959517D01*
X156239635Y-128989786D01*
X156246583Y-128993605D01*
X156246585Y-128993607D01*
X156257388Y-128999546D01*
X156273915Y-129010402D01*
X156283654Y-129017957D01*
X156283656Y-129017958D01*
X156289916Y-129022814D01*
X156330496Y-129040374D01*
X156341144Y-129045591D01*
X156372804Y-129062996D01*
X156379896Y-129066895D01*
X156387572Y-129068866D01*
X156387575Y-129068867D01*
X156399518Y-129071933D01*
X156418223Y-129078337D01*
X156436811Y-129086381D01*
X156444634Y-129087620D01*
X156444644Y-129087623D01*
X156480480Y-129093299D01*
X156492100Y-129095705D01*
X156527245Y-129104728D01*
X156534926Y-129106700D01*
X156555180Y-129106700D01*
X156574890Y-129108251D01*
X156594899Y-129111420D01*
X156602791Y-129110674D01*
X156638917Y-129107259D01*
X156650775Y-129106700D01*
X157556006Y-129106700D01*
X157624127Y-129126702D01*
X157659219Y-129160429D01*
X157769202Y-129317500D01*
X157931100Y-129479398D01*
X157935608Y-129482555D01*
X157935611Y-129482557D01*
X158013789Y-129537298D01*
X158118651Y-129610723D01*
X158123633Y-129613046D01*
X158123638Y-129613049D01*
X158312153Y-129700954D01*
X158326157Y-129707484D01*
X158331465Y-129708906D01*
X158331467Y-129708907D01*
X158541998Y-129765319D01*
X158542000Y-129765319D01*
X158547313Y-129766743D01*
X158775400Y-129786698D01*
X159003487Y-129766743D01*
X159008800Y-129765319D01*
X159008802Y-129765319D01*
X159219333Y-129708907D01*
X159219335Y-129708906D01*
X159224643Y-129707484D01*
X159238647Y-129700954D01*
X159427162Y-129613049D01*
X159427167Y-129613046D01*
X159432149Y-129610723D01*
X159537011Y-129537298D01*
X159615189Y-129482557D01*
X159615192Y-129482555D01*
X159619700Y-129479398D01*
X159781598Y-129317500D01*
X159912923Y-129129949D01*
X159915246Y-129124967D01*
X159915249Y-129124962D01*
X159931205Y-129090743D01*
X159978122Y-129037458D01*
X160046399Y-129017997D01*
X160114359Y-129038539D01*
X160159595Y-129090743D01*
X160175551Y-129124962D01*
X160175554Y-129124967D01*
X160177877Y-129129949D01*
X160309202Y-129317500D01*
X160471100Y-129479398D01*
X160475608Y-129482555D01*
X160475611Y-129482557D01*
X160553789Y-129537298D01*
X160658651Y-129610723D01*
X160663633Y-129613046D01*
X160663638Y-129613049D01*
X160852153Y-129700954D01*
X160866157Y-129707484D01*
X160871465Y-129708906D01*
X160871467Y-129708907D01*
X161081998Y-129765319D01*
X161082000Y-129765319D01*
X161087313Y-129766743D01*
X161315400Y-129786698D01*
X161543487Y-129766743D01*
X161548800Y-129765319D01*
X161548802Y-129765319D01*
X161759333Y-129708907D01*
X161759335Y-129708906D01*
X161764643Y-129707484D01*
X161778647Y-129700954D01*
X161967162Y-129613049D01*
X161967167Y-129613046D01*
X161972149Y-129610723D01*
X162077011Y-129537298D01*
X162155189Y-129482557D01*
X162155192Y-129482555D01*
X162159700Y-129479398D01*
X162321598Y-129317500D01*
X162452923Y-129129949D01*
X162455246Y-129124967D01*
X162455249Y-129124962D01*
X162471205Y-129090743D01*
X162518122Y-129037458D01*
X162586399Y-129017997D01*
X162654359Y-129038539D01*
X162699595Y-129090743D01*
X162715551Y-129124962D01*
X162715554Y-129124967D01*
X162717877Y-129129949D01*
X162849202Y-129317500D01*
X163011100Y-129479398D01*
X163015608Y-129482555D01*
X163015611Y-129482557D01*
X163093789Y-129537298D01*
X163198651Y-129610723D01*
X163203633Y-129613046D01*
X163203638Y-129613049D01*
X163392153Y-129700954D01*
X163406157Y-129707484D01*
X163411465Y-129708906D01*
X163411467Y-129708907D01*
X163621998Y-129765319D01*
X163622000Y-129765319D01*
X163627313Y-129766743D01*
X163855400Y-129786698D01*
X164083487Y-129766743D01*
X164088800Y-129765319D01*
X164088802Y-129765319D01*
X164299333Y-129708907D01*
X164299335Y-129708906D01*
X164304643Y-129707484D01*
X164318647Y-129700954D01*
X164507162Y-129613049D01*
X164507167Y-129613046D01*
X164512149Y-129610723D01*
X164617011Y-129537298D01*
X164695189Y-129482557D01*
X164695192Y-129482555D01*
X164699700Y-129479398D01*
X164861598Y-129317500D01*
X164992923Y-129129949D01*
X164995246Y-129124967D01*
X164995249Y-129124962D01*
X165011205Y-129090743D01*
X165058122Y-129037458D01*
X165126399Y-129017997D01*
X165194359Y-129038539D01*
X165239595Y-129090743D01*
X165255551Y-129124962D01*
X165255554Y-129124967D01*
X165257877Y-129129949D01*
X165389202Y-129317500D01*
X165551100Y-129479398D01*
X165555608Y-129482555D01*
X165555611Y-129482557D01*
X165633789Y-129537298D01*
X165738651Y-129610723D01*
X165743633Y-129613046D01*
X165743638Y-129613049D01*
X165932153Y-129700954D01*
X165946157Y-129707484D01*
X165951465Y-129708906D01*
X165951467Y-129708907D01*
X166161998Y-129765319D01*
X166162000Y-129765319D01*
X166167313Y-129766743D01*
X166395400Y-129786698D01*
X166623487Y-129766743D01*
X166628800Y-129765319D01*
X166628802Y-129765319D01*
X166839333Y-129708907D01*
X166839335Y-129708906D01*
X166844643Y-129707484D01*
X166858647Y-129700954D01*
X167047162Y-129613049D01*
X167047167Y-129613046D01*
X167052149Y-129610723D01*
X167157011Y-129537298D01*
X167235189Y-129482557D01*
X167235192Y-129482555D01*
X167239700Y-129479398D01*
X167401598Y-129317500D01*
X167532923Y-129129949D01*
X167535246Y-129124967D01*
X167535249Y-129124962D01*
X167551205Y-129090743D01*
X167598122Y-129037458D01*
X167666399Y-129017997D01*
X167734359Y-129038539D01*
X167779595Y-129090743D01*
X167795551Y-129124962D01*
X167795554Y-129124967D01*
X167797877Y-129129949D01*
X167929202Y-129317500D01*
X168091100Y-129479398D01*
X168095608Y-129482555D01*
X168095611Y-129482557D01*
X168173789Y-129537298D01*
X168278651Y-129610723D01*
X168283633Y-129613046D01*
X168283638Y-129613049D01*
X168472153Y-129700954D01*
X168486157Y-129707484D01*
X168491465Y-129708906D01*
X168491467Y-129708907D01*
X168701998Y-129765319D01*
X168702000Y-129765319D01*
X168707313Y-129766743D01*
X168935400Y-129786698D01*
X169163487Y-129766743D01*
X169168800Y-129765319D01*
X169168802Y-129765319D01*
X169379333Y-129708907D01*
X169379335Y-129708906D01*
X169384643Y-129707484D01*
X169398647Y-129700954D01*
X169587162Y-129613049D01*
X169587167Y-129613046D01*
X169592149Y-129610723D01*
X169697011Y-129537298D01*
X169775189Y-129482557D01*
X169775192Y-129482555D01*
X169779700Y-129479398D01*
X169941598Y-129317500D01*
X170072923Y-129129949D01*
X170075246Y-129124967D01*
X170075249Y-129124962D01*
X170091205Y-129090743D01*
X170138122Y-129037458D01*
X170206399Y-129017997D01*
X170274359Y-129038539D01*
X170319595Y-129090743D01*
X170335551Y-129124962D01*
X170335554Y-129124967D01*
X170337877Y-129129949D01*
X170469202Y-129317500D01*
X170631100Y-129479398D01*
X170635608Y-129482555D01*
X170635611Y-129482557D01*
X170713789Y-129537298D01*
X170818651Y-129610723D01*
X170823633Y-129613046D01*
X170823638Y-129613049D01*
X171012153Y-129700954D01*
X171026157Y-129707484D01*
X171031465Y-129708906D01*
X171031467Y-129708907D01*
X171241998Y-129765319D01*
X171242000Y-129765319D01*
X171247313Y-129766743D01*
X171475400Y-129786698D01*
X171703487Y-129766743D01*
X171708800Y-129765319D01*
X171708802Y-129765319D01*
X171919333Y-129708907D01*
X171919335Y-129708906D01*
X171924643Y-129707484D01*
X171938647Y-129700954D01*
X172127162Y-129613049D01*
X172127167Y-129613046D01*
X172132149Y-129610723D01*
X172237011Y-129537298D01*
X172315189Y-129482557D01*
X172315192Y-129482555D01*
X172319700Y-129479398D01*
X172481598Y-129317500D01*
X172612923Y-129129949D01*
X172615246Y-129124967D01*
X172615249Y-129124962D01*
X172631205Y-129090743D01*
X172678122Y-129037458D01*
X172746399Y-129017997D01*
X172814359Y-129038539D01*
X172859595Y-129090743D01*
X172875551Y-129124962D01*
X172875554Y-129124967D01*
X172877877Y-129129949D01*
X173009202Y-129317500D01*
X173171100Y-129479398D01*
X173175608Y-129482555D01*
X173175611Y-129482557D01*
X173253789Y-129537298D01*
X173358651Y-129610723D01*
X173363633Y-129613046D01*
X173363638Y-129613049D01*
X173552153Y-129700954D01*
X173566157Y-129707484D01*
X173571465Y-129708906D01*
X173571467Y-129708907D01*
X173781998Y-129765319D01*
X173782000Y-129765319D01*
X173787313Y-129766743D01*
X174015400Y-129786698D01*
X174243487Y-129766743D01*
X174248800Y-129765319D01*
X174248802Y-129765319D01*
X174459333Y-129708907D01*
X174459335Y-129708906D01*
X174464643Y-129707484D01*
X174478647Y-129700954D01*
X174667162Y-129613049D01*
X174667167Y-129613046D01*
X174672149Y-129610723D01*
X174777011Y-129537298D01*
X174855189Y-129482557D01*
X174855192Y-129482555D01*
X174859700Y-129479398D01*
X175021598Y-129317500D01*
X175152923Y-129129949D01*
X175155246Y-129124967D01*
X175155249Y-129124962D01*
X175171205Y-129090743D01*
X175218122Y-129037458D01*
X175286399Y-129017997D01*
X175354359Y-129038539D01*
X175399595Y-129090743D01*
X175415551Y-129124962D01*
X175415554Y-129124967D01*
X175417877Y-129129949D01*
X175549202Y-129317500D01*
X175711100Y-129479398D01*
X175715608Y-129482555D01*
X175715611Y-129482557D01*
X175793789Y-129537298D01*
X175898651Y-129610723D01*
X175903633Y-129613046D01*
X175903638Y-129613049D01*
X176092153Y-129700954D01*
X176106157Y-129707484D01*
X176111465Y-129708906D01*
X176111467Y-129708907D01*
X176321998Y-129765319D01*
X176322000Y-129765319D01*
X176327313Y-129766743D01*
X176555400Y-129786698D01*
X176783487Y-129766743D01*
X176788800Y-129765319D01*
X176788802Y-129765319D01*
X176999333Y-129708907D01*
X176999335Y-129708906D01*
X177004643Y-129707484D01*
X177018647Y-129700954D01*
X177207162Y-129613049D01*
X177207167Y-129613046D01*
X177212149Y-129610723D01*
X177317011Y-129537298D01*
X177395189Y-129482557D01*
X177395192Y-129482555D01*
X177399700Y-129479398D01*
X177561598Y-129317500D01*
X177692923Y-129129949D01*
X177695246Y-129124967D01*
X177695249Y-129124962D01*
X177787361Y-128927425D01*
X177787361Y-128927424D01*
X177789684Y-128922443D01*
X177848943Y-128701287D01*
X177868898Y-128473200D01*
X177848943Y-128245113D01*
X177789684Y-128023957D01*
X177768442Y-127978403D01*
X177695249Y-127821438D01*
X177695246Y-127821433D01*
X177692923Y-127816451D01*
X177561598Y-127628900D01*
X177399700Y-127467002D01*
X177395192Y-127463845D01*
X177395189Y-127463843D01*
X177317011Y-127409102D01*
X177212149Y-127335677D01*
X177207167Y-127333354D01*
X177207162Y-127333351D01*
X177009625Y-127241239D01*
X177009624Y-127241239D01*
X177004643Y-127238916D01*
X176999335Y-127237494D01*
X176999333Y-127237493D01*
X176788802Y-127181081D01*
X176788800Y-127181081D01*
X176783487Y-127179657D01*
X176555400Y-127159702D01*
X176327313Y-127179657D01*
X176322000Y-127181081D01*
X176321998Y-127181081D01*
X176111467Y-127237493D01*
X176111465Y-127237494D01*
X176106157Y-127238916D01*
X176101176Y-127241239D01*
X176101175Y-127241239D01*
X175903638Y-127333351D01*
X175903633Y-127333354D01*
X175898651Y-127335677D01*
X175793789Y-127409102D01*
X175715611Y-127463843D01*
X175715608Y-127463845D01*
X175711100Y-127467002D01*
X175549202Y-127628900D01*
X175417877Y-127816451D01*
X175415554Y-127821433D01*
X175415551Y-127821438D01*
X175399595Y-127855657D01*
X175352678Y-127908942D01*
X175284401Y-127928403D01*
X175216441Y-127907861D01*
X175171205Y-127855657D01*
X175155249Y-127821438D01*
X175155246Y-127821433D01*
X175152923Y-127816451D01*
X175021598Y-127628900D01*
X174859700Y-127467002D01*
X174855192Y-127463845D01*
X174855189Y-127463843D01*
X174777011Y-127409102D01*
X174672149Y-127335677D01*
X174667167Y-127333354D01*
X174667162Y-127333351D01*
X174469625Y-127241239D01*
X174469624Y-127241239D01*
X174464643Y-127238916D01*
X174459335Y-127237494D01*
X174459333Y-127237493D01*
X174248802Y-127181081D01*
X174248800Y-127181081D01*
X174243487Y-127179657D01*
X174015400Y-127159702D01*
X173787313Y-127179657D01*
X173782000Y-127181081D01*
X173781998Y-127181081D01*
X173571467Y-127237493D01*
X173571465Y-127237494D01*
X173566157Y-127238916D01*
X173561176Y-127241239D01*
X173561175Y-127241239D01*
X173363638Y-127333351D01*
X173363633Y-127333354D01*
X173358651Y-127335677D01*
X173253789Y-127409102D01*
X173175611Y-127463843D01*
X173175608Y-127463845D01*
X173171100Y-127467002D01*
X173009202Y-127628900D01*
X172877877Y-127816451D01*
X172875554Y-127821433D01*
X172875551Y-127821438D01*
X172859595Y-127855657D01*
X172812678Y-127908942D01*
X172744401Y-127928403D01*
X172676441Y-127907861D01*
X172631205Y-127855657D01*
X172615249Y-127821438D01*
X172615246Y-127821433D01*
X172612923Y-127816451D01*
X172481598Y-127628900D01*
X172319700Y-127467002D01*
X172315192Y-127463845D01*
X172315189Y-127463843D01*
X172237011Y-127409102D01*
X172132149Y-127335677D01*
X172127167Y-127333354D01*
X172127162Y-127333351D01*
X171929625Y-127241239D01*
X171929624Y-127241239D01*
X171924643Y-127238916D01*
X171919335Y-127237494D01*
X171919333Y-127237493D01*
X171708802Y-127181081D01*
X171708800Y-127181081D01*
X171703487Y-127179657D01*
X171475400Y-127159702D01*
X171247313Y-127179657D01*
X171242000Y-127181081D01*
X171241998Y-127181081D01*
X171031467Y-127237493D01*
X171031465Y-127237494D01*
X171026157Y-127238916D01*
X171021176Y-127241239D01*
X171021175Y-127241239D01*
X170823638Y-127333351D01*
X170823633Y-127333354D01*
X170818651Y-127335677D01*
X170713789Y-127409102D01*
X170635611Y-127463843D01*
X170635608Y-127463845D01*
X170631100Y-127467002D01*
X170469202Y-127628900D01*
X170337877Y-127816451D01*
X170335554Y-127821433D01*
X170335551Y-127821438D01*
X170319595Y-127855657D01*
X170272678Y-127908942D01*
X170204401Y-127928403D01*
X170136441Y-127907861D01*
X170091205Y-127855657D01*
X170075249Y-127821438D01*
X170075246Y-127821433D01*
X170072923Y-127816451D01*
X169941598Y-127628900D01*
X169779700Y-127467002D01*
X169775192Y-127463845D01*
X169775189Y-127463843D01*
X169697011Y-127409102D01*
X169592149Y-127335677D01*
X169587167Y-127333354D01*
X169587162Y-127333351D01*
X169389625Y-127241239D01*
X169389624Y-127241239D01*
X169384643Y-127238916D01*
X169379335Y-127237494D01*
X169379333Y-127237493D01*
X169168802Y-127181081D01*
X169168800Y-127181081D01*
X169163487Y-127179657D01*
X168935400Y-127159702D01*
X168707313Y-127179657D01*
X168702000Y-127181081D01*
X168701998Y-127181081D01*
X168491467Y-127237493D01*
X168491465Y-127237494D01*
X168486157Y-127238916D01*
X168481176Y-127241239D01*
X168481175Y-127241239D01*
X168283638Y-127333351D01*
X168283633Y-127333354D01*
X168278651Y-127335677D01*
X168173789Y-127409102D01*
X168095611Y-127463843D01*
X168095608Y-127463845D01*
X168091100Y-127467002D01*
X167929202Y-127628900D01*
X167797877Y-127816451D01*
X167795554Y-127821433D01*
X167795551Y-127821438D01*
X167779595Y-127855657D01*
X167732678Y-127908942D01*
X167664401Y-127928403D01*
X167596441Y-127907861D01*
X167551205Y-127855657D01*
X167535249Y-127821438D01*
X167535246Y-127821433D01*
X167532923Y-127816451D01*
X167401598Y-127628900D01*
X167239700Y-127467002D01*
X167235192Y-127463845D01*
X167235189Y-127463843D01*
X167157011Y-127409102D01*
X167052149Y-127335677D01*
X167047167Y-127333354D01*
X167047162Y-127333351D01*
X166849625Y-127241239D01*
X166849624Y-127241239D01*
X166844643Y-127238916D01*
X166839335Y-127237494D01*
X166839333Y-127237493D01*
X166628802Y-127181081D01*
X166628800Y-127181081D01*
X166623487Y-127179657D01*
X166395400Y-127159702D01*
X166389925Y-127160181D01*
X166389914Y-127160181D01*
X166377970Y-127161226D01*
X166308365Y-127147238D01*
X166257373Y-127097839D01*
X166241182Y-127028713D01*
X166264934Y-126961807D01*
X166277893Y-126946611D01*
X168967704Y-124256800D01*
X170695302Y-124256800D01*
X170715257Y-124484887D01*
X170716681Y-124490200D01*
X170716681Y-124490202D01*
X170771160Y-124693517D01*
X170774516Y-124706043D01*
X170776839Y-124711024D01*
X170776839Y-124711025D01*
X170868951Y-124908562D01*
X170868954Y-124908567D01*
X170871277Y-124913549D01*
X170910112Y-124969011D01*
X170997651Y-125094029D01*
X171002602Y-125101100D01*
X171164500Y-125262998D01*
X171169008Y-125266155D01*
X171169011Y-125266157D01*
X171247189Y-125320898D01*
X171352051Y-125394323D01*
X171357033Y-125396646D01*
X171357038Y-125396649D01*
X171553565Y-125488290D01*
X171559557Y-125491084D01*
X171564865Y-125492506D01*
X171564867Y-125492507D01*
X171775398Y-125548919D01*
X171775400Y-125548919D01*
X171780713Y-125550343D01*
X172008800Y-125570298D01*
X172236887Y-125550343D01*
X172242200Y-125548919D01*
X172242202Y-125548919D01*
X172452733Y-125492507D01*
X172452735Y-125492506D01*
X172458043Y-125491084D01*
X172464035Y-125488290D01*
X172660562Y-125396649D01*
X172660567Y-125396646D01*
X172665549Y-125394323D01*
X172770411Y-125320898D01*
X172848589Y-125266157D01*
X172848592Y-125266155D01*
X172853100Y-125262998D01*
X173014998Y-125101100D01*
X173019950Y-125094029D01*
X173107488Y-124969011D01*
X173146323Y-124913549D01*
X173148646Y-124908567D01*
X173148649Y-124908562D01*
X173240761Y-124711025D01*
X173240761Y-124711024D01*
X173243084Y-124706043D01*
X173245525Y-124696934D01*
X173699100Y-124696934D01*
X173705855Y-124759116D01*
X173756985Y-124895505D01*
X173844339Y-125012061D01*
X173960895Y-125099415D01*
X174097284Y-125150545D01*
X174159466Y-125157300D01*
X176055734Y-125157300D01*
X176117916Y-125150545D01*
X176254305Y-125099415D01*
X176370861Y-125012061D01*
X176458215Y-124895505D01*
X176482780Y-124829978D01*
X176525422Y-124773214D01*
X176591983Y-124748514D01*
X176661332Y-124763721D01*
X176681247Y-124777264D01*
X176746324Y-124831292D01*
X176836949Y-124906530D01*
X177036922Y-125023384D01*
X177253294Y-125106009D01*
X177258360Y-125107040D01*
X177258361Y-125107040D01*
X177311446Y-125117840D01*
X177480256Y-125152185D01*
X177609689Y-125156931D01*
X177706549Y-125160483D01*
X177706553Y-125160483D01*
X177711713Y-125160672D01*
X177716833Y-125160016D01*
X177716835Y-125160016D01*
X177790766Y-125150545D01*
X177941447Y-125131242D01*
X177946395Y-125129757D01*
X177946402Y-125129756D01*
X178158347Y-125066169D01*
X178163290Y-125064686D01*
X178243836Y-125025227D01*
X178366649Y-124965062D01*
X178366652Y-124965060D01*
X178371284Y-124962791D01*
X178559843Y-124828294D01*
X178723903Y-124664805D01*
X178859058Y-124476717D01*
X178961678Y-124269080D01*
X179029008Y-124047471D01*
X179059240Y-123817841D01*
X179060927Y-123748800D01*
X179044069Y-123543752D01*
X179042373Y-123523118D01*
X179042372Y-123523112D01*
X179041949Y-123517967D01*
X178985525Y-123293333D01*
X178983466Y-123288597D01*
X178895230Y-123085668D01*
X178895228Y-123085665D01*
X178893170Y-123080931D01*
X178767364Y-122886465D01*
X178611487Y-122715158D01*
X178607436Y-122711959D01*
X178607432Y-122711955D01*
X178433777Y-122574811D01*
X178433772Y-122574808D01*
X178429723Y-122571610D01*
X178425207Y-122569117D01*
X178425204Y-122569115D01*
X178231479Y-122462173D01*
X178231475Y-122462171D01*
X178226955Y-122459676D01*
X178222086Y-122457952D01*
X178222082Y-122457950D01*
X178013503Y-122384088D01*
X178013499Y-122384087D01*
X178008628Y-122382362D01*
X178003535Y-122381455D01*
X178003532Y-122381454D01*
X177785695Y-122342651D01*
X177785689Y-122342650D01*
X177780606Y-122341745D01*
X177707696Y-122340854D01*
X177554181Y-122338979D01*
X177554179Y-122338979D01*
X177549011Y-122338916D01*
X177320064Y-122373950D01*
X177099914Y-122445906D01*
X177095326Y-122448294D01*
X177095322Y-122448296D01*
X176913100Y-122543155D01*
X176894472Y-122552852D01*
X176890339Y-122555955D01*
X176890336Y-122555957D01*
X176741919Y-122667392D01*
X176709255Y-122691917D01*
X176691770Y-122710214D01*
X176630246Y-122745644D01*
X176559333Y-122742187D01*
X176501547Y-122700941D01*
X176482694Y-122667392D01*
X176461368Y-122610505D01*
X176461367Y-122610503D01*
X176458215Y-122602095D01*
X176370861Y-122485539D01*
X176254305Y-122398185D01*
X176117916Y-122347055D01*
X176055734Y-122340300D01*
X174159466Y-122340300D01*
X174097284Y-122347055D01*
X173960895Y-122398185D01*
X173844339Y-122485539D01*
X173756985Y-122602095D01*
X173705855Y-122738484D01*
X173699100Y-122800666D01*
X173699100Y-124696934D01*
X173245525Y-124696934D01*
X173246441Y-124693517D01*
X173300919Y-124490202D01*
X173300919Y-124490200D01*
X173302343Y-124484887D01*
X173322298Y-124256800D01*
X173302343Y-124028713D01*
X173265781Y-123892261D01*
X173244507Y-123812867D01*
X173244506Y-123812865D01*
X173243084Y-123807557D01*
X173240761Y-123802575D01*
X173148649Y-123605038D01*
X173148646Y-123605033D01*
X173146323Y-123600051D01*
X173014998Y-123412500D01*
X172853100Y-123250602D01*
X172848592Y-123247445D01*
X172848589Y-123247443D01*
X172722720Y-123159309D01*
X172665549Y-123119277D01*
X172660567Y-123116954D01*
X172660562Y-123116951D01*
X172463025Y-123024839D01*
X172463024Y-123024839D01*
X172458043Y-123022516D01*
X172452735Y-123021094D01*
X172452733Y-123021093D01*
X172242202Y-122964681D01*
X172242200Y-122964681D01*
X172236887Y-122963257D01*
X172008800Y-122943302D01*
X171780713Y-122963257D01*
X171775400Y-122964681D01*
X171775398Y-122964681D01*
X171564867Y-123021093D01*
X171564865Y-123021094D01*
X171559557Y-123022516D01*
X171554576Y-123024839D01*
X171554575Y-123024839D01*
X171357038Y-123116951D01*
X171357033Y-123116954D01*
X171352051Y-123119277D01*
X171294880Y-123159309D01*
X171169011Y-123247443D01*
X171169008Y-123247445D01*
X171164500Y-123250602D01*
X171002602Y-123412500D01*
X170871277Y-123600051D01*
X170868954Y-123605033D01*
X170868951Y-123605038D01*
X170776839Y-123802575D01*
X170774516Y-123807557D01*
X170773094Y-123812865D01*
X170773093Y-123812867D01*
X170751819Y-123892261D01*
X170715257Y-124028713D01*
X170695302Y-124256800D01*
X168967704Y-124256800D01*
X174991847Y-118232657D01*
X175000137Y-118225113D01*
X175006618Y-118221000D01*
X175053259Y-118171332D01*
X175056013Y-118168491D01*
X175075734Y-118148770D01*
X175078212Y-118145575D01*
X175085918Y-118136553D01*
X175110758Y-118110101D01*
X175116186Y-118104321D01*
X175122763Y-118092358D01*
X175125946Y-118086568D01*
X175136799Y-118070045D01*
X175144353Y-118060306D01*
X175149213Y-118054041D01*
X175166776Y-118013457D01*
X175171983Y-118002827D01*
X175193295Y-117964060D01*
X175195266Y-117956383D01*
X175195268Y-117956378D01*
X175198332Y-117944442D01*
X175204738Y-117925730D01*
X175206696Y-117921207D01*
X175212781Y-117907145D01*
X175214396Y-117896953D01*
X175219697Y-117863481D01*
X175222104Y-117851860D01*
X175231128Y-117816711D01*
X175231128Y-117816710D01*
X175233100Y-117809030D01*
X175233100Y-117788769D01*
X175234651Y-117769058D01*
X175236579Y-117756885D01*
X175237819Y-117749057D01*
X175233659Y-117705046D01*
X175233100Y-117693189D01*
X175233100Y-105308400D01*
X178772502Y-105308400D01*
X178792457Y-105536487D01*
X178793881Y-105541800D01*
X178793881Y-105541802D01*
X178831025Y-105680422D01*
X178851716Y-105757643D01*
X178854039Y-105762624D01*
X178854039Y-105762625D01*
X178946151Y-105960162D01*
X178946154Y-105960167D01*
X178948477Y-105965149D01*
X179079802Y-106152700D01*
X179241700Y-106314598D01*
X179246208Y-106317755D01*
X179246211Y-106317757D01*
X179324389Y-106372498D01*
X179429251Y-106445923D01*
X179434233Y-106448246D01*
X179434238Y-106448249D01*
X179630765Y-106539890D01*
X179636757Y-106542684D01*
X179642065Y-106544106D01*
X179642067Y-106544107D01*
X179852598Y-106600519D01*
X179852600Y-106600519D01*
X179857913Y-106601943D01*
X180086000Y-106621898D01*
X180314087Y-106601943D01*
X180319400Y-106600519D01*
X180319402Y-106600519D01*
X180529933Y-106544107D01*
X180529935Y-106544106D01*
X180535243Y-106542684D01*
X180541235Y-106539890D01*
X180737762Y-106448249D01*
X180737767Y-106448246D01*
X180742749Y-106445923D01*
X180847611Y-106372498D01*
X180925789Y-106317757D01*
X180925792Y-106317755D01*
X180930300Y-106314598D01*
X181092198Y-106152700D01*
X181223523Y-105965149D01*
X181225846Y-105960167D01*
X181225849Y-105960162D01*
X181317961Y-105762625D01*
X181317961Y-105762624D01*
X181320284Y-105757643D01*
X181340976Y-105680422D01*
X181378119Y-105541802D01*
X181378119Y-105541800D01*
X181379543Y-105536487D01*
X181399498Y-105308400D01*
X181379543Y-105080313D01*
X181342981Y-104943861D01*
X181321707Y-104864467D01*
X181321706Y-104864465D01*
X181320284Y-104859157D01*
X181317961Y-104854175D01*
X181225849Y-104656638D01*
X181225846Y-104656633D01*
X181223523Y-104651651D01*
X181113993Y-104495226D01*
X181095357Y-104468611D01*
X181095355Y-104468608D01*
X181092198Y-104464100D01*
X180930300Y-104302202D01*
X180925792Y-104299045D01*
X180925789Y-104299043D01*
X180799920Y-104210909D01*
X180742749Y-104170877D01*
X180737767Y-104168554D01*
X180737762Y-104168551D01*
X180540225Y-104076439D01*
X180540224Y-104076439D01*
X180535243Y-104074116D01*
X180529935Y-104072694D01*
X180529933Y-104072693D01*
X180319402Y-104016281D01*
X180319400Y-104016281D01*
X180314087Y-104014857D01*
X180086000Y-103994902D01*
X179857913Y-104014857D01*
X179852600Y-104016281D01*
X179852598Y-104016281D01*
X179642067Y-104072693D01*
X179642065Y-104072694D01*
X179636757Y-104074116D01*
X179631776Y-104076439D01*
X179631775Y-104076439D01*
X179434238Y-104168551D01*
X179434233Y-104168554D01*
X179429251Y-104170877D01*
X179372080Y-104210909D01*
X179246211Y-104299043D01*
X179246208Y-104299045D01*
X179241700Y-104302202D01*
X179079802Y-104464100D01*
X179076645Y-104468608D01*
X179076643Y-104468611D01*
X179058007Y-104495226D01*
X178948477Y-104651651D01*
X178946154Y-104656633D01*
X178946151Y-104656638D01*
X178854039Y-104854175D01*
X178851716Y-104859157D01*
X178850294Y-104864465D01*
X178850293Y-104864467D01*
X178829019Y-104943861D01*
X178792457Y-105080313D01*
X178772502Y-105308400D01*
X175233100Y-105308400D01*
X175233100Y-100395594D01*
X175253102Y-100327473D01*
X175270005Y-100306499D01*
X175579948Y-99996556D01*
X175642260Y-99962530D01*
X175694163Y-99962180D01*
X175800214Y-99983756D01*
X175910456Y-100006185D01*
X176039889Y-100010931D01*
X176136749Y-100014483D01*
X176136753Y-100014483D01*
X176141913Y-100014672D01*
X176147033Y-100014016D01*
X176147035Y-100014016D01*
X176220966Y-100004545D01*
X176371647Y-99985242D01*
X176376595Y-99983757D01*
X176376602Y-99983756D01*
X176588547Y-99920169D01*
X176593490Y-99918686D01*
X176609816Y-99910688D01*
X176796849Y-99819062D01*
X176796852Y-99819060D01*
X176801484Y-99816791D01*
X176990043Y-99682294D01*
X177030987Y-99641493D01*
X177035109Y-99637385D01*
X177097481Y-99603469D01*
X177168287Y-99608657D01*
X177225049Y-99651303D01*
X177242031Y-99682407D01*
X177260667Y-99732117D01*
X177267185Y-99749505D01*
X177354539Y-99866061D01*
X177471095Y-99953415D01*
X177607484Y-100004545D01*
X177669666Y-100011300D01*
X179565934Y-100011300D01*
X179628116Y-100004545D01*
X179764505Y-99953415D01*
X179881061Y-99866061D01*
X179968415Y-99749505D01*
X180019545Y-99613116D01*
X180026300Y-99550934D01*
X180026300Y-97654666D01*
X180019545Y-97592484D01*
X179968415Y-97456095D01*
X179881061Y-97339539D01*
X179764505Y-97252185D01*
X179628116Y-97201055D01*
X179565934Y-97194300D01*
X177669666Y-97194300D01*
X177607484Y-97201055D01*
X177471095Y-97252185D01*
X177354539Y-97339539D01*
X177267185Y-97456095D01*
X177264033Y-97464503D01*
X177264032Y-97464505D01*
X177243338Y-97519706D01*
X177200697Y-97576471D01*
X177134135Y-97601171D01*
X177064786Y-97585964D01*
X177041967Y-97569466D01*
X177041687Y-97569158D01*
X176909173Y-97464505D01*
X176863977Y-97428811D01*
X176863972Y-97428808D01*
X176859923Y-97425610D01*
X176855407Y-97423117D01*
X176855404Y-97423115D01*
X176661679Y-97316173D01*
X176661675Y-97316171D01*
X176657155Y-97313676D01*
X176652286Y-97311952D01*
X176652282Y-97311950D01*
X176443703Y-97238088D01*
X176443699Y-97238087D01*
X176438828Y-97236362D01*
X176433735Y-97235455D01*
X176433732Y-97235454D01*
X176215895Y-97196651D01*
X176215889Y-97196650D01*
X176210806Y-97195745D01*
X176137896Y-97194854D01*
X175984381Y-97192979D01*
X175984379Y-97192979D01*
X175979211Y-97192916D01*
X175750264Y-97227950D01*
X175709685Y-97241213D01*
X175638722Y-97243363D01*
X175581447Y-97210542D01*
X172851205Y-94480300D01*
X172817179Y-94417988D01*
X172814300Y-94391205D01*
X172814300Y-93345027D01*
X172834302Y-93276906D01*
X172875418Y-93237150D01*
X172878794Y-93235496D01*
X173060660Y-93105773D01*
X173218896Y-92948089D01*
X173232691Y-92928892D01*
X173346235Y-92770877D01*
X173349253Y-92766677D01*
X173356667Y-92751677D01*
X173445936Y-92571053D01*
X173445937Y-92571051D01*
X173448230Y-92566411D01*
X173513170Y-92352669D01*
X173542329Y-92131190D01*
X173542411Y-92127840D01*
X173543874Y-92067965D01*
X173543874Y-92067961D01*
X173543956Y-92064600D01*
X173525652Y-91841961D01*
X173471231Y-91625302D01*
X173382154Y-91420440D01*
X173298480Y-91291100D01*
X173263622Y-91237217D01*
X173263620Y-91237214D01*
X173260814Y-91232877D01*
X173110470Y-91067651D01*
X173106419Y-91064452D01*
X173106415Y-91064448D01*
X172939214Y-90932400D01*
X172939210Y-90932398D01*
X172935159Y-90929198D01*
X172893853Y-90906396D01*
X172843884Y-90855964D01*
X172829112Y-90786521D01*
X172854228Y-90720116D01*
X172881580Y-90693509D01*
X172925403Y-90662250D01*
X173060660Y-90565773D01*
X173218896Y-90408089D01*
X173232691Y-90388892D01*
X173346235Y-90230877D01*
X173349253Y-90226677D01*
X173354237Y-90216594D01*
X173445936Y-90031053D01*
X173445937Y-90031051D01*
X173448230Y-90026411D01*
X173513170Y-89812669D01*
X173542329Y-89591190D01*
X173542411Y-89587840D01*
X173543874Y-89527965D01*
X173543874Y-89527961D01*
X173543956Y-89524600D01*
X173525652Y-89301961D01*
X173471231Y-89085302D01*
X173382154Y-88880440D01*
X173334420Y-88806654D01*
X173263622Y-88697217D01*
X173263620Y-88697214D01*
X173260814Y-88692877D01*
X173257340Y-88689059D01*
X173257333Y-88689050D01*
X173113235Y-88530688D01*
X173082183Y-88466842D01*
X173090579Y-88396344D01*
X173135756Y-88341576D01*
X173162200Y-88327907D01*
X173268852Y-88287925D01*
X173284449Y-88279386D01*
X173386524Y-88202885D01*
X173399085Y-88190324D01*
X173475586Y-88088249D01*
X173484124Y-88072654D01*
X173529278Y-87952206D01*
X173532905Y-87936951D01*
X173538431Y-87886086D01*
X173538800Y-87879272D01*
X173538800Y-87256715D01*
X173534325Y-87241476D01*
X173532935Y-87240271D01*
X173525252Y-87238600D01*
X170840916Y-87238600D01*
X170825677Y-87243075D01*
X170824472Y-87244465D01*
X170822801Y-87252148D01*
X170822801Y-87879269D01*
X170823171Y-87886090D01*
X170828695Y-87936952D01*
X170832321Y-87952204D01*
X170877476Y-88072654D01*
X170886014Y-88088249D01*
X170962515Y-88190324D01*
X170975076Y-88202885D01*
X171077151Y-88279386D01*
X171092746Y-88287924D01*
X171201627Y-88328742D01*
X171258391Y-88371384D01*
X171283091Y-88437945D01*
X171267883Y-88507294D01*
X171248491Y-88533775D01*
X171131680Y-88656011D01*
X171121429Y-88666738D01*
X170995543Y-88851280D01*
X170979803Y-88885190D01*
X170906134Y-89043897D01*
X170901488Y-89053905D01*
X170841789Y-89269170D01*
X170818051Y-89491295D01*
X170818348Y-89496448D01*
X170818348Y-89496451D01*
X170823811Y-89591190D01*
X170830910Y-89714315D01*
X170832047Y-89719361D01*
X170832048Y-89719367D01*
X170848539Y-89792539D01*
X170880022Y-89932239D01*
X170964066Y-90139216D01*
X170966765Y-90143620D01*
X171068899Y-90310288D01*
X171080787Y-90329688D01*
X171227050Y-90498538D01*
X171398926Y-90641232D01*
X171460978Y-90677492D01*
X171472245Y-90684076D01*
X171520969Y-90735714D01*
X171534040Y-90805497D01*
X171507309Y-90871269D01*
X171466855Y-90904627D01*
X171454407Y-90911107D01*
X171450274Y-90914210D01*
X171450271Y-90914212D01*
X171279900Y-91042130D01*
X171275765Y-91045235D01*
X171210146Y-91113901D01*
X171131688Y-91196003D01*
X171121429Y-91206738D01*
X171118515Y-91211010D01*
X171118514Y-91211011D01*
X171060484Y-91296080D01*
X170995543Y-91391280D01*
X170901488Y-91593905D01*
X170841789Y-91809170D01*
X170818051Y-92031295D01*
X170818348Y-92036448D01*
X170818348Y-92036451D01*
X170823811Y-92131190D01*
X170830910Y-92254315D01*
X170832047Y-92259361D01*
X170832048Y-92259367D01*
X170842265Y-92304701D01*
X170880022Y-92472239D01*
X170964066Y-92679216D01*
X170966765Y-92683620D01*
X171071906Y-92855195D01*
X171080787Y-92869688D01*
X171227050Y-93038538D01*
X171398926Y-93181232D01*
X171403393Y-93183842D01*
X171484870Y-93231453D01*
X171533594Y-93283091D01*
X171547300Y-93340241D01*
X171547300Y-94627033D01*
X171546773Y-94638216D01*
X171545098Y-94645709D01*
X171545347Y-94653635D01*
X171545347Y-94653636D01*
X171547238Y-94713786D01*
X171547300Y-94717745D01*
X171547300Y-94745656D01*
X171547797Y-94749590D01*
X171547797Y-94749591D01*
X171547805Y-94749656D01*
X171548738Y-94761493D01*
X171550127Y-94805689D01*
X171555778Y-94825139D01*
X171559787Y-94844500D01*
X171562326Y-94864597D01*
X171565245Y-94871968D01*
X171565245Y-94871970D01*
X171578604Y-94905712D01*
X171582449Y-94916942D01*
X171594782Y-94959393D01*
X171598815Y-94966212D01*
X171598817Y-94966217D01*
X171605093Y-94976828D01*
X171613788Y-94994576D01*
X171621248Y-95013417D01*
X171625910Y-95019833D01*
X171625910Y-95019834D01*
X171647236Y-95049187D01*
X171653752Y-95059107D01*
X171676258Y-95097162D01*
X171690579Y-95111483D01*
X171703419Y-95126516D01*
X171715328Y-95142907D01*
X171721434Y-95147958D01*
X171749405Y-95171098D01*
X171758184Y-95179088D01*
X174686954Y-98107858D01*
X174720980Y-98170170D01*
X174719276Y-98230625D01*
X174689507Y-98337969D01*
X174664895Y-98568269D01*
X174678227Y-98799497D01*
X174679364Y-98804543D01*
X174679365Y-98804549D01*
X174719423Y-98982298D01*
X174714887Y-99053150D01*
X174685601Y-99099094D01*
X174207347Y-99577348D01*
X174199061Y-99584888D01*
X174192582Y-99589000D01*
X174187157Y-99594777D01*
X174145957Y-99638651D01*
X174143202Y-99641493D01*
X174123465Y-99661230D01*
X174120985Y-99664427D01*
X174113282Y-99673447D01*
X174083014Y-99705679D01*
X174079195Y-99712625D01*
X174079193Y-99712628D01*
X174073252Y-99723434D01*
X174062401Y-99739953D01*
X174049986Y-99755959D01*
X174046841Y-99763228D01*
X174046838Y-99763232D01*
X174032426Y-99796537D01*
X174027209Y-99807187D01*
X174005905Y-99845940D01*
X174003934Y-99853615D01*
X174003934Y-99853616D01*
X174000867Y-99865562D01*
X173994463Y-99884266D01*
X173986419Y-99902855D01*
X173985180Y-99910678D01*
X173985177Y-99910688D01*
X173979501Y-99946524D01*
X173977095Y-99958144D01*
X173970138Y-99985242D01*
X173966100Y-100000970D01*
X173966100Y-100021224D01*
X173964549Y-100040934D01*
X173961380Y-100060943D01*
X173962126Y-100068835D01*
X173965541Y-100104961D01*
X173966100Y-100116819D01*
X173966100Y-117414405D01*
X173946098Y-117482526D01*
X173929195Y-117503500D01*
X173807735Y-117624960D01*
X173745423Y-117658986D01*
X173674608Y-117653921D01*
X173617772Y-117611374D01*
X173592961Y-117544854D01*
X173593014Y-117527860D01*
X173593129Y-117526990D01*
X173593824Y-117498556D01*
X173594674Y-117463765D01*
X173594674Y-117463761D01*
X173594756Y-117460400D01*
X173576452Y-117237761D01*
X173522031Y-117021102D01*
X173432954Y-116816240D01*
X173388853Y-116748071D01*
X173314422Y-116633017D01*
X173314420Y-116633014D01*
X173311614Y-116628677D01*
X173161270Y-116463451D01*
X173157219Y-116460252D01*
X173157215Y-116460248D01*
X172990014Y-116328200D01*
X172990010Y-116328198D01*
X172985959Y-116324998D01*
X172944653Y-116302196D01*
X172894684Y-116251764D01*
X172879912Y-116182321D01*
X172905028Y-116115916D01*
X172932380Y-116089309D01*
X173001563Y-116039961D01*
X173111460Y-115961573D01*
X173269696Y-115803889D01*
X173297189Y-115765629D01*
X173397035Y-115626677D01*
X173400053Y-115622477D01*
X173403194Y-115616123D01*
X173496736Y-115426853D01*
X173496737Y-115426851D01*
X173499030Y-115422211D01*
X173531500Y-115315340D01*
X173562465Y-115213423D01*
X173562465Y-115213421D01*
X173563970Y-115208469D01*
X173593129Y-114986990D01*
X173594756Y-114920400D01*
X173576452Y-114697761D01*
X173522031Y-114481102D01*
X173432954Y-114276240D01*
X173311614Y-114088677D01*
X173161270Y-113923451D01*
X173157219Y-113920252D01*
X173157215Y-113920248D01*
X172990014Y-113788200D01*
X172990010Y-113788198D01*
X172985959Y-113784998D01*
X172944653Y-113762196D01*
X172894684Y-113711764D01*
X172879912Y-113642321D01*
X172905028Y-113575916D01*
X172932380Y-113549309D01*
X172981912Y-113513978D01*
X173111460Y-113421573D01*
X173142233Y-113390908D01*
X173261613Y-113271944D01*
X173269696Y-113263889D01*
X173284885Y-113242752D01*
X173397035Y-113086677D01*
X173400053Y-113082477D01*
X173404211Y-113074065D01*
X173496736Y-112886853D01*
X173496737Y-112886851D01*
X173499030Y-112882211D01*
X173563970Y-112668469D01*
X173593129Y-112446990D01*
X173594756Y-112380400D01*
X173576452Y-112157761D01*
X173522031Y-111941102D01*
X173432954Y-111736240D01*
X173311614Y-111548677D01*
X173308140Y-111544859D01*
X173308133Y-111544850D01*
X173164035Y-111386488D01*
X173132983Y-111322642D01*
X173141379Y-111252144D01*
X173186556Y-111197376D01*
X173213000Y-111183707D01*
X173319652Y-111143725D01*
X173335249Y-111135186D01*
X173437324Y-111058685D01*
X173449885Y-111046124D01*
X173526386Y-110944049D01*
X173534924Y-110928454D01*
X173580078Y-110808006D01*
X173583705Y-110792751D01*
X173589231Y-110741886D01*
X173589600Y-110735072D01*
X173589600Y-110112515D01*
X173585125Y-110097276D01*
X173583735Y-110096071D01*
X173576052Y-110094400D01*
X170891716Y-110094400D01*
X170876477Y-110098875D01*
X170875272Y-110100265D01*
X170873601Y-110107948D01*
X170873601Y-110735069D01*
X170873971Y-110741890D01*
X170879495Y-110792752D01*
X170883121Y-110808004D01*
X170928276Y-110928454D01*
X170936814Y-110944049D01*
X171013315Y-111046124D01*
X171025876Y-111058685D01*
X171127951Y-111135186D01*
X171143546Y-111143724D01*
X171252427Y-111184542D01*
X171309191Y-111227184D01*
X171333891Y-111293745D01*
X171318683Y-111363094D01*
X171299291Y-111389575D01*
X171175800Y-111518801D01*
X171172229Y-111522538D01*
X171169315Y-111526810D01*
X171169314Y-111526811D01*
X171056695Y-111691904D01*
X171001784Y-111736907D01*
X170952607Y-111746900D01*
X170705167Y-111746900D01*
X170693984Y-111746373D01*
X170686491Y-111744698D01*
X170678565Y-111744947D01*
X170678564Y-111744947D01*
X170618414Y-111746838D01*
X170614455Y-111746900D01*
X170586544Y-111746900D01*
X170582610Y-111747397D01*
X170582609Y-111747397D01*
X170582544Y-111747405D01*
X170570707Y-111748338D01*
X170538449Y-111749352D01*
X170534430Y-111749478D01*
X170526511Y-111749727D01*
X170507057Y-111755379D01*
X170487700Y-111759387D01*
X170475470Y-111760932D01*
X170475469Y-111760932D01*
X170467603Y-111761926D01*
X170460232Y-111764845D01*
X170460230Y-111764845D01*
X170426488Y-111778204D01*
X170415258Y-111782049D01*
X170380417Y-111792171D01*
X170380416Y-111792171D01*
X170372807Y-111794382D01*
X170365988Y-111798415D01*
X170365983Y-111798417D01*
X170355372Y-111804693D01*
X170337624Y-111813388D01*
X170318783Y-111820848D01*
X170312367Y-111825510D01*
X170312366Y-111825510D01*
X170283013Y-111846836D01*
X170273093Y-111853352D01*
X170241865Y-111871820D01*
X170241862Y-111871822D01*
X170235038Y-111875858D01*
X170220717Y-111890179D01*
X170205684Y-111903019D01*
X170189293Y-111914928D01*
X170171568Y-111936354D01*
X170161112Y-111948993D01*
X170153122Y-111957774D01*
X169635342Y-112475553D01*
X169627063Y-112483087D01*
X169620582Y-112487200D01*
X169573957Y-112536851D01*
X169571202Y-112539693D01*
X169551465Y-112559430D01*
X169548985Y-112562627D01*
X169541282Y-112571647D01*
X169511014Y-112603879D01*
X169507195Y-112610825D01*
X169507193Y-112610828D01*
X169501252Y-112621634D01*
X169490401Y-112638153D01*
X169477986Y-112654159D01*
X169474841Y-112661428D01*
X169474838Y-112661432D01*
X169460426Y-112694737D01*
X169455209Y-112705387D01*
X169433905Y-112744140D01*
X169431934Y-112751815D01*
X169431934Y-112751816D01*
X169428867Y-112763762D01*
X169422463Y-112782466D01*
X169414419Y-112801055D01*
X169413180Y-112808878D01*
X169413177Y-112808888D01*
X169407501Y-112844724D01*
X169405095Y-112856344D01*
X169402801Y-112865280D01*
X169394100Y-112899170D01*
X169394100Y-112919424D01*
X169392549Y-112939134D01*
X169389380Y-112959143D01*
X169390126Y-112967035D01*
X169393541Y-113003161D01*
X169394100Y-113015019D01*
X169394100Y-113934606D01*
X169374098Y-114002727D01*
X169357195Y-114023701D01*
X167943500Y-115437395D01*
X167881188Y-115471421D01*
X167854405Y-115474300D01*
X167798513Y-115474300D01*
X167792061Y-115475672D01*
X167792056Y-115475672D01*
X167705113Y-115494153D01*
X167611712Y-115514006D01*
X167605682Y-115516691D01*
X167605681Y-115516691D01*
X167443278Y-115588997D01*
X167443276Y-115588998D01*
X167437248Y-115591682D01*
X167282747Y-115703934D01*
X167278326Y-115708844D01*
X167278325Y-115708845D01*
X167167070Y-115832407D01*
X167154960Y-115845856D01*
X167059473Y-116011244D01*
X167000458Y-116192872D01*
X166999768Y-116199433D01*
X166999768Y-116199435D01*
X166988406Y-116307542D01*
X166980496Y-116382800D01*
X166981186Y-116389365D01*
X166987010Y-116444773D01*
X167000458Y-116572728D01*
X167059473Y-116754356D01*
X167154960Y-116919744D01*
X167159378Y-116924651D01*
X167159379Y-116924652D01*
X167264727Y-117041653D01*
X167282747Y-117061666D01*
X167381843Y-117133664D01*
X167404075Y-117149816D01*
X167437248Y-117173918D01*
X167443276Y-117176602D01*
X167443278Y-117176603D01*
X167605681Y-117248909D01*
X167611712Y-117251594D01*
X167705113Y-117271447D01*
X167792056Y-117289928D01*
X167792061Y-117289928D01*
X167798513Y-117291300D01*
X167989487Y-117291300D01*
X167995939Y-117289928D01*
X167995944Y-117289928D01*
X168082887Y-117271447D01*
X168176288Y-117251594D01*
X168182319Y-117248909D01*
X168344722Y-117176603D01*
X168344724Y-117176602D01*
X168350752Y-117173918D01*
X168383926Y-117149816D01*
X168406157Y-117133664D01*
X168505253Y-117061666D01*
X168523273Y-117041653D01*
X168628621Y-116924652D01*
X168628622Y-116924651D01*
X168633040Y-116919744D01*
X168728527Y-116754356D01*
X168787542Y-116572728D01*
X168804907Y-116407506D01*
X168831920Y-116341850D01*
X168841122Y-116331582D01*
X170419853Y-114752852D01*
X170428139Y-114745312D01*
X170434618Y-114741200D01*
X170481244Y-114691548D01*
X170483998Y-114688707D01*
X170503735Y-114668970D01*
X170506215Y-114665773D01*
X170513920Y-114656751D01*
X170538759Y-114630300D01*
X170544186Y-114624521D01*
X170548005Y-114617575D01*
X170548007Y-114617572D01*
X170553948Y-114606766D01*
X170564799Y-114590247D01*
X170572358Y-114580501D01*
X170577214Y-114574241D01*
X170580359Y-114566972D01*
X170580362Y-114566968D01*
X170594774Y-114533663D01*
X170599991Y-114523013D01*
X170621295Y-114484260D01*
X170626333Y-114464637D01*
X170632737Y-114445934D01*
X170637633Y-114434620D01*
X170637633Y-114434619D01*
X170640781Y-114427345D01*
X170642020Y-114419522D01*
X170642023Y-114419512D01*
X170647699Y-114383676D01*
X170650105Y-114372056D01*
X170659128Y-114336911D01*
X170659128Y-114336910D01*
X170661100Y-114329230D01*
X170661100Y-114308976D01*
X170662651Y-114289265D01*
X170664580Y-114277086D01*
X170665820Y-114269257D01*
X170661659Y-114225238D01*
X170661100Y-114213381D01*
X170661100Y-113293795D01*
X170681102Y-113225674D01*
X170698005Y-113204699D01*
X170851901Y-113050804D01*
X170914213Y-113016779D01*
X170940996Y-113013900D01*
X170955874Y-113013900D01*
X171023995Y-113033902D01*
X171063307Y-113074065D01*
X171131587Y-113185488D01*
X171277850Y-113354338D01*
X171449726Y-113497032D01*
X171520195Y-113538211D01*
X171523045Y-113539876D01*
X171571769Y-113591514D01*
X171584840Y-113661297D01*
X171558109Y-113727069D01*
X171517655Y-113760427D01*
X171505207Y-113766907D01*
X171501074Y-113770010D01*
X171501071Y-113770012D01*
X171341278Y-113889988D01*
X171326565Y-113901035D01*
X171322993Y-113904773D01*
X171209343Y-114023701D01*
X171172229Y-114062538D01*
X171046343Y-114247080D01*
X171022216Y-114299058D01*
X170982938Y-114383676D01*
X170952288Y-114449705D01*
X170892589Y-114664970D01*
X170868851Y-114887095D01*
X170869148Y-114892248D01*
X170869148Y-114892251D01*
X170874611Y-114986990D01*
X170881710Y-115110115D01*
X170882847Y-115115161D01*
X170882848Y-115115167D01*
X170893878Y-115164109D01*
X170930822Y-115328039D01*
X171014866Y-115535016D01*
X171049591Y-115591682D01*
X171120869Y-115707997D01*
X171131587Y-115725488D01*
X171277850Y-115894338D01*
X171449726Y-116037032D01*
X171458714Y-116042284D01*
X171523045Y-116079876D01*
X171571769Y-116131514D01*
X171584840Y-116201297D01*
X171558109Y-116267069D01*
X171517655Y-116300427D01*
X171505207Y-116306907D01*
X171501074Y-116310010D01*
X171501071Y-116310012D01*
X171395383Y-116389365D01*
X171326565Y-116441035D01*
X171172229Y-116602538D01*
X171046343Y-116787080D01*
X170952288Y-116989705D01*
X170892589Y-117204970D01*
X170868851Y-117427095D01*
X170869148Y-117432248D01*
X170869148Y-117432251D01*
X170876460Y-117559061D01*
X170881710Y-117650115D01*
X170882847Y-117655161D01*
X170882848Y-117655167D01*
X170904842Y-117752757D01*
X170930822Y-117868039D01*
X170967736Y-117958948D01*
X171012848Y-118070045D01*
X171014866Y-118075016D01*
X171052576Y-118136553D01*
X171128125Y-118259838D01*
X171131587Y-118265488D01*
X171277850Y-118434338D01*
X171449726Y-118577032D01*
X171642600Y-118689738D01*
X171851292Y-118769430D01*
X171856360Y-118770461D01*
X171856363Y-118770462D01*
X171963979Y-118792357D01*
X172070197Y-118813967D01*
X172075372Y-118814157D01*
X172075374Y-118814157D01*
X172148969Y-118816855D01*
X172293437Y-118822153D01*
X172298566Y-118821496D01*
X172301565Y-118821360D01*
X172370522Y-118838255D01*
X172419398Y-118889749D01*
X172432676Y-118959493D01*
X172406139Y-119025344D01*
X172396369Y-119036326D01*
X169783273Y-121649422D01*
X169720961Y-121683448D01*
X169650146Y-121678383D01*
X169593310Y-121635836D01*
X169574345Y-121599263D01*
X169543369Y-121503929D01*
X169541327Y-121497644D01*
X169445840Y-121332256D01*
X169318053Y-121190334D01*
X169163552Y-121078082D01*
X169157524Y-121075398D01*
X169157522Y-121075397D01*
X168995119Y-121003091D01*
X168995118Y-121003091D01*
X168989088Y-121000406D01*
X168895688Y-120980553D01*
X168808744Y-120962072D01*
X168808739Y-120962072D01*
X168802287Y-120960700D01*
X168611313Y-120960700D01*
X168604861Y-120962072D01*
X168604856Y-120962072D01*
X168517912Y-120980553D01*
X168424512Y-121000406D01*
X168418482Y-121003091D01*
X168418481Y-121003091D01*
X168256078Y-121075397D01*
X168256076Y-121075398D01*
X168250048Y-121078082D01*
X168095547Y-121190334D01*
X168091132Y-121195237D01*
X168086220Y-121199660D01*
X168085095Y-121198411D01*
X168031786Y-121231251D01*
X167998600Y-121235700D01*
X160220200Y-121235700D01*
X160152079Y-121215698D01*
X160132853Y-121199357D01*
X160132580Y-121199660D01*
X160127668Y-121195237D01*
X160123253Y-121190334D01*
X159968752Y-121078082D01*
X159962724Y-121075398D01*
X159962722Y-121075397D01*
X159800319Y-121003091D01*
X159800318Y-121003091D01*
X159794288Y-121000406D01*
X159700888Y-120980553D01*
X159613944Y-120962072D01*
X159613939Y-120962072D01*
X159607487Y-120960700D01*
X159416513Y-120960700D01*
X159410061Y-120962072D01*
X159410056Y-120962072D01*
X159323112Y-120980553D01*
X159229712Y-121000406D01*
X159223682Y-121003091D01*
X159223681Y-121003091D01*
X159061278Y-121075397D01*
X159061276Y-121075398D01*
X159055248Y-121078082D01*
X158900747Y-121190334D01*
X158772960Y-121332256D01*
X158677473Y-121497644D01*
X158618458Y-121679272D01*
X158598496Y-121869200D01*
X158618458Y-122059128D01*
X158677473Y-122240756D01*
X158772960Y-122406144D01*
X158900747Y-122548066D01*
X159055248Y-122660318D01*
X159061276Y-122663002D01*
X159061278Y-122663003D01*
X159214194Y-122731085D01*
X159229712Y-122737994D01*
X159323113Y-122757847D01*
X159410056Y-122776328D01*
X159410061Y-122776328D01*
X159416513Y-122777700D01*
X159607487Y-122777700D01*
X159613939Y-122776328D01*
X159613944Y-122776328D01*
X159700887Y-122757847D01*
X159794288Y-122737994D01*
X159809806Y-122731085D01*
X159962722Y-122663003D01*
X159962724Y-122663002D01*
X159968752Y-122660318D01*
X160037314Y-122610505D01*
X160116666Y-122552852D01*
X160123253Y-122548066D01*
X160127668Y-122543163D01*
X160132580Y-122538740D01*
X160133705Y-122539989D01*
X160187014Y-122507149D01*
X160220200Y-122502700D01*
X167998600Y-122502700D01*
X168066721Y-122522702D01*
X168085947Y-122539043D01*
X168086220Y-122538740D01*
X168091132Y-122543163D01*
X168095547Y-122548066D01*
X168102134Y-122552852D01*
X168181487Y-122610505D01*
X168250048Y-122660318D01*
X168256076Y-122663002D01*
X168256078Y-122663003D01*
X168341289Y-122700941D01*
X168424512Y-122737994D01*
X168430975Y-122739368D01*
X168433438Y-122740168D01*
X168492044Y-122780241D01*
X168519682Y-122845638D01*
X168507576Y-122915594D01*
X168483598Y-122949097D01*
X164268647Y-127164048D01*
X164206335Y-127198074D01*
X164146942Y-127196660D01*
X164083487Y-127179657D01*
X163855400Y-127159702D01*
X163627313Y-127179657D01*
X163622000Y-127181081D01*
X163621998Y-127181081D01*
X163411467Y-127237493D01*
X163411465Y-127237494D01*
X163406157Y-127238916D01*
X163401176Y-127241239D01*
X163401175Y-127241239D01*
X163203638Y-127333351D01*
X163203633Y-127333354D01*
X163198651Y-127335677D01*
X163093789Y-127409102D01*
X163015611Y-127463843D01*
X163015608Y-127463845D01*
X163011100Y-127467002D01*
X162849202Y-127628900D01*
X162717877Y-127816451D01*
X162715554Y-127821433D01*
X162715551Y-127821438D01*
X162699595Y-127855657D01*
X162652678Y-127908942D01*
X162584401Y-127928403D01*
X162516441Y-127907861D01*
X162471205Y-127855657D01*
X162455249Y-127821438D01*
X162455246Y-127821433D01*
X162452923Y-127816451D01*
X162321598Y-127628900D01*
X162159700Y-127467002D01*
X162155192Y-127463845D01*
X162155189Y-127463843D01*
X162077011Y-127409102D01*
X161972149Y-127335677D01*
X161967167Y-127333354D01*
X161967162Y-127333351D01*
X161769625Y-127241239D01*
X161769624Y-127241239D01*
X161764643Y-127238916D01*
X161759335Y-127237494D01*
X161759333Y-127237493D01*
X161548802Y-127181081D01*
X161548800Y-127181081D01*
X161543487Y-127179657D01*
X161315400Y-127159702D01*
X161087313Y-127179657D01*
X161082000Y-127181081D01*
X161081998Y-127181081D01*
X160871467Y-127237493D01*
X160871465Y-127237494D01*
X160866157Y-127238916D01*
X160861176Y-127241239D01*
X160861175Y-127241239D01*
X160663638Y-127333351D01*
X160663633Y-127333354D01*
X160658651Y-127335677D01*
X160553789Y-127409102D01*
X160475611Y-127463843D01*
X160475608Y-127463845D01*
X160471100Y-127467002D01*
X160309202Y-127628900D01*
X160177877Y-127816451D01*
X160175554Y-127821433D01*
X160175551Y-127821438D01*
X160159595Y-127855657D01*
X160112678Y-127908942D01*
X160044401Y-127928403D01*
X159976441Y-127907861D01*
X159931205Y-127855657D01*
X159915249Y-127821438D01*
X159915246Y-127821433D01*
X159912923Y-127816451D01*
X159781598Y-127628900D01*
X159619700Y-127467002D01*
X159615192Y-127463845D01*
X159615189Y-127463843D01*
X159537011Y-127409102D01*
X159432149Y-127335677D01*
X159427167Y-127333354D01*
X159427162Y-127333351D01*
X159229625Y-127241239D01*
X159229624Y-127241239D01*
X159224643Y-127238916D01*
X159219335Y-127237494D01*
X159219333Y-127237493D01*
X159008802Y-127181081D01*
X159008800Y-127181081D01*
X159003487Y-127179657D01*
X158775400Y-127159702D01*
X158547313Y-127179657D01*
X158542000Y-127181081D01*
X158541998Y-127181081D01*
X158331467Y-127237493D01*
X158331465Y-127237494D01*
X158326157Y-127238916D01*
X158321176Y-127241239D01*
X158321175Y-127241239D01*
X158123638Y-127333351D01*
X158123633Y-127333354D01*
X158118651Y-127335677D01*
X158013789Y-127409102D01*
X157935611Y-127463843D01*
X157935608Y-127463845D01*
X157931100Y-127467002D01*
X157769202Y-127628900D01*
X157766045Y-127633408D01*
X157766043Y-127633411D01*
X157659219Y-127785971D01*
X157603762Y-127830299D01*
X157556006Y-127839700D01*
X156929550Y-127839700D01*
X156861429Y-127819698D01*
X156840455Y-127802795D01*
X154380522Y-125342862D01*
X161127293Y-125342862D01*
X161136589Y-125354877D01*
X161187794Y-125390731D01*
X161197289Y-125396214D01*
X161394747Y-125488290D01*
X161405039Y-125492036D01*
X161615488Y-125548425D01*
X161626281Y-125550328D01*
X161843325Y-125569317D01*
X161854275Y-125569317D01*
X162071319Y-125550328D01*
X162082112Y-125548425D01*
X162292561Y-125492036D01*
X162302853Y-125488290D01*
X162500311Y-125396214D01*
X162509806Y-125390731D01*
X162561848Y-125354291D01*
X162570224Y-125343812D01*
X162563156Y-125330366D01*
X161861612Y-124628822D01*
X161847668Y-124621208D01*
X161845835Y-124621339D01*
X161839220Y-124625590D01*
X161133723Y-125331087D01*
X161127293Y-125342862D01*
X154380522Y-125342862D01*
X153299935Y-124262275D01*
X160536283Y-124262275D01*
X160555272Y-124479319D01*
X160557175Y-124490112D01*
X160613564Y-124700561D01*
X160617310Y-124710853D01*
X160709386Y-124908311D01*
X160714869Y-124917806D01*
X160751309Y-124969848D01*
X160761788Y-124978224D01*
X160775234Y-124971156D01*
X161476778Y-124269612D01*
X161483156Y-124257932D01*
X162213208Y-124257932D01*
X162213339Y-124259765D01*
X162217590Y-124266380D01*
X162923087Y-124971877D01*
X162934862Y-124978307D01*
X162946877Y-124969011D01*
X162982731Y-124917806D01*
X162988214Y-124908311D01*
X163080290Y-124710853D01*
X163084036Y-124700561D01*
X163140425Y-124490112D01*
X163142328Y-124479319D01*
X163161317Y-124262275D01*
X163161317Y-124251325D01*
X163142328Y-124034281D01*
X163140425Y-124023488D01*
X163084036Y-123813039D01*
X163080290Y-123802747D01*
X162988214Y-123605289D01*
X162982731Y-123595794D01*
X162946291Y-123543752D01*
X162935812Y-123535376D01*
X162922366Y-123542444D01*
X162220822Y-124243988D01*
X162213208Y-124257932D01*
X161483156Y-124257932D01*
X161484392Y-124255668D01*
X161484261Y-124253835D01*
X161480010Y-124247220D01*
X160774513Y-123541723D01*
X160762738Y-123535293D01*
X160750723Y-123544589D01*
X160714869Y-123595794D01*
X160709386Y-123605289D01*
X160617310Y-123802747D01*
X160613564Y-123813039D01*
X160557175Y-124023488D01*
X160555272Y-124034281D01*
X160536283Y-124251325D01*
X160536283Y-124262275D01*
X153299935Y-124262275D01*
X152207448Y-123169788D01*
X161127376Y-123169788D01*
X161134444Y-123183234D01*
X161835988Y-123884778D01*
X161849932Y-123892392D01*
X161851765Y-123892261D01*
X161858380Y-123888010D01*
X162563877Y-123182513D01*
X162570307Y-123170738D01*
X162561011Y-123158723D01*
X162509806Y-123122869D01*
X162500311Y-123117386D01*
X162302853Y-123025310D01*
X162292561Y-123021564D01*
X162082112Y-122965175D01*
X162071319Y-122963272D01*
X161854275Y-122944283D01*
X161843325Y-122944283D01*
X161626281Y-122963272D01*
X161615488Y-122965175D01*
X161405039Y-123021564D01*
X161394747Y-123025310D01*
X161197289Y-123117386D01*
X161187794Y-123122869D01*
X161135752Y-123159309D01*
X161127376Y-123169788D01*
X152207448Y-123169788D01*
X149759504Y-120721844D01*
X149725479Y-120659533D01*
X149723732Y-120643284D01*
X150230600Y-120643284D01*
X150235075Y-120658523D01*
X150236465Y-120659728D01*
X150244148Y-120661399D01*
X150871269Y-120661399D01*
X150878090Y-120661029D01*
X150928952Y-120655505D01*
X150944204Y-120651879D01*
X151064654Y-120606724D01*
X151080249Y-120598186D01*
X151182324Y-120521685D01*
X151194885Y-120509124D01*
X151271386Y-120407049D01*
X151279924Y-120391454D01*
X151320825Y-120282352D01*
X151363467Y-120225588D01*
X151430028Y-120200888D01*
X151499377Y-120216096D01*
X151534044Y-120244084D01*
X151559465Y-120273431D01*
X151559469Y-120273435D01*
X151562850Y-120277338D01*
X151734726Y-120420032D01*
X151927600Y-120532738D01*
X151932425Y-120534580D01*
X151932426Y-120534581D01*
X152005212Y-120562375D01*
X152136292Y-120612430D01*
X152141360Y-120613461D01*
X152141363Y-120613462D01*
X152236167Y-120632750D01*
X152355197Y-120656967D01*
X152360372Y-120657157D01*
X152360374Y-120657157D01*
X152573273Y-120664964D01*
X152573277Y-120664964D01*
X152578437Y-120665153D01*
X152583557Y-120664497D01*
X152583559Y-120664497D01*
X152794888Y-120637425D01*
X152794889Y-120637425D01*
X152800016Y-120636768D01*
X152813409Y-120632750D01*
X153009029Y-120574061D01*
X153009034Y-120574059D01*
X153013984Y-120572574D01*
X153214594Y-120474296D01*
X153396460Y-120344573D01*
X153554696Y-120186889D01*
X153585720Y-120143715D01*
X153685053Y-120005477D01*
X153686376Y-120006428D01*
X153733245Y-119963257D01*
X153803180Y-119951025D01*
X153868626Y-119978544D01*
X153896475Y-120010394D01*
X153956587Y-120108488D01*
X154102850Y-120277338D01*
X154274726Y-120420032D01*
X154467600Y-120532738D01*
X154472425Y-120534580D01*
X154472426Y-120534581D01*
X154545212Y-120562375D01*
X154676292Y-120612430D01*
X154681360Y-120613461D01*
X154681363Y-120613462D01*
X154776167Y-120632750D01*
X154895197Y-120656967D01*
X154900372Y-120657157D01*
X154900374Y-120657157D01*
X155113273Y-120664964D01*
X155113277Y-120664964D01*
X155118437Y-120665153D01*
X155123557Y-120664497D01*
X155123559Y-120664497D01*
X155334888Y-120637425D01*
X155334889Y-120637425D01*
X155340016Y-120636768D01*
X155353409Y-120632750D01*
X155549029Y-120574061D01*
X155549034Y-120574059D01*
X155553984Y-120572574D01*
X155754594Y-120474296D01*
X155936460Y-120344573D01*
X156094696Y-120186889D01*
X156125720Y-120143715D01*
X156222035Y-120009677D01*
X156225053Y-120005477D01*
X156245920Y-119963257D01*
X156321736Y-119809853D01*
X156321737Y-119809851D01*
X156324030Y-119805211D01*
X156388970Y-119591469D01*
X156418129Y-119369990D01*
X156419756Y-119303400D01*
X156401452Y-119080761D01*
X156347031Y-118864102D01*
X156257954Y-118659240D01*
X156136614Y-118471677D01*
X155986270Y-118306451D01*
X155982219Y-118303252D01*
X155982215Y-118303248D01*
X155815014Y-118171200D01*
X155815010Y-118171198D01*
X155810959Y-118167998D01*
X155776128Y-118148770D01*
X155706078Y-118110101D01*
X155615389Y-118060038D01*
X155610520Y-118058314D01*
X155610516Y-118058312D01*
X155409687Y-117987195D01*
X155409683Y-117987194D01*
X155404812Y-117985469D01*
X155399719Y-117984562D01*
X155399716Y-117984561D01*
X155189973Y-117947200D01*
X155189967Y-117947199D01*
X155184884Y-117946294D01*
X155111052Y-117945392D01*
X154966681Y-117943628D01*
X154966679Y-117943628D01*
X154961511Y-117943565D01*
X154740691Y-117977355D01*
X154528356Y-118046757D01*
X154502329Y-118060306D01*
X154433414Y-118096181D01*
X154330207Y-118149907D01*
X154326074Y-118153010D01*
X154326071Y-118153012D01*
X154171070Y-118269390D01*
X154151565Y-118284035D01*
X154147993Y-118287773D01*
X154004777Y-118437640D01*
X153997229Y-118445538D01*
X153889801Y-118603021D01*
X153834893Y-118648021D01*
X153764368Y-118656192D01*
X153700621Y-118624938D01*
X153679924Y-118600454D01*
X153599422Y-118476017D01*
X153599420Y-118476014D01*
X153596614Y-118471677D01*
X153446270Y-118306451D01*
X153442219Y-118303252D01*
X153442215Y-118303248D01*
X153275014Y-118171200D01*
X153275010Y-118171198D01*
X153270959Y-118167998D01*
X153236128Y-118148770D01*
X153166078Y-118110101D01*
X153075389Y-118060038D01*
X153070520Y-118058314D01*
X153070516Y-118058312D01*
X152869687Y-117987195D01*
X152869683Y-117987194D01*
X152864812Y-117985469D01*
X152859719Y-117984562D01*
X152859716Y-117984561D01*
X152649973Y-117947200D01*
X152649967Y-117947199D01*
X152644884Y-117946294D01*
X152571052Y-117945392D01*
X152426681Y-117943628D01*
X152426679Y-117943628D01*
X152421511Y-117943565D01*
X152200691Y-117977355D01*
X151988356Y-118046757D01*
X151962329Y-118060306D01*
X151893414Y-118096181D01*
X151790207Y-118149907D01*
X151786074Y-118153010D01*
X151786071Y-118153012D01*
X151631070Y-118269390D01*
X151611565Y-118284035D01*
X151607993Y-118287773D01*
X151530498Y-118368866D01*
X151468974Y-118404295D01*
X151398062Y-118400838D01*
X151340276Y-118359592D01*
X151321423Y-118326044D01*
X151279924Y-118215346D01*
X151271386Y-118199751D01*
X151194885Y-118097676D01*
X151182324Y-118085115D01*
X151080249Y-118008614D01*
X151064654Y-118000076D01*
X150944206Y-117954922D01*
X150928951Y-117951295D01*
X150878086Y-117945769D01*
X150871272Y-117945400D01*
X150248715Y-117945400D01*
X150233476Y-117949875D01*
X150232271Y-117951265D01*
X150230600Y-117958948D01*
X150230600Y-120643284D01*
X149723732Y-120643284D01*
X149722600Y-120632750D01*
X149722600Y-119575515D01*
X149718125Y-119560276D01*
X149716735Y-119559071D01*
X149709052Y-119557400D01*
X148647251Y-119557400D01*
X148579130Y-119537398D01*
X148558156Y-119520495D01*
X148068946Y-119031285D01*
X148618600Y-119031285D01*
X148623075Y-119046524D01*
X148624465Y-119047729D01*
X148632148Y-119049400D01*
X149704485Y-119049400D01*
X149719724Y-119044925D01*
X149720929Y-119043535D01*
X149722600Y-119035852D01*
X149722600Y-117963516D01*
X149718125Y-117948277D01*
X149716735Y-117947072D01*
X149709052Y-117945401D01*
X149081931Y-117945401D01*
X149075110Y-117945771D01*
X149024248Y-117951295D01*
X149008996Y-117954921D01*
X148888546Y-118000076D01*
X148872951Y-118008614D01*
X148770876Y-118085115D01*
X148758315Y-118097676D01*
X148681814Y-118199751D01*
X148673276Y-118215346D01*
X148628122Y-118335794D01*
X148624495Y-118351049D01*
X148618969Y-118401914D01*
X148618600Y-118408728D01*
X148618600Y-119031285D01*
X148068946Y-119031285D01*
X146110805Y-117073144D01*
X146076779Y-117010832D01*
X146073900Y-116984049D01*
X146073900Y-96637552D01*
X146093902Y-96569431D01*
X146144468Y-96524401D01*
X146151716Y-96520850D01*
X146159443Y-96517065D01*
X146159447Y-96517063D01*
X146164084Y-96514791D01*
X146168288Y-96511793D01*
X146168292Y-96511790D01*
X146258416Y-96447505D01*
X146352643Y-96380294D01*
X146397709Y-96335385D01*
X146460081Y-96301469D01*
X146530887Y-96306657D01*
X146587649Y-96349303D01*
X146604631Y-96380407D01*
X146629785Y-96447505D01*
X146717139Y-96564061D01*
X146833695Y-96651415D01*
X146970084Y-96702545D01*
X147032266Y-96709300D01*
X148645712Y-96709300D01*
X148713833Y-96729302D01*
X148760326Y-96782958D01*
X148770430Y-96853232D01*
X148740936Y-96917812D01*
X148734807Y-96924395D01*
X147425689Y-98233513D01*
X147411277Y-98245899D01*
X147399682Y-98254432D01*
X147399677Y-98254437D01*
X147393782Y-98258775D01*
X147389043Y-98264353D01*
X147389040Y-98264356D01*
X147359565Y-98299051D01*
X147352635Y-98306567D01*
X147346940Y-98312262D01*
X147344660Y-98315144D01*
X147329319Y-98334534D01*
X147326528Y-98337938D01*
X147284009Y-98387986D01*
X147279267Y-98393568D01*
X147275939Y-98400084D01*
X147272572Y-98405133D01*
X147269405Y-98410262D01*
X147264866Y-98415999D01*
X147233945Y-98482158D01*
X147232042Y-98486052D01*
X147198831Y-98551091D01*
X147197092Y-98558199D01*
X147194993Y-98563842D01*
X147193076Y-98569605D01*
X147189978Y-98576233D01*
X147188488Y-98583395D01*
X147188488Y-98583396D01*
X147175114Y-98647695D01*
X147174144Y-98651979D01*
X147156792Y-98722893D01*
X147156100Y-98734047D01*
X147156064Y-98734045D01*
X147155825Y-98738038D01*
X147155451Y-98742230D01*
X147153960Y-98749398D01*
X147155315Y-98799497D01*
X147156054Y-98826804D01*
X147156100Y-98830211D01*
X147156100Y-108891255D01*
X147136098Y-108959376D01*
X147105753Y-108992015D01*
X147101374Y-108995303D01*
X147009565Y-109064235D01*
X146970125Y-109105507D01*
X146915880Y-109162271D01*
X146855229Y-109225738D01*
X146729343Y-109410280D01*
X146714818Y-109441572D01*
X146643744Y-109594689D01*
X146635288Y-109612905D01*
X146575589Y-109828170D01*
X146551851Y-110050295D01*
X146552148Y-110055448D01*
X146552148Y-110055451D01*
X146557682Y-110151433D01*
X146564710Y-110273315D01*
X146565847Y-110278361D01*
X146565848Y-110278367D01*
X146582287Y-110351309D01*
X146613822Y-110491239D01*
X146697866Y-110698216D01*
X146735285Y-110759278D01*
X146811891Y-110884288D01*
X146814587Y-110888688D01*
X146960850Y-111057538D01*
X147108724Y-111180305D01*
X147110585Y-111181850D01*
X147150220Y-111240752D01*
X147156100Y-111278794D01*
X147156100Y-112846330D01*
X147154667Y-112865280D01*
X147151401Y-112886749D01*
X147151994Y-112894041D01*
X147151994Y-112894044D01*
X147155685Y-112939418D01*
X147156100Y-112949633D01*
X147156100Y-112957693D01*
X147156525Y-112961337D01*
X147159389Y-112985907D01*
X147159822Y-112990282D01*
X147165740Y-113063037D01*
X147167996Y-113070001D01*
X147169187Y-113075960D01*
X147170571Y-113081815D01*
X147171418Y-113089081D01*
X147196335Y-113157727D01*
X147197752Y-113161855D01*
X147215725Y-113217333D01*
X147220249Y-113231299D01*
X147224045Y-113237554D01*
X147226551Y-113243028D01*
X147229270Y-113248458D01*
X147231767Y-113255337D01*
X147235780Y-113261457D01*
X147235780Y-113261458D01*
X147271786Y-113316376D01*
X147274123Y-113320080D01*
X147312005Y-113382507D01*
X147315721Y-113386715D01*
X147315722Y-113386716D01*
X147319403Y-113390884D01*
X147319376Y-113390908D01*
X147322029Y-113393900D01*
X147324732Y-113397133D01*
X147328744Y-113403252D01*
X147334056Y-113408284D01*
X147384983Y-113456528D01*
X147387425Y-113458906D01*
X149530230Y-115601711D01*
X149542616Y-115616123D01*
X149551149Y-115627718D01*
X149551154Y-115627723D01*
X149555492Y-115633618D01*
X149561070Y-115638357D01*
X149561073Y-115638360D01*
X149595768Y-115667835D01*
X149603284Y-115674765D01*
X149608979Y-115680460D01*
X149611861Y-115682740D01*
X149631251Y-115698081D01*
X149634655Y-115700872D01*
X149658452Y-115721089D01*
X149690285Y-115748133D01*
X149696801Y-115751461D01*
X149701850Y-115754828D01*
X149706979Y-115757995D01*
X149712716Y-115762534D01*
X149778875Y-115793455D01*
X149782769Y-115795358D01*
X149847808Y-115828569D01*
X149854916Y-115830308D01*
X149860559Y-115832407D01*
X149866322Y-115834324D01*
X149872950Y-115837422D01*
X149940989Y-115851574D01*
X149944412Y-115852286D01*
X149948696Y-115853256D01*
X150019610Y-115870608D01*
X150025212Y-115870956D01*
X150025215Y-115870956D01*
X150030764Y-115871300D01*
X150030762Y-115871336D01*
X150034755Y-115871575D01*
X150038947Y-115871949D01*
X150046115Y-115873440D01*
X150123520Y-115871346D01*
X150126928Y-115871300D01*
X157158930Y-115871300D01*
X157177880Y-115872733D01*
X157192115Y-115874899D01*
X157192119Y-115874899D01*
X157199349Y-115875999D01*
X157206641Y-115875406D01*
X157206644Y-115875406D01*
X157252018Y-115871715D01*
X157262233Y-115871300D01*
X157270293Y-115871300D01*
X157287680Y-115869273D01*
X157298507Y-115868011D01*
X157302882Y-115867578D01*
X157368339Y-115862254D01*
X157368342Y-115862253D01*
X157375637Y-115861660D01*
X157382601Y-115859404D01*
X157388560Y-115858213D01*
X157394415Y-115856829D01*
X157401681Y-115855982D01*
X157470327Y-115831065D01*
X157474455Y-115829648D01*
X157536936Y-115809407D01*
X157536938Y-115809406D01*
X157543899Y-115807151D01*
X157550154Y-115803355D01*
X157555628Y-115800849D01*
X157561058Y-115798130D01*
X157567937Y-115795633D01*
X157574058Y-115791620D01*
X157628976Y-115755614D01*
X157632680Y-115753277D01*
X157695107Y-115715395D01*
X157703484Y-115707997D01*
X157703508Y-115708024D01*
X157706500Y-115705371D01*
X157709733Y-115702668D01*
X157715852Y-115698656D01*
X157769128Y-115642417D01*
X157771506Y-115639975D01*
X158758276Y-114653205D01*
X158820588Y-114619179D01*
X158847371Y-114616300D01*
X160430629Y-114616300D01*
X160498750Y-114636302D01*
X160519724Y-114653205D01*
X162093849Y-116227330D01*
X162127875Y-116289642D01*
X162130041Y-116329813D01*
X162111651Y-116501895D01*
X162111948Y-116507048D01*
X162111948Y-116507051D01*
X162117238Y-116598801D01*
X162124510Y-116724915D01*
X162125647Y-116729961D01*
X162125648Y-116729967D01*
X162139578Y-116791775D01*
X162173622Y-116942839D01*
X162257666Y-117149816D01*
X162374387Y-117340288D01*
X162520650Y-117509138D01*
X162692526Y-117651832D01*
X162885400Y-117764538D01*
X162890225Y-117766380D01*
X162890226Y-117766381D01*
X162927910Y-117780771D01*
X163094092Y-117844230D01*
X163099160Y-117845261D01*
X163099163Y-117845262D01*
X163185066Y-117862739D01*
X163312997Y-117888767D01*
X163318172Y-117888957D01*
X163318174Y-117888957D01*
X163531073Y-117896764D01*
X163531077Y-117896764D01*
X163536237Y-117896953D01*
X163541357Y-117896297D01*
X163541359Y-117896297D01*
X163752688Y-117869225D01*
X163752689Y-117869225D01*
X163757816Y-117868568D01*
X163774772Y-117863481D01*
X163966829Y-117805861D01*
X163966834Y-117805859D01*
X163971784Y-117804374D01*
X164172394Y-117706096D01*
X164354260Y-117576373D01*
X164360985Y-117569672D01*
X164435609Y-117495307D01*
X164512496Y-117418689D01*
X164515575Y-117414405D01*
X164639835Y-117241477D01*
X164642853Y-117237277D01*
X164661283Y-117199988D01*
X164739536Y-117041653D01*
X164739537Y-117041651D01*
X164741830Y-117037011D01*
X164806770Y-116823269D01*
X164835929Y-116601790D01*
X164836639Y-116572728D01*
X164837474Y-116538565D01*
X164837474Y-116538561D01*
X164837556Y-116535200D01*
X164819252Y-116312561D01*
X164764831Y-116095902D01*
X164675754Y-115891040D01*
X164622943Y-115809407D01*
X164557222Y-115707817D01*
X164557220Y-115707814D01*
X164554414Y-115703477D01*
X164404070Y-115538251D01*
X164400019Y-115535052D01*
X164400015Y-115535048D01*
X164232814Y-115403000D01*
X164232810Y-115402998D01*
X164228759Y-115399798D01*
X164187453Y-115376996D01*
X164137484Y-115326564D01*
X164122712Y-115257121D01*
X164147828Y-115190716D01*
X164175180Y-115164109D01*
X164258122Y-115104947D01*
X164354260Y-115036373D01*
X164512496Y-114878689D01*
X164642853Y-114697277D01*
X164655458Y-114671774D01*
X164739536Y-114501653D01*
X164739537Y-114501651D01*
X164741830Y-114497011D01*
X164806770Y-114283269D01*
X164835929Y-114061790D01*
X164837556Y-113995200D01*
X164819252Y-113772561D01*
X164764831Y-113555902D01*
X164675754Y-113351040D01*
X164628021Y-113277256D01*
X164557222Y-113167817D01*
X164557220Y-113167814D01*
X164554414Y-113163477D01*
X164534900Y-113142031D01*
X164407198Y-113001688D01*
X164376146Y-112937842D01*
X164384541Y-112867343D01*
X164429717Y-112812575D01*
X164456161Y-112798906D01*
X164562697Y-112758967D01*
X164571105Y-112755815D01*
X164687661Y-112668461D01*
X164775015Y-112551905D01*
X164826145Y-112415516D01*
X164832900Y-112353334D01*
X164832900Y-110557066D01*
X164826145Y-110494884D01*
X164775015Y-110358495D01*
X164687661Y-110241939D01*
X164571105Y-110154585D01*
X164434716Y-110103455D01*
X164372534Y-110096700D01*
X163240771Y-110096700D01*
X163172650Y-110076698D01*
X163151676Y-110059795D01*
X162686570Y-109594689D01*
X162674184Y-109580277D01*
X162665651Y-109568682D01*
X162665646Y-109568677D01*
X162665358Y-109568285D01*
X170873600Y-109568285D01*
X170878075Y-109583524D01*
X170879465Y-109584729D01*
X170887148Y-109586400D01*
X171959485Y-109586400D01*
X171974724Y-109581925D01*
X171975929Y-109580535D01*
X171977600Y-109572852D01*
X171977600Y-109568285D01*
X172485600Y-109568285D01*
X172490075Y-109583524D01*
X172491465Y-109584729D01*
X172499148Y-109586400D01*
X173571484Y-109586400D01*
X173586723Y-109581925D01*
X173587928Y-109580535D01*
X173589599Y-109572852D01*
X173589599Y-108945731D01*
X173589229Y-108938910D01*
X173583705Y-108888048D01*
X173580079Y-108872796D01*
X173534924Y-108752346D01*
X173526386Y-108736751D01*
X173449885Y-108634676D01*
X173437324Y-108622115D01*
X173335249Y-108545614D01*
X173319654Y-108537076D01*
X173199206Y-108491922D01*
X173183951Y-108488295D01*
X173133086Y-108482769D01*
X173126272Y-108482400D01*
X172503715Y-108482400D01*
X172488476Y-108486875D01*
X172487271Y-108488265D01*
X172485600Y-108495948D01*
X172485600Y-109568285D01*
X171977600Y-109568285D01*
X171977600Y-108500516D01*
X171973125Y-108485277D01*
X171971735Y-108484072D01*
X171964052Y-108482401D01*
X171336931Y-108482401D01*
X171330110Y-108482771D01*
X171279248Y-108488295D01*
X171263996Y-108491921D01*
X171143546Y-108537076D01*
X171127951Y-108545614D01*
X171025876Y-108622115D01*
X171013315Y-108634676D01*
X170936814Y-108736751D01*
X170928276Y-108752346D01*
X170883122Y-108872794D01*
X170879495Y-108888049D01*
X170873969Y-108938914D01*
X170873600Y-108945728D01*
X170873600Y-109568285D01*
X162665358Y-109568285D01*
X162661308Y-109562782D01*
X162655730Y-109558043D01*
X162655727Y-109558040D01*
X162621032Y-109528565D01*
X162613516Y-109521635D01*
X162607821Y-109515940D01*
X162601680Y-109511082D01*
X162585549Y-109498319D01*
X162582145Y-109495528D01*
X162532097Y-109453009D01*
X162532095Y-109453008D01*
X162526515Y-109448267D01*
X162519999Y-109444939D01*
X162514950Y-109441572D01*
X162509821Y-109438405D01*
X162504084Y-109433866D01*
X162437925Y-109402945D01*
X162434025Y-109401039D01*
X162368992Y-109367831D01*
X162361884Y-109366092D01*
X162356241Y-109363993D01*
X162350478Y-109362076D01*
X162343850Y-109358978D01*
X162272383Y-109344113D01*
X162268099Y-109343143D01*
X162197190Y-109325792D01*
X162191588Y-109325444D01*
X162191585Y-109325444D01*
X162186036Y-109325100D01*
X162186038Y-109325064D01*
X162182045Y-109324825D01*
X162177853Y-109324451D01*
X162170685Y-109322960D01*
X162104475Y-109324751D01*
X162093279Y-109325054D01*
X162089872Y-109325100D01*
X154479100Y-109325100D01*
X154410979Y-109305098D01*
X154364486Y-109251442D01*
X154353100Y-109199100D01*
X154353100Y-109185466D01*
X154346345Y-109123284D01*
X154295215Y-108986895D01*
X154207861Y-108870339D01*
X154091305Y-108782985D01*
X153954916Y-108731855D01*
X153892734Y-108725100D01*
X152096466Y-108725100D01*
X152034284Y-108731855D01*
X151897895Y-108782985D01*
X151781339Y-108870339D01*
X151693985Y-108986895D01*
X151690833Y-108995303D01*
X151649519Y-109105507D01*
X151606877Y-109162271D01*
X151540316Y-109186971D01*
X151470967Y-109171763D01*
X151438343Y-109146076D01*
X151387751Y-109090475D01*
X151387742Y-109090466D01*
X151384270Y-109086651D01*
X151380219Y-109083452D01*
X151380215Y-109083448D01*
X151213014Y-108951400D01*
X151213010Y-108951398D01*
X151208959Y-108948198D01*
X151013389Y-108840238D01*
X151008520Y-108838514D01*
X151008516Y-108838512D01*
X150807687Y-108767395D01*
X150807683Y-108767394D01*
X150802812Y-108765669D01*
X150797719Y-108764762D01*
X150797716Y-108764761D01*
X150587973Y-108727400D01*
X150587967Y-108727399D01*
X150582884Y-108726494D01*
X150509052Y-108725592D01*
X150364681Y-108723828D01*
X150364679Y-108723828D01*
X150359511Y-108723765D01*
X150138691Y-108757555D01*
X149926356Y-108826957D01*
X149896043Y-108842737D01*
X149809000Y-108888049D01*
X149728207Y-108930107D01*
X149724074Y-108933210D01*
X149724071Y-108933212D01*
X149553700Y-109061130D01*
X149549565Y-109064235D01*
X149510125Y-109105507D01*
X149455880Y-109162271D01*
X149395229Y-109225738D01*
X149287801Y-109383221D01*
X149232893Y-109428221D01*
X149162368Y-109436392D01*
X149098621Y-109405138D01*
X149077924Y-109380654D01*
X148997422Y-109256217D01*
X148997420Y-109256214D01*
X148994614Y-109251877D01*
X148844270Y-109086651D01*
X148840215Y-109083448D01*
X148721007Y-108989303D01*
X148679945Y-108931385D01*
X148673100Y-108890421D01*
X148673100Y-106394462D01*
X169204493Y-106394462D01*
X169213789Y-106406477D01*
X169264994Y-106442331D01*
X169274489Y-106447814D01*
X169471947Y-106539890D01*
X169482239Y-106543636D01*
X169692688Y-106600025D01*
X169703481Y-106601928D01*
X169920525Y-106620917D01*
X169931475Y-106620917D01*
X170148519Y-106601928D01*
X170159312Y-106600025D01*
X170369761Y-106543636D01*
X170380053Y-106539890D01*
X170577511Y-106447814D01*
X170587006Y-106442331D01*
X170639048Y-106405891D01*
X170647424Y-106395412D01*
X170640356Y-106381966D01*
X169938812Y-105680422D01*
X169924868Y-105672808D01*
X169923035Y-105672939D01*
X169916420Y-105677190D01*
X169210923Y-106382687D01*
X169204493Y-106394462D01*
X148673100Y-106394462D01*
X148673100Y-105313875D01*
X168613483Y-105313875D01*
X168632472Y-105530919D01*
X168634375Y-105541712D01*
X168690764Y-105752161D01*
X168694510Y-105762453D01*
X168786586Y-105959911D01*
X168792069Y-105969406D01*
X168828509Y-106021448D01*
X168838988Y-106029824D01*
X168852434Y-106022756D01*
X169553978Y-105321212D01*
X169560356Y-105309532D01*
X170290408Y-105309532D01*
X170290539Y-105311365D01*
X170294790Y-105317980D01*
X171000287Y-106023477D01*
X171012062Y-106029907D01*
X171024077Y-106020611D01*
X171059931Y-105969406D01*
X171065414Y-105959911D01*
X171157490Y-105762453D01*
X171161236Y-105752161D01*
X171217625Y-105541712D01*
X171219528Y-105530919D01*
X171238517Y-105313875D01*
X171238517Y-105302925D01*
X171219528Y-105085881D01*
X171217625Y-105075088D01*
X171161236Y-104864639D01*
X171157490Y-104854347D01*
X171065414Y-104656889D01*
X171059931Y-104647394D01*
X171023491Y-104595352D01*
X171013012Y-104586976D01*
X170999566Y-104594044D01*
X170298022Y-105295588D01*
X170290408Y-105309532D01*
X169560356Y-105309532D01*
X169561592Y-105307268D01*
X169561461Y-105305435D01*
X169557210Y-105298820D01*
X168851713Y-104593323D01*
X168839938Y-104586893D01*
X168827923Y-104596189D01*
X168792069Y-104647394D01*
X168786586Y-104656889D01*
X168694510Y-104854347D01*
X168690764Y-104864639D01*
X168634375Y-105075088D01*
X168632472Y-105085881D01*
X168613483Y-105302925D01*
X168613483Y-105313875D01*
X148673100Y-105313875D01*
X148673100Y-104221388D01*
X169204576Y-104221388D01*
X169211644Y-104234834D01*
X169913188Y-104936378D01*
X169927132Y-104943992D01*
X169928965Y-104943861D01*
X169935580Y-104939610D01*
X170641077Y-104234113D01*
X170647507Y-104222338D01*
X170638211Y-104210323D01*
X170587006Y-104174469D01*
X170577511Y-104168986D01*
X170380053Y-104076910D01*
X170369761Y-104073164D01*
X170159312Y-104016775D01*
X170148519Y-104014872D01*
X169931475Y-103995883D01*
X169920525Y-103995883D01*
X169703481Y-104014872D01*
X169692688Y-104016775D01*
X169482239Y-104073164D01*
X169471947Y-104076910D01*
X169274489Y-104168986D01*
X169264994Y-104174469D01*
X169212952Y-104210909D01*
X169204576Y-104221388D01*
X148673100Y-104221388D01*
X148673100Y-102697869D01*
X151448401Y-102697869D01*
X151448771Y-102704690D01*
X151454295Y-102755552D01*
X151457921Y-102770804D01*
X151503076Y-102891254D01*
X151511614Y-102906849D01*
X151588115Y-103008924D01*
X151600676Y-103021485D01*
X151702751Y-103097986D01*
X151718346Y-103106524D01*
X151838794Y-103151678D01*
X151854049Y-103155305D01*
X151904914Y-103160831D01*
X151911728Y-103161200D01*
X152534285Y-103161200D01*
X152549524Y-103156725D01*
X152550729Y-103155335D01*
X152552400Y-103147652D01*
X152552400Y-103143084D01*
X153060400Y-103143084D01*
X153064875Y-103158323D01*
X153066265Y-103159528D01*
X153073948Y-103161199D01*
X153701069Y-103161199D01*
X153707890Y-103160829D01*
X153758752Y-103155305D01*
X153774004Y-103151679D01*
X153894454Y-103106524D01*
X153910049Y-103097986D01*
X154012124Y-103021485D01*
X154024685Y-103008924D01*
X154101186Y-102906849D01*
X154109724Y-102891254D01*
X154150625Y-102782152D01*
X154193267Y-102725388D01*
X154259828Y-102700688D01*
X154329177Y-102715896D01*
X154363844Y-102743884D01*
X154389265Y-102773231D01*
X154389269Y-102773235D01*
X154392650Y-102777138D01*
X154564526Y-102919832D01*
X154757400Y-103032538D01*
X154966092Y-103112230D01*
X154971160Y-103113261D01*
X154971163Y-103113262D01*
X155078417Y-103135083D01*
X155184997Y-103156767D01*
X155190172Y-103156957D01*
X155190174Y-103156957D01*
X155403073Y-103164764D01*
X155403077Y-103164764D01*
X155408237Y-103164953D01*
X155413357Y-103164297D01*
X155413359Y-103164297D01*
X155624688Y-103137225D01*
X155624689Y-103137225D01*
X155629816Y-103136568D01*
X155634766Y-103135083D01*
X155838829Y-103073861D01*
X155838834Y-103073859D01*
X155843784Y-103072374D01*
X156044394Y-102974096D01*
X156226260Y-102844373D01*
X156384496Y-102686689D01*
X156514853Y-102505277D01*
X156516176Y-102506228D01*
X156563045Y-102463057D01*
X156632980Y-102450825D01*
X156698426Y-102478344D01*
X156726275Y-102510194D01*
X156786387Y-102608288D01*
X156932650Y-102777138D01*
X157104526Y-102919832D01*
X157297400Y-103032538D01*
X157506092Y-103112230D01*
X157511160Y-103113261D01*
X157511163Y-103113262D01*
X157618417Y-103135083D01*
X157724997Y-103156767D01*
X157730172Y-103156957D01*
X157730174Y-103156957D01*
X157943073Y-103164764D01*
X157943077Y-103164764D01*
X157948237Y-103164953D01*
X157953357Y-103164297D01*
X157953359Y-103164297D01*
X158164688Y-103137225D01*
X158164689Y-103137225D01*
X158169816Y-103136568D01*
X158174766Y-103135083D01*
X158378829Y-103073861D01*
X158378834Y-103073859D01*
X158383784Y-103072374D01*
X158584394Y-102974096D01*
X158766260Y-102844373D01*
X158924496Y-102686689D01*
X159054853Y-102505277D01*
X159056176Y-102506228D01*
X159103045Y-102463057D01*
X159172980Y-102450825D01*
X159238426Y-102478344D01*
X159266275Y-102510194D01*
X159326387Y-102608288D01*
X159472650Y-102777138D01*
X159644526Y-102919832D01*
X159837400Y-103032538D01*
X160046092Y-103112230D01*
X160051160Y-103113261D01*
X160051163Y-103113262D01*
X160158417Y-103135083D01*
X160264997Y-103156767D01*
X160270172Y-103156957D01*
X160270174Y-103156957D01*
X160483073Y-103164764D01*
X160483077Y-103164764D01*
X160488237Y-103164953D01*
X160493357Y-103164297D01*
X160493359Y-103164297D01*
X160704688Y-103137225D01*
X160704689Y-103137225D01*
X160709816Y-103136568D01*
X160714766Y-103135083D01*
X160918829Y-103073861D01*
X160918834Y-103073859D01*
X160923784Y-103072374D01*
X161124394Y-102974096D01*
X161306260Y-102844373D01*
X161464496Y-102686689D01*
X161594853Y-102505277D01*
X161615720Y-102463057D01*
X161691536Y-102309653D01*
X161691537Y-102309651D01*
X161693830Y-102305011D01*
X161738547Y-102157831D01*
X161757265Y-102096223D01*
X161757265Y-102096221D01*
X161758770Y-102091269D01*
X161787929Y-101869790D01*
X161789556Y-101803200D01*
X161771252Y-101580561D01*
X161716831Y-101363902D01*
X161627754Y-101159040D01*
X161506414Y-100971477D01*
X161356070Y-100806251D01*
X161352019Y-100803052D01*
X161352015Y-100803048D01*
X161184814Y-100671000D01*
X161184810Y-100670998D01*
X161180759Y-100667798D01*
X160985189Y-100559838D01*
X160980320Y-100558114D01*
X160980316Y-100558112D01*
X160779487Y-100486995D01*
X160779483Y-100486994D01*
X160774612Y-100485269D01*
X160769519Y-100484362D01*
X160769516Y-100484361D01*
X160559773Y-100447000D01*
X160559767Y-100446999D01*
X160554684Y-100446094D01*
X160480852Y-100445192D01*
X160336481Y-100443428D01*
X160336479Y-100443428D01*
X160331311Y-100443365D01*
X160110491Y-100477155D01*
X159898156Y-100546557D01*
X159700007Y-100649707D01*
X159695874Y-100652810D01*
X159695871Y-100652812D01*
X159612850Y-100715146D01*
X159521365Y-100783835D01*
X159367029Y-100945338D01*
X159259601Y-101102821D01*
X159204693Y-101147821D01*
X159134168Y-101155992D01*
X159070421Y-101124738D01*
X159049724Y-101100254D01*
X158969222Y-100975817D01*
X158969220Y-100975814D01*
X158966414Y-100971477D01*
X158816070Y-100806251D01*
X158812019Y-100803052D01*
X158812015Y-100803048D01*
X158644814Y-100671000D01*
X158644810Y-100670998D01*
X158640759Y-100667798D01*
X158445189Y-100559838D01*
X158440320Y-100558114D01*
X158440316Y-100558112D01*
X158239487Y-100486995D01*
X158239483Y-100486994D01*
X158234612Y-100485269D01*
X158229519Y-100484362D01*
X158229516Y-100484361D01*
X158019773Y-100447000D01*
X158019767Y-100446999D01*
X158014684Y-100446094D01*
X157940852Y-100445192D01*
X157796481Y-100443428D01*
X157796479Y-100443428D01*
X157791311Y-100443365D01*
X157570491Y-100477155D01*
X157358156Y-100546557D01*
X157160007Y-100649707D01*
X157155874Y-100652810D01*
X157155871Y-100652812D01*
X157072850Y-100715146D01*
X156981365Y-100783835D01*
X156827029Y-100945338D01*
X156719601Y-101102821D01*
X156664693Y-101147821D01*
X156594168Y-101155992D01*
X156530421Y-101124738D01*
X156509724Y-101100254D01*
X156429222Y-100975817D01*
X156429220Y-100975814D01*
X156426414Y-100971477D01*
X156276070Y-100806251D01*
X156272019Y-100803052D01*
X156272015Y-100803048D01*
X156104814Y-100671000D01*
X156104810Y-100670998D01*
X156100759Y-100667798D01*
X155905189Y-100559838D01*
X155900320Y-100558114D01*
X155900316Y-100558112D01*
X155699487Y-100486995D01*
X155699483Y-100486994D01*
X155694612Y-100485269D01*
X155689519Y-100484362D01*
X155689516Y-100484361D01*
X155479773Y-100447000D01*
X155479767Y-100446999D01*
X155474684Y-100446094D01*
X155400852Y-100445192D01*
X155256481Y-100443428D01*
X155256479Y-100443428D01*
X155251311Y-100443365D01*
X155030491Y-100477155D01*
X154818156Y-100546557D01*
X154620007Y-100649707D01*
X154615874Y-100652810D01*
X154615871Y-100652812D01*
X154532850Y-100715146D01*
X154441365Y-100783835D01*
X154437793Y-100787573D01*
X154360298Y-100868666D01*
X154298774Y-100904095D01*
X154227862Y-100900638D01*
X154170076Y-100859392D01*
X154151223Y-100825844D01*
X154109724Y-100715146D01*
X154101186Y-100699551D01*
X154024685Y-100597476D01*
X154012124Y-100584915D01*
X153910049Y-100508414D01*
X153894454Y-100499876D01*
X153774006Y-100454722D01*
X153758751Y-100451095D01*
X153707886Y-100445569D01*
X153701072Y-100445200D01*
X153078515Y-100445200D01*
X153063276Y-100449675D01*
X153062071Y-100451065D01*
X153060400Y-100458748D01*
X153060400Y-103143084D01*
X152552400Y-103143084D01*
X152552400Y-102075315D01*
X152547925Y-102060076D01*
X152546535Y-102058871D01*
X152538852Y-102057200D01*
X151466516Y-102057200D01*
X151451277Y-102061675D01*
X151450072Y-102063065D01*
X151448401Y-102070748D01*
X151448401Y-102697869D01*
X148673100Y-102697869D01*
X148673100Y-101531085D01*
X151448400Y-101531085D01*
X151452875Y-101546324D01*
X151454265Y-101547529D01*
X151461948Y-101549200D01*
X152534285Y-101549200D01*
X152549524Y-101544725D01*
X152550729Y-101543335D01*
X152552400Y-101535652D01*
X152552400Y-100463316D01*
X152547925Y-100448077D01*
X152546535Y-100446872D01*
X152538852Y-100445201D01*
X151911731Y-100445201D01*
X151904910Y-100445571D01*
X151854048Y-100451095D01*
X151838796Y-100454721D01*
X151718346Y-100499876D01*
X151702751Y-100508414D01*
X151600676Y-100584915D01*
X151588115Y-100597476D01*
X151511614Y-100699551D01*
X151503076Y-100715146D01*
X151457922Y-100835594D01*
X151454295Y-100850849D01*
X151448769Y-100901714D01*
X151448400Y-100908528D01*
X151448400Y-101531085D01*
X148673100Y-101531085D01*
X148673100Y-99183654D01*
X148693102Y-99115533D01*
X148710005Y-99094559D01*
X153178711Y-94625853D01*
X153193123Y-94613467D01*
X153204718Y-94604934D01*
X153204723Y-94604929D01*
X153210618Y-94600591D01*
X153215357Y-94595013D01*
X153215360Y-94595010D01*
X153244835Y-94560315D01*
X153251765Y-94552799D01*
X153257461Y-94547103D01*
X153259724Y-94544242D01*
X153259729Y-94544237D01*
X153275085Y-94524827D01*
X153277874Y-94521425D01*
X153320396Y-94471374D01*
X153320397Y-94471373D01*
X153325133Y-94465798D01*
X153328461Y-94459281D01*
X153331827Y-94454233D01*
X153334990Y-94449111D01*
X153339535Y-94443367D01*
X153370464Y-94377188D01*
X153372363Y-94373304D01*
X153405569Y-94308275D01*
X153407310Y-94301160D01*
X153409413Y-94295505D01*
X153411322Y-94289766D01*
X153414422Y-94283133D01*
X153429291Y-94211648D01*
X153430261Y-94207365D01*
X153441238Y-94162505D01*
X153447608Y-94136473D01*
X153448208Y-94126811D01*
X153448300Y-94125319D01*
X153448335Y-94125321D01*
X153448575Y-94121349D01*
X153448952Y-94117128D01*
X153450441Y-94109968D01*
X153448346Y-94032541D01*
X153448300Y-94029133D01*
X153448300Y-92934100D01*
X153468302Y-92865979D01*
X153521958Y-92819486D01*
X153574300Y-92808100D01*
X165324891Y-92808100D01*
X165393012Y-92828102D01*
X165421802Y-92855195D01*
X165422387Y-92854688D01*
X165568650Y-93023538D01*
X165740526Y-93166232D01*
X165933400Y-93278938D01*
X165938225Y-93280780D01*
X165938226Y-93280781D01*
X166011012Y-93308575D01*
X166142092Y-93358630D01*
X166147160Y-93359661D01*
X166147163Y-93359662D01*
X166254417Y-93381483D01*
X166360997Y-93403167D01*
X166366172Y-93403357D01*
X166366174Y-93403357D01*
X166579073Y-93411164D01*
X166579077Y-93411164D01*
X166584237Y-93411353D01*
X166589357Y-93410697D01*
X166589359Y-93410697D01*
X166800688Y-93383625D01*
X166800689Y-93383625D01*
X166805816Y-93382968D01*
X166810766Y-93381483D01*
X167014829Y-93320261D01*
X167014834Y-93320259D01*
X167019784Y-93318774D01*
X167220394Y-93220496D01*
X167402260Y-93090773D01*
X167560496Y-92933089D01*
X167690853Y-92751677D01*
X167780123Y-92571053D01*
X167787536Y-92556053D01*
X167787537Y-92556051D01*
X167789830Y-92551411D01*
X167822300Y-92444540D01*
X167853265Y-92342623D01*
X167853265Y-92342621D01*
X167854770Y-92337669D01*
X167883929Y-92116190D01*
X167884011Y-92112840D01*
X167885474Y-92052965D01*
X167885474Y-92052961D01*
X167885556Y-92049600D01*
X167867252Y-91826961D01*
X167812831Y-91610302D01*
X167723754Y-91405440D01*
X167649784Y-91291100D01*
X167605222Y-91222217D01*
X167605220Y-91222214D01*
X167602414Y-91217877D01*
X167452070Y-91052651D01*
X167448019Y-91049452D01*
X167448015Y-91049448D01*
X167280814Y-90917400D01*
X167280810Y-90917398D01*
X167276759Y-90914198D01*
X167235453Y-90891396D01*
X167185484Y-90840964D01*
X167170712Y-90771521D01*
X167195828Y-90705116D01*
X167223180Y-90678509D01*
X167285424Y-90634111D01*
X167402260Y-90550773D01*
X167560496Y-90393089D01*
X167619994Y-90310289D01*
X167687835Y-90215877D01*
X167690853Y-90211677D01*
X167711720Y-90169457D01*
X167787536Y-90016053D01*
X167787537Y-90016051D01*
X167789830Y-90011411D01*
X167822300Y-89904540D01*
X167853265Y-89802623D01*
X167853265Y-89802621D01*
X167854770Y-89797669D01*
X167883929Y-89576190D01*
X167885190Y-89524600D01*
X167885474Y-89512965D01*
X167885474Y-89512961D01*
X167885556Y-89509600D01*
X167867252Y-89286961D01*
X167812831Y-89070302D01*
X167723754Y-88865440D01*
X167602414Y-88677877D01*
X167598932Y-88674050D01*
X167455198Y-88516088D01*
X167424146Y-88452242D01*
X167432541Y-88381743D01*
X167477717Y-88326975D01*
X167504161Y-88313306D01*
X167610697Y-88273367D01*
X167619105Y-88270215D01*
X167735661Y-88182861D01*
X167823015Y-88066305D01*
X167874145Y-87929916D01*
X167880900Y-87867734D01*
X167880900Y-86712485D01*
X170822800Y-86712485D01*
X170827275Y-86727724D01*
X170828665Y-86728929D01*
X170836348Y-86730600D01*
X171908685Y-86730600D01*
X171923924Y-86726125D01*
X171925129Y-86724735D01*
X171926800Y-86717052D01*
X171926800Y-86712485D01*
X172434800Y-86712485D01*
X172439275Y-86727724D01*
X172440665Y-86728929D01*
X172448348Y-86730600D01*
X173520684Y-86730600D01*
X173535923Y-86726125D01*
X173537128Y-86724735D01*
X173538799Y-86717052D01*
X173538799Y-86089931D01*
X173538429Y-86083110D01*
X173532905Y-86032248D01*
X173529279Y-86016996D01*
X173484124Y-85896546D01*
X173475586Y-85880951D01*
X173399085Y-85778876D01*
X173386524Y-85766315D01*
X173284449Y-85689814D01*
X173268854Y-85681276D01*
X173148406Y-85636122D01*
X173133151Y-85632495D01*
X173082286Y-85626969D01*
X173075472Y-85626600D01*
X172452915Y-85626600D01*
X172437676Y-85631075D01*
X172436471Y-85632465D01*
X172434800Y-85640148D01*
X172434800Y-86712485D01*
X171926800Y-86712485D01*
X171926800Y-85644716D01*
X171922325Y-85629477D01*
X171920935Y-85628272D01*
X171913252Y-85626601D01*
X171286131Y-85626601D01*
X171279310Y-85626971D01*
X171228448Y-85632495D01*
X171213196Y-85636121D01*
X171092746Y-85681276D01*
X171077151Y-85689814D01*
X170975076Y-85766315D01*
X170962515Y-85778876D01*
X170886014Y-85880951D01*
X170877476Y-85896546D01*
X170832322Y-86016994D01*
X170828695Y-86032249D01*
X170823169Y-86083114D01*
X170822800Y-86089928D01*
X170822800Y-86712485D01*
X167880900Y-86712485D01*
X167880900Y-86071466D01*
X167874145Y-86009284D01*
X167823015Y-85872895D01*
X167735661Y-85756339D01*
X167619105Y-85668985D01*
X167482716Y-85617855D01*
X167420534Y-85611100D01*
X165624266Y-85611100D01*
X165562084Y-85617855D01*
X165425695Y-85668985D01*
X165309139Y-85756339D01*
X165221785Y-85872895D01*
X165170655Y-86009284D01*
X165163900Y-86071466D01*
X165163900Y-87867734D01*
X165170655Y-87929916D01*
X165221785Y-88066305D01*
X165309139Y-88182861D01*
X165425695Y-88270215D01*
X165434104Y-88273367D01*
X165434105Y-88273368D01*
X165542851Y-88314135D01*
X165599616Y-88356776D01*
X165624316Y-88423338D01*
X165609109Y-88492687D01*
X165589716Y-88519168D01*
X165523680Y-88588271D01*
X165463029Y-88651738D01*
X165337143Y-88836280D01*
X165243088Y-89038905D01*
X165183389Y-89254170D01*
X165159651Y-89476295D01*
X165159948Y-89481448D01*
X165159948Y-89481451D01*
X165166276Y-89591190D01*
X165172510Y-89699315D01*
X165173647Y-89704361D01*
X165173648Y-89704367D01*
X165175890Y-89714315D01*
X165221622Y-89917239D01*
X165305666Y-90124216D01*
X165343085Y-90185278D01*
X165419691Y-90310288D01*
X165422387Y-90314688D01*
X165568650Y-90483538D01*
X165740526Y-90626232D01*
X165759532Y-90637338D01*
X165813845Y-90669076D01*
X165862569Y-90720714D01*
X165875640Y-90790497D01*
X165848909Y-90856269D01*
X165808455Y-90889627D01*
X165796007Y-90896107D01*
X165791874Y-90899210D01*
X165791871Y-90899212D01*
X165621500Y-91027130D01*
X165617365Y-91030235D01*
X165463029Y-91191738D01*
X165432763Y-91236107D01*
X165377855Y-91281107D01*
X165328677Y-91291100D01*
X153574300Y-91291100D01*
X153506179Y-91271098D01*
X153459686Y-91217442D01*
X153448300Y-91165100D01*
X153448300Y-90702232D01*
X153468302Y-90634111D01*
X153501131Y-90599654D01*
X153569660Y-90550773D01*
X153727896Y-90393089D01*
X153787394Y-90310289D01*
X153858253Y-90211677D01*
X153859576Y-90212628D01*
X153906445Y-90169457D01*
X153976380Y-90157225D01*
X154041826Y-90184744D01*
X154069675Y-90216594D01*
X154129787Y-90314688D01*
X154276050Y-90483538D01*
X154447926Y-90626232D01*
X154640800Y-90738938D01*
X154849492Y-90818630D01*
X154854560Y-90819661D01*
X154854563Y-90819662D01*
X154959266Y-90840964D01*
X155068397Y-90863167D01*
X155073572Y-90863357D01*
X155073574Y-90863357D01*
X155286473Y-90871164D01*
X155286477Y-90871164D01*
X155291637Y-90871353D01*
X155296757Y-90870697D01*
X155296759Y-90870697D01*
X155508088Y-90843625D01*
X155508089Y-90843625D01*
X155513216Y-90842968D01*
X155519896Y-90840964D01*
X155722229Y-90780261D01*
X155722234Y-90780259D01*
X155727184Y-90778774D01*
X155927794Y-90680496D01*
X156109660Y-90550773D01*
X156217891Y-90442919D01*
X156280262Y-90409004D01*
X156351068Y-90414192D01*
X156407830Y-90456838D01*
X156424812Y-90487941D01*
X156469185Y-90606305D01*
X156556539Y-90722861D01*
X156673095Y-90810215D01*
X156809484Y-90861345D01*
X156871666Y-90868100D01*
X158667934Y-90868100D01*
X158730116Y-90861345D01*
X158866505Y-90810215D01*
X158983061Y-90722861D01*
X159070415Y-90606305D01*
X159121545Y-90469916D01*
X159128300Y-90407734D01*
X159128300Y-88611466D01*
X159121545Y-88549284D01*
X159070415Y-88412895D01*
X158983061Y-88296339D01*
X158866505Y-88208985D01*
X158730116Y-88157855D01*
X158667934Y-88151100D01*
X156871666Y-88151100D01*
X156809484Y-88157855D01*
X156673095Y-88208985D01*
X156556539Y-88296339D01*
X156469185Y-88412895D01*
X156466033Y-88421303D01*
X156424719Y-88531507D01*
X156382077Y-88588271D01*
X156315516Y-88612971D01*
X156246167Y-88597763D01*
X156213543Y-88572076D01*
X156162951Y-88516475D01*
X156162942Y-88516466D01*
X156159470Y-88512651D01*
X156155419Y-88509452D01*
X156155415Y-88509448D01*
X155988214Y-88377400D01*
X155988210Y-88377398D01*
X155984159Y-88374198D01*
X155979062Y-88371384D01*
X155900652Y-88328100D01*
X155788589Y-88266238D01*
X155783720Y-88264514D01*
X155783716Y-88264512D01*
X155582887Y-88193395D01*
X155582883Y-88193394D01*
X155578012Y-88191669D01*
X155572919Y-88190762D01*
X155572916Y-88190761D01*
X155363173Y-88153400D01*
X155363167Y-88153399D01*
X155358084Y-88152494D01*
X155284252Y-88151592D01*
X155139881Y-88149828D01*
X155139879Y-88149828D01*
X155134711Y-88149765D01*
X154913891Y-88183555D01*
X154701556Y-88252957D01*
X154672741Y-88267957D01*
X154555975Y-88328742D01*
X154503407Y-88356107D01*
X154499274Y-88359210D01*
X154499271Y-88359212D01*
X154328900Y-88487130D01*
X154324765Y-88490235D01*
X154297116Y-88519168D01*
X154231080Y-88588271D01*
X154170429Y-88651738D01*
X154063001Y-88809221D01*
X154008093Y-88854221D01*
X153937568Y-88862392D01*
X153873821Y-88831138D01*
X153853124Y-88806654D01*
X153772622Y-88682217D01*
X153772620Y-88682214D01*
X153769814Y-88677877D01*
X153619470Y-88512651D01*
X153615419Y-88509452D01*
X153615415Y-88509448D01*
X153448214Y-88377400D01*
X153448210Y-88377398D01*
X153444159Y-88374198D01*
X153439062Y-88371384D01*
X153360652Y-88328100D01*
X153248589Y-88266238D01*
X153243720Y-88264514D01*
X153243716Y-88264512D01*
X153042887Y-88193395D01*
X153042883Y-88193394D01*
X153038012Y-88191669D01*
X153032919Y-88190762D01*
X153032916Y-88190761D01*
X152823173Y-88153400D01*
X152823167Y-88153399D01*
X152818084Y-88152494D01*
X152744252Y-88151592D01*
X152599881Y-88149828D01*
X152599879Y-88149828D01*
X152594711Y-88149765D01*
X152373891Y-88183555D01*
X152161556Y-88252957D01*
X152132741Y-88267957D01*
X152015975Y-88328742D01*
X151963407Y-88356107D01*
X151959274Y-88359210D01*
X151959271Y-88359212D01*
X151788900Y-88487130D01*
X151784765Y-88490235D01*
X151757116Y-88519168D01*
X151691080Y-88588271D01*
X151630429Y-88651738D01*
X151504543Y-88836280D01*
X151410488Y-89038905D01*
X151350789Y-89254170D01*
X151327051Y-89476295D01*
X151327348Y-89481448D01*
X151327348Y-89481451D01*
X151333676Y-89591190D01*
X151339910Y-89699315D01*
X151341047Y-89704361D01*
X151341048Y-89704367D01*
X151343290Y-89714315D01*
X151389022Y-89917239D01*
X151473066Y-90124216D01*
X151510485Y-90185278D01*
X151587091Y-90310288D01*
X151589787Y-90314688D01*
X151736050Y-90483538D01*
X151883924Y-90606305D01*
X151885785Y-90607850D01*
X151925420Y-90666752D01*
X151931300Y-90704794D01*
X151931300Y-91713530D01*
X151929867Y-91732480D01*
X151926601Y-91753949D01*
X151927194Y-91761241D01*
X151927194Y-91761244D01*
X151930885Y-91806618D01*
X151931300Y-91816833D01*
X151931300Y-93675712D01*
X151911298Y-93743833D01*
X151894395Y-93764807D01*
X149603995Y-96055207D01*
X149541683Y-96089233D01*
X149470868Y-96084168D01*
X149414032Y-96041621D01*
X149389221Y-95975101D01*
X149388900Y-95966112D01*
X149388900Y-94352666D01*
X149382145Y-94290484D01*
X149331015Y-94154095D01*
X149243661Y-94037539D01*
X149127105Y-93950185D01*
X148990716Y-93899055D01*
X148928534Y-93892300D01*
X147032266Y-93892300D01*
X146970084Y-93899055D01*
X146833695Y-93950185D01*
X146717139Y-94037539D01*
X146629785Y-94154095D01*
X146626633Y-94162503D01*
X146626632Y-94162505D01*
X146605938Y-94217706D01*
X146563297Y-94274471D01*
X146496735Y-94299171D01*
X146427386Y-94283964D01*
X146404567Y-94267466D01*
X146404287Y-94267158D01*
X146341670Y-94217706D01*
X146226577Y-94126811D01*
X146226572Y-94126808D01*
X146222523Y-94123610D01*
X146218007Y-94121117D01*
X146218004Y-94121115D01*
X146024279Y-94014173D01*
X146024275Y-94014171D01*
X146019755Y-94011676D01*
X146014886Y-94009952D01*
X146014882Y-94009950D01*
X145806303Y-93936088D01*
X145806299Y-93936087D01*
X145801428Y-93934362D01*
X145796335Y-93933455D01*
X145796332Y-93933454D01*
X145578495Y-93894651D01*
X145578489Y-93894650D01*
X145573406Y-93893745D01*
X145500496Y-93892854D01*
X145346981Y-93890979D01*
X145346979Y-93890979D01*
X145341811Y-93890916D01*
X145112864Y-93925950D01*
X144892714Y-93997906D01*
X144888126Y-94000294D01*
X144888122Y-94000296D01*
X144795187Y-94048675D01*
X144687272Y-94104852D01*
X144683139Y-94107955D01*
X144683136Y-94107957D01*
X144506190Y-94240812D01*
X144502055Y-94243917D01*
X144342039Y-94411364D01*
X144211519Y-94602699D01*
X144114002Y-94812781D01*
X144052107Y-95035969D01*
X144027495Y-95266269D01*
X144040827Y-95497497D01*
X144041964Y-95502543D01*
X144041965Y-95502549D01*
X144074141Y-95645323D01*
X144091746Y-95723442D01*
X144178884Y-95938037D01*
X144299901Y-96135519D01*
X144451547Y-96310584D01*
X144629749Y-96458530D01*
X144742473Y-96524400D01*
X144744470Y-96525567D01*
X144793194Y-96577205D01*
X144806900Y-96634355D01*
X144806900Y-117219877D01*
X144806373Y-117231060D01*
X144804698Y-117238553D01*
X144804947Y-117246479D01*
X144804947Y-117246480D01*
X144806838Y-117306630D01*
X144806900Y-117310589D01*
X144806900Y-117338500D01*
X144807397Y-117342434D01*
X144807397Y-117342435D01*
X144807405Y-117342500D01*
X144808338Y-117354337D01*
X144809727Y-117398533D01*
X144815378Y-117417983D01*
X144819387Y-117437344D01*
X144821926Y-117457441D01*
X144824845Y-117464812D01*
X144824845Y-117464814D01*
X144838204Y-117498556D01*
X144842049Y-117509786D01*
X144854382Y-117552237D01*
X144858415Y-117559056D01*
X144858417Y-117559061D01*
X144864693Y-117569672D01*
X144873388Y-117587420D01*
X144880848Y-117606261D01*
X144885510Y-117612677D01*
X144885510Y-117612678D01*
X144906836Y-117642031D01*
X144913352Y-117651951D01*
X144917513Y-117658986D01*
X144935858Y-117690006D01*
X144950179Y-117704327D01*
X144963019Y-117719360D01*
X144974928Y-117735751D01*
X145005797Y-117761288D01*
X145009005Y-117763942D01*
X145017784Y-117771932D01*
X154288005Y-127042153D01*
X154322031Y-127104465D01*
X154316966Y-127175280D01*
X154274419Y-127232116D01*
X154252161Y-127245442D01*
X154058651Y-127335677D01*
X153953789Y-127409102D01*
X153875611Y-127463843D01*
X153875608Y-127463845D01*
X153871100Y-127467002D01*
X153709202Y-127628900D01*
X153577877Y-127816451D01*
X153575554Y-127821433D01*
X153575551Y-127821438D01*
X153559595Y-127855657D01*
X153512678Y-127908942D01*
X153444401Y-127928403D01*
X153376441Y-127907861D01*
X153331205Y-127855657D01*
X153315249Y-127821438D01*
X153315246Y-127821433D01*
X153312923Y-127816451D01*
X153181598Y-127628900D01*
X153019700Y-127467002D01*
X153015192Y-127463845D01*
X153015189Y-127463843D01*
X152937011Y-127409102D01*
X152832149Y-127335677D01*
X152827167Y-127333354D01*
X152827162Y-127333351D01*
X152629625Y-127241239D01*
X152629624Y-127241239D01*
X152624643Y-127238916D01*
X152619335Y-127237494D01*
X152619333Y-127237493D01*
X152408802Y-127181081D01*
X152408800Y-127181081D01*
X152403487Y-127179657D01*
X152175400Y-127159702D01*
X151947313Y-127179657D01*
X151942000Y-127181081D01*
X151941998Y-127181081D01*
X151731467Y-127237493D01*
X151731465Y-127237494D01*
X151726157Y-127238916D01*
X151721176Y-127241239D01*
X151721175Y-127241239D01*
X151523638Y-127333351D01*
X151523633Y-127333354D01*
X151518651Y-127335677D01*
X151413789Y-127409102D01*
X151335611Y-127463843D01*
X151335608Y-127463845D01*
X151331100Y-127467002D01*
X151169202Y-127628900D01*
X151037877Y-127816451D01*
X151035554Y-127821433D01*
X151035551Y-127821438D01*
X151019595Y-127855657D01*
X150972678Y-127908942D01*
X150904401Y-127928403D01*
X150836441Y-127907861D01*
X150791205Y-127855657D01*
X150775249Y-127821438D01*
X150775246Y-127821433D01*
X150772923Y-127816451D01*
X150641598Y-127628900D01*
X150479700Y-127467002D01*
X150475192Y-127463845D01*
X150475189Y-127463843D01*
X150397011Y-127409102D01*
X150292149Y-127335677D01*
X150287167Y-127333354D01*
X150287162Y-127333351D01*
X150089625Y-127241239D01*
X150089624Y-127241239D01*
X150084643Y-127238916D01*
X150079335Y-127237494D01*
X150079333Y-127237493D01*
X149868802Y-127181081D01*
X149868800Y-127181081D01*
X149863487Y-127179657D01*
X149635400Y-127159702D01*
X149407313Y-127179657D01*
X149402000Y-127181081D01*
X149401998Y-127181081D01*
X149191467Y-127237493D01*
X149191465Y-127237494D01*
X149186157Y-127238916D01*
X149181176Y-127241239D01*
X149181175Y-127241239D01*
X148983638Y-127333351D01*
X148983633Y-127333354D01*
X148978651Y-127335677D01*
X148873789Y-127409102D01*
X148795611Y-127463843D01*
X148795608Y-127463845D01*
X148791100Y-127467002D01*
X148629202Y-127628900D01*
X148497877Y-127816451D01*
X148495554Y-127821433D01*
X148495551Y-127821438D01*
X148479595Y-127855657D01*
X148432678Y-127908942D01*
X148364401Y-127928403D01*
X148296441Y-127907861D01*
X148251205Y-127855657D01*
X148235249Y-127821438D01*
X148235246Y-127821433D01*
X148232923Y-127816451D01*
X148101598Y-127628900D01*
X147939700Y-127467002D01*
X147935192Y-127463845D01*
X147935189Y-127463843D01*
X147857011Y-127409102D01*
X147752149Y-127335677D01*
X147747167Y-127333354D01*
X147747162Y-127333351D01*
X147549625Y-127241239D01*
X147549624Y-127241239D01*
X147544643Y-127238916D01*
X147539335Y-127237494D01*
X147539333Y-127237493D01*
X147328802Y-127181081D01*
X147328800Y-127181081D01*
X147323487Y-127179657D01*
X147095400Y-127159702D01*
X146867313Y-127179657D01*
X146862000Y-127181081D01*
X146861998Y-127181081D01*
X146651467Y-127237493D01*
X146651465Y-127237494D01*
X146646157Y-127238916D01*
X146641176Y-127241239D01*
X146641175Y-127241239D01*
X146443638Y-127333351D01*
X146443633Y-127333354D01*
X146438651Y-127335677D01*
X146333789Y-127409102D01*
X146255611Y-127463843D01*
X146255608Y-127463845D01*
X146251100Y-127467002D01*
X146089202Y-127628900D01*
X145957877Y-127816451D01*
X145955554Y-127821433D01*
X145955551Y-127821438D01*
X145939595Y-127855657D01*
X145892678Y-127908942D01*
X145824401Y-127928403D01*
X145756441Y-127907861D01*
X145711205Y-127855657D01*
X145695249Y-127821438D01*
X145695246Y-127821433D01*
X145692923Y-127816451D01*
X145561598Y-127628900D01*
X145399700Y-127467002D01*
X145395192Y-127463845D01*
X145395189Y-127463843D01*
X145317011Y-127409102D01*
X145212149Y-127335677D01*
X145207167Y-127333354D01*
X145207162Y-127333351D01*
X145009625Y-127241239D01*
X145009624Y-127241239D01*
X145004643Y-127238916D01*
X144999335Y-127237494D01*
X144999333Y-127237493D01*
X144788802Y-127181081D01*
X144788800Y-127181081D01*
X144783487Y-127179657D01*
X144555400Y-127159702D01*
X144327313Y-127179657D01*
X144322000Y-127181081D01*
X144321998Y-127181081D01*
X144111467Y-127237493D01*
X144111465Y-127237494D01*
X144106157Y-127238916D01*
X144101176Y-127241239D01*
X144101175Y-127241239D01*
X143903638Y-127333351D01*
X143903633Y-127333354D01*
X143898651Y-127335677D01*
X143793789Y-127409102D01*
X143715611Y-127463843D01*
X143715608Y-127463845D01*
X143711100Y-127467002D01*
X143549202Y-127628900D01*
X143417877Y-127816451D01*
X143415554Y-127821433D01*
X143415551Y-127821438D01*
X143399595Y-127855657D01*
X143352678Y-127908942D01*
X143284401Y-127928403D01*
X143216441Y-127907861D01*
X143171205Y-127855657D01*
X143155249Y-127821438D01*
X143155246Y-127821433D01*
X143152923Y-127816451D01*
X143021598Y-127628900D01*
X142859700Y-127467002D01*
X142855192Y-127463845D01*
X142855189Y-127463843D01*
X142777011Y-127409102D01*
X142672149Y-127335677D01*
X142667167Y-127333354D01*
X142667162Y-127333351D01*
X142469625Y-127241239D01*
X142469624Y-127241239D01*
X142464643Y-127238916D01*
X142459335Y-127237494D01*
X142459333Y-127237493D01*
X142248802Y-127181081D01*
X142248800Y-127181081D01*
X142243487Y-127179657D01*
X142015400Y-127159702D01*
X141787313Y-127179657D01*
X141782000Y-127181081D01*
X141781998Y-127181081D01*
X141571467Y-127237493D01*
X141571465Y-127237494D01*
X141566157Y-127238916D01*
X141561176Y-127241239D01*
X141561175Y-127241239D01*
X141363638Y-127333351D01*
X141363633Y-127333354D01*
X141358651Y-127335677D01*
X141253789Y-127409102D01*
X141175611Y-127463843D01*
X141175608Y-127463845D01*
X141171100Y-127467002D01*
X141009202Y-127628900D01*
X140877877Y-127816451D01*
X140875554Y-127821433D01*
X140875551Y-127821438D01*
X140859319Y-127856249D01*
X140812402Y-127909534D01*
X140744125Y-127928995D01*
X140676165Y-127908453D01*
X140630929Y-127856249D01*
X140614814Y-127821689D01*
X140609331Y-127812193D01*
X140484372Y-127633733D01*
X140477316Y-127625325D01*
X140323275Y-127471284D01*
X140314867Y-127464228D01*
X140136407Y-127339269D01*
X140126911Y-127333786D01*
X139929453Y-127241710D01*
X139919161Y-127237964D01*
X139746897Y-127191806D01*
X139732801Y-127192142D01*
X139729400Y-127200084D01*
X139729400Y-129741167D01*
X139221400Y-129741167D01*
X139221400Y-127205233D01*
X139217427Y-127191702D01*
X139208878Y-127190473D01*
X139031639Y-127237964D01*
X139021347Y-127241710D01*
X138823889Y-127333786D01*
X138814393Y-127339269D01*
X138635933Y-127464228D01*
X138627525Y-127471284D01*
X138473484Y-127625325D01*
X138466428Y-127633733D01*
X138341469Y-127812193D01*
X138335986Y-127821689D01*
X138319871Y-127856249D01*
X138272954Y-127909534D01*
X138204677Y-127928995D01*
X138136717Y-127908453D01*
X138091481Y-127856249D01*
X138075249Y-127821438D01*
X138075246Y-127821433D01*
X138072923Y-127816451D01*
X137941598Y-127628900D01*
X137779700Y-127467002D01*
X137775192Y-127463845D01*
X137775189Y-127463843D01*
X137697011Y-127409102D01*
X137592149Y-127335677D01*
X137587167Y-127333354D01*
X137587162Y-127333351D01*
X137389625Y-127241239D01*
X137389624Y-127241239D01*
X137384643Y-127238916D01*
X137379335Y-127237494D01*
X137379333Y-127237493D01*
X137168802Y-127181081D01*
X137168800Y-127181081D01*
X137163487Y-127179657D01*
X136935400Y-127159702D01*
X136707313Y-127179657D01*
X136702000Y-127181081D01*
X136701998Y-127181081D01*
X136491467Y-127237493D01*
X136491465Y-127237494D01*
X136486157Y-127238916D01*
X136481176Y-127241239D01*
X136481175Y-127241239D01*
X136283638Y-127333351D01*
X136283633Y-127333354D01*
X136278651Y-127335677D01*
X136173789Y-127409102D01*
X136095611Y-127463843D01*
X136095608Y-127463845D01*
X136091100Y-127467002D01*
X135929202Y-127628900D01*
X135797877Y-127816451D01*
X135795554Y-127821433D01*
X135795551Y-127821438D01*
X135779595Y-127855657D01*
X135732678Y-127908942D01*
X135664401Y-127928403D01*
X135596441Y-127907861D01*
X135551205Y-127855657D01*
X135535249Y-127821438D01*
X135535246Y-127821433D01*
X135532923Y-127816451D01*
X135401598Y-127628900D01*
X135239700Y-127467002D01*
X135235192Y-127463845D01*
X135235189Y-127463843D01*
X135157011Y-127409102D01*
X135052149Y-127335677D01*
X135047167Y-127333354D01*
X135047162Y-127333351D01*
X134849625Y-127241239D01*
X134849624Y-127241239D01*
X134844643Y-127238916D01*
X134839335Y-127237494D01*
X134839333Y-127237493D01*
X134628802Y-127181081D01*
X134628800Y-127181081D01*
X134623487Y-127179657D01*
X134395400Y-127159702D01*
X134167313Y-127179657D01*
X134162000Y-127181081D01*
X134161998Y-127181081D01*
X133951467Y-127237493D01*
X133951465Y-127237494D01*
X133946157Y-127238916D01*
X133941176Y-127241239D01*
X133941175Y-127241239D01*
X133743638Y-127333351D01*
X133743633Y-127333354D01*
X133738651Y-127335677D01*
X133633789Y-127409102D01*
X133555611Y-127463843D01*
X133555608Y-127463845D01*
X133551100Y-127467002D01*
X133389202Y-127628900D01*
X133257877Y-127816451D01*
X133255554Y-127821433D01*
X133255551Y-127821438D01*
X133239595Y-127855657D01*
X133192678Y-127908942D01*
X133124401Y-127928403D01*
X133056441Y-127907861D01*
X133011205Y-127855657D01*
X132995249Y-127821438D01*
X132995246Y-127821433D01*
X132992923Y-127816451D01*
X132861598Y-127628900D01*
X132699700Y-127467002D01*
X132695192Y-127463845D01*
X132695189Y-127463843D01*
X132617011Y-127409102D01*
X132512149Y-127335677D01*
X132507167Y-127333354D01*
X132507162Y-127333351D01*
X132309625Y-127241239D01*
X132309624Y-127241239D01*
X132304643Y-127238916D01*
X132299335Y-127237494D01*
X132299333Y-127237493D01*
X132088802Y-127181081D01*
X132088800Y-127181081D01*
X132083487Y-127179657D01*
X131855400Y-127159702D01*
X131627313Y-127179657D01*
X131622000Y-127181081D01*
X131621998Y-127181081D01*
X131411467Y-127237493D01*
X131411465Y-127237494D01*
X131406157Y-127238916D01*
X131401176Y-127241239D01*
X131401175Y-127241239D01*
X131203638Y-127333351D01*
X131203633Y-127333354D01*
X131198651Y-127335677D01*
X131093789Y-127409102D01*
X131015611Y-127463843D01*
X131015608Y-127463845D01*
X131011100Y-127467002D01*
X130849202Y-127628900D01*
X130717877Y-127816451D01*
X130715554Y-127821433D01*
X130715551Y-127821438D01*
X130642358Y-127978403D01*
X130621116Y-128023957D01*
X130561857Y-128245113D01*
X130541902Y-128473200D01*
X130126253Y-128473200D01*
X130094015Y-128283464D01*
X130091850Y-128270724D01*
X130090269Y-128256688D01*
X130080225Y-128077821D01*
X130076489Y-128011300D01*
X130077811Y-127987408D01*
X130077734Y-127987401D01*
X130077937Y-127985137D01*
X130078037Y-127983331D01*
X130078170Y-127982542D01*
X130078976Y-127977752D01*
X130079129Y-127965200D01*
X130075173Y-127937576D01*
X130073900Y-127919714D01*
X130073900Y-126054062D01*
X131714093Y-126054062D01*
X131723389Y-126066077D01*
X131774594Y-126101931D01*
X131784089Y-126107414D01*
X131981547Y-126199490D01*
X131991839Y-126203236D01*
X132202288Y-126259625D01*
X132213081Y-126261528D01*
X132430125Y-126280517D01*
X132441075Y-126280517D01*
X132658119Y-126261528D01*
X132668912Y-126259625D01*
X132879361Y-126203236D01*
X132889653Y-126199490D01*
X133087111Y-126107414D01*
X133096606Y-126101931D01*
X133148648Y-126065491D01*
X133157024Y-126055012D01*
X133149956Y-126041566D01*
X132448412Y-125340022D01*
X132434468Y-125332408D01*
X132432635Y-125332539D01*
X132426020Y-125336790D01*
X131720523Y-126042287D01*
X131714093Y-126054062D01*
X130073900Y-126054062D01*
X130073900Y-124973475D01*
X131123083Y-124973475D01*
X131142072Y-125190519D01*
X131143975Y-125201312D01*
X131200364Y-125411761D01*
X131204110Y-125422053D01*
X131296186Y-125619511D01*
X131301669Y-125629006D01*
X131338109Y-125681048D01*
X131348588Y-125689424D01*
X131362034Y-125682356D01*
X132063578Y-124980812D01*
X132069956Y-124969132D01*
X132800008Y-124969132D01*
X132800139Y-124970965D01*
X132804390Y-124977580D01*
X133509887Y-125683077D01*
X133521662Y-125689507D01*
X133533677Y-125680211D01*
X133569531Y-125629006D01*
X133575014Y-125619511D01*
X133667090Y-125422053D01*
X133670836Y-125411761D01*
X133727225Y-125201312D01*
X133729128Y-125190519D01*
X133748117Y-124973475D01*
X133748117Y-124962525D01*
X133729128Y-124745481D01*
X133727225Y-124734688D01*
X133670836Y-124524239D01*
X133667090Y-124513947D01*
X133575014Y-124316489D01*
X133569531Y-124306994D01*
X133533091Y-124254952D01*
X133522612Y-124246576D01*
X133509166Y-124253644D01*
X132807622Y-124955188D01*
X132800008Y-124969132D01*
X132069956Y-124969132D01*
X132071192Y-124966868D01*
X132071061Y-124965035D01*
X132066810Y-124958420D01*
X131361313Y-124252923D01*
X131349538Y-124246493D01*
X131337523Y-124255789D01*
X131301669Y-124306994D01*
X131296186Y-124316489D01*
X131204110Y-124513947D01*
X131200364Y-124524239D01*
X131143975Y-124734688D01*
X131142072Y-124745481D01*
X131123083Y-124962525D01*
X131123083Y-124973475D01*
X130073900Y-124973475D01*
X130073900Y-123880988D01*
X131714176Y-123880988D01*
X131721244Y-123894434D01*
X132422788Y-124595978D01*
X132436732Y-124603592D01*
X132438565Y-124603461D01*
X132445180Y-124599210D01*
X133150677Y-123893713D01*
X133157107Y-123881938D01*
X133147811Y-123869923D01*
X133096606Y-123834069D01*
X133087111Y-123828586D01*
X132889653Y-123736510D01*
X132879361Y-123732764D01*
X132668912Y-123676375D01*
X132658119Y-123674472D01*
X132441075Y-123655483D01*
X132430125Y-123655483D01*
X132213081Y-123674472D01*
X132202288Y-123676375D01*
X131991839Y-123732764D01*
X131981547Y-123736510D01*
X131784089Y-123828586D01*
X131774594Y-123834069D01*
X131722552Y-123870509D01*
X131714176Y-123880988D01*
X130073900Y-123880988D01*
X130073900Y-120074134D01*
X136970700Y-120074134D01*
X136977455Y-120136316D01*
X137028585Y-120272705D01*
X137115939Y-120389261D01*
X137232495Y-120476615D01*
X137368884Y-120527745D01*
X137431066Y-120534500D01*
X139327334Y-120534500D01*
X139389516Y-120527745D01*
X139525905Y-120476615D01*
X139642461Y-120389261D01*
X139729815Y-120272705D01*
X139754380Y-120207178D01*
X139797022Y-120150414D01*
X139863583Y-120125714D01*
X139932932Y-120140921D01*
X139952847Y-120154464D01*
X140060795Y-120244084D01*
X140108549Y-120283730D01*
X140308522Y-120400584D01*
X140524894Y-120483209D01*
X140529960Y-120484240D01*
X140529961Y-120484240D01*
X140583046Y-120495040D01*
X140751856Y-120529385D01*
X140881289Y-120534131D01*
X140978149Y-120537683D01*
X140978153Y-120537683D01*
X140983313Y-120537872D01*
X140988433Y-120537216D01*
X140988435Y-120537216D01*
X141062366Y-120527745D01*
X141213047Y-120508442D01*
X141217995Y-120506957D01*
X141218002Y-120506956D01*
X141429947Y-120443369D01*
X141434890Y-120441886D01*
X141486246Y-120416727D01*
X141638249Y-120342262D01*
X141638252Y-120342260D01*
X141642884Y-120339991D01*
X141831443Y-120205494D01*
X141995503Y-120042005D01*
X142130658Y-119853917D01*
X142157179Y-119800257D01*
X142230984Y-119650922D01*
X142230985Y-119650920D01*
X142233278Y-119646280D01*
X142300608Y-119424671D01*
X142330840Y-119195041D01*
X142332527Y-119126000D01*
X142325154Y-119036326D01*
X142313973Y-118900318D01*
X142313972Y-118900312D01*
X142313549Y-118895167D01*
X142281503Y-118767585D01*
X142258384Y-118675544D01*
X142258383Y-118675540D01*
X142257125Y-118670533D01*
X142252215Y-118659240D01*
X142166830Y-118462868D01*
X142166828Y-118462865D01*
X142164770Y-118458131D01*
X142038964Y-118263665D01*
X141883087Y-118092358D01*
X141879036Y-118089159D01*
X141879032Y-118089155D01*
X141705377Y-117952011D01*
X141705372Y-117952008D01*
X141701323Y-117948810D01*
X141696807Y-117946317D01*
X141696804Y-117946315D01*
X141503079Y-117839373D01*
X141503075Y-117839371D01*
X141498555Y-117836876D01*
X141493686Y-117835152D01*
X141493682Y-117835150D01*
X141285103Y-117761288D01*
X141285099Y-117761287D01*
X141280228Y-117759562D01*
X141275135Y-117758655D01*
X141275132Y-117758654D01*
X141057295Y-117719851D01*
X141057289Y-117719850D01*
X141052206Y-117718945D01*
X140979296Y-117718054D01*
X140825781Y-117716179D01*
X140825779Y-117716179D01*
X140820611Y-117716116D01*
X140591664Y-117751150D01*
X140371514Y-117823106D01*
X140366926Y-117825494D01*
X140366922Y-117825496D01*
X140170661Y-117927663D01*
X140166072Y-117930052D01*
X140161939Y-117933155D01*
X140161936Y-117933157D01*
X139984990Y-118066012D01*
X139980855Y-118069117D01*
X139971009Y-118079420D01*
X139963370Y-118087414D01*
X139901846Y-118122844D01*
X139830933Y-118119387D01*
X139773147Y-118078141D01*
X139754294Y-118044592D01*
X139732968Y-117987705D01*
X139732967Y-117987703D01*
X139729815Y-117979295D01*
X139642461Y-117862739D01*
X139525905Y-117775385D01*
X139389516Y-117724255D01*
X139327334Y-117717500D01*
X137431066Y-117717500D01*
X137368884Y-117724255D01*
X137232495Y-117775385D01*
X137115939Y-117862739D01*
X137028585Y-117979295D01*
X136977455Y-118115684D01*
X136970700Y-118177866D01*
X136970700Y-120074134D01*
X130073900Y-120074134D01*
X130073900Y-114808000D01*
X131122102Y-114808000D01*
X131142057Y-115036087D01*
X131143481Y-115041400D01*
X131143481Y-115041402D01*
X131176361Y-115164109D01*
X131201316Y-115257243D01*
X131203639Y-115262224D01*
X131203639Y-115262225D01*
X131295751Y-115459762D01*
X131295754Y-115459767D01*
X131298077Y-115464749D01*
X131343927Y-115530229D01*
X131422482Y-115642417D01*
X131429402Y-115652300D01*
X131591300Y-115814198D01*
X131595808Y-115817355D01*
X131595811Y-115817357D01*
X131668153Y-115868011D01*
X131778851Y-115945523D01*
X131783833Y-115947846D01*
X131783838Y-115947849D01*
X131919791Y-116011244D01*
X131986357Y-116042284D01*
X131991665Y-116043706D01*
X131991667Y-116043707D01*
X132202198Y-116100119D01*
X132202200Y-116100119D01*
X132207513Y-116101543D01*
X132435600Y-116121498D01*
X132663687Y-116101543D01*
X132669000Y-116100119D01*
X132669002Y-116100119D01*
X132879533Y-116043707D01*
X132879535Y-116043706D01*
X132884843Y-116042284D01*
X132951409Y-116011244D01*
X133087362Y-115947849D01*
X133087367Y-115947846D01*
X133092349Y-115945523D01*
X133203047Y-115868011D01*
X133275389Y-115817357D01*
X133275392Y-115817355D01*
X133279900Y-115814198D01*
X133441798Y-115652300D01*
X133448719Y-115642417D01*
X133527273Y-115530229D01*
X133573123Y-115464749D01*
X133575446Y-115459767D01*
X133575449Y-115459762D01*
X133667561Y-115262225D01*
X133667561Y-115262224D01*
X133669884Y-115257243D01*
X133694840Y-115164109D01*
X133727719Y-115041402D01*
X133727719Y-115041400D01*
X133729143Y-115036087D01*
X133749098Y-114808000D01*
X133729143Y-114579913D01*
X133727623Y-114574241D01*
X133671307Y-114364067D01*
X133671306Y-114364065D01*
X133669884Y-114358757D01*
X133658479Y-114334298D01*
X133575449Y-114156238D01*
X133575446Y-114156233D01*
X133573123Y-114151251D01*
X133441798Y-113963700D01*
X133279900Y-113801802D01*
X133275392Y-113798645D01*
X133275389Y-113798643D01*
X133184194Y-113734788D01*
X133092349Y-113670477D01*
X133087367Y-113668154D01*
X133087362Y-113668151D01*
X132889825Y-113576039D01*
X132889824Y-113576039D01*
X132884843Y-113573716D01*
X132879535Y-113572294D01*
X132879533Y-113572293D01*
X132669002Y-113515881D01*
X132669000Y-113515881D01*
X132663687Y-113514457D01*
X132435600Y-113494502D01*
X132207513Y-113514457D01*
X132202200Y-113515881D01*
X132202198Y-113515881D01*
X131991667Y-113572293D01*
X131991665Y-113572294D01*
X131986357Y-113573716D01*
X131981376Y-113576039D01*
X131981375Y-113576039D01*
X131783838Y-113668151D01*
X131783833Y-113668154D01*
X131778851Y-113670477D01*
X131687006Y-113734788D01*
X131595811Y-113798643D01*
X131595808Y-113798645D01*
X131591300Y-113801802D01*
X131429402Y-113963700D01*
X131298077Y-114151251D01*
X131295754Y-114156233D01*
X131295751Y-114156238D01*
X131212721Y-114334298D01*
X131201316Y-114358757D01*
X131199894Y-114364065D01*
X131199893Y-114364067D01*
X131143577Y-114574241D01*
X131142057Y-114579913D01*
X131122102Y-114808000D01*
X130073900Y-114808000D01*
X130073900Y-105765088D01*
X133552427Y-105765088D01*
X133589699Y-106008664D01*
X133666253Y-106242882D01*
X133668641Y-106247470D01*
X133668643Y-106247474D01*
X133773160Y-106448249D01*
X133780033Y-106461452D01*
X133783136Y-106465585D01*
X133783138Y-106465588D01*
X133884077Y-106600025D01*
X133927984Y-106658503D01*
X134106131Y-106828745D01*
X134110403Y-106831659D01*
X134110404Y-106831660D01*
X134305411Y-106964685D01*
X134305416Y-106964688D01*
X134309691Y-106967604D01*
X134314380Y-106969780D01*
X134314386Y-106969784D01*
X134528506Y-107069175D01*
X134528511Y-107069177D01*
X134533197Y-107071352D01*
X134538175Y-107072732D01*
X134538179Y-107072734D01*
X134765674Y-107135823D01*
X134770647Y-107137202D01*
X134877264Y-107148596D01*
X134968471Y-107158344D01*
X134968479Y-107158344D01*
X134971806Y-107158700D01*
X137094869Y-107158700D01*
X137097442Y-107158488D01*
X137097453Y-107158488D01*
X137272832Y-107144069D01*
X137272838Y-107144068D01*
X137277983Y-107143645D01*
X137397477Y-107113630D01*
X137511959Y-107084875D01*
X137511963Y-107084874D01*
X137516970Y-107083616D01*
X137521703Y-107081558D01*
X137521706Y-107081557D01*
X137738207Y-106987420D01*
X137738210Y-106987418D01*
X137742944Y-106985360D01*
X137747278Y-106982556D01*
X137747282Y-106982554D01*
X137945492Y-106854326D01*
X137945498Y-106854321D01*
X137949836Y-106851515D01*
X137971657Y-106831660D01*
X138007802Y-106798770D01*
X138132090Y-106685677D01*
X138135289Y-106681626D01*
X138135293Y-106681622D01*
X138281605Y-106496357D01*
X138284810Y-106492299D01*
X138403897Y-106276575D01*
X138486150Y-106044297D01*
X138529363Y-105801705D01*
X138532373Y-105555312D01*
X138495101Y-105311736D01*
X138418547Y-105077518D01*
X138345075Y-104936378D01*
X138307156Y-104863537D01*
X138307155Y-104863536D01*
X138304767Y-104858948D01*
X138301313Y-104854347D01*
X138159921Y-104666032D01*
X138159919Y-104666030D01*
X138156816Y-104661897D01*
X137978669Y-104491655D01*
X137950394Y-104472367D01*
X137779389Y-104355715D01*
X137779384Y-104355712D01*
X137775109Y-104352796D01*
X137770420Y-104350620D01*
X137770414Y-104350616D01*
X137556294Y-104251225D01*
X137556289Y-104251223D01*
X137551603Y-104249048D01*
X137546625Y-104247668D01*
X137546621Y-104247666D01*
X137319126Y-104184577D01*
X137319125Y-104184577D01*
X137314153Y-104183198D01*
X137207536Y-104171804D01*
X137116329Y-104162056D01*
X137116321Y-104162056D01*
X137112994Y-104161700D01*
X134989931Y-104161700D01*
X134987358Y-104161912D01*
X134987347Y-104161912D01*
X134811968Y-104176331D01*
X134811962Y-104176332D01*
X134806817Y-104176755D01*
X134687324Y-104206769D01*
X134572841Y-104235525D01*
X134572837Y-104235526D01*
X134567830Y-104236784D01*
X134563097Y-104238842D01*
X134563094Y-104238843D01*
X134346593Y-104332980D01*
X134346590Y-104332982D01*
X134341856Y-104335040D01*
X134337522Y-104337844D01*
X134337518Y-104337846D01*
X134139308Y-104466074D01*
X134139302Y-104466079D01*
X134134964Y-104468885D01*
X134131139Y-104472365D01*
X134131137Y-104472367D01*
X134076998Y-104521630D01*
X133952710Y-104634723D01*
X133949511Y-104638774D01*
X133949507Y-104638778D01*
X133841261Y-104775843D01*
X133799990Y-104828101D01*
X133782846Y-104859157D01*
X133736087Y-104943861D01*
X133680903Y-105043825D01*
X133598650Y-105276103D01*
X133555437Y-105518695D01*
X133552427Y-105765088D01*
X130073900Y-105765088D01*
X130073900Y-101694869D01*
X133554401Y-101694869D01*
X133554771Y-101701690D01*
X133560295Y-101752552D01*
X133563921Y-101767804D01*
X133609076Y-101888254D01*
X133617614Y-101903849D01*
X133694115Y-102005924D01*
X133706676Y-102018485D01*
X133808751Y-102094986D01*
X133824346Y-102103524D01*
X133944794Y-102148678D01*
X133960049Y-102152305D01*
X134010914Y-102157831D01*
X134017728Y-102158200D01*
X135770285Y-102158200D01*
X135785524Y-102153725D01*
X135786729Y-102152335D01*
X135788400Y-102144652D01*
X135788400Y-102140084D01*
X136296400Y-102140084D01*
X136300875Y-102155323D01*
X136302265Y-102156528D01*
X136309948Y-102158199D01*
X138067069Y-102158199D01*
X138073890Y-102157829D01*
X138124752Y-102152305D01*
X138140004Y-102148679D01*
X138260454Y-102103524D01*
X138276049Y-102094986D01*
X138378124Y-102018485D01*
X138390685Y-102005924D01*
X138467186Y-101903849D01*
X138475724Y-101888254D01*
X138520878Y-101767806D01*
X138524505Y-101752551D01*
X138530031Y-101701686D01*
X138530400Y-101694872D01*
X138530400Y-100932315D01*
X138525925Y-100917076D01*
X138524535Y-100915871D01*
X138516852Y-100914200D01*
X136314515Y-100914200D01*
X136299276Y-100918675D01*
X136298071Y-100920065D01*
X136296400Y-100927748D01*
X136296400Y-102140084D01*
X135788400Y-102140084D01*
X135788400Y-100932315D01*
X135783925Y-100917076D01*
X135782535Y-100915871D01*
X135774852Y-100914200D01*
X133572516Y-100914200D01*
X133557277Y-100918675D01*
X133556072Y-100920065D01*
X133554401Y-100927748D01*
X133554401Y-101694869D01*
X130073900Y-101694869D01*
X130073900Y-100388085D01*
X133554400Y-100388085D01*
X133558875Y-100403324D01*
X133560265Y-100404529D01*
X133567948Y-100406200D01*
X135770285Y-100406200D01*
X135785524Y-100401725D01*
X135786729Y-100400335D01*
X135788400Y-100392652D01*
X135788400Y-100388085D01*
X136296400Y-100388085D01*
X136300875Y-100403324D01*
X136302265Y-100404529D01*
X136309948Y-100406200D01*
X138512284Y-100406200D01*
X138527523Y-100401725D01*
X138528728Y-100400335D01*
X138530399Y-100392652D01*
X138530399Y-99625531D01*
X138530029Y-99618710D01*
X138524505Y-99567848D01*
X138520879Y-99552596D01*
X138475724Y-99432146D01*
X138467186Y-99416551D01*
X138390685Y-99314476D01*
X138378124Y-99301915D01*
X138276049Y-99225414D01*
X138260454Y-99216876D01*
X138140006Y-99171722D01*
X138124751Y-99168095D01*
X138073886Y-99162569D01*
X138067072Y-99162200D01*
X136314515Y-99162200D01*
X136299276Y-99166675D01*
X136298071Y-99168065D01*
X136296400Y-99175748D01*
X136296400Y-100388085D01*
X135788400Y-100388085D01*
X135788400Y-99180316D01*
X135783925Y-99165077D01*
X135782535Y-99163872D01*
X135774852Y-99162201D01*
X134017731Y-99162201D01*
X134010910Y-99162571D01*
X133960048Y-99168095D01*
X133944796Y-99171721D01*
X133824346Y-99216876D01*
X133808751Y-99225414D01*
X133706676Y-99301915D01*
X133694115Y-99314476D01*
X133617614Y-99416551D01*
X133609076Y-99432146D01*
X133563922Y-99552594D01*
X133560295Y-99567849D01*
X133554769Y-99618714D01*
X133554400Y-99625528D01*
X133554400Y-100388085D01*
X130073900Y-100388085D01*
X130073900Y-93769070D01*
X132941760Y-93769070D01*
X132947487Y-93776720D01*
X133118642Y-93881605D01*
X133127437Y-93886087D01*
X133337588Y-93973134D01*
X133346973Y-93976183D01*
X133568154Y-94029285D01*
X133577901Y-94030828D01*
X133804670Y-94048675D01*
X133814530Y-94048675D01*
X134041299Y-94030828D01*
X134051046Y-94029285D01*
X134272227Y-93976183D01*
X134281612Y-93973134D01*
X134491763Y-93886087D01*
X134500558Y-93881605D01*
X134668045Y-93778968D01*
X134677000Y-93769070D01*
X139441760Y-93769070D01*
X139447487Y-93776720D01*
X139618642Y-93881605D01*
X139627437Y-93886087D01*
X139837588Y-93973134D01*
X139846973Y-93976183D01*
X140068154Y-94029285D01*
X140077901Y-94030828D01*
X140304670Y-94048675D01*
X140314530Y-94048675D01*
X140541299Y-94030828D01*
X140551046Y-94029285D01*
X140772227Y-93976183D01*
X140781612Y-93973134D01*
X140991763Y-93886087D01*
X141000558Y-93881605D01*
X141168045Y-93778968D01*
X141177507Y-93768510D01*
X141173724Y-93759734D01*
X140322412Y-92908422D01*
X140308468Y-92900808D01*
X140306635Y-92900939D01*
X140300020Y-92905190D01*
X139448520Y-93756690D01*
X139441760Y-93769070D01*
X134677000Y-93769070D01*
X134677507Y-93768510D01*
X134673724Y-93759734D01*
X133822412Y-92908422D01*
X133808468Y-92900808D01*
X133806635Y-92900939D01*
X133800020Y-92905190D01*
X132948520Y-93756690D01*
X132941760Y-93769070D01*
X130073900Y-93769070D01*
X130073900Y-92541330D01*
X132297325Y-92541330D01*
X132315172Y-92768099D01*
X132316715Y-92777846D01*
X132369817Y-92999027D01*
X132372866Y-93008412D01*
X132459913Y-93218563D01*
X132464395Y-93227358D01*
X132567032Y-93394845D01*
X132577490Y-93404307D01*
X132586266Y-93400524D01*
X133437578Y-92549212D01*
X133443956Y-92537532D01*
X134174008Y-92537532D01*
X134174139Y-92539365D01*
X134178390Y-92545980D01*
X135029890Y-93397480D01*
X135042270Y-93404240D01*
X135049920Y-93398513D01*
X135154805Y-93227358D01*
X135159287Y-93218563D01*
X135246334Y-93008412D01*
X135249383Y-92999027D01*
X135302485Y-92777846D01*
X135304028Y-92768099D01*
X135321875Y-92541330D01*
X138797325Y-92541330D01*
X138815172Y-92768099D01*
X138816715Y-92777846D01*
X138869817Y-92999027D01*
X138872866Y-93008412D01*
X138959913Y-93218563D01*
X138964395Y-93227358D01*
X139067032Y-93394845D01*
X139077490Y-93404307D01*
X139086266Y-93400524D01*
X139937578Y-92549212D01*
X139943956Y-92537532D01*
X140674008Y-92537532D01*
X140674139Y-92539365D01*
X140678390Y-92545980D01*
X141529890Y-93397480D01*
X141542270Y-93404240D01*
X141549920Y-93398513D01*
X141654805Y-93227358D01*
X141659287Y-93218563D01*
X141746334Y-93008412D01*
X141749383Y-92999027D01*
X141802485Y-92777846D01*
X141804028Y-92768099D01*
X141821875Y-92541330D01*
X141821875Y-92531470D01*
X141804028Y-92304701D01*
X141802485Y-92294954D01*
X141749383Y-92073773D01*
X141746334Y-92064388D01*
X141659287Y-91854237D01*
X141654805Y-91845442D01*
X141552168Y-91677955D01*
X141541710Y-91668493D01*
X141532934Y-91672276D01*
X140681622Y-92523588D01*
X140674008Y-92537532D01*
X139943956Y-92537532D01*
X139945192Y-92535268D01*
X139945061Y-92533435D01*
X139940810Y-92526820D01*
X139089310Y-91675320D01*
X139076930Y-91668560D01*
X139069280Y-91674287D01*
X138964395Y-91845442D01*
X138959913Y-91854237D01*
X138872866Y-92064388D01*
X138869817Y-92073773D01*
X138816715Y-92294954D01*
X138815172Y-92304701D01*
X138797325Y-92531470D01*
X138797325Y-92541330D01*
X135321875Y-92541330D01*
X135321875Y-92531470D01*
X135304028Y-92304701D01*
X135302485Y-92294954D01*
X135249383Y-92073773D01*
X135246334Y-92064388D01*
X135159287Y-91854237D01*
X135154805Y-91845442D01*
X135052168Y-91677955D01*
X135041710Y-91668493D01*
X135032934Y-91672276D01*
X134181622Y-92523588D01*
X134174008Y-92537532D01*
X133443956Y-92537532D01*
X133445192Y-92535268D01*
X133445061Y-92533435D01*
X133440810Y-92526820D01*
X132589310Y-91675320D01*
X132576930Y-91668560D01*
X132569280Y-91674287D01*
X132464395Y-91845442D01*
X132459913Y-91854237D01*
X132372866Y-92064388D01*
X132369817Y-92073773D01*
X132316715Y-92294954D01*
X132315172Y-92304701D01*
X132297325Y-92531470D01*
X132297325Y-92541330D01*
X130073900Y-92541330D01*
X130073900Y-91304290D01*
X132941693Y-91304290D01*
X132945476Y-91313066D01*
X133796788Y-92164378D01*
X133810732Y-92171992D01*
X133812565Y-92171861D01*
X133819180Y-92167610D01*
X134670680Y-91316110D01*
X134677134Y-91304290D01*
X139441693Y-91304290D01*
X139445476Y-91313066D01*
X140296788Y-92164378D01*
X140310732Y-92171992D01*
X140312565Y-92171861D01*
X140319180Y-92167610D01*
X141170680Y-91316110D01*
X141177440Y-91303730D01*
X141171713Y-91296080D01*
X141000558Y-91191195D01*
X140991763Y-91186713D01*
X140781612Y-91099666D01*
X140772227Y-91096617D01*
X140551046Y-91043515D01*
X140541299Y-91041972D01*
X140314530Y-91024125D01*
X140304670Y-91024125D01*
X140077901Y-91041972D01*
X140068154Y-91043515D01*
X139846973Y-91096617D01*
X139837588Y-91099666D01*
X139627437Y-91186713D01*
X139618642Y-91191195D01*
X139451155Y-91293832D01*
X139441693Y-91304290D01*
X134677134Y-91304290D01*
X134677440Y-91303730D01*
X134671713Y-91296080D01*
X134500558Y-91191195D01*
X134491763Y-91186713D01*
X134281612Y-91099666D01*
X134272227Y-91096617D01*
X134051046Y-91043515D01*
X134041299Y-91041972D01*
X133814530Y-91024125D01*
X133804670Y-91024125D01*
X133577901Y-91041972D01*
X133568154Y-91043515D01*
X133346973Y-91096617D01*
X133337588Y-91099666D01*
X133127437Y-91186713D01*
X133118642Y-91191195D01*
X132951155Y-91293832D01*
X132941693Y-91304290D01*
X130073900Y-91304290D01*
X130073900Y-88036400D01*
X132296435Y-88036400D01*
X132315065Y-88273111D01*
X132316219Y-88277918D01*
X132316220Y-88277924D01*
X132346899Y-88405709D01*
X132370495Y-88503994D01*
X132372388Y-88508565D01*
X132372389Y-88508567D01*
X132433459Y-88656003D01*
X132461360Y-88723363D01*
X132463946Y-88727583D01*
X132582841Y-88921602D01*
X132582845Y-88921608D01*
X132585424Y-88925816D01*
X132739631Y-89106369D01*
X132920184Y-89260576D01*
X132924392Y-89263155D01*
X132924398Y-89263159D01*
X133118417Y-89382054D01*
X133122637Y-89384640D01*
X133127207Y-89386533D01*
X133127211Y-89386535D01*
X133331521Y-89471162D01*
X133342006Y-89475505D01*
X133386396Y-89486162D01*
X133568076Y-89529780D01*
X133568082Y-89529781D01*
X133572889Y-89530935D01*
X133809600Y-89549565D01*
X134046311Y-89530935D01*
X134051118Y-89529781D01*
X134051124Y-89529780D01*
X134232804Y-89486162D01*
X134277194Y-89475505D01*
X134287679Y-89471162D01*
X134491989Y-89386535D01*
X134491993Y-89386533D01*
X134496563Y-89384640D01*
X134500783Y-89382054D01*
X134694802Y-89263159D01*
X134694808Y-89263155D01*
X134699016Y-89260576D01*
X134879569Y-89106369D01*
X135033776Y-88925816D01*
X135036355Y-88921608D01*
X135036359Y-88921602D01*
X135155254Y-88727583D01*
X135157840Y-88723363D01*
X135185742Y-88656003D01*
X135246811Y-88508567D01*
X135246812Y-88508565D01*
X135248705Y-88503994D01*
X135272301Y-88405709D01*
X135302980Y-88277924D01*
X135302981Y-88277918D01*
X135304135Y-88273111D01*
X135322765Y-88036400D01*
X138796435Y-88036400D01*
X138815065Y-88273111D01*
X138816219Y-88277918D01*
X138816220Y-88277924D01*
X138846899Y-88405709D01*
X138870495Y-88503994D01*
X138872388Y-88508565D01*
X138872389Y-88508567D01*
X138933459Y-88656003D01*
X138961360Y-88723363D01*
X138963946Y-88727583D01*
X139082841Y-88921602D01*
X139082845Y-88921608D01*
X139085424Y-88925816D01*
X139239631Y-89106369D01*
X139420184Y-89260576D01*
X139424392Y-89263155D01*
X139424398Y-89263159D01*
X139618417Y-89382054D01*
X139622637Y-89384640D01*
X139627207Y-89386533D01*
X139627211Y-89386535D01*
X139831521Y-89471162D01*
X139842006Y-89475505D01*
X139886396Y-89486162D01*
X140068076Y-89529780D01*
X140068082Y-89529781D01*
X140072889Y-89530935D01*
X140309600Y-89549565D01*
X140546311Y-89530935D01*
X140551118Y-89529781D01*
X140551124Y-89529780D01*
X140732804Y-89486162D01*
X140777194Y-89475505D01*
X140787679Y-89471162D01*
X140991989Y-89386535D01*
X140991993Y-89386533D01*
X140996563Y-89384640D01*
X141000783Y-89382054D01*
X141194802Y-89263159D01*
X141194808Y-89263155D01*
X141199016Y-89260576D01*
X141379569Y-89106369D01*
X141533776Y-88925816D01*
X141536355Y-88921608D01*
X141536359Y-88921602D01*
X141655254Y-88727583D01*
X141657840Y-88723363D01*
X141685742Y-88656003D01*
X141746811Y-88508567D01*
X141746812Y-88508565D01*
X141748705Y-88503994D01*
X141772301Y-88405709D01*
X141802980Y-88277924D01*
X141802981Y-88277918D01*
X141804135Y-88273111D01*
X141822765Y-88036400D01*
X141804135Y-87799689D01*
X141748705Y-87568806D01*
X141657840Y-87349437D01*
X141589919Y-87238600D01*
X141536359Y-87151198D01*
X141536355Y-87151192D01*
X141533776Y-87146984D01*
X141379569Y-86966431D01*
X141199016Y-86812224D01*
X141194808Y-86809645D01*
X141194802Y-86809641D01*
X141000783Y-86690746D01*
X140996563Y-86688160D01*
X140991993Y-86686267D01*
X140991989Y-86686265D01*
X140781767Y-86599189D01*
X140781765Y-86599188D01*
X140777194Y-86597295D01*
X140696991Y-86578040D01*
X140551124Y-86543020D01*
X140551118Y-86543019D01*
X140546311Y-86541865D01*
X140309600Y-86523235D01*
X140072889Y-86541865D01*
X140068082Y-86543019D01*
X140068076Y-86543020D01*
X139922209Y-86578040D01*
X139842006Y-86597295D01*
X139837435Y-86599188D01*
X139837433Y-86599189D01*
X139627211Y-86686265D01*
X139627207Y-86686267D01*
X139622637Y-86688160D01*
X139618417Y-86690746D01*
X139424398Y-86809641D01*
X139424392Y-86809645D01*
X139420184Y-86812224D01*
X139239631Y-86966431D01*
X139085424Y-87146984D01*
X139082845Y-87151192D01*
X139082841Y-87151198D01*
X139029281Y-87238600D01*
X138961360Y-87349437D01*
X138870495Y-87568806D01*
X138815065Y-87799689D01*
X138796435Y-88036400D01*
X135322765Y-88036400D01*
X135304135Y-87799689D01*
X135248705Y-87568806D01*
X135157840Y-87349437D01*
X135089919Y-87238600D01*
X135036359Y-87151198D01*
X135036355Y-87151192D01*
X135033776Y-87146984D01*
X134879569Y-86966431D01*
X134699016Y-86812224D01*
X134694808Y-86809645D01*
X134694802Y-86809641D01*
X134500783Y-86690746D01*
X134496563Y-86688160D01*
X134491993Y-86686267D01*
X134491989Y-86686265D01*
X134281767Y-86599189D01*
X134281765Y-86599188D01*
X134277194Y-86597295D01*
X134196991Y-86578040D01*
X134051124Y-86543020D01*
X134051118Y-86543019D01*
X134046311Y-86541865D01*
X133809600Y-86523235D01*
X133572889Y-86541865D01*
X133568082Y-86543019D01*
X133568076Y-86543020D01*
X133422209Y-86578040D01*
X133342006Y-86597295D01*
X133337435Y-86599188D01*
X133337433Y-86599189D01*
X133127211Y-86686265D01*
X133127207Y-86686267D01*
X133122637Y-86688160D01*
X133118417Y-86690746D01*
X132924398Y-86809641D01*
X132924392Y-86809645D01*
X132920184Y-86812224D01*
X132739631Y-86966431D01*
X132585424Y-87146984D01*
X132582845Y-87151192D01*
X132582841Y-87151198D01*
X132529281Y-87238600D01*
X132461360Y-87349437D01*
X132370495Y-87568806D01*
X132315065Y-87799689D01*
X132296435Y-88036400D01*
X130073900Y-88036400D01*
X130073900Y-84886800D01*
X145396902Y-84886800D01*
X145416857Y-85114887D01*
X145418281Y-85120200D01*
X145418281Y-85120202D01*
X145455425Y-85258822D01*
X145476116Y-85336043D01*
X145478439Y-85341024D01*
X145478439Y-85341025D01*
X145570551Y-85538562D01*
X145570554Y-85538567D01*
X145572877Y-85543549D01*
X145704202Y-85731100D01*
X145866100Y-85892998D01*
X145870608Y-85896155D01*
X145870611Y-85896157D01*
X145871167Y-85896546D01*
X146053651Y-86024323D01*
X146058633Y-86026646D01*
X146058638Y-86026649D01*
X146255165Y-86118290D01*
X146261157Y-86121084D01*
X146266465Y-86122506D01*
X146266467Y-86122507D01*
X146476998Y-86178919D01*
X146477000Y-86178919D01*
X146482313Y-86180343D01*
X146710400Y-86200298D01*
X146938487Y-86180343D01*
X146943800Y-86178919D01*
X146943802Y-86178919D01*
X147154333Y-86122507D01*
X147154335Y-86122506D01*
X147159643Y-86121084D01*
X147165635Y-86118290D01*
X147362162Y-86026649D01*
X147362167Y-86026646D01*
X147367149Y-86024323D01*
X147440643Y-85972862D01*
X156148893Y-85972862D01*
X156158189Y-85984877D01*
X156209394Y-86020731D01*
X156218889Y-86026214D01*
X156416347Y-86118290D01*
X156426639Y-86122036D01*
X156637088Y-86178425D01*
X156647881Y-86180328D01*
X156864925Y-86199317D01*
X156875875Y-86199317D01*
X157092919Y-86180328D01*
X157103712Y-86178425D01*
X157314161Y-86122036D01*
X157324453Y-86118290D01*
X157521911Y-86026214D01*
X157531406Y-86020731D01*
X157583448Y-85984291D01*
X157591824Y-85973812D01*
X157584756Y-85960366D01*
X156883212Y-85258822D01*
X156869268Y-85251208D01*
X156867435Y-85251339D01*
X156860820Y-85255590D01*
X156155323Y-85961087D01*
X156148893Y-85972862D01*
X147440643Y-85972862D01*
X147549633Y-85896546D01*
X147550189Y-85896157D01*
X147550192Y-85896155D01*
X147554700Y-85892998D01*
X147716598Y-85731100D01*
X147847923Y-85543549D01*
X147850246Y-85538567D01*
X147850249Y-85538562D01*
X147942361Y-85341025D01*
X147942361Y-85341024D01*
X147944684Y-85336043D01*
X147965376Y-85258822D01*
X148002519Y-85120202D01*
X148002519Y-85120200D01*
X148003943Y-85114887D01*
X148023419Y-84892275D01*
X155557883Y-84892275D01*
X155576872Y-85109319D01*
X155578775Y-85120112D01*
X155635164Y-85330561D01*
X155638910Y-85340853D01*
X155730986Y-85538311D01*
X155736469Y-85547806D01*
X155772909Y-85599848D01*
X155783388Y-85608224D01*
X155796834Y-85601156D01*
X156498378Y-84899612D01*
X156504756Y-84887932D01*
X157234808Y-84887932D01*
X157234939Y-84889765D01*
X157239190Y-84896380D01*
X157944687Y-85601877D01*
X157956462Y-85608307D01*
X157968477Y-85599011D01*
X158004331Y-85547806D01*
X158009814Y-85538311D01*
X158101890Y-85340853D01*
X158105636Y-85330561D01*
X158162025Y-85120112D01*
X158163928Y-85109319D01*
X158182917Y-84892275D01*
X158182917Y-84881325D01*
X158163928Y-84664281D01*
X158162025Y-84653488D01*
X158105636Y-84443039D01*
X158101890Y-84432747D01*
X158009814Y-84235289D01*
X158004331Y-84225794D01*
X157967891Y-84173752D01*
X157957412Y-84165376D01*
X157943966Y-84172444D01*
X157242422Y-84873988D01*
X157234808Y-84887932D01*
X156504756Y-84887932D01*
X156505992Y-84885668D01*
X156505861Y-84883835D01*
X156501610Y-84877220D01*
X155796113Y-84171723D01*
X155784338Y-84165293D01*
X155772323Y-84174589D01*
X155736469Y-84225794D01*
X155730986Y-84235289D01*
X155638910Y-84432747D01*
X155635164Y-84443039D01*
X155578775Y-84653488D01*
X155576872Y-84664281D01*
X155557883Y-84881325D01*
X155557883Y-84892275D01*
X148023419Y-84892275D01*
X148023898Y-84886800D01*
X148003943Y-84658713D01*
X147967381Y-84522261D01*
X147946107Y-84442867D01*
X147946106Y-84442865D01*
X147944684Y-84437557D01*
X147850366Y-84235289D01*
X147850249Y-84235038D01*
X147850246Y-84235033D01*
X147847923Y-84230051D01*
X147716598Y-84042500D01*
X147554700Y-83880602D01*
X147550192Y-83877445D01*
X147550189Y-83877443D01*
X147439286Y-83799788D01*
X156148976Y-83799788D01*
X156156044Y-83813234D01*
X156857588Y-84514778D01*
X156871532Y-84522392D01*
X156873365Y-84522261D01*
X156879980Y-84518010D01*
X157585477Y-83812513D01*
X157591907Y-83800738D01*
X157582611Y-83788723D01*
X157531406Y-83752869D01*
X157521911Y-83747386D01*
X157324453Y-83655310D01*
X157314161Y-83651564D01*
X157103712Y-83595175D01*
X157092919Y-83593272D01*
X156875875Y-83574283D01*
X156864925Y-83574283D01*
X156647881Y-83593272D01*
X156637088Y-83595175D01*
X156426639Y-83651564D01*
X156416347Y-83655310D01*
X156218889Y-83747386D01*
X156209394Y-83752869D01*
X156157352Y-83789309D01*
X156148976Y-83799788D01*
X147439286Y-83799788D01*
X147424320Y-83789309D01*
X147367149Y-83749277D01*
X147362167Y-83746954D01*
X147362162Y-83746951D01*
X147164625Y-83654839D01*
X147164624Y-83654839D01*
X147159643Y-83652516D01*
X147154335Y-83651094D01*
X147154333Y-83651093D01*
X146943802Y-83594681D01*
X146943800Y-83594681D01*
X146938487Y-83593257D01*
X146710400Y-83573302D01*
X146482313Y-83593257D01*
X146477000Y-83594681D01*
X146476998Y-83594681D01*
X146266467Y-83651093D01*
X146266465Y-83651094D01*
X146261157Y-83652516D01*
X146256176Y-83654839D01*
X146256175Y-83654839D01*
X146058638Y-83746951D01*
X146058633Y-83746954D01*
X146053651Y-83749277D01*
X145996480Y-83789309D01*
X145870611Y-83877443D01*
X145870608Y-83877445D01*
X145866100Y-83880602D01*
X145704202Y-84042500D01*
X145572877Y-84230051D01*
X145570554Y-84235033D01*
X145570551Y-84235038D01*
X145570434Y-84235289D01*
X145476116Y-84437557D01*
X145474694Y-84442865D01*
X145474693Y-84442867D01*
X145453419Y-84522261D01*
X145416857Y-84658713D01*
X145396902Y-84886800D01*
X130073900Y-84886800D01*
X130073900Y-81061334D01*
X139686900Y-81061334D01*
X139693655Y-81123516D01*
X139744785Y-81259905D01*
X139832139Y-81376461D01*
X139948695Y-81463815D01*
X140085084Y-81514945D01*
X140147266Y-81521700D01*
X141843534Y-81521700D01*
X141905716Y-81514945D01*
X142042105Y-81463815D01*
X142158661Y-81376461D01*
X142246015Y-81259905D01*
X142297145Y-81123516D01*
X142298317Y-81112726D01*
X142299203Y-81110594D01*
X142299825Y-81107978D01*
X142300248Y-81108079D01*
X142325555Y-81047165D01*
X142383917Y-81006737D01*
X142454871Y-81004278D01*
X142515890Y-81040571D01*
X142522889Y-81049231D01*
X142526043Y-81052989D01*
X142529202Y-81057500D01*
X142691100Y-81219398D01*
X142695608Y-81222555D01*
X142695611Y-81222557D01*
X142736942Y-81251497D01*
X142878651Y-81350723D01*
X142883633Y-81353046D01*
X142883638Y-81353049D01*
X143080165Y-81444690D01*
X143086157Y-81447484D01*
X143091465Y-81448906D01*
X143091467Y-81448907D01*
X143301998Y-81505319D01*
X143302000Y-81505319D01*
X143307313Y-81506743D01*
X143535400Y-81526698D01*
X143763487Y-81506743D01*
X143768800Y-81505319D01*
X143768802Y-81505319D01*
X143979333Y-81448907D01*
X143979335Y-81448906D01*
X143984643Y-81447484D01*
X143990635Y-81444690D01*
X144187162Y-81353049D01*
X144187167Y-81353046D01*
X144192149Y-81350723D01*
X144333858Y-81251497D01*
X144375189Y-81222557D01*
X144375192Y-81222555D01*
X144379700Y-81219398D01*
X144541598Y-81057500D01*
X144672923Y-80869949D01*
X144675246Y-80864967D01*
X144675249Y-80864962D01*
X144691205Y-80830743D01*
X144738122Y-80777458D01*
X144806399Y-80757997D01*
X144874359Y-80778539D01*
X144919595Y-80830743D01*
X144935551Y-80864962D01*
X144935554Y-80864967D01*
X144937877Y-80869949D01*
X145069202Y-81057500D01*
X145231100Y-81219398D01*
X145235608Y-81222555D01*
X145235611Y-81222557D01*
X145276942Y-81251497D01*
X145418651Y-81350723D01*
X145423633Y-81353046D01*
X145423638Y-81353049D01*
X145620165Y-81444690D01*
X145626157Y-81447484D01*
X145631465Y-81448906D01*
X145631467Y-81448907D01*
X145841998Y-81505319D01*
X145842000Y-81505319D01*
X145847313Y-81506743D01*
X146075400Y-81526698D01*
X146303487Y-81506743D01*
X146308800Y-81505319D01*
X146308802Y-81505319D01*
X146519333Y-81448907D01*
X146519335Y-81448906D01*
X146524643Y-81447484D01*
X146530635Y-81444690D01*
X146727162Y-81353049D01*
X146727167Y-81353046D01*
X146732149Y-81350723D01*
X146873858Y-81251497D01*
X146915189Y-81222557D01*
X146915192Y-81222555D01*
X146919700Y-81219398D01*
X147081598Y-81057500D01*
X147212923Y-80869949D01*
X147215246Y-80864967D01*
X147215249Y-80864962D01*
X147231205Y-80830743D01*
X147278122Y-80777458D01*
X147346399Y-80757997D01*
X147414359Y-80778539D01*
X147459595Y-80830743D01*
X147475551Y-80864962D01*
X147475554Y-80864967D01*
X147477877Y-80869949D01*
X147609202Y-81057500D01*
X147771100Y-81219398D01*
X147775608Y-81222555D01*
X147775611Y-81222557D01*
X147816942Y-81251497D01*
X147958651Y-81350723D01*
X147963633Y-81353046D01*
X147963638Y-81353049D01*
X148160165Y-81444690D01*
X148166157Y-81447484D01*
X148171465Y-81448906D01*
X148171467Y-81448907D01*
X148381998Y-81505319D01*
X148382000Y-81505319D01*
X148387313Y-81506743D01*
X148615400Y-81526698D01*
X148843487Y-81506743D01*
X148848800Y-81505319D01*
X148848802Y-81505319D01*
X149059333Y-81448907D01*
X149059335Y-81448906D01*
X149064643Y-81447484D01*
X149070635Y-81444690D01*
X149267162Y-81353049D01*
X149267167Y-81353046D01*
X149272149Y-81350723D01*
X149413858Y-81251497D01*
X149455189Y-81222557D01*
X149455192Y-81222555D01*
X149459700Y-81219398D01*
X149621598Y-81057500D01*
X149752923Y-80869949D01*
X149755246Y-80864967D01*
X149755249Y-80864962D01*
X149771205Y-80830743D01*
X149818122Y-80777458D01*
X149886399Y-80757997D01*
X149954359Y-80778539D01*
X149999595Y-80830743D01*
X150015551Y-80864962D01*
X150015554Y-80864967D01*
X150017877Y-80869949D01*
X150149202Y-81057500D01*
X150311100Y-81219398D01*
X150315608Y-81222555D01*
X150315611Y-81222557D01*
X150356942Y-81251497D01*
X150498651Y-81350723D01*
X150503633Y-81353046D01*
X150503638Y-81353049D01*
X150700165Y-81444690D01*
X150706157Y-81447484D01*
X150711465Y-81448906D01*
X150711467Y-81448907D01*
X150921998Y-81505319D01*
X150922000Y-81505319D01*
X150927313Y-81506743D01*
X151155400Y-81526698D01*
X151383487Y-81506743D01*
X151388800Y-81505319D01*
X151388802Y-81505319D01*
X151599333Y-81448907D01*
X151599335Y-81448906D01*
X151604643Y-81447484D01*
X151610635Y-81444690D01*
X151807162Y-81353049D01*
X151807167Y-81353046D01*
X151812149Y-81350723D01*
X151953858Y-81251497D01*
X151995189Y-81222557D01*
X151995192Y-81222555D01*
X151999700Y-81219398D01*
X152161598Y-81057500D01*
X152292923Y-80869949D01*
X152295246Y-80864967D01*
X152295249Y-80864962D01*
X152311481Y-80830151D01*
X152358398Y-80776866D01*
X152426675Y-80757405D01*
X152494635Y-80777947D01*
X152539871Y-80830151D01*
X152555986Y-80864711D01*
X152561469Y-80874207D01*
X152686428Y-81052667D01*
X152693484Y-81061075D01*
X152847525Y-81215116D01*
X152855933Y-81222172D01*
X153034393Y-81347131D01*
X153043889Y-81352614D01*
X153241347Y-81444690D01*
X153251639Y-81448436D01*
X153423903Y-81494594D01*
X153437999Y-81494258D01*
X153441400Y-81486316D01*
X153441400Y-81481167D01*
X153949400Y-81481167D01*
X153953373Y-81494698D01*
X153961922Y-81495927D01*
X154139161Y-81448436D01*
X154149453Y-81444690D01*
X154346911Y-81352614D01*
X154356407Y-81347131D01*
X154534867Y-81222172D01*
X154543275Y-81215116D01*
X154697316Y-81061075D01*
X154704372Y-81052667D01*
X154829331Y-80874207D01*
X154834814Y-80864711D01*
X154851205Y-80829559D01*
X154898122Y-80776274D01*
X154966399Y-80756813D01*
X155034359Y-80777355D01*
X155079595Y-80829559D01*
X155095986Y-80864711D01*
X155101469Y-80874207D01*
X155226428Y-81052667D01*
X155233484Y-81061075D01*
X155387525Y-81215116D01*
X155395933Y-81222172D01*
X155574393Y-81347131D01*
X155583889Y-81352614D01*
X155781347Y-81444690D01*
X155791639Y-81448436D01*
X155963903Y-81494594D01*
X155977999Y-81494258D01*
X155981400Y-81486316D01*
X155981400Y-81481167D01*
X156489400Y-81481167D01*
X156493373Y-81494698D01*
X156501922Y-81495927D01*
X156679161Y-81448436D01*
X156689453Y-81444690D01*
X156886911Y-81352614D01*
X156896407Y-81347131D01*
X157074867Y-81222172D01*
X157083275Y-81215116D01*
X157237316Y-81061075D01*
X157244372Y-81052667D01*
X157369331Y-80874207D01*
X157374814Y-80864711D01*
X157390929Y-80830151D01*
X157437846Y-80776866D01*
X157506123Y-80757405D01*
X157574083Y-80777947D01*
X157619319Y-80830151D01*
X157635551Y-80864962D01*
X157635554Y-80864967D01*
X157637877Y-80869949D01*
X157769202Y-81057500D01*
X157931100Y-81219398D01*
X157935608Y-81222555D01*
X157935611Y-81222557D01*
X157976942Y-81251497D01*
X158118651Y-81350723D01*
X158123633Y-81353046D01*
X158123638Y-81353049D01*
X158320165Y-81444690D01*
X158326157Y-81447484D01*
X158331465Y-81448906D01*
X158331467Y-81448907D01*
X158541998Y-81505319D01*
X158542000Y-81505319D01*
X158547313Y-81506743D01*
X158775400Y-81526698D01*
X159003487Y-81506743D01*
X159008800Y-81505319D01*
X159008802Y-81505319D01*
X159219333Y-81448907D01*
X159219335Y-81448906D01*
X159224643Y-81447484D01*
X159230635Y-81444690D01*
X159427162Y-81353049D01*
X159427167Y-81353046D01*
X159432149Y-81350723D01*
X159573858Y-81251497D01*
X159615189Y-81222557D01*
X159615192Y-81222555D01*
X159619700Y-81219398D01*
X159781598Y-81057500D01*
X159912923Y-80869949D01*
X159915246Y-80864967D01*
X159915249Y-80864962D01*
X160007361Y-80667425D01*
X160007361Y-80667424D01*
X160009684Y-80662443D01*
X160058370Y-80480748D01*
X160067519Y-80446602D01*
X160067519Y-80446600D01*
X160068943Y-80441287D01*
X160088898Y-80213200D01*
X162541902Y-80213200D01*
X162561857Y-80441287D01*
X162563281Y-80446600D01*
X162563281Y-80446602D01*
X162572431Y-80480748D01*
X162621116Y-80662443D01*
X162623439Y-80667424D01*
X162623439Y-80667425D01*
X162715551Y-80864962D01*
X162715554Y-80864967D01*
X162717877Y-80869949D01*
X162849202Y-81057500D01*
X163011100Y-81219398D01*
X163015608Y-81222555D01*
X163015611Y-81222557D01*
X163056942Y-81251497D01*
X163198651Y-81350723D01*
X163203633Y-81353046D01*
X163203638Y-81353049D01*
X163400165Y-81444690D01*
X163406157Y-81447484D01*
X163411465Y-81448906D01*
X163411467Y-81448907D01*
X163621998Y-81505319D01*
X163622000Y-81505319D01*
X163627313Y-81506743D01*
X163855400Y-81526698D01*
X164083487Y-81506743D01*
X164088800Y-81505319D01*
X164088802Y-81505319D01*
X164299333Y-81448907D01*
X164299335Y-81448906D01*
X164304643Y-81447484D01*
X164310635Y-81444690D01*
X164507162Y-81353049D01*
X164507167Y-81353046D01*
X164512149Y-81350723D01*
X164653858Y-81251497D01*
X164695189Y-81222557D01*
X164695192Y-81222555D01*
X164699700Y-81219398D01*
X164861598Y-81057500D01*
X164992923Y-80869949D01*
X164995246Y-80864967D01*
X164995249Y-80864962D01*
X165011205Y-80830743D01*
X165058122Y-80777458D01*
X165126399Y-80757997D01*
X165194359Y-80778539D01*
X165239595Y-80830743D01*
X165255551Y-80864962D01*
X165255554Y-80864967D01*
X165257877Y-80869949D01*
X165389202Y-81057500D01*
X165551100Y-81219398D01*
X165555608Y-81222555D01*
X165555611Y-81222557D01*
X165596942Y-81251497D01*
X165738651Y-81350723D01*
X165743633Y-81353046D01*
X165743638Y-81353049D01*
X165940165Y-81444690D01*
X165946157Y-81447484D01*
X165951465Y-81448906D01*
X165951467Y-81448907D01*
X166161998Y-81505319D01*
X166162000Y-81505319D01*
X166167313Y-81506743D01*
X166395400Y-81526698D01*
X166623487Y-81506743D01*
X166628800Y-81505319D01*
X166628802Y-81505319D01*
X166839333Y-81448907D01*
X166839335Y-81448906D01*
X166844643Y-81447484D01*
X166850635Y-81444690D01*
X167047162Y-81353049D01*
X167047167Y-81353046D01*
X167052149Y-81350723D01*
X167193858Y-81251497D01*
X167235189Y-81222557D01*
X167235192Y-81222555D01*
X167239700Y-81219398D01*
X167401598Y-81057500D01*
X167532923Y-80869949D01*
X167535246Y-80864967D01*
X167535249Y-80864962D01*
X167551205Y-80830743D01*
X167598122Y-80777458D01*
X167666399Y-80757997D01*
X167734359Y-80778539D01*
X167779595Y-80830743D01*
X167795551Y-80864962D01*
X167795554Y-80864967D01*
X167797877Y-80869949D01*
X167929202Y-81057500D01*
X168091100Y-81219398D01*
X168095608Y-81222555D01*
X168095611Y-81222557D01*
X168136942Y-81251497D01*
X168278651Y-81350723D01*
X168283633Y-81353046D01*
X168283638Y-81353049D01*
X168480165Y-81444690D01*
X168486157Y-81447484D01*
X168491465Y-81448906D01*
X168491467Y-81448907D01*
X168701998Y-81505319D01*
X168702000Y-81505319D01*
X168707313Y-81506743D01*
X168935400Y-81526698D01*
X169163487Y-81506743D01*
X169168800Y-81505319D01*
X169168802Y-81505319D01*
X169379333Y-81448907D01*
X169379335Y-81448906D01*
X169384643Y-81447484D01*
X169390635Y-81444690D01*
X169587162Y-81353049D01*
X169587167Y-81353046D01*
X169592149Y-81350723D01*
X169733858Y-81251497D01*
X169775189Y-81222557D01*
X169775192Y-81222555D01*
X169779700Y-81219398D01*
X169941598Y-81057500D01*
X170072923Y-80869949D01*
X170075246Y-80864967D01*
X170075249Y-80864962D01*
X170091205Y-80830743D01*
X170138122Y-80777458D01*
X170206399Y-80757997D01*
X170274359Y-80778539D01*
X170319595Y-80830743D01*
X170335551Y-80864962D01*
X170335554Y-80864967D01*
X170337877Y-80869949D01*
X170469202Y-81057500D01*
X170631100Y-81219398D01*
X170635608Y-81222555D01*
X170635611Y-81222557D01*
X170676942Y-81251497D01*
X170818651Y-81350723D01*
X170823633Y-81353046D01*
X170823638Y-81353049D01*
X171020165Y-81444690D01*
X171026157Y-81447484D01*
X171031465Y-81448906D01*
X171031467Y-81448907D01*
X171241998Y-81505319D01*
X171242000Y-81505319D01*
X171247313Y-81506743D01*
X171475400Y-81526698D01*
X171703487Y-81506743D01*
X171708800Y-81505319D01*
X171708802Y-81505319D01*
X171919333Y-81448907D01*
X171919335Y-81448906D01*
X171924643Y-81447484D01*
X171930635Y-81444690D01*
X172127162Y-81353049D01*
X172127167Y-81353046D01*
X172132149Y-81350723D01*
X172273858Y-81251497D01*
X172315189Y-81222557D01*
X172315192Y-81222555D01*
X172319700Y-81219398D01*
X172481598Y-81057500D01*
X172612923Y-80869949D01*
X172615246Y-80864967D01*
X172615249Y-80864962D01*
X172631205Y-80830743D01*
X172678122Y-80777458D01*
X172746399Y-80757997D01*
X172814359Y-80778539D01*
X172859595Y-80830743D01*
X172875551Y-80864962D01*
X172875554Y-80864967D01*
X172877877Y-80869949D01*
X173009202Y-81057500D01*
X173171100Y-81219398D01*
X173175608Y-81222555D01*
X173175611Y-81222557D01*
X173216942Y-81251497D01*
X173358651Y-81350723D01*
X173363633Y-81353046D01*
X173363638Y-81353049D01*
X173560165Y-81444690D01*
X173566157Y-81447484D01*
X173571465Y-81448906D01*
X173571467Y-81448907D01*
X173781998Y-81505319D01*
X173782000Y-81505319D01*
X173787313Y-81506743D01*
X174015400Y-81526698D01*
X174243487Y-81506743D01*
X174248800Y-81505319D01*
X174248802Y-81505319D01*
X174459333Y-81448907D01*
X174459335Y-81448906D01*
X174464643Y-81447484D01*
X174470635Y-81444690D01*
X174667162Y-81353049D01*
X174667167Y-81353046D01*
X174672149Y-81350723D01*
X174813858Y-81251497D01*
X174855189Y-81222557D01*
X174855192Y-81222555D01*
X174859700Y-81219398D01*
X175021598Y-81057500D01*
X175152923Y-80869949D01*
X175155246Y-80864967D01*
X175155249Y-80864962D01*
X175171205Y-80830743D01*
X175218122Y-80777458D01*
X175286399Y-80757997D01*
X175354359Y-80778539D01*
X175399595Y-80830743D01*
X175415551Y-80864962D01*
X175415554Y-80864967D01*
X175417877Y-80869949D01*
X175549202Y-81057500D01*
X175711100Y-81219398D01*
X175715608Y-81222555D01*
X175715611Y-81222557D01*
X175756942Y-81251497D01*
X175898651Y-81350723D01*
X175903633Y-81353046D01*
X175903638Y-81353049D01*
X176100165Y-81444690D01*
X176106157Y-81447484D01*
X176111465Y-81448906D01*
X176111467Y-81448907D01*
X176321998Y-81505319D01*
X176322000Y-81505319D01*
X176327313Y-81506743D01*
X176555400Y-81526698D01*
X176783487Y-81506743D01*
X176788800Y-81505319D01*
X176788802Y-81505319D01*
X176999333Y-81448907D01*
X176999335Y-81448906D01*
X177004643Y-81447484D01*
X177010635Y-81444690D01*
X177207162Y-81353049D01*
X177207167Y-81353046D01*
X177212149Y-81350723D01*
X177353858Y-81251497D01*
X177395189Y-81222557D01*
X177395192Y-81222555D01*
X177399700Y-81219398D01*
X177561598Y-81057500D01*
X177692923Y-80869949D01*
X177695246Y-80864967D01*
X177695249Y-80864962D01*
X177787361Y-80667425D01*
X177787361Y-80667424D01*
X177789684Y-80662443D01*
X177838370Y-80480748D01*
X177847519Y-80446602D01*
X177847519Y-80446600D01*
X177848943Y-80441287D01*
X177868898Y-80213200D01*
X177848943Y-79985113D01*
X177840428Y-79953335D01*
X177791107Y-79769267D01*
X177791106Y-79769265D01*
X177789684Y-79763957D01*
X177731867Y-79639967D01*
X177695249Y-79561438D01*
X177695246Y-79561433D01*
X177692923Y-79556451D01*
X177561598Y-79368900D01*
X177399700Y-79207002D01*
X177395192Y-79203845D01*
X177395189Y-79203843D01*
X177317011Y-79149102D01*
X177212149Y-79075677D01*
X177207167Y-79073354D01*
X177207162Y-79073351D01*
X177009625Y-78981239D01*
X177009624Y-78981239D01*
X177004643Y-78978916D01*
X176999335Y-78977494D01*
X176999333Y-78977493D01*
X176788802Y-78921081D01*
X176788800Y-78921081D01*
X176783487Y-78919657D01*
X176555400Y-78899702D01*
X176327313Y-78919657D01*
X176322000Y-78921081D01*
X176321998Y-78921081D01*
X176111467Y-78977493D01*
X176111465Y-78977494D01*
X176106157Y-78978916D01*
X176101176Y-78981239D01*
X176101175Y-78981239D01*
X175903638Y-79073351D01*
X175903633Y-79073354D01*
X175898651Y-79075677D01*
X175793789Y-79149102D01*
X175715611Y-79203843D01*
X175715608Y-79203845D01*
X175711100Y-79207002D01*
X175549202Y-79368900D01*
X175417877Y-79556451D01*
X175415554Y-79561433D01*
X175415551Y-79561438D01*
X175399595Y-79595657D01*
X175352678Y-79648942D01*
X175284401Y-79668403D01*
X175216441Y-79647861D01*
X175171205Y-79595657D01*
X175155249Y-79561438D01*
X175155246Y-79561433D01*
X175152923Y-79556451D01*
X175021598Y-79368900D01*
X174859700Y-79207002D01*
X174855192Y-79203845D01*
X174855189Y-79203843D01*
X174777011Y-79149102D01*
X174672149Y-79075677D01*
X174667167Y-79073354D01*
X174667162Y-79073351D01*
X174469625Y-78981239D01*
X174469624Y-78981239D01*
X174464643Y-78978916D01*
X174459335Y-78977494D01*
X174459333Y-78977493D01*
X174248802Y-78921081D01*
X174248800Y-78921081D01*
X174243487Y-78919657D01*
X174015400Y-78899702D01*
X173787313Y-78919657D01*
X173782000Y-78921081D01*
X173781998Y-78921081D01*
X173571467Y-78977493D01*
X173571465Y-78977494D01*
X173566157Y-78978916D01*
X173561176Y-78981239D01*
X173561175Y-78981239D01*
X173363638Y-79073351D01*
X173363633Y-79073354D01*
X173358651Y-79075677D01*
X173253789Y-79149102D01*
X173175611Y-79203843D01*
X173175608Y-79203845D01*
X173171100Y-79207002D01*
X173009202Y-79368900D01*
X172877877Y-79556451D01*
X172875554Y-79561433D01*
X172875551Y-79561438D01*
X172859595Y-79595657D01*
X172812678Y-79648942D01*
X172744401Y-79668403D01*
X172676441Y-79647861D01*
X172631205Y-79595657D01*
X172615249Y-79561438D01*
X172615246Y-79561433D01*
X172612923Y-79556451D01*
X172481598Y-79368900D01*
X172319700Y-79207002D01*
X172315192Y-79203845D01*
X172315189Y-79203843D01*
X172237011Y-79149102D01*
X172132149Y-79075677D01*
X172127167Y-79073354D01*
X172127162Y-79073351D01*
X171929625Y-78981239D01*
X171929624Y-78981239D01*
X171924643Y-78978916D01*
X171919335Y-78977494D01*
X171919333Y-78977493D01*
X171708802Y-78921081D01*
X171708800Y-78921081D01*
X171703487Y-78919657D01*
X171475400Y-78899702D01*
X171247313Y-78919657D01*
X171242000Y-78921081D01*
X171241998Y-78921081D01*
X171031467Y-78977493D01*
X171031465Y-78977494D01*
X171026157Y-78978916D01*
X171021176Y-78981239D01*
X171021175Y-78981239D01*
X170823638Y-79073351D01*
X170823633Y-79073354D01*
X170818651Y-79075677D01*
X170713789Y-79149102D01*
X170635611Y-79203843D01*
X170635608Y-79203845D01*
X170631100Y-79207002D01*
X170469202Y-79368900D01*
X170337877Y-79556451D01*
X170335554Y-79561433D01*
X170335551Y-79561438D01*
X170319595Y-79595657D01*
X170272678Y-79648942D01*
X170204401Y-79668403D01*
X170136441Y-79647861D01*
X170091205Y-79595657D01*
X170075249Y-79561438D01*
X170075246Y-79561433D01*
X170072923Y-79556451D01*
X169941598Y-79368900D01*
X169779700Y-79207002D01*
X169775192Y-79203845D01*
X169775189Y-79203843D01*
X169697011Y-79149102D01*
X169592149Y-79075677D01*
X169587167Y-79073354D01*
X169587162Y-79073351D01*
X169389625Y-78981239D01*
X169389624Y-78981239D01*
X169384643Y-78978916D01*
X169379335Y-78977494D01*
X169379333Y-78977493D01*
X169168802Y-78921081D01*
X169168800Y-78921081D01*
X169163487Y-78919657D01*
X168935400Y-78899702D01*
X168707313Y-78919657D01*
X168702000Y-78921081D01*
X168701998Y-78921081D01*
X168491467Y-78977493D01*
X168491465Y-78977494D01*
X168486157Y-78978916D01*
X168481176Y-78981239D01*
X168481175Y-78981239D01*
X168283638Y-79073351D01*
X168283633Y-79073354D01*
X168278651Y-79075677D01*
X168173789Y-79149102D01*
X168095611Y-79203843D01*
X168095608Y-79203845D01*
X168091100Y-79207002D01*
X167929202Y-79368900D01*
X167797877Y-79556451D01*
X167795554Y-79561433D01*
X167795551Y-79561438D01*
X167779595Y-79595657D01*
X167732678Y-79648942D01*
X167664401Y-79668403D01*
X167596441Y-79647861D01*
X167551205Y-79595657D01*
X167535249Y-79561438D01*
X167535246Y-79561433D01*
X167532923Y-79556451D01*
X167401598Y-79368900D01*
X167239700Y-79207002D01*
X167235192Y-79203845D01*
X167235189Y-79203843D01*
X167157011Y-79149102D01*
X167052149Y-79075677D01*
X167047167Y-79073354D01*
X167047162Y-79073351D01*
X166849625Y-78981239D01*
X166849624Y-78981239D01*
X166844643Y-78978916D01*
X166839335Y-78977494D01*
X166839333Y-78977493D01*
X166628802Y-78921081D01*
X166628800Y-78921081D01*
X166623487Y-78919657D01*
X166395400Y-78899702D01*
X166167313Y-78919657D01*
X166162000Y-78921081D01*
X166161998Y-78921081D01*
X165951467Y-78977493D01*
X165951465Y-78977494D01*
X165946157Y-78978916D01*
X165941176Y-78981239D01*
X165941175Y-78981239D01*
X165743638Y-79073351D01*
X165743633Y-79073354D01*
X165738651Y-79075677D01*
X165633789Y-79149102D01*
X165555611Y-79203843D01*
X165555608Y-79203845D01*
X165551100Y-79207002D01*
X165389202Y-79368900D01*
X165257877Y-79556451D01*
X165255554Y-79561433D01*
X165255551Y-79561438D01*
X165239595Y-79595657D01*
X165192678Y-79648942D01*
X165124401Y-79668403D01*
X165056441Y-79647861D01*
X165011205Y-79595657D01*
X164995249Y-79561438D01*
X164995246Y-79561433D01*
X164992923Y-79556451D01*
X164861598Y-79368900D01*
X164699700Y-79207002D01*
X164695192Y-79203845D01*
X164695189Y-79203843D01*
X164617011Y-79149102D01*
X164512149Y-79075677D01*
X164507167Y-79073354D01*
X164507162Y-79073351D01*
X164309625Y-78981239D01*
X164309624Y-78981239D01*
X164304643Y-78978916D01*
X164299335Y-78977494D01*
X164299333Y-78977493D01*
X164088802Y-78921081D01*
X164088800Y-78921081D01*
X164083487Y-78919657D01*
X163855400Y-78899702D01*
X163627313Y-78919657D01*
X163622000Y-78921081D01*
X163621998Y-78921081D01*
X163411467Y-78977493D01*
X163411465Y-78977494D01*
X163406157Y-78978916D01*
X163401176Y-78981239D01*
X163401175Y-78981239D01*
X163203638Y-79073351D01*
X163203633Y-79073354D01*
X163198651Y-79075677D01*
X163093789Y-79149102D01*
X163015611Y-79203843D01*
X163015608Y-79203845D01*
X163011100Y-79207002D01*
X162849202Y-79368900D01*
X162717877Y-79556451D01*
X162715554Y-79561433D01*
X162715551Y-79561438D01*
X162678933Y-79639967D01*
X162621116Y-79763957D01*
X162619694Y-79769265D01*
X162619693Y-79769267D01*
X162570372Y-79953335D01*
X162561857Y-79985113D01*
X162541902Y-80213200D01*
X160088898Y-80213200D01*
X160068943Y-79985113D01*
X160060428Y-79953335D01*
X160011107Y-79769267D01*
X160011106Y-79769265D01*
X160009684Y-79763957D01*
X159951867Y-79639967D01*
X159915249Y-79561438D01*
X159915246Y-79561433D01*
X159912923Y-79556451D01*
X159781598Y-79368900D01*
X159619700Y-79207002D01*
X159615192Y-79203845D01*
X159615189Y-79203843D01*
X159537011Y-79149102D01*
X159432149Y-79075677D01*
X159427167Y-79073354D01*
X159427162Y-79073351D01*
X159229625Y-78981239D01*
X159229624Y-78981239D01*
X159224643Y-78978916D01*
X159219335Y-78977494D01*
X159219333Y-78977493D01*
X159008802Y-78921081D01*
X159008800Y-78921081D01*
X159003487Y-78919657D01*
X158775400Y-78899702D01*
X158547313Y-78919657D01*
X158542000Y-78921081D01*
X158541998Y-78921081D01*
X158331467Y-78977493D01*
X158331465Y-78977494D01*
X158326157Y-78978916D01*
X158321176Y-78981239D01*
X158321175Y-78981239D01*
X158123638Y-79073351D01*
X158123633Y-79073354D01*
X158118651Y-79075677D01*
X158013789Y-79149102D01*
X157935611Y-79203843D01*
X157935608Y-79203845D01*
X157931100Y-79207002D01*
X157769202Y-79368900D01*
X157637877Y-79556451D01*
X157635554Y-79561433D01*
X157635551Y-79561438D01*
X157619319Y-79596249D01*
X157572402Y-79649534D01*
X157504125Y-79668995D01*
X157436165Y-79648453D01*
X157390929Y-79596249D01*
X157374814Y-79561689D01*
X157369331Y-79552193D01*
X157244372Y-79373733D01*
X157237316Y-79365325D01*
X157083275Y-79211284D01*
X157074867Y-79204228D01*
X156896407Y-79079269D01*
X156886911Y-79073786D01*
X156689453Y-78981710D01*
X156679161Y-78977964D01*
X156506897Y-78931806D01*
X156492801Y-78932142D01*
X156489400Y-78940084D01*
X156489400Y-81481167D01*
X155981400Y-81481167D01*
X155981400Y-80485315D01*
X155976925Y-80470076D01*
X155975535Y-80468871D01*
X155967852Y-80467200D01*
X153967515Y-80467200D01*
X153952276Y-80471675D01*
X153951071Y-80473065D01*
X153949400Y-80480748D01*
X153949400Y-81481167D01*
X153441400Y-81481167D01*
X153441400Y-79941085D01*
X153949400Y-79941085D01*
X153953875Y-79956324D01*
X153955265Y-79957529D01*
X153962948Y-79959200D01*
X155963285Y-79959200D01*
X155978524Y-79954725D01*
X155979729Y-79953335D01*
X155981400Y-79945652D01*
X155981400Y-78945233D01*
X155977427Y-78931702D01*
X155968878Y-78930473D01*
X155791639Y-78977964D01*
X155781347Y-78981710D01*
X155583889Y-79073786D01*
X155574393Y-79079269D01*
X155395933Y-79204228D01*
X155387525Y-79211284D01*
X155233484Y-79365325D01*
X155226428Y-79373733D01*
X155101469Y-79552193D01*
X155095986Y-79561689D01*
X155079595Y-79596841D01*
X155032678Y-79650126D01*
X154964401Y-79669587D01*
X154896441Y-79649045D01*
X154851205Y-79596841D01*
X154834814Y-79561689D01*
X154829331Y-79552193D01*
X154704372Y-79373733D01*
X154697316Y-79365325D01*
X154543275Y-79211284D01*
X154534867Y-79204228D01*
X154356407Y-79079269D01*
X154346911Y-79073786D01*
X154149453Y-78981710D01*
X154139161Y-78977964D01*
X153966897Y-78931806D01*
X153952801Y-78932142D01*
X153949400Y-78940084D01*
X153949400Y-79941085D01*
X153441400Y-79941085D01*
X153441400Y-78945233D01*
X153437427Y-78931702D01*
X153428878Y-78930473D01*
X153251639Y-78977964D01*
X153241347Y-78981710D01*
X153043889Y-79073786D01*
X153034393Y-79079269D01*
X152855933Y-79204228D01*
X152847525Y-79211284D01*
X152693484Y-79365325D01*
X152686428Y-79373733D01*
X152561469Y-79552193D01*
X152555986Y-79561689D01*
X152539871Y-79596249D01*
X152492954Y-79649534D01*
X152424677Y-79668995D01*
X152356717Y-79648453D01*
X152311481Y-79596249D01*
X152295249Y-79561438D01*
X152295246Y-79561433D01*
X152292923Y-79556451D01*
X152161598Y-79368900D01*
X151999700Y-79207002D01*
X151995192Y-79203845D01*
X151995189Y-79203843D01*
X151917011Y-79149102D01*
X151812149Y-79075677D01*
X151807167Y-79073354D01*
X151807162Y-79073351D01*
X151609625Y-78981239D01*
X151609624Y-78981239D01*
X151604643Y-78978916D01*
X151599335Y-78977494D01*
X151599333Y-78977493D01*
X151388802Y-78921081D01*
X151388800Y-78921081D01*
X151383487Y-78919657D01*
X151155400Y-78899702D01*
X150927313Y-78919657D01*
X150922000Y-78921081D01*
X150921998Y-78921081D01*
X150711467Y-78977493D01*
X150711465Y-78977494D01*
X150706157Y-78978916D01*
X150701176Y-78981239D01*
X150701175Y-78981239D01*
X150503638Y-79073351D01*
X150503633Y-79073354D01*
X150498651Y-79075677D01*
X150393789Y-79149102D01*
X150315611Y-79203843D01*
X150315608Y-79203845D01*
X150311100Y-79207002D01*
X150149202Y-79368900D01*
X150017877Y-79556451D01*
X150015554Y-79561433D01*
X150015551Y-79561438D01*
X149999595Y-79595657D01*
X149952678Y-79648942D01*
X149884401Y-79668403D01*
X149816441Y-79647861D01*
X149771205Y-79595657D01*
X149755249Y-79561438D01*
X149755246Y-79561433D01*
X149752923Y-79556451D01*
X149621598Y-79368900D01*
X149459700Y-79207002D01*
X149455192Y-79203845D01*
X149455189Y-79203843D01*
X149377011Y-79149102D01*
X149272149Y-79075677D01*
X149267167Y-79073354D01*
X149267162Y-79073351D01*
X149069625Y-78981239D01*
X149069624Y-78981239D01*
X149064643Y-78978916D01*
X149059335Y-78977494D01*
X149059333Y-78977493D01*
X148848802Y-78921081D01*
X148848800Y-78921081D01*
X148843487Y-78919657D01*
X148615400Y-78899702D01*
X148387313Y-78919657D01*
X148382000Y-78921081D01*
X148381998Y-78921081D01*
X148171467Y-78977493D01*
X148171465Y-78977494D01*
X148166157Y-78978916D01*
X148161176Y-78981239D01*
X148161175Y-78981239D01*
X147963638Y-79073351D01*
X147963633Y-79073354D01*
X147958651Y-79075677D01*
X147853789Y-79149102D01*
X147775611Y-79203843D01*
X147775608Y-79203845D01*
X147771100Y-79207002D01*
X147609202Y-79368900D01*
X147477877Y-79556451D01*
X147475554Y-79561433D01*
X147475551Y-79561438D01*
X147459595Y-79595657D01*
X147412678Y-79648942D01*
X147344401Y-79668403D01*
X147276441Y-79647861D01*
X147231205Y-79595657D01*
X147215249Y-79561438D01*
X147215246Y-79561433D01*
X147212923Y-79556451D01*
X147081598Y-79368900D01*
X146919700Y-79207002D01*
X146915192Y-79203845D01*
X146915189Y-79203843D01*
X146837011Y-79149102D01*
X146732149Y-79075677D01*
X146727167Y-79073354D01*
X146727162Y-79073351D01*
X146529625Y-78981239D01*
X146529624Y-78981239D01*
X146524643Y-78978916D01*
X146519335Y-78977494D01*
X146519333Y-78977493D01*
X146308802Y-78921081D01*
X146308800Y-78921081D01*
X146303487Y-78919657D01*
X146075400Y-78899702D01*
X145847313Y-78919657D01*
X145842000Y-78921081D01*
X145841998Y-78921081D01*
X145631467Y-78977493D01*
X145631465Y-78977494D01*
X145626157Y-78978916D01*
X145621176Y-78981239D01*
X145621175Y-78981239D01*
X145423638Y-79073351D01*
X145423633Y-79073354D01*
X145418651Y-79075677D01*
X145313789Y-79149102D01*
X145235611Y-79203843D01*
X145235608Y-79203845D01*
X145231100Y-79207002D01*
X145069202Y-79368900D01*
X144937877Y-79556451D01*
X144935554Y-79561433D01*
X144935551Y-79561438D01*
X144919595Y-79595657D01*
X144872678Y-79648942D01*
X144804401Y-79668403D01*
X144736441Y-79647861D01*
X144691205Y-79595657D01*
X144675249Y-79561438D01*
X144675246Y-79561433D01*
X144672923Y-79556451D01*
X144541598Y-79368900D01*
X144379700Y-79207002D01*
X144375192Y-79203845D01*
X144375189Y-79203843D01*
X144297011Y-79149102D01*
X144192149Y-79075677D01*
X144187167Y-79073354D01*
X144187162Y-79073351D01*
X143989625Y-78981239D01*
X143989624Y-78981239D01*
X143984643Y-78978916D01*
X143979335Y-78977494D01*
X143979333Y-78977493D01*
X143768802Y-78921081D01*
X143768800Y-78921081D01*
X143763487Y-78919657D01*
X143535400Y-78899702D01*
X143307313Y-78919657D01*
X143302000Y-78921081D01*
X143301998Y-78921081D01*
X143091467Y-78977493D01*
X143091465Y-78977494D01*
X143086157Y-78978916D01*
X143081176Y-78981239D01*
X143081175Y-78981239D01*
X142883638Y-79073351D01*
X142883633Y-79073354D01*
X142878651Y-79075677D01*
X142773789Y-79149102D01*
X142695611Y-79203843D01*
X142695608Y-79203845D01*
X142691100Y-79207002D01*
X142529202Y-79368900D01*
X142526043Y-79373411D01*
X142522508Y-79377624D01*
X142521374Y-79376673D01*
X142471329Y-79416671D01*
X142400710Y-79423976D01*
X142337351Y-79391942D01*
X142301370Y-79330738D01*
X142298318Y-79313683D01*
X142297145Y-79302884D01*
X142246015Y-79166495D01*
X142158661Y-79049939D01*
X142042105Y-78962585D01*
X141905716Y-78911455D01*
X141843534Y-78904700D01*
X140147266Y-78904700D01*
X140085084Y-78911455D01*
X139948695Y-78962585D01*
X139832139Y-79049939D01*
X139744785Y-79166495D01*
X139693655Y-79302884D01*
X139686900Y-79365066D01*
X139686900Y-81061334D01*
X130073900Y-81061334D01*
X130073900Y-80774450D01*
X130075646Y-80753545D01*
X130078170Y-80738544D01*
X130078170Y-80738541D01*
X130078976Y-80733752D01*
X130079129Y-80721200D01*
X130077111Y-80707107D01*
X130076026Y-80682360D01*
X130076292Y-80677513D01*
X130090238Y-80422807D01*
X130091743Y-80409115D01*
X130139432Y-80121117D01*
X130142422Y-80107668D01*
X130149758Y-80081520D01*
X130174077Y-79994831D01*
X130221276Y-79826583D01*
X130225717Y-79813541D01*
X130334788Y-79542744D01*
X130340627Y-79530265D01*
X130478607Y-79273005D01*
X130485773Y-79261238D01*
X130651016Y-79020580D01*
X130659424Y-79009665D01*
X130849959Y-78788484D01*
X130859508Y-78778553D01*
X131073050Y-78579499D01*
X131083627Y-78570669D01*
X131317633Y-78396115D01*
X131329110Y-78388494D01*
X131406694Y-78342880D01*
X131580772Y-78240534D01*
X131593001Y-78234217D01*
X131859321Y-78114615D01*
X131872163Y-78109672D01*
X132149950Y-78019862D01*
X132163271Y-78016347D01*
X132306230Y-77986876D01*
X132449190Y-77957406D01*
X132462813Y-77955366D01*
X132593500Y-77943059D01*
X132718125Y-77931323D01*
X132744425Y-77931604D01*
X132745340Y-77931710D01*
X132745344Y-77931710D01*
X132754260Y-77932742D01*
X132766457Y-77930658D01*
X132773236Y-77929500D01*
X132794456Y-77927700D01*
X179586464Y-77927700D01*
X179609172Y-77929763D01*
G37*
%TD.AperFunction*%
%TD*%
M02*
