M48
; DRILL file {KiCad (6.0.7)} date Вс 21 авг 2022 17:21:37
; FORMAT={-:-/ absolute / inch / decimal}
; #@! TF.CreationDate,2022-08-21T17:21:37+03:00
; #@! TF.GenerationSoftware,Kicad,Pcbnew,(6.0.7)
; #@! TF.FileFunction,Plated,1,2,PTH
FMAT,2
INCH
; #@! TA.AperFunction,Plated,PTH,ViaDrill
T1C0.0157
; #@! TA.AperFunction,Plated,PTH,ComponentDrill
T2C0.0315
; #@! TA.AperFunction,Plated,PTH,ComponentDrill
T3C0.0354
; #@! TA.AperFunction,Plated,PTH,ComponentDrill
T4C0.0394
; #@! TA.AperFunction,Plated,PTH,ComponentDrill
T5C0.0433
; #@! TA.AperFunction,Plated,PTH,ComponentDrill
T6C0.0520
%
G90
G05
T1
X6.28Y-4.798
X6.61Y-4.582
X6.642Y-4.798
T2
X5.214Y-4.52
X5.214Y-4.92
X5.776Y-3.342
X6.176Y-3.342
X6.372Y-4.892
X6.69Y-4.146
X6.772Y-4.892
X7.09Y-4.146
T3
X5.448Y-4.69
X5.548Y-4.69
X5.726Y-3.752
X5.826Y-3.752
X6.894Y-4.872
X6.9322Y-3.882
X6.994Y-4.872
X7.0322Y-3.882
T4
X5.1912Y-5.058
X5.2912Y-5.058
X5.3912Y-5.058
X5.4912Y-5.058
X5.551Y-3.158
X5.5912Y-5.058
X5.651Y-3.158
X5.6912Y-5.058
X5.751Y-3.158
X5.7912Y-5.058
X5.8234Y-4.334
X5.851Y-3.158
X5.8912Y-5.058
X5.9046Y-4.697
X5.9234Y-4.334
X5.951Y-3.158
X5.9912Y-5.058
X6.0046Y-4.697
X6.0114Y-3.524
X6.016Y-4.008
X6.0234Y-4.334
X6.051Y-3.158
X6.0912Y-5.058
X6.1046Y-4.697
X6.1114Y-3.524
X6.116Y-4.008
X6.151Y-3.158
X6.2114Y-3.524
X6.216Y-4.008
X6.251Y-3.158
X6.251Y-5.058
X6.316Y-4.008
X6.351Y-5.058
X6.436Y-4.388
X6.436Y-4.488
X6.436Y-4.588
X6.451Y-3.158
X6.451Y-5.058
X6.551Y-3.158
X6.551Y-5.058
X6.556Y-3.424
X6.556Y-3.524
X6.556Y-3.624
X6.651Y-3.158
X6.651Y-5.058
X6.751Y-3.158
X6.751Y-5.058
X6.7788Y-3.4246
X6.7788Y-3.5246
X6.7788Y-3.6246
X6.7808Y-4.3244
X6.7808Y-4.4244
X6.7808Y-4.5244
X6.7808Y-4.6244
X6.851Y-3.158
X6.851Y-5.058
X6.951Y-3.158
X6.951Y-5.058
T5
X5.2681Y-3.466
X5.2681Y-3.6432
X5.524Y-3.466
X5.524Y-3.6432
T6
X5.356Y-3.963
X5.356Y-4.1599
T0
M30
