%TF.GenerationSoftware,KiCad,Pcbnew,(6.0.7)*%
%TF.CreationDate,2022-08-21T17:21:21+03:00*%
%TF.ProjectId,ArduinoUnoHat,41726475-696e-46f5-956e-6f4861742e6b,rev?*%
%TF.SameCoordinates,Original*%
%TF.FileFunction,Copper,L2,Bot*%
%TF.FilePolarity,Positive*%
%FSLAX46Y46*%
G04 Gerber Fmt 4.6, Leading zero omitted, Abs format (unit mm)*
G04 Created by KiCad (PCBNEW (6.0.7)) date 2022-08-21 17:21:21*
%MOMM*%
%LPD*%
G01*
G04 APERTURE LIST*
%TA.AperFunction,ComponentPad*%
%ADD10C,2.000000*%
%TD*%
%TA.AperFunction,ComponentPad*%
%ADD11O,1.600000X1.600000*%
%TD*%
%TA.AperFunction,ComponentPad*%
%ADD12C,1.600000*%
%TD*%
%TA.AperFunction,ComponentPad*%
%ADD13R,1.700000X1.700000*%
%TD*%
%TA.AperFunction,ComponentPad*%
%ADD14O,1.700000X1.700000*%
%TD*%
%TA.AperFunction,ComponentPad*%
%ADD15R,3.960000X1.980000*%
%TD*%
%TA.AperFunction,ComponentPad*%
%ADD16O,3.960000X1.980000*%
%TD*%
%TA.AperFunction,ComponentPad*%
%ADD17C,1.800000*%
%TD*%
%TA.AperFunction,ComponentPad*%
%ADD18R,1.800000X1.800000*%
%TD*%
%TA.AperFunction,ComponentPad*%
%ADD19R,1.600000X1.600000*%
%TD*%
%TA.AperFunction,ViaPad*%
%ADD20C,0.800000*%
%TD*%
%TA.AperFunction,Conductor*%
%ADD21C,0.250000*%
%TD*%
%TA.AperFunction,Conductor*%
%ADD22C,0.500000*%
%TD*%
G04 APERTURE END LIST*
D10*
%TO.P,SW1,2,2*%
%TO.N,GND*%
X133809600Y-92536400D03*
X140309600Y-92536400D03*
%TO.P,SW1,1,1*%
%TO.N,nReset*%
X140309600Y-88036400D03*
X133809600Y-88036400D03*
%TD*%
D11*
%TO.P,R4,2*%
%TO.N,Net-(D3-Pad1)*%
X180086000Y-105308400D03*
D12*
%TO.P,R4,1*%
%TO.N,GND*%
X169926000Y-105308400D03*
%TD*%
D11*
%TO.P,R3,2*%
%TO.N,Net-(D4-Pad1)*%
X132435600Y-114808000D03*
D12*
%TO.P,R3,1*%
%TO.N,GND*%
X132435600Y-124968000D03*
%TD*%
%TO.P,R2,1*%
%TO.N,GND*%
X161848800Y-124256800D03*
D11*
%TO.P,R2,2*%
%TO.N,Net-(D2-Pad1)*%
X172008800Y-124256800D03*
%TD*%
%TO.P,R1,2*%
%TO.N,Net-(D1-Pad1)*%
X146710400Y-84886800D03*
D12*
%TO.P,R1,1*%
%TO.N,GND*%
X156870400Y-84886800D03*
%TD*%
D13*
%TO.P,J9,1,Pin_1*%
%TO.N,+5V*%
X166522400Y-86969600D03*
D14*
%TO.P,J9,2,Pin_2*%
%TO.N,/Vdd_Tx1*%
X166522400Y-89509600D03*
%TO.P,J9,3,Pin_3*%
%TO.N,+3.3V*%
X166522400Y-92049600D03*
%TD*%
D13*
%TO.P,J8,1,Pin_1*%
%TO.N,+5V*%
X152994600Y-110083600D03*
D14*
%TO.P,J8,2,Pin_2*%
%TO.N,/Vdd_Tx0*%
X150454600Y-110083600D03*
%TO.P,J8,3,Pin_3*%
%TO.N,+3.3V*%
X147914600Y-110083600D03*
%TD*%
D13*
%TO.P,J7,1,Pin_1*%
%TO.N,GND*%
X172180800Y-86984600D03*
D14*
%TO.P,J7,2,Pin_2*%
%TO.N,/Vdd_Tx1*%
X172180800Y-89524600D03*
%TO.P,J7,3,Pin_3*%
%TO.N,Data_Tx1*%
X172180800Y-92064600D03*
%TD*%
D13*
%TO.P,J6,1,Pin_1*%
%TO.N,GND*%
X149976600Y-119303400D03*
D14*
%TO.P,J6,2,Pin_2*%
%TO.N,/Vdd_Tx0*%
X152516600Y-119303400D03*
%TO.P,J6,3,Pin_3*%
%TO.N,Data_Tx0*%
X155056600Y-119303400D03*
%TD*%
D13*
%TO.P,J5,1,Pin_1*%
%TO.N,+5V*%
X163474400Y-111455200D03*
D14*
%TO.P,J5,2,Pin_2*%
%TO.N,/Vdd_Rx1*%
X163474400Y-113995200D03*
%TO.P,J5,3,Pin_3*%
%TO.N,+3.3V*%
X163474400Y-116535200D03*
%TD*%
D13*
%TO.P,J4,1,Pin_1*%
%TO.N,+5V*%
X157769800Y-89509600D03*
D14*
%TO.P,J4,2,Pin_2*%
%TO.N,/Vdd_Rx0*%
X155229800Y-89509600D03*
%TO.P,J4,3,Pin_3*%
%TO.N,+3.3V*%
X152689800Y-89509600D03*
%TD*%
D13*
%TO.P,J3,1,Pin_1*%
%TO.N,GND*%
X172231600Y-109840400D03*
D14*
%TO.P,J3,2,Pin_2*%
%TO.N,Data_Rx1*%
X172231600Y-112380400D03*
%TO.P,J3,3,Pin_3*%
%TO.N,unconnected-(J3-Pad3)*%
X172231600Y-114920400D03*
%TO.P,J3,4,Pin_4*%
%TO.N,/Vdd_Rx1*%
X172231600Y-117460400D03*
%TD*%
%TO.P,J2,4,Pin_4*%
%TO.N,/Vdd_Rx0*%
X160426400Y-101803200D03*
%TO.P,J2,3,Pin_3*%
%TO.N,unconnected-(J2-Pad3)*%
X157886400Y-101803200D03*
%TO.P,J2,2,Pin_2*%
%TO.N,Data_Rx0*%
X155346400Y-101803200D03*
D13*
%TO.P,J2,1,Pin_1*%
%TO.N,GND*%
X152806400Y-101803200D03*
%TD*%
D15*
%TO.P,J1,1,Pin_1*%
%TO.N,GND*%
X136042400Y-100660200D03*
D16*
%TO.P,J1,2,Pin_2*%
%TO.N,VDD*%
X136042400Y-105660200D03*
%TD*%
D17*
%TO.P,D4,2,A*%
%TO.N,Data_Tx0*%
X140919200Y-119126000D03*
D18*
%TO.P,D4,1,K*%
%TO.N,Net-(D4-Pad1)*%
X138379200Y-119126000D03*
%TD*%
D17*
%TO.P,D3,2,A*%
%TO.N,Data_Tx1*%
X176077800Y-98602800D03*
D18*
%TO.P,D3,1,K*%
%TO.N,Net-(D3-Pad1)*%
X178617800Y-98602800D03*
%TD*%
D17*
%TO.P,D2,2,A*%
%TO.N,Data_Rx_Hb1*%
X177647600Y-123748800D03*
D18*
%TO.P,D2,1,K*%
%TO.N,Net-(D2-Pad1)*%
X175107600Y-123748800D03*
%TD*%
D17*
%TO.P,D1,2,A*%
%TO.N,Data_Rx_Hb0*%
X145440400Y-95300800D03*
D18*
%TO.P,D1,1,K*%
%TO.N,Net-(D1-Pad1)*%
X147980400Y-95300800D03*
%TD*%
D11*
%TO.P,A1,32,SCL/A5*%
%TO.N,unconnected-(A1-Pad32)*%
X131855400Y-128473200D03*
%TO.P,A1,31,SDA/A4*%
%TO.N,unconnected-(A1-Pad31)*%
X134395400Y-128473200D03*
%TO.P,A1,30,AREF*%
%TO.N,unconnected-(A1-Pad30)*%
X136935400Y-128473200D03*
%TO.P,A1,29,GND*%
%TO.N,GND*%
X139475400Y-128473200D03*
%TO.P,A1,28,D13*%
%TO.N,unconnected-(A1-Pad28)*%
X142015400Y-128473200D03*
%TO.P,A1,27,D12*%
%TO.N,unconnected-(A1-Pad27)*%
X144555400Y-128473200D03*
%TO.P,A1,26,D11*%
%TO.N,unconnected-(A1-Pad26)*%
X147095400Y-128473200D03*
%TO.P,A1,25,D10*%
%TO.N,unconnected-(A1-Pad25)*%
X149635400Y-128473200D03*
%TO.P,A1,24,D9*%
%TO.N,unconnected-(A1-Pad24)*%
X152175400Y-128473200D03*
%TO.P,A1,23,D8*%
%TO.N,Data_Rx_Hb1*%
X154715400Y-128473200D03*
%TO.P,A1,22,D7*%
%TO.N,Data_Rx_Hb0*%
X158775400Y-128473200D03*
%TO.P,A1,21,D6*%
%TO.N,unconnected-(A1-Pad21)*%
X161315400Y-128473200D03*
%TO.P,A1,20,D5*%
%TO.N,Data_Tx1*%
X163855400Y-128473200D03*
%TO.P,A1,19,D4*%
%TO.N,Data_Tx0*%
X166395400Y-128473200D03*
%TO.P,A1,18,D3*%
%TO.N,Data_Rx0*%
X168935400Y-128473200D03*
%TO.P,A1,17,D2*%
%TO.N,Data_Rx1*%
X171475400Y-128473200D03*
%TO.P,A1,16,D1/TX*%
%TO.N,unconnected-(A1-Pad16)*%
X174015400Y-128473200D03*
%TO.P,A1,15,D0/RX*%
%TO.N,unconnected-(A1-Pad15)*%
X176555400Y-128473200D03*
%TO.P,A1,14,SCL/A5*%
%TO.N,unconnected-(A1-Pad14)*%
X176555400Y-80213200D03*
%TO.P,A1,13,SDA/A4*%
%TO.N,unconnected-(A1-Pad13)*%
X174015400Y-80213200D03*
%TO.P,A1,12,A3*%
%TO.N,unconnected-(A1-Pad12)*%
X171475400Y-80213200D03*
%TO.P,A1,11,A2*%
%TO.N,unconnected-(A1-Pad11)*%
X168935400Y-80213200D03*
%TO.P,A1,10,A1*%
%TO.N,unconnected-(A1-Pad10)*%
X166395400Y-80213200D03*
%TO.P,A1,9,A0*%
%TO.N,unconnected-(A1-Pad9)*%
X163855400Y-80213200D03*
%TO.P,A1,8,VIN*%
%TO.N,VDD*%
X158775400Y-80213200D03*
%TO.P,A1,7,GND*%
%TO.N,GND*%
X156235400Y-80213200D03*
%TO.P,A1,6,GND*%
X153695400Y-80213200D03*
%TO.P,A1,5,+5V*%
%TO.N,+5V*%
X151155400Y-80213200D03*
%TO.P,A1,4,3V3*%
%TO.N,+3.3V*%
X148615400Y-80213200D03*
%TO.P,A1,3,~{RESET}*%
%TO.N,nReset*%
X146075400Y-80213200D03*
%TO.P,A1,2,IOREF*%
%TO.N,unconnected-(A1-Pad2)*%
X143535400Y-80213200D03*
D19*
%TO.P,A1,1,NC*%
%TO.N,unconnected-(A1-Pad1)*%
X140995400Y-80213200D03*
%TD*%
D20*
%TO.N,Data_Rx1*%
X167894000Y-116382800D03*
%TO.N,Data_Rx_Hb1*%
X159512000Y-121869200D03*
X168706800Y-121869200D03*
%TD*%
D21*
%TO.N,Data_Rx_Hb1*%
X168706800Y-121869200D02*
X175768000Y-121869200D01*
X175768000Y-121869200D02*
X177647600Y-123748800D01*
%TO.N,Net-(D2-Pad1)*%
X172008800Y-124256800D02*
X174091600Y-124256800D01*
X174091600Y-124256800D02*
X174599600Y-123748800D01*
X174599600Y-123748800D02*
X175107600Y-123748800D01*
%TO.N,nReset*%
X140309600Y-88036400D02*
X133809600Y-88036400D01*
%TO.N,Data_Rx1*%
X171475400Y-128473200D02*
X171475400Y-127341830D01*
X171475400Y-127341830D02*
X166624000Y-122490430D01*
X166624000Y-122490430D02*
X166624000Y-117652800D01*
X166624000Y-117652800D02*
X167894000Y-116382800D01*
D22*
%TO.N,/Vdd_Rx1*%
X163474400Y-113995200D02*
X168503600Y-113995200D01*
X168503600Y-113995200D02*
X171801400Y-117293000D01*
X171801400Y-117293000D02*
X171801400Y-117472900D01*
%TO.N,+5V*%
X165658800Y-109270800D02*
X165658800Y-100634800D01*
X162560000Y-97536000D02*
X160680400Y-97536000D01*
X165658800Y-100634800D02*
X162560000Y-97536000D01*
X160680400Y-97536000D02*
X157769800Y-94625400D01*
X163474400Y-111455200D02*
X165658800Y-109270800D01*
X157769800Y-94625400D02*
X157769800Y-89509600D01*
D21*
%TO.N,Data_Rx0*%
X168935400Y-128473200D02*
X168935400Y-125933200D01*
X168935400Y-125933200D02*
X155346400Y-112344200D01*
%TO.N,Data_Rx_Hb1*%
X154715400Y-128473200D02*
X154715400Y-126665800D01*
X154715400Y-126665800D02*
X159512000Y-121869200D01*
D22*
%TO.N,/Vdd_Rx1*%
X171801400Y-117460400D02*
X172231600Y-117460400D01*
D21*
%TO.N,Net-(D3-Pad1)*%
X180086000Y-105308400D02*
X180086000Y-100071000D01*
X180086000Y-100071000D02*
X178617800Y-98602800D01*
D22*
%TO.N,/Vdd_Tx1*%
X166522400Y-89509600D02*
X172165800Y-89509600D01*
X172165800Y-89509600D02*
X172180800Y-89524600D01*
%TO.N,+5V*%
X151155400Y-80213200D02*
X151155400Y-81711800D01*
X151155400Y-81711800D02*
X157769800Y-88326200D01*
X157769800Y-88326200D02*
X157769800Y-89509600D01*
X166522400Y-86969600D02*
X163626800Y-86969600D01*
X163626800Y-86969600D02*
X161086800Y-89509600D01*
X161086800Y-89509600D02*
X157769800Y-89509600D01*
D21*
%TO.N,Data_Tx0*%
X151587200Y-122428000D02*
X154127200Y-122428000D01*
X154127200Y-122428000D02*
X154178000Y-122478800D01*
X144729200Y-119126000D02*
X148894800Y-123291600D01*
X140919200Y-119126000D02*
X144729200Y-119126000D01*
X148894800Y-123291600D02*
X150723600Y-123291600D01*
X150723600Y-123291600D02*
X151587200Y-122428000D01*
X154178000Y-122478800D02*
X155056600Y-121600200D01*
X155056600Y-121600200D02*
X155056600Y-119303400D01*
%TO.N,Net-(D4-Pad1)*%
X132435600Y-114808000D02*
X134061200Y-114808000D01*
X134061200Y-114808000D02*
X138379200Y-119126000D01*
%TO.N,Data_Tx0*%
X166395400Y-128473200D02*
X166395400Y-125603000D01*
X166395400Y-125603000D02*
X160095800Y-119303400D01*
X160095800Y-119303400D02*
X155056600Y-119303400D01*
D22*
%TO.N,/Vdd_Tx0*%
X150454600Y-110083600D02*
X150454600Y-116581400D01*
X150454600Y-116581400D02*
X152516600Y-118643400D01*
X152516600Y-118643400D02*
X152516600Y-119303400D01*
D21*
%TO.N,Data_Rx0*%
X155346400Y-101803200D02*
X155346400Y-112344200D01*
D22*
%TO.N,/Vdd_Rx0*%
X155229800Y-89509600D02*
X155229800Y-96606600D01*
X155229800Y-96606600D02*
X160426400Y-101803200D01*
%TO.N,VDD*%
X158775400Y-80213200D02*
X157200600Y-78638400D01*
X157200600Y-78638400D02*
X138978096Y-78638400D01*
X138978096Y-78638400D02*
X131978400Y-85638096D01*
X131978400Y-85638096D02*
X131978400Y-104648000D01*
X131978400Y-104648000D02*
X132990600Y-105660200D01*
X132990600Y-105660200D02*
X136042400Y-105660200D01*
%TO.N,+3.3V*%
X148615400Y-80213200D02*
X148615400Y-85435200D01*
X148615400Y-85435200D02*
X152689800Y-89509600D01*
D21*
%TO.N,Net-(D1-Pad1)*%
X147980400Y-95300800D02*
X147980400Y-86156800D01*
X147980400Y-86156800D02*
X146710400Y-84886800D01*
%TO.N,nReset*%
X140309600Y-88036400D02*
X146075400Y-82270600D01*
X146075400Y-82270600D02*
X146075400Y-80213200D01*
%TD*%
%TA.AperFunction,Conductor*%
%TO.N,VDD*%
G36*
X145077721Y-103042402D02*
G01*
X145124214Y-103096058D01*
X145135600Y-103148400D01*
X145135600Y-109043200D01*
X145115598Y-109111321D01*
X145061942Y-109157814D01*
X145009600Y-109169200D01*
X130357617Y-109169200D01*
X130330564Y-109161257D01*
X130330026Y-109163994D01*
X130302000Y-109158482D01*
X130302000Y-105932394D01*
X133578535Y-105932394D01*
X133589406Y-106003436D01*
X133591795Y-106013463D01*
X133665109Y-106237770D01*
X133669106Y-106247279D01*
X133778069Y-106456595D01*
X133783563Y-106465320D01*
X133925254Y-106654035D01*
X133932097Y-106661742D01*
X134102710Y-106824784D01*
X134110716Y-106831267D01*
X134305674Y-106964257D01*
X134314626Y-106969343D01*
X134528685Y-107068706D01*
X134538345Y-107072260D01*
X134765769Y-107135330D01*
X134775873Y-107137257D01*
X134968502Y-107157844D01*
X134975194Y-107158200D01*
X135770285Y-107158200D01*
X135785524Y-107153725D01*
X135786729Y-107152335D01*
X135788400Y-107144652D01*
X135788400Y-107140085D01*
X136296400Y-107140085D01*
X136300875Y-107155324D01*
X136302265Y-107156529D01*
X136309948Y-107158200D01*
X137092257Y-107158200D01*
X137097430Y-107157988D01*
X137272750Y-107143574D01*
X137282912Y-107141891D01*
X137511796Y-107084400D01*
X137521551Y-107081079D01*
X137737957Y-106986982D01*
X137747055Y-106982104D01*
X137945187Y-106853927D01*
X137953356Y-106847637D01*
X138127901Y-106688813D01*
X138134926Y-106681280D01*
X138281187Y-106496080D01*
X138286892Y-106487493D01*
X138400936Y-106280903D01*
X138405166Y-106271491D01*
X138483939Y-106049044D01*
X138486573Y-106039073D01*
X138505639Y-105932037D01*
X138504179Y-105918740D01*
X138489622Y-105914200D01*
X136314515Y-105914200D01*
X136299276Y-105918675D01*
X136298071Y-105920065D01*
X136296400Y-105927748D01*
X136296400Y-107140085D01*
X135788400Y-107140085D01*
X135788400Y-105932315D01*
X135783925Y-105917076D01*
X135782535Y-105915871D01*
X135774852Y-105914200D01*
X133593866Y-105914200D01*
X133580522Y-105918118D01*
X133578535Y-105932394D01*
X130302000Y-105932394D01*
X130302000Y-105388363D01*
X133579161Y-105388363D01*
X133580621Y-105401660D01*
X133595178Y-105406200D01*
X135770285Y-105406200D01*
X135785524Y-105401725D01*
X135786729Y-105400335D01*
X135788400Y-105392652D01*
X135788400Y-105388085D01*
X136296400Y-105388085D01*
X136300875Y-105403324D01*
X136302265Y-105404529D01*
X136309948Y-105406200D01*
X138490934Y-105406200D01*
X138504278Y-105402282D01*
X138506265Y-105388006D01*
X138495394Y-105316964D01*
X138493005Y-105306937D01*
X138419691Y-105082630D01*
X138415694Y-105073121D01*
X138306731Y-104863805D01*
X138301237Y-104855080D01*
X138159546Y-104666365D01*
X138152703Y-104658658D01*
X137982090Y-104495616D01*
X137974084Y-104489133D01*
X137779126Y-104356143D01*
X137770174Y-104351057D01*
X137556115Y-104251694D01*
X137546455Y-104248140D01*
X137319031Y-104185070D01*
X137308927Y-104183143D01*
X137116298Y-104162556D01*
X137109606Y-104162200D01*
X136314515Y-104162200D01*
X136299276Y-104166675D01*
X136298071Y-104168065D01*
X136296400Y-104175748D01*
X136296400Y-105388085D01*
X135788400Y-105388085D01*
X135788400Y-104180315D01*
X135783925Y-104165076D01*
X135782535Y-104163871D01*
X135774852Y-104162200D01*
X134992543Y-104162200D01*
X134987370Y-104162412D01*
X134812050Y-104176826D01*
X134801888Y-104178509D01*
X134573004Y-104236000D01*
X134563249Y-104239321D01*
X134346843Y-104333418D01*
X134337745Y-104338296D01*
X134139613Y-104466473D01*
X134131444Y-104472763D01*
X133956899Y-104631587D01*
X133949874Y-104639120D01*
X133803613Y-104824320D01*
X133797908Y-104832907D01*
X133683864Y-105039497D01*
X133679634Y-105048909D01*
X133600861Y-105271356D01*
X133598227Y-105281327D01*
X133579161Y-105388363D01*
X130302000Y-105388363D01*
X130302000Y-103022400D01*
X145009600Y-103022400D01*
X145077721Y-103042402D01*
G37*
%TD.AperFunction*%
%TD*%
%TA.AperFunction,Conductor*%
%TO.N,VDD*%
G36*
X161384521Y-78302802D02*
G01*
X161431014Y-78356458D01*
X161442400Y-78408800D01*
X161442400Y-82068275D01*
X161422398Y-82136396D01*
X161368742Y-82182889D01*
X161316275Y-82194275D01*
X160233875Y-82193204D01*
X157554537Y-82190552D01*
X157486437Y-82170482D01*
X157439998Y-82116781D01*
X157428663Y-82064534D01*
X157428819Y-80970114D01*
X157448831Y-80901996D01*
X157502493Y-80855511D01*
X157572768Y-80845417D01*
X157637345Y-80874919D01*
X157658032Y-80897861D01*
X157766428Y-81052667D01*
X157773484Y-81061075D01*
X157927525Y-81215116D01*
X157935933Y-81222172D01*
X158114393Y-81347131D01*
X158123889Y-81352614D01*
X158321347Y-81444690D01*
X158331639Y-81448436D01*
X158503903Y-81494594D01*
X158517999Y-81494258D01*
X158521400Y-81486316D01*
X158521400Y-81481167D01*
X159029400Y-81481167D01*
X159033373Y-81494698D01*
X159041922Y-81495927D01*
X159219161Y-81448436D01*
X159229453Y-81444690D01*
X159426911Y-81352614D01*
X159436407Y-81347131D01*
X159614867Y-81222172D01*
X159623275Y-81215116D01*
X159777316Y-81061075D01*
X159784372Y-81052667D01*
X159909331Y-80874207D01*
X159914814Y-80864711D01*
X160006890Y-80667253D01*
X160010636Y-80656961D01*
X160056794Y-80484697D01*
X160056458Y-80470601D01*
X160048516Y-80467200D01*
X159047515Y-80467200D01*
X159032276Y-80471675D01*
X159031071Y-80473065D01*
X159029400Y-80480748D01*
X159029400Y-81481167D01*
X158521400Y-81481167D01*
X158521400Y-79941085D01*
X159029400Y-79941085D01*
X159033875Y-79956324D01*
X159035265Y-79957529D01*
X159042948Y-79959200D01*
X160043367Y-79959200D01*
X160056898Y-79955227D01*
X160058127Y-79946678D01*
X160010636Y-79769439D01*
X160006890Y-79759147D01*
X159914814Y-79561689D01*
X159909331Y-79552193D01*
X159784372Y-79373733D01*
X159777316Y-79365325D01*
X159623275Y-79211284D01*
X159614867Y-79204228D01*
X159436407Y-79079269D01*
X159426911Y-79073786D01*
X159229453Y-78981710D01*
X159219161Y-78977964D01*
X159046897Y-78931806D01*
X159032801Y-78932142D01*
X159029400Y-78940084D01*
X159029400Y-79941085D01*
X158521400Y-79941085D01*
X158521400Y-78945233D01*
X158517427Y-78931702D01*
X158508878Y-78930473D01*
X158331639Y-78977964D01*
X158321347Y-78981710D01*
X158123889Y-79073786D01*
X158114393Y-79079269D01*
X157935933Y-79204228D01*
X157927525Y-79211284D01*
X157773484Y-79365325D01*
X157766428Y-79373733D01*
X157658246Y-79528233D01*
X157602789Y-79572561D01*
X157532169Y-79579870D01*
X157468809Y-79547839D01*
X157432824Y-79486638D01*
X157429033Y-79455944D01*
X157429088Y-79073786D01*
X157429182Y-78408782D01*
X157449194Y-78340664D01*
X157502856Y-78294179D01*
X157555182Y-78282800D01*
X161316400Y-78282800D01*
X161384521Y-78302802D01*
G37*
%TD.AperFunction*%
%TD*%
%TA.AperFunction,Conductor*%
%TO.N,VDD*%
G36*
X139340531Y-78252002D02*
G01*
X139387024Y-78305658D01*
X139398368Y-78354748D01*
X139445071Y-80164507D01*
X139595064Y-85976749D01*
X139576826Y-86045364D01*
X139524388Y-86093225D01*
X139469106Y-86106000D01*
X130199900Y-86106000D01*
X130131779Y-86085998D01*
X130085286Y-86032342D01*
X130073900Y-85980000D01*
X130073900Y-80774450D01*
X130075646Y-80753545D01*
X130078170Y-80738544D01*
X130078170Y-80738541D01*
X130078976Y-80733752D01*
X130079129Y-80721200D01*
X130077111Y-80707107D01*
X130076026Y-80682360D01*
X130090238Y-80422810D01*
X130091743Y-80409115D01*
X130139432Y-80121117D01*
X130142422Y-80107668D01*
X130221276Y-79826583D01*
X130225717Y-79813541D01*
X130334788Y-79542744D01*
X130340627Y-79530265D01*
X130478607Y-79273005D01*
X130485773Y-79261238D01*
X130651016Y-79020580D01*
X130659424Y-79009665D01*
X130849959Y-78788484D01*
X130859508Y-78778553D01*
X131073050Y-78579499D01*
X131083627Y-78570669D01*
X131317633Y-78396115D01*
X131329110Y-78388494D01*
X131565722Y-78249382D01*
X131629582Y-78232000D01*
X139272410Y-78232000D01*
X139340531Y-78252002D01*
G37*
%TD.AperFunction*%
%TD*%
%TA.AperFunction,Conductor*%
%TO.N,VDD*%
G36*
X132535645Y-86119478D02*
G01*
X132533333Y-87196722D01*
X132514765Y-87262287D01*
X132463951Y-87345207D01*
X132463945Y-87345218D01*
X132461360Y-87349437D01*
X132370495Y-87568806D01*
X132315065Y-87799689D01*
X132296435Y-88036400D01*
X132315065Y-88273111D01*
X132370495Y-88503994D01*
X132461360Y-88723363D01*
X132511175Y-88804653D01*
X132529741Y-88870755D01*
X132523643Y-91712536D01*
X132505075Y-91778101D01*
X132461360Y-91849437D01*
X132370495Y-92068806D01*
X132315065Y-92299689D01*
X132296435Y-92536400D01*
X132315065Y-92773111D01*
X132370495Y-93003994D01*
X132461360Y-93223363D01*
X132501552Y-93288950D01*
X132520118Y-93355052D01*
X132486400Y-109067600D01*
X130204935Y-109158859D01*
X130136071Y-109141596D01*
X130087470Y-109089842D01*
X130073900Y-109032960D01*
X130073900Y-85394800D01*
X132537200Y-85394800D01*
X132535645Y-86119478D01*
G37*
%TD.AperFunction*%
%TD*%
%TA.AperFunction,Conductor*%
%TO.N,GND*%
G36*
X179609172Y-77929763D02*
G01*
X179615496Y-77930922D01*
X179615498Y-77930922D01*
X179624323Y-77932539D01*
X179642470Y-77930658D01*
X179665819Y-77930414D01*
X179924177Y-77951740D01*
X179938050Y-77953666D01*
X180003684Y-77966532D01*
X180220115Y-78008959D01*
X180233678Y-78012410D01*
X180433790Y-78075363D01*
X180507864Y-78098666D01*
X180520970Y-78103605D01*
X180783887Y-78219759D01*
X180796363Y-78226122D01*
X181044760Y-78370735D01*
X181056454Y-78378444D01*
X181101899Y-78412169D01*
X181287271Y-78549736D01*
X181298032Y-78558691D01*
X181508411Y-78754543D01*
X181518114Y-78764639D01*
X181705461Y-78982635D01*
X181713971Y-78993729D01*
X181857322Y-79203843D01*
X181875967Y-79231171D01*
X181883205Y-79243161D01*
X182017841Y-79497104D01*
X182023704Y-79509824D01*
X182129327Y-79777151D01*
X182133741Y-79790443D01*
X182209038Y-80067820D01*
X182211951Y-80081520D01*
X182256000Y-80365564D01*
X182257373Y-80379502D01*
X182260009Y-80441287D01*
X182267819Y-80624314D01*
X182268116Y-80631286D01*
X182266468Y-80657659D01*
X182264834Y-80667327D01*
X182265882Y-80676239D01*
X182265882Y-80676241D01*
X182269038Y-80703078D01*
X182269900Y-80717793D01*
X182269900Y-127920750D01*
X182268685Y-127938204D01*
X182266023Y-127957237D01*
X182264673Y-127966887D01*
X182265975Y-127975769D01*
X182267289Y-127984735D01*
X182268515Y-128008196D01*
X182257474Y-128276322D01*
X182256081Y-128290522D01*
X182214350Y-128558552D01*
X182210489Y-128583347D01*
X182207500Y-128597295D01*
X182178970Y-128701287D01*
X182129091Y-128883090D01*
X182124545Y-128896609D01*
X182014320Y-129171720D01*
X182008273Y-129184639D01*
X181936657Y-129317500D01*
X181867658Y-129445506D01*
X181860187Y-129457663D01*
X181690983Y-129700954D01*
X181682188Y-129712187D01*
X181560458Y-129850700D01*
X181486548Y-129934800D01*
X181476537Y-129944967D01*
X181256993Y-130144024D01*
X181245896Y-130152994D01*
X181005248Y-130325957D01*
X180993216Y-130333611D01*
X180787245Y-130448790D01*
X180734555Y-130478254D01*
X180721727Y-130484502D01*
X180448374Y-130598971D01*
X180434922Y-130603728D01*
X180150378Y-130686559D01*
X180136481Y-130689764D01*
X179844383Y-130739892D01*
X179830213Y-130741505D01*
X179569520Y-130756290D01*
X179542998Y-130754991D01*
X179542353Y-130754890D01*
X179542344Y-130754890D01*
X179533476Y-130753509D01*
X179502776Y-130757524D01*
X179486106Y-130758586D01*
X132790285Y-130631834D01*
X132771240Y-130630334D01*
X132755548Y-130627890D01*
X132755544Y-130627890D01*
X132746676Y-130626509D01*
X132737774Y-130627673D01*
X132737772Y-130627673D01*
X132733464Y-130628237D01*
X132728680Y-130628862D01*
X132705283Y-130629728D01*
X132448908Y-130615331D01*
X132434876Y-130613750D01*
X132294448Y-130589890D01*
X132154024Y-130566030D01*
X132140249Y-130562886D01*
X131866509Y-130484023D01*
X131853172Y-130479356D01*
X131589982Y-130370339D01*
X131577252Y-130364208D01*
X131327932Y-130226414D01*
X131315968Y-130218897D01*
X131083638Y-130054051D01*
X131072590Y-130045241D01*
X130860176Y-129855415D01*
X130850185Y-129845424D01*
X130727764Y-129708436D01*
X130660358Y-129633008D01*
X130651549Y-129621962D01*
X130486703Y-129389632D01*
X130479186Y-129377668D01*
X130341392Y-129128348D01*
X130335261Y-129115618D01*
X130226244Y-128852428D01*
X130221577Y-128839091D01*
X130142714Y-128565351D01*
X130139570Y-128551576D01*
X130126253Y-128473200D01*
X130541902Y-128473200D01*
X130561857Y-128701287D01*
X130621116Y-128922443D01*
X130623439Y-128927424D01*
X130623439Y-128927425D01*
X130715551Y-129124962D01*
X130715554Y-129124967D01*
X130717877Y-129129949D01*
X130849202Y-129317500D01*
X131011100Y-129479398D01*
X131015608Y-129482555D01*
X131015611Y-129482557D01*
X131093789Y-129537298D01*
X131198651Y-129610723D01*
X131203633Y-129613046D01*
X131203638Y-129613049D01*
X131392153Y-129700954D01*
X131406157Y-129707484D01*
X131411465Y-129708906D01*
X131411467Y-129708907D01*
X131621998Y-129765319D01*
X131622000Y-129765319D01*
X131627313Y-129766743D01*
X131855400Y-129786698D01*
X132083487Y-129766743D01*
X132088800Y-129765319D01*
X132088802Y-129765319D01*
X132299333Y-129708907D01*
X132299335Y-129708906D01*
X132304643Y-129707484D01*
X132318647Y-129700954D01*
X132507162Y-129613049D01*
X132507167Y-129613046D01*
X132512149Y-129610723D01*
X132617011Y-129537298D01*
X132695189Y-129482557D01*
X132695192Y-129482555D01*
X132699700Y-129479398D01*
X132861598Y-129317500D01*
X132992923Y-129129949D01*
X132995246Y-129124967D01*
X132995249Y-129124962D01*
X133011205Y-129090743D01*
X133058122Y-129037458D01*
X133126399Y-129017997D01*
X133194359Y-129038539D01*
X133239595Y-129090743D01*
X133255551Y-129124962D01*
X133255554Y-129124967D01*
X133257877Y-129129949D01*
X133389202Y-129317500D01*
X133551100Y-129479398D01*
X133555608Y-129482555D01*
X133555611Y-129482557D01*
X133633789Y-129537298D01*
X133738651Y-129610723D01*
X133743633Y-129613046D01*
X133743638Y-129613049D01*
X133932153Y-129700954D01*
X133946157Y-129707484D01*
X133951465Y-129708906D01*
X133951467Y-129708907D01*
X134161998Y-129765319D01*
X134162000Y-129765319D01*
X134167313Y-129766743D01*
X134395400Y-129786698D01*
X134623487Y-129766743D01*
X134628800Y-129765319D01*
X134628802Y-129765319D01*
X134839333Y-129708907D01*
X134839335Y-129708906D01*
X134844643Y-129707484D01*
X134858647Y-129700954D01*
X135047162Y-129613049D01*
X135047167Y-129613046D01*
X135052149Y-129610723D01*
X135157011Y-129537298D01*
X135235189Y-129482557D01*
X135235192Y-129482555D01*
X135239700Y-129479398D01*
X135401598Y-129317500D01*
X135532923Y-129129949D01*
X135535246Y-129124967D01*
X135535249Y-129124962D01*
X135551205Y-129090743D01*
X135598122Y-129037458D01*
X135666399Y-129017997D01*
X135734359Y-129038539D01*
X135779595Y-129090743D01*
X135795551Y-129124962D01*
X135795554Y-129124967D01*
X135797877Y-129129949D01*
X135929202Y-129317500D01*
X136091100Y-129479398D01*
X136095608Y-129482555D01*
X136095611Y-129482557D01*
X136173789Y-129537298D01*
X136278651Y-129610723D01*
X136283633Y-129613046D01*
X136283638Y-129613049D01*
X136472153Y-129700954D01*
X136486157Y-129707484D01*
X136491465Y-129708906D01*
X136491467Y-129708907D01*
X136701998Y-129765319D01*
X136702000Y-129765319D01*
X136707313Y-129766743D01*
X136935400Y-129786698D01*
X137163487Y-129766743D01*
X137168800Y-129765319D01*
X137168802Y-129765319D01*
X137379333Y-129708907D01*
X137379335Y-129708906D01*
X137384643Y-129707484D01*
X137398647Y-129700954D01*
X137587162Y-129613049D01*
X137587167Y-129613046D01*
X137592149Y-129610723D01*
X137697011Y-129537298D01*
X137775189Y-129482557D01*
X137775192Y-129482555D01*
X137779700Y-129479398D01*
X137941598Y-129317500D01*
X138072923Y-129129949D01*
X138075246Y-129124967D01*
X138075249Y-129124962D01*
X138091481Y-129090151D01*
X138138398Y-129036866D01*
X138206675Y-129017405D01*
X138274635Y-129037947D01*
X138319871Y-129090151D01*
X138335986Y-129124711D01*
X138341469Y-129134207D01*
X138466428Y-129312667D01*
X138473484Y-129321075D01*
X138627525Y-129475116D01*
X138635933Y-129482172D01*
X138814393Y-129607131D01*
X138823889Y-129612614D01*
X139021347Y-129704690D01*
X139031639Y-129708436D01*
X139203903Y-129754594D01*
X139217999Y-129754258D01*
X139221400Y-129746316D01*
X139221400Y-129741167D01*
X139729400Y-129741167D01*
X139733373Y-129754698D01*
X139741922Y-129755927D01*
X139919161Y-129708436D01*
X139929453Y-129704690D01*
X140126911Y-129612614D01*
X140136407Y-129607131D01*
X140314867Y-129482172D01*
X140323275Y-129475116D01*
X140477316Y-129321075D01*
X140484372Y-129312667D01*
X140609331Y-129134207D01*
X140614814Y-129124711D01*
X140630929Y-129090151D01*
X140677846Y-129036866D01*
X140746123Y-129017405D01*
X140814083Y-129037947D01*
X140859319Y-129090151D01*
X140875551Y-129124962D01*
X140875554Y-129124967D01*
X140877877Y-129129949D01*
X141009202Y-129317500D01*
X141171100Y-129479398D01*
X141175608Y-129482555D01*
X141175611Y-129482557D01*
X141253789Y-129537298D01*
X141358651Y-129610723D01*
X141363633Y-129613046D01*
X141363638Y-129613049D01*
X141552153Y-129700954D01*
X141566157Y-129707484D01*
X141571465Y-129708906D01*
X141571467Y-129708907D01*
X141781998Y-129765319D01*
X141782000Y-129765319D01*
X141787313Y-129766743D01*
X142015400Y-129786698D01*
X142243487Y-129766743D01*
X142248800Y-129765319D01*
X142248802Y-129765319D01*
X142459333Y-129708907D01*
X142459335Y-129708906D01*
X142464643Y-129707484D01*
X142478647Y-129700954D01*
X142667162Y-129613049D01*
X142667167Y-129613046D01*
X142672149Y-129610723D01*
X142777011Y-129537298D01*
X142855189Y-129482557D01*
X142855192Y-129482555D01*
X142859700Y-129479398D01*
X143021598Y-129317500D01*
X143152923Y-129129949D01*
X143155246Y-129124967D01*
X143155249Y-129124962D01*
X143171205Y-129090743D01*
X143218122Y-129037458D01*
X143286399Y-129017997D01*
X143354359Y-129038539D01*
X143399595Y-129090743D01*
X143415551Y-129124962D01*
X143415554Y-129124967D01*
X143417877Y-129129949D01*
X143549202Y-129317500D01*
X143711100Y-129479398D01*
X143715608Y-129482555D01*
X143715611Y-129482557D01*
X143793789Y-129537298D01*
X143898651Y-129610723D01*
X143903633Y-129613046D01*
X143903638Y-129613049D01*
X144092153Y-129700954D01*
X144106157Y-129707484D01*
X144111465Y-129708906D01*
X144111467Y-129708907D01*
X144321998Y-129765319D01*
X144322000Y-129765319D01*
X144327313Y-129766743D01*
X144555400Y-129786698D01*
X144783487Y-129766743D01*
X144788800Y-129765319D01*
X144788802Y-129765319D01*
X144999333Y-129708907D01*
X144999335Y-129708906D01*
X145004643Y-129707484D01*
X145018647Y-129700954D01*
X145207162Y-129613049D01*
X145207167Y-129613046D01*
X145212149Y-129610723D01*
X145317011Y-129537298D01*
X145395189Y-129482557D01*
X145395192Y-129482555D01*
X145399700Y-129479398D01*
X145561598Y-129317500D01*
X145692923Y-129129949D01*
X145695246Y-129124967D01*
X145695249Y-129124962D01*
X145711205Y-129090743D01*
X145758122Y-129037458D01*
X145826399Y-129017997D01*
X145894359Y-129038539D01*
X145939595Y-129090743D01*
X145955551Y-129124962D01*
X145955554Y-129124967D01*
X145957877Y-129129949D01*
X146089202Y-129317500D01*
X146251100Y-129479398D01*
X146255608Y-129482555D01*
X146255611Y-129482557D01*
X146333789Y-129537298D01*
X146438651Y-129610723D01*
X146443633Y-129613046D01*
X146443638Y-129613049D01*
X146632153Y-129700954D01*
X146646157Y-129707484D01*
X146651465Y-129708906D01*
X146651467Y-129708907D01*
X146861998Y-129765319D01*
X146862000Y-129765319D01*
X146867313Y-129766743D01*
X147095400Y-129786698D01*
X147323487Y-129766743D01*
X147328800Y-129765319D01*
X147328802Y-129765319D01*
X147539333Y-129708907D01*
X147539335Y-129708906D01*
X147544643Y-129707484D01*
X147558647Y-129700954D01*
X147747162Y-129613049D01*
X147747167Y-129613046D01*
X147752149Y-129610723D01*
X147857011Y-129537298D01*
X147935189Y-129482557D01*
X147935192Y-129482555D01*
X147939700Y-129479398D01*
X148101598Y-129317500D01*
X148232923Y-129129949D01*
X148235246Y-129124967D01*
X148235249Y-129124962D01*
X148251205Y-129090743D01*
X148298122Y-129037458D01*
X148366399Y-129017997D01*
X148434359Y-129038539D01*
X148479595Y-129090743D01*
X148495551Y-129124962D01*
X148495554Y-129124967D01*
X148497877Y-129129949D01*
X148629202Y-129317500D01*
X148791100Y-129479398D01*
X148795608Y-129482555D01*
X148795611Y-129482557D01*
X148873789Y-129537298D01*
X148978651Y-129610723D01*
X148983633Y-129613046D01*
X148983638Y-129613049D01*
X149172153Y-129700954D01*
X149186157Y-129707484D01*
X149191465Y-129708906D01*
X149191467Y-129708907D01*
X149401998Y-129765319D01*
X149402000Y-129765319D01*
X149407313Y-129766743D01*
X149635400Y-129786698D01*
X149863487Y-129766743D01*
X149868800Y-129765319D01*
X149868802Y-129765319D01*
X150079333Y-129708907D01*
X150079335Y-129708906D01*
X150084643Y-129707484D01*
X150098647Y-129700954D01*
X150287162Y-129613049D01*
X150287167Y-129613046D01*
X150292149Y-129610723D01*
X150397011Y-129537298D01*
X150475189Y-129482557D01*
X150475192Y-129482555D01*
X150479700Y-129479398D01*
X150641598Y-129317500D01*
X150772923Y-129129949D01*
X150775246Y-129124967D01*
X150775249Y-129124962D01*
X150791205Y-129090743D01*
X150838122Y-129037458D01*
X150906399Y-129017997D01*
X150974359Y-129038539D01*
X151019595Y-129090743D01*
X151035551Y-129124962D01*
X151035554Y-129124967D01*
X151037877Y-129129949D01*
X151169202Y-129317500D01*
X151331100Y-129479398D01*
X151335608Y-129482555D01*
X151335611Y-129482557D01*
X151413789Y-129537298D01*
X151518651Y-129610723D01*
X151523633Y-129613046D01*
X151523638Y-129613049D01*
X151712153Y-129700954D01*
X151726157Y-129707484D01*
X151731465Y-129708906D01*
X151731467Y-129708907D01*
X151941998Y-129765319D01*
X151942000Y-129765319D01*
X151947313Y-129766743D01*
X152175400Y-129786698D01*
X152403487Y-129766743D01*
X152408800Y-129765319D01*
X152408802Y-129765319D01*
X152619333Y-129708907D01*
X152619335Y-129708906D01*
X152624643Y-129707484D01*
X152638647Y-129700954D01*
X152827162Y-129613049D01*
X152827167Y-129613046D01*
X152832149Y-129610723D01*
X152937011Y-129537298D01*
X153015189Y-129482557D01*
X153015192Y-129482555D01*
X153019700Y-129479398D01*
X153181598Y-129317500D01*
X153312923Y-129129949D01*
X153315246Y-129124967D01*
X153315249Y-129124962D01*
X153331205Y-129090743D01*
X153378122Y-129037458D01*
X153446399Y-129017997D01*
X153514359Y-129038539D01*
X153559595Y-129090743D01*
X153575551Y-129124962D01*
X153575554Y-129124967D01*
X153577877Y-129129949D01*
X153709202Y-129317500D01*
X153871100Y-129479398D01*
X153875608Y-129482555D01*
X153875611Y-129482557D01*
X153953789Y-129537298D01*
X154058651Y-129610723D01*
X154063633Y-129613046D01*
X154063638Y-129613049D01*
X154252153Y-129700954D01*
X154266157Y-129707484D01*
X154271465Y-129708906D01*
X154271467Y-129708907D01*
X154481998Y-129765319D01*
X154482000Y-129765319D01*
X154487313Y-129766743D01*
X154715400Y-129786698D01*
X154943487Y-129766743D01*
X154948800Y-129765319D01*
X154948802Y-129765319D01*
X155159333Y-129708907D01*
X155159335Y-129708906D01*
X155164643Y-129707484D01*
X155178647Y-129700954D01*
X155367162Y-129613049D01*
X155367167Y-129613046D01*
X155372149Y-129610723D01*
X155477011Y-129537298D01*
X155555189Y-129482557D01*
X155555192Y-129482555D01*
X155559700Y-129479398D01*
X155721598Y-129317500D01*
X155852923Y-129129949D01*
X155855246Y-129124967D01*
X155855249Y-129124962D01*
X155947361Y-128927425D01*
X155947361Y-128927424D01*
X155949684Y-128922443D01*
X156008943Y-128701287D01*
X156028898Y-128473200D01*
X156008943Y-128245113D01*
X155949684Y-128023957D01*
X155928442Y-127978403D01*
X155855249Y-127821438D01*
X155855246Y-127821433D01*
X155852923Y-127816451D01*
X155721598Y-127628900D01*
X155559700Y-127467002D01*
X155555192Y-127463845D01*
X155555189Y-127463843D01*
X155402629Y-127357019D01*
X155358301Y-127301562D01*
X155348900Y-127253806D01*
X155348900Y-126980394D01*
X155368902Y-126912273D01*
X155385805Y-126891299D01*
X156934243Y-125342862D01*
X161127293Y-125342862D01*
X161136589Y-125354877D01*
X161187794Y-125390731D01*
X161197289Y-125396214D01*
X161394747Y-125488290D01*
X161405039Y-125492036D01*
X161615488Y-125548425D01*
X161626281Y-125550328D01*
X161843325Y-125569317D01*
X161854275Y-125569317D01*
X162071319Y-125550328D01*
X162082112Y-125548425D01*
X162292561Y-125492036D01*
X162302853Y-125488290D01*
X162500311Y-125396214D01*
X162509806Y-125390731D01*
X162561848Y-125354291D01*
X162570224Y-125343812D01*
X162563156Y-125330366D01*
X161861612Y-124628822D01*
X161847668Y-124621208D01*
X161845835Y-124621339D01*
X161839220Y-124625590D01*
X161133723Y-125331087D01*
X161127293Y-125342862D01*
X156934243Y-125342862D01*
X158014830Y-124262275D01*
X160536283Y-124262275D01*
X160555272Y-124479319D01*
X160557175Y-124490112D01*
X160613564Y-124700561D01*
X160617310Y-124710853D01*
X160709386Y-124908311D01*
X160714869Y-124917806D01*
X160751309Y-124969848D01*
X160761788Y-124978224D01*
X160775234Y-124971156D01*
X161476778Y-124269612D01*
X161483156Y-124257932D01*
X162213208Y-124257932D01*
X162213339Y-124259765D01*
X162217590Y-124266380D01*
X162923087Y-124971877D01*
X162934862Y-124978307D01*
X162946877Y-124969011D01*
X162982731Y-124917806D01*
X162988214Y-124908311D01*
X163080290Y-124710853D01*
X163084036Y-124700561D01*
X163140425Y-124490112D01*
X163142328Y-124479319D01*
X163161317Y-124262275D01*
X163161317Y-124251325D01*
X163142328Y-124034281D01*
X163140425Y-124023488D01*
X163084036Y-123813039D01*
X163080290Y-123802747D01*
X162988214Y-123605289D01*
X162982731Y-123595794D01*
X162946291Y-123543752D01*
X162935812Y-123535376D01*
X162922366Y-123542444D01*
X162220822Y-124243988D01*
X162213208Y-124257932D01*
X161483156Y-124257932D01*
X161484392Y-124255668D01*
X161484261Y-124253835D01*
X161480010Y-124247220D01*
X160774513Y-123541723D01*
X160762738Y-123535293D01*
X160750723Y-123544589D01*
X160714869Y-123595794D01*
X160709386Y-123605289D01*
X160617310Y-123802747D01*
X160613564Y-123813039D01*
X160557175Y-124023488D01*
X160555272Y-124034281D01*
X160536283Y-124251325D01*
X160536283Y-124262275D01*
X158014830Y-124262275D01*
X159107317Y-123169788D01*
X161127376Y-123169788D01*
X161134444Y-123183234D01*
X161835988Y-123884778D01*
X161849932Y-123892392D01*
X161851765Y-123892261D01*
X161858380Y-123888010D01*
X162563877Y-123182513D01*
X162570307Y-123170738D01*
X162561011Y-123158723D01*
X162509806Y-123122869D01*
X162500311Y-123117386D01*
X162302853Y-123025310D01*
X162292561Y-123021564D01*
X162082112Y-122965175D01*
X162071319Y-122963272D01*
X161854275Y-122944283D01*
X161843325Y-122944283D01*
X161626281Y-122963272D01*
X161615488Y-122965175D01*
X161405039Y-123021564D01*
X161394747Y-123025310D01*
X161197289Y-123117386D01*
X161187794Y-123122869D01*
X161135752Y-123159309D01*
X161127376Y-123169788D01*
X159107317Y-123169788D01*
X159462500Y-122814605D01*
X159524812Y-122780579D01*
X159551595Y-122777700D01*
X159607487Y-122777700D01*
X159613939Y-122776328D01*
X159613944Y-122776328D01*
X159700887Y-122757847D01*
X159794288Y-122737994D01*
X159809813Y-122731082D01*
X159962722Y-122663003D01*
X159962724Y-122663002D01*
X159968752Y-122660318D01*
X159975768Y-122655221D01*
X160048889Y-122602095D01*
X160123253Y-122548066D01*
X160251040Y-122406144D01*
X160346527Y-122240756D01*
X160405542Y-122059128D01*
X160412114Y-121996604D01*
X160424814Y-121875765D01*
X160425504Y-121869200D01*
X160421347Y-121829646D01*
X160406232Y-121685835D01*
X160406232Y-121685833D01*
X160405542Y-121679272D01*
X160346527Y-121497644D01*
X160251040Y-121332256D01*
X160236798Y-121316438D01*
X160127675Y-121195245D01*
X160127674Y-121195244D01*
X160123253Y-121190334D01*
X159968752Y-121078082D01*
X159962724Y-121075398D01*
X159962722Y-121075397D01*
X159800319Y-121003091D01*
X159800318Y-121003091D01*
X159794288Y-121000406D01*
X159700888Y-120980553D01*
X159613944Y-120962072D01*
X159613939Y-120962072D01*
X159607487Y-120960700D01*
X159416513Y-120960700D01*
X159410061Y-120962072D01*
X159410056Y-120962072D01*
X159323112Y-120980553D01*
X159229712Y-121000406D01*
X159223682Y-121003091D01*
X159223681Y-121003091D01*
X159061278Y-121075397D01*
X159061276Y-121075398D01*
X159055248Y-121078082D01*
X158900747Y-121190334D01*
X158896326Y-121195244D01*
X158896325Y-121195245D01*
X158787203Y-121316438D01*
X158772960Y-121332256D01*
X158677473Y-121497644D01*
X158618458Y-121679272D01*
X158606553Y-121792547D01*
X158601093Y-121844493D01*
X158574080Y-121910150D01*
X158564878Y-121920418D01*
X156442951Y-124042344D01*
X154323147Y-126162148D01*
X154314861Y-126169688D01*
X154308382Y-126173800D01*
X154302957Y-126179577D01*
X154261757Y-126223451D01*
X154259002Y-126226293D01*
X154239265Y-126246030D01*
X154236785Y-126249227D01*
X154229082Y-126258247D01*
X154198814Y-126290479D01*
X154194995Y-126297425D01*
X154194993Y-126297428D01*
X154189052Y-126308234D01*
X154178201Y-126324753D01*
X154165786Y-126340759D01*
X154162641Y-126348028D01*
X154162638Y-126348032D01*
X154148226Y-126381337D01*
X154143009Y-126391987D01*
X154121705Y-126430740D01*
X154119734Y-126438415D01*
X154119734Y-126438416D01*
X154116667Y-126450362D01*
X154110263Y-126469066D01*
X154102219Y-126487655D01*
X154100980Y-126495478D01*
X154100977Y-126495488D01*
X154095301Y-126531324D01*
X154092895Y-126542944D01*
X154081900Y-126585770D01*
X154081900Y-126606024D01*
X154080349Y-126625734D01*
X154077180Y-126645743D01*
X154077926Y-126653635D01*
X154081341Y-126689761D01*
X154081900Y-126701619D01*
X154081900Y-127253806D01*
X154061898Y-127321927D01*
X154028171Y-127357019D01*
X153875611Y-127463843D01*
X153875608Y-127463845D01*
X153871100Y-127467002D01*
X153709202Y-127628900D01*
X153577877Y-127816451D01*
X153575554Y-127821433D01*
X153575551Y-127821438D01*
X153559595Y-127855657D01*
X153512678Y-127908942D01*
X153444401Y-127928403D01*
X153376441Y-127907861D01*
X153331205Y-127855657D01*
X153315249Y-127821438D01*
X153315246Y-127821433D01*
X153312923Y-127816451D01*
X153181598Y-127628900D01*
X153019700Y-127467002D01*
X153015192Y-127463845D01*
X153015189Y-127463843D01*
X152862628Y-127357019D01*
X152832149Y-127335677D01*
X152827167Y-127333354D01*
X152827162Y-127333351D01*
X152629625Y-127241239D01*
X152629624Y-127241239D01*
X152624643Y-127238916D01*
X152619335Y-127237494D01*
X152619333Y-127237493D01*
X152408802Y-127181081D01*
X152408800Y-127181081D01*
X152403487Y-127179657D01*
X152175400Y-127159702D01*
X151947313Y-127179657D01*
X151942000Y-127181081D01*
X151941998Y-127181081D01*
X151731467Y-127237493D01*
X151731465Y-127237494D01*
X151726157Y-127238916D01*
X151721176Y-127241239D01*
X151721175Y-127241239D01*
X151523638Y-127333351D01*
X151523633Y-127333354D01*
X151518651Y-127335677D01*
X151488172Y-127357019D01*
X151335611Y-127463843D01*
X151335608Y-127463845D01*
X151331100Y-127467002D01*
X151169202Y-127628900D01*
X151037877Y-127816451D01*
X151035554Y-127821433D01*
X151035551Y-127821438D01*
X151019595Y-127855657D01*
X150972678Y-127908942D01*
X150904401Y-127928403D01*
X150836441Y-127907861D01*
X150791205Y-127855657D01*
X150775249Y-127821438D01*
X150775246Y-127821433D01*
X150772923Y-127816451D01*
X150641598Y-127628900D01*
X150479700Y-127467002D01*
X150475192Y-127463845D01*
X150475189Y-127463843D01*
X150322628Y-127357019D01*
X150292149Y-127335677D01*
X150287167Y-127333354D01*
X150287162Y-127333351D01*
X150089625Y-127241239D01*
X150089624Y-127241239D01*
X150084643Y-127238916D01*
X150079335Y-127237494D01*
X150079333Y-127237493D01*
X149868802Y-127181081D01*
X149868800Y-127181081D01*
X149863487Y-127179657D01*
X149635400Y-127159702D01*
X149407313Y-127179657D01*
X149402000Y-127181081D01*
X149401998Y-127181081D01*
X149191467Y-127237493D01*
X149191465Y-127237494D01*
X149186157Y-127238916D01*
X149181176Y-127241239D01*
X149181175Y-127241239D01*
X148983638Y-127333351D01*
X148983633Y-127333354D01*
X148978651Y-127335677D01*
X148948172Y-127357019D01*
X148795611Y-127463843D01*
X148795608Y-127463845D01*
X148791100Y-127467002D01*
X148629202Y-127628900D01*
X148497877Y-127816451D01*
X148495554Y-127821433D01*
X148495551Y-127821438D01*
X148479595Y-127855657D01*
X148432678Y-127908942D01*
X148364401Y-127928403D01*
X148296441Y-127907861D01*
X148251205Y-127855657D01*
X148235249Y-127821438D01*
X148235246Y-127821433D01*
X148232923Y-127816451D01*
X148101598Y-127628900D01*
X147939700Y-127467002D01*
X147935192Y-127463845D01*
X147935189Y-127463843D01*
X147782628Y-127357019D01*
X147752149Y-127335677D01*
X147747167Y-127333354D01*
X147747162Y-127333351D01*
X147549625Y-127241239D01*
X147549624Y-127241239D01*
X147544643Y-127238916D01*
X147539335Y-127237494D01*
X147539333Y-127237493D01*
X147328802Y-127181081D01*
X147328800Y-127181081D01*
X147323487Y-127179657D01*
X147095400Y-127159702D01*
X146867313Y-127179657D01*
X146862000Y-127181081D01*
X146861998Y-127181081D01*
X146651467Y-127237493D01*
X146651465Y-127237494D01*
X146646157Y-127238916D01*
X146641176Y-127241239D01*
X146641175Y-127241239D01*
X146443638Y-127333351D01*
X146443633Y-127333354D01*
X146438651Y-127335677D01*
X146408172Y-127357019D01*
X146255611Y-127463843D01*
X146255608Y-127463845D01*
X146251100Y-127467002D01*
X146089202Y-127628900D01*
X145957877Y-127816451D01*
X145955554Y-127821433D01*
X145955551Y-127821438D01*
X145939595Y-127855657D01*
X145892678Y-127908942D01*
X145824401Y-127928403D01*
X145756441Y-127907861D01*
X145711205Y-127855657D01*
X145695249Y-127821438D01*
X145695246Y-127821433D01*
X145692923Y-127816451D01*
X145561598Y-127628900D01*
X145399700Y-127467002D01*
X145395192Y-127463845D01*
X145395189Y-127463843D01*
X145242628Y-127357019D01*
X145212149Y-127335677D01*
X145207167Y-127333354D01*
X145207162Y-127333351D01*
X145009625Y-127241239D01*
X145009624Y-127241239D01*
X145004643Y-127238916D01*
X144999335Y-127237494D01*
X144999333Y-127237493D01*
X144788802Y-127181081D01*
X144788800Y-127181081D01*
X144783487Y-127179657D01*
X144555400Y-127159702D01*
X144327313Y-127179657D01*
X144322000Y-127181081D01*
X144321998Y-127181081D01*
X144111467Y-127237493D01*
X144111465Y-127237494D01*
X144106157Y-127238916D01*
X144101176Y-127241239D01*
X144101175Y-127241239D01*
X143903638Y-127333351D01*
X143903633Y-127333354D01*
X143898651Y-127335677D01*
X143868172Y-127357019D01*
X143715611Y-127463843D01*
X143715608Y-127463845D01*
X143711100Y-127467002D01*
X143549202Y-127628900D01*
X143417877Y-127816451D01*
X143415554Y-127821433D01*
X143415551Y-127821438D01*
X143399595Y-127855657D01*
X143352678Y-127908942D01*
X143284401Y-127928403D01*
X143216441Y-127907861D01*
X143171205Y-127855657D01*
X143155249Y-127821438D01*
X143155246Y-127821433D01*
X143152923Y-127816451D01*
X143021598Y-127628900D01*
X142859700Y-127467002D01*
X142855192Y-127463845D01*
X142855189Y-127463843D01*
X142702628Y-127357019D01*
X142672149Y-127335677D01*
X142667167Y-127333354D01*
X142667162Y-127333351D01*
X142469625Y-127241239D01*
X142469624Y-127241239D01*
X142464643Y-127238916D01*
X142459335Y-127237494D01*
X142459333Y-127237493D01*
X142248802Y-127181081D01*
X142248800Y-127181081D01*
X142243487Y-127179657D01*
X142015400Y-127159702D01*
X141787313Y-127179657D01*
X141782000Y-127181081D01*
X141781998Y-127181081D01*
X141571467Y-127237493D01*
X141571465Y-127237494D01*
X141566157Y-127238916D01*
X141561176Y-127241239D01*
X141561175Y-127241239D01*
X141363638Y-127333351D01*
X141363633Y-127333354D01*
X141358651Y-127335677D01*
X141328172Y-127357019D01*
X141175611Y-127463843D01*
X141175608Y-127463845D01*
X141171100Y-127467002D01*
X141009202Y-127628900D01*
X140877877Y-127816451D01*
X140875554Y-127821433D01*
X140875551Y-127821438D01*
X140859319Y-127856249D01*
X140812402Y-127909534D01*
X140744125Y-127928995D01*
X140676165Y-127908453D01*
X140630929Y-127856249D01*
X140614814Y-127821689D01*
X140609331Y-127812193D01*
X140484372Y-127633733D01*
X140477316Y-127625325D01*
X140323275Y-127471284D01*
X140314867Y-127464228D01*
X140136407Y-127339269D01*
X140126911Y-127333786D01*
X139929453Y-127241710D01*
X139919161Y-127237964D01*
X139746897Y-127191806D01*
X139732801Y-127192142D01*
X139729400Y-127200084D01*
X139729400Y-129741167D01*
X139221400Y-129741167D01*
X139221400Y-127205233D01*
X139217427Y-127191702D01*
X139208878Y-127190473D01*
X139031639Y-127237964D01*
X139021347Y-127241710D01*
X138823889Y-127333786D01*
X138814393Y-127339269D01*
X138635933Y-127464228D01*
X138627525Y-127471284D01*
X138473484Y-127625325D01*
X138466428Y-127633733D01*
X138341469Y-127812193D01*
X138335986Y-127821689D01*
X138319871Y-127856249D01*
X138272954Y-127909534D01*
X138204677Y-127928995D01*
X138136717Y-127908453D01*
X138091481Y-127856249D01*
X138075249Y-127821438D01*
X138075246Y-127821433D01*
X138072923Y-127816451D01*
X137941598Y-127628900D01*
X137779700Y-127467002D01*
X137775192Y-127463845D01*
X137775189Y-127463843D01*
X137622628Y-127357019D01*
X137592149Y-127335677D01*
X137587167Y-127333354D01*
X137587162Y-127333351D01*
X137389625Y-127241239D01*
X137389624Y-127241239D01*
X137384643Y-127238916D01*
X137379335Y-127237494D01*
X137379333Y-127237493D01*
X137168802Y-127181081D01*
X137168800Y-127181081D01*
X137163487Y-127179657D01*
X136935400Y-127159702D01*
X136707313Y-127179657D01*
X136702000Y-127181081D01*
X136701998Y-127181081D01*
X136491467Y-127237493D01*
X136491465Y-127237494D01*
X136486157Y-127238916D01*
X136481176Y-127241239D01*
X136481175Y-127241239D01*
X136283638Y-127333351D01*
X136283633Y-127333354D01*
X136278651Y-127335677D01*
X136248172Y-127357019D01*
X136095611Y-127463843D01*
X136095608Y-127463845D01*
X136091100Y-127467002D01*
X135929202Y-127628900D01*
X135797877Y-127816451D01*
X135795554Y-127821433D01*
X135795551Y-127821438D01*
X135779595Y-127855657D01*
X135732678Y-127908942D01*
X135664401Y-127928403D01*
X135596441Y-127907861D01*
X135551205Y-127855657D01*
X135535249Y-127821438D01*
X135535246Y-127821433D01*
X135532923Y-127816451D01*
X135401598Y-127628900D01*
X135239700Y-127467002D01*
X135235192Y-127463845D01*
X135235189Y-127463843D01*
X135082628Y-127357019D01*
X135052149Y-127335677D01*
X135047167Y-127333354D01*
X135047162Y-127333351D01*
X134849625Y-127241239D01*
X134849624Y-127241239D01*
X134844643Y-127238916D01*
X134839335Y-127237494D01*
X134839333Y-127237493D01*
X134628802Y-127181081D01*
X134628800Y-127181081D01*
X134623487Y-127179657D01*
X134395400Y-127159702D01*
X134167313Y-127179657D01*
X134162000Y-127181081D01*
X134161998Y-127181081D01*
X133951467Y-127237493D01*
X133951465Y-127237494D01*
X133946157Y-127238916D01*
X133941176Y-127241239D01*
X133941175Y-127241239D01*
X133743638Y-127333351D01*
X133743633Y-127333354D01*
X133738651Y-127335677D01*
X133708172Y-127357019D01*
X133555611Y-127463843D01*
X133555608Y-127463845D01*
X133551100Y-127467002D01*
X133389202Y-127628900D01*
X133257877Y-127816451D01*
X133255554Y-127821433D01*
X133255551Y-127821438D01*
X133239595Y-127855657D01*
X133192678Y-127908942D01*
X133124401Y-127928403D01*
X133056441Y-127907861D01*
X133011205Y-127855657D01*
X132995249Y-127821438D01*
X132995246Y-127821433D01*
X132992923Y-127816451D01*
X132861598Y-127628900D01*
X132699700Y-127467002D01*
X132695192Y-127463845D01*
X132695189Y-127463843D01*
X132542628Y-127357019D01*
X132512149Y-127335677D01*
X132507167Y-127333354D01*
X132507162Y-127333351D01*
X132309625Y-127241239D01*
X132309624Y-127241239D01*
X132304643Y-127238916D01*
X132299335Y-127237494D01*
X132299333Y-127237493D01*
X132088802Y-127181081D01*
X132088800Y-127181081D01*
X132083487Y-127179657D01*
X131855400Y-127159702D01*
X131627313Y-127179657D01*
X131622000Y-127181081D01*
X131621998Y-127181081D01*
X131411467Y-127237493D01*
X131411465Y-127237494D01*
X131406157Y-127238916D01*
X131401176Y-127241239D01*
X131401175Y-127241239D01*
X131203638Y-127333351D01*
X131203633Y-127333354D01*
X131198651Y-127335677D01*
X131168172Y-127357019D01*
X131015611Y-127463843D01*
X131015608Y-127463845D01*
X131011100Y-127467002D01*
X130849202Y-127628900D01*
X130717877Y-127816451D01*
X130715554Y-127821433D01*
X130715551Y-127821438D01*
X130642358Y-127978403D01*
X130621116Y-128023957D01*
X130561857Y-128245113D01*
X130541902Y-128473200D01*
X130126253Y-128473200D01*
X130094015Y-128283464D01*
X130091850Y-128270724D01*
X130090269Y-128256688D01*
X130076489Y-128011302D01*
X130077811Y-127987408D01*
X130077734Y-127987401D01*
X130077937Y-127985137D01*
X130078037Y-127983331D01*
X130078170Y-127982542D01*
X130078976Y-127977752D01*
X130079129Y-127965200D01*
X130075173Y-127937576D01*
X130073900Y-127919714D01*
X130073900Y-126054062D01*
X131714093Y-126054062D01*
X131723389Y-126066077D01*
X131774594Y-126101931D01*
X131784089Y-126107414D01*
X131981547Y-126199490D01*
X131991839Y-126203236D01*
X132202288Y-126259625D01*
X132213081Y-126261528D01*
X132430125Y-126280517D01*
X132441075Y-126280517D01*
X132658119Y-126261528D01*
X132668912Y-126259625D01*
X132879361Y-126203236D01*
X132889653Y-126199490D01*
X133087111Y-126107414D01*
X133096606Y-126101931D01*
X133148648Y-126065491D01*
X133157024Y-126055012D01*
X133149956Y-126041566D01*
X132448412Y-125340022D01*
X132434468Y-125332408D01*
X132432635Y-125332539D01*
X132426020Y-125336790D01*
X131720523Y-126042287D01*
X131714093Y-126054062D01*
X130073900Y-126054062D01*
X130073900Y-124973475D01*
X131123083Y-124973475D01*
X131142072Y-125190519D01*
X131143975Y-125201312D01*
X131200364Y-125411761D01*
X131204110Y-125422053D01*
X131296186Y-125619511D01*
X131301669Y-125629006D01*
X131338109Y-125681048D01*
X131348588Y-125689424D01*
X131362034Y-125682356D01*
X132063578Y-124980812D01*
X132069956Y-124969132D01*
X132800008Y-124969132D01*
X132800139Y-124970965D01*
X132804390Y-124977580D01*
X133509887Y-125683077D01*
X133521662Y-125689507D01*
X133533677Y-125680211D01*
X133569531Y-125629006D01*
X133575014Y-125619511D01*
X133667090Y-125422053D01*
X133670836Y-125411761D01*
X133727225Y-125201312D01*
X133729128Y-125190519D01*
X133748117Y-124973475D01*
X133748117Y-124962525D01*
X133729128Y-124745481D01*
X133727225Y-124734688D01*
X133670836Y-124524239D01*
X133667090Y-124513947D01*
X133575014Y-124316489D01*
X133569531Y-124306994D01*
X133533091Y-124254952D01*
X133522612Y-124246576D01*
X133509166Y-124253644D01*
X132807622Y-124955188D01*
X132800008Y-124969132D01*
X132069956Y-124969132D01*
X132071192Y-124966868D01*
X132071061Y-124965035D01*
X132066810Y-124958420D01*
X131361313Y-124252923D01*
X131349538Y-124246493D01*
X131337523Y-124255789D01*
X131301669Y-124306994D01*
X131296186Y-124316489D01*
X131204110Y-124513947D01*
X131200364Y-124524239D01*
X131143975Y-124734688D01*
X131142072Y-124745481D01*
X131123083Y-124962525D01*
X131123083Y-124973475D01*
X130073900Y-124973475D01*
X130073900Y-123880988D01*
X131714176Y-123880988D01*
X131721244Y-123894434D01*
X132422788Y-124595978D01*
X132436732Y-124603592D01*
X132438565Y-124603461D01*
X132445180Y-124599210D01*
X133150677Y-123893713D01*
X133157107Y-123881938D01*
X133147811Y-123869923D01*
X133096606Y-123834069D01*
X133087111Y-123828586D01*
X132889653Y-123736510D01*
X132879361Y-123732764D01*
X132668912Y-123676375D01*
X132658119Y-123674472D01*
X132441075Y-123655483D01*
X132430125Y-123655483D01*
X132213081Y-123674472D01*
X132202288Y-123676375D01*
X131991839Y-123732764D01*
X131981547Y-123736510D01*
X131784089Y-123828586D01*
X131774594Y-123834069D01*
X131722552Y-123870509D01*
X131714176Y-123880988D01*
X130073900Y-123880988D01*
X130073900Y-109795981D01*
X130093902Y-109727860D01*
X130147558Y-109681367D01*
X130212834Y-109670647D01*
X130220975Y-109671487D01*
X130220985Y-109671487D01*
X130225459Y-109671949D01*
X130229959Y-109671769D01*
X130244464Y-109671189D01*
X130264926Y-109672036D01*
X130282332Y-109674183D01*
X130303699Y-109676819D01*
X130308271Y-109676399D01*
X130320600Y-109677378D01*
X130353169Y-109682061D01*
X130353176Y-109682061D01*
X130357617Y-109682700D01*
X145009600Y-109682700D01*
X145012946Y-109682340D01*
X145012951Y-109682340D01*
X145115385Y-109671328D01*
X145115392Y-109671327D01*
X145118749Y-109670966D01*
X145122050Y-109670248D01*
X145167810Y-109660294D01*
X145167815Y-109660293D01*
X145171091Y-109659580D01*
X145275257Y-109624910D01*
X145398212Y-109545892D01*
X145408484Y-109536992D01*
X145448475Y-109502339D01*
X145451868Y-109499399D01*
X145459897Y-109490133D01*
X145541681Y-109395750D01*
X145541683Y-109395747D01*
X145547582Y-109388939D01*
X145608298Y-109255990D01*
X145628300Y-109187869D01*
X145631981Y-109162271D01*
X145648461Y-109047647D01*
X145648461Y-109047642D01*
X145649100Y-109043200D01*
X145649100Y-103148400D01*
X145647828Y-103136568D01*
X145637728Y-103042615D01*
X145637727Y-103042608D01*
X145637366Y-103039251D01*
X145625980Y-102986909D01*
X145591310Y-102882743D01*
X145512292Y-102759788D01*
X145508622Y-102755552D01*
X145468739Y-102709525D01*
X145465799Y-102706132D01*
X145456263Y-102697869D01*
X151448401Y-102697869D01*
X151448771Y-102704690D01*
X151454295Y-102755552D01*
X151457921Y-102770804D01*
X151503076Y-102891254D01*
X151511614Y-102906849D01*
X151588115Y-103008924D01*
X151600676Y-103021485D01*
X151702751Y-103097986D01*
X151718346Y-103106524D01*
X151838794Y-103151678D01*
X151854049Y-103155305D01*
X151904914Y-103160831D01*
X151911728Y-103161200D01*
X152534285Y-103161200D01*
X152549524Y-103156725D01*
X152550729Y-103155335D01*
X152552400Y-103147652D01*
X152552400Y-102075315D01*
X152547925Y-102060076D01*
X152546535Y-102058871D01*
X152538852Y-102057200D01*
X151466516Y-102057200D01*
X151451277Y-102061675D01*
X151450072Y-102063065D01*
X151448401Y-102070748D01*
X151448401Y-102697869D01*
X145456263Y-102697869D01*
X145438517Y-102682492D01*
X145362150Y-102616319D01*
X145362147Y-102616317D01*
X145355339Y-102610418D01*
X145222390Y-102549702D01*
X145198636Y-102542727D01*
X145158592Y-102530969D01*
X145158588Y-102530968D01*
X145154269Y-102529700D01*
X145149820Y-102529060D01*
X145149814Y-102529059D01*
X145014047Y-102509539D01*
X145014042Y-102509539D01*
X145009600Y-102508900D01*
X133140247Y-102508900D01*
X133072126Y-102488898D01*
X133025633Y-102435242D01*
X133014247Y-102382630D01*
X133015723Y-101694869D01*
X133554401Y-101694869D01*
X133554771Y-101701690D01*
X133560295Y-101752552D01*
X133563921Y-101767804D01*
X133609076Y-101888254D01*
X133617614Y-101903849D01*
X133694115Y-102005924D01*
X133706676Y-102018485D01*
X133808751Y-102094986D01*
X133824346Y-102103524D01*
X133944794Y-102148678D01*
X133960049Y-102152305D01*
X134010914Y-102157831D01*
X134017728Y-102158200D01*
X135770285Y-102158200D01*
X135785524Y-102153725D01*
X135786729Y-102152335D01*
X135788400Y-102144652D01*
X135788400Y-102140084D01*
X136296400Y-102140084D01*
X136300875Y-102155323D01*
X136302265Y-102156528D01*
X136309948Y-102158199D01*
X138067069Y-102158199D01*
X138073890Y-102157829D01*
X138124752Y-102152305D01*
X138140004Y-102148679D01*
X138260454Y-102103524D01*
X138276049Y-102094986D01*
X138378124Y-102018485D01*
X138390685Y-102005924D01*
X138467186Y-101903849D01*
X138475724Y-101888254D01*
X138520878Y-101767806D01*
X138524505Y-101752551D01*
X138530031Y-101701686D01*
X138530400Y-101694872D01*
X138530400Y-101531085D01*
X151448400Y-101531085D01*
X151452875Y-101546324D01*
X151454265Y-101547529D01*
X151461948Y-101549200D01*
X152534285Y-101549200D01*
X152549524Y-101544725D01*
X152550729Y-101543335D01*
X152552400Y-101535652D01*
X152552400Y-100463316D01*
X152547925Y-100448077D01*
X152546535Y-100446872D01*
X152538852Y-100445201D01*
X151911731Y-100445201D01*
X151904910Y-100445571D01*
X151854048Y-100451095D01*
X151838796Y-100454721D01*
X151718346Y-100499876D01*
X151702751Y-100508414D01*
X151600676Y-100584915D01*
X151588115Y-100597476D01*
X151511614Y-100699551D01*
X151503076Y-100715146D01*
X151457922Y-100835594D01*
X151454295Y-100850849D01*
X151448769Y-100901714D01*
X151448400Y-100908528D01*
X151448400Y-101531085D01*
X138530400Y-101531085D01*
X138530400Y-100932315D01*
X138525925Y-100917076D01*
X138524535Y-100915871D01*
X138516852Y-100914200D01*
X136314515Y-100914200D01*
X136299276Y-100918675D01*
X136298071Y-100920065D01*
X136296400Y-100927748D01*
X136296400Y-102140084D01*
X135788400Y-102140084D01*
X135788400Y-100932315D01*
X135783925Y-100917076D01*
X135782535Y-100915871D01*
X135774852Y-100914200D01*
X133572516Y-100914200D01*
X133557277Y-100918675D01*
X133556072Y-100920065D01*
X133554401Y-100927748D01*
X133554401Y-101694869D01*
X133015723Y-101694869D01*
X133018527Y-100388085D01*
X133554400Y-100388085D01*
X133558875Y-100403324D01*
X133560265Y-100404529D01*
X133567948Y-100406200D01*
X135770285Y-100406200D01*
X135785524Y-100401725D01*
X135786729Y-100400335D01*
X135788400Y-100392652D01*
X135788400Y-100388085D01*
X136296400Y-100388085D01*
X136300875Y-100403324D01*
X136302265Y-100404529D01*
X136309948Y-100406200D01*
X138512284Y-100406200D01*
X138527523Y-100401725D01*
X138528728Y-100400335D01*
X138530399Y-100392652D01*
X138530399Y-99625531D01*
X138530029Y-99618710D01*
X138524505Y-99567848D01*
X138520879Y-99552596D01*
X138475724Y-99432146D01*
X138467186Y-99416551D01*
X138390685Y-99314476D01*
X138378124Y-99301915D01*
X138276049Y-99225414D01*
X138260454Y-99216876D01*
X138140006Y-99171722D01*
X138124751Y-99168095D01*
X138073886Y-99162569D01*
X138067072Y-99162200D01*
X136314515Y-99162200D01*
X136299276Y-99166675D01*
X136298071Y-99168065D01*
X136296400Y-99175748D01*
X136296400Y-100388085D01*
X135788400Y-100388085D01*
X135788400Y-99180316D01*
X135783925Y-99165077D01*
X135782535Y-99163872D01*
X135774852Y-99162201D01*
X134017731Y-99162201D01*
X134010910Y-99162571D01*
X133960048Y-99168095D01*
X133944796Y-99171721D01*
X133824346Y-99216876D01*
X133808751Y-99225414D01*
X133706676Y-99301915D01*
X133694115Y-99314476D01*
X133617614Y-99416551D01*
X133609076Y-99432146D01*
X133563922Y-99552594D01*
X133560295Y-99567849D01*
X133554769Y-99618714D01*
X133554400Y-99625528D01*
X133554400Y-100388085D01*
X133018527Y-100388085D01*
X133032161Y-94034924D01*
X133052309Y-93966846D01*
X133106065Y-93920468D01*
X133176360Y-93910515D01*
X133206379Y-93918785D01*
X133337588Y-93973134D01*
X133346973Y-93976183D01*
X133568154Y-94029285D01*
X133577901Y-94030828D01*
X133804670Y-94048675D01*
X133814530Y-94048675D01*
X134041299Y-94030828D01*
X134051046Y-94029285D01*
X134272227Y-93976183D01*
X134281612Y-93973134D01*
X134491763Y-93886087D01*
X134500558Y-93881605D01*
X134668045Y-93778968D01*
X134677000Y-93769070D01*
X139441760Y-93769070D01*
X139447487Y-93776720D01*
X139618642Y-93881605D01*
X139627437Y-93886087D01*
X139837588Y-93973134D01*
X139846973Y-93976183D01*
X140068154Y-94029285D01*
X140077901Y-94030828D01*
X140304670Y-94048675D01*
X140314530Y-94048675D01*
X140541299Y-94030828D01*
X140551046Y-94029285D01*
X140772227Y-93976183D01*
X140781612Y-93973134D01*
X140991763Y-93886087D01*
X141000558Y-93881605D01*
X141168045Y-93778968D01*
X141177507Y-93768510D01*
X141173724Y-93759734D01*
X140322412Y-92908422D01*
X140308468Y-92900808D01*
X140306635Y-92900939D01*
X140300020Y-92905190D01*
X139448520Y-93756690D01*
X139441760Y-93769070D01*
X134677000Y-93769070D01*
X134677507Y-93768510D01*
X134673724Y-93759734D01*
X133539485Y-92625495D01*
X133505459Y-92563183D01*
X133507294Y-92537532D01*
X134174008Y-92537532D01*
X134174139Y-92539365D01*
X134178390Y-92545980D01*
X135029890Y-93397480D01*
X135042270Y-93404240D01*
X135049920Y-93398513D01*
X135154805Y-93227358D01*
X135159287Y-93218563D01*
X135246334Y-93008412D01*
X135249383Y-92999027D01*
X135302485Y-92777846D01*
X135304028Y-92768099D01*
X135321875Y-92541330D01*
X138797325Y-92541330D01*
X138815172Y-92768099D01*
X138816715Y-92777846D01*
X138869817Y-92999027D01*
X138872866Y-93008412D01*
X138959913Y-93218563D01*
X138964395Y-93227358D01*
X139067032Y-93394845D01*
X139077490Y-93404307D01*
X139086266Y-93400524D01*
X139937578Y-92549212D01*
X139943956Y-92537532D01*
X140674008Y-92537532D01*
X140674139Y-92539365D01*
X140678390Y-92545980D01*
X141529890Y-93397480D01*
X141542270Y-93404240D01*
X141549920Y-93398513D01*
X141654805Y-93227358D01*
X141659287Y-93218563D01*
X141746334Y-93008412D01*
X141749383Y-92999027D01*
X141802485Y-92777846D01*
X141804028Y-92768099D01*
X141821875Y-92541330D01*
X141821875Y-92531470D01*
X141804028Y-92304701D01*
X141802485Y-92294954D01*
X141749383Y-92073773D01*
X141746334Y-92064388D01*
X141659287Y-91854237D01*
X141654805Y-91845442D01*
X141552168Y-91677955D01*
X141541710Y-91668493D01*
X141532934Y-91672276D01*
X140681622Y-92523588D01*
X140674008Y-92537532D01*
X139943956Y-92537532D01*
X139945192Y-92535268D01*
X139945061Y-92533435D01*
X139940810Y-92526820D01*
X139089310Y-91675320D01*
X139076930Y-91668560D01*
X139069280Y-91674287D01*
X138964395Y-91845442D01*
X138959913Y-91854237D01*
X138872866Y-92064388D01*
X138869817Y-92073773D01*
X138816715Y-92294954D01*
X138815172Y-92304701D01*
X138797325Y-92531470D01*
X138797325Y-92541330D01*
X135321875Y-92541330D01*
X135321875Y-92531470D01*
X135304028Y-92304701D01*
X135302485Y-92294954D01*
X135249383Y-92073773D01*
X135246334Y-92064388D01*
X135159287Y-91854237D01*
X135154805Y-91845442D01*
X135052168Y-91677955D01*
X135041710Y-91668493D01*
X135032934Y-91672276D01*
X134181622Y-92523588D01*
X134174008Y-92537532D01*
X133507294Y-92537532D01*
X133510524Y-92492368D01*
X133539485Y-92447305D01*
X134670680Y-91316110D01*
X134677134Y-91304290D01*
X139441693Y-91304290D01*
X139445476Y-91313066D01*
X140296788Y-92164378D01*
X140310732Y-92171992D01*
X140312565Y-92171861D01*
X140319180Y-92167610D01*
X141170680Y-91316110D01*
X141177440Y-91303730D01*
X141171713Y-91296080D01*
X141000558Y-91191195D01*
X140991763Y-91186713D01*
X140781612Y-91099666D01*
X140772227Y-91096617D01*
X140551046Y-91043515D01*
X140541299Y-91041972D01*
X140314530Y-91024125D01*
X140304670Y-91024125D01*
X140077901Y-91041972D01*
X140068154Y-91043515D01*
X139846973Y-91096617D01*
X139837588Y-91099666D01*
X139627437Y-91186713D01*
X139618642Y-91191195D01*
X139451155Y-91293832D01*
X139441693Y-91304290D01*
X134677134Y-91304290D01*
X134677440Y-91303730D01*
X134671713Y-91296080D01*
X134500558Y-91191195D01*
X134491763Y-91186713D01*
X134281612Y-91099666D01*
X134272227Y-91096617D01*
X134051046Y-91043515D01*
X134041299Y-91041972D01*
X133814530Y-91024125D01*
X133804670Y-91024125D01*
X133577901Y-91041972D01*
X133568154Y-91043515D01*
X133346973Y-91096617D01*
X133337588Y-91099666D01*
X133212817Y-91151348D01*
X133142227Y-91158937D01*
X133078740Y-91127158D01*
X133042513Y-91066100D01*
X133038599Y-91034669D01*
X133040614Y-90095456D01*
X133041807Y-89539461D01*
X133061955Y-89471383D01*
X133115711Y-89425005D01*
X133186006Y-89415052D01*
X133216023Y-89423321D01*
X133292333Y-89454930D01*
X133332055Y-89471383D01*
X133342006Y-89475505D01*
X133422209Y-89494760D01*
X133568076Y-89529780D01*
X133568082Y-89529781D01*
X133572889Y-89530935D01*
X133809600Y-89549565D01*
X134046311Y-89530935D01*
X134051118Y-89529781D01*
X134051124Y-89529780D01*
X134196991Y-89494760D01*
X134277194Y-89475505D01*
X134281767Y-89473611D01*
X134491989Y-89386535D01*
X134491993Y-89386533D01*
X134496563Y-89384640D01*
X134500783Y-89382054D01*
X134694802Y-89263159D01*
X134694808Y-89263155D01*
X134699016Y-89260576D01*
X134879569Y-89106369D01*
X135033776Y-88925816D01*
X135036355Y-88921608D01*
X135036359Y-88921602D01*
X135153733Y-88730065D01*
X135206381Y-88682434D01*
X135261166Y-88669900D01*
X138858034Y-88669900D01*
X138926155Y-88689902D01*
X138965467Y-88730065D01*
X139082841Y-88921602D01*
X139082845Y-88921608D01*
X139085424Y-88925816D01*
X139239631Y-89106369D01*
X139420184Y-89260576D01*
X139424392Y-89263155D01*
X139424398Y-89263159D01*
X139618417Y-89382054D01*
X139622637Y-89384640D01*
X139627207Y-89386533D01*
X139627211Y-89386535D01*
X139837433Y-89473611D01*
X139842006Y-89475505D01*
X139922209Y-89494760D01*
X140068076Y-89529780D01*
X140068082Y-89529781D01*
X140072889Y-89530935D01*
X140309600Y-89549565D01*
X140546311Y-89530935D01*
X140551118Y-89529781D01*
X140551124Y-89529780D01*
X140696991Y-89494760D01*
X140777194Y-89475505D01*
X140781767Y-89473611D01*
X140991989Y-89386535D01*
X140991993Y-89386533D01*
X140996563Y-89384640D01*
X141000783Y-89382054D01*
X141194802Y-89263159D01*
X141194808Y-89263155D01*
X141199016Y-89260576D01*
X141379569Y-89106369D01*
X141533776Y-88925816D01*
X141536355Y-88921608D01*
X141536359Y-88921602D01*
X141655254Y-88727583D01*
X141657840Y-88723363D01*
X141661638Y-88714195D01*
X141746811Y-88508567D01*
X141746812Y-88508565D01*
X141748705Y-88503994D01*
X141772301Y-88405709D01*
X141802980Y-88277924D01*
X141802981Y-88277918D01*
X141804135Y-88273111D01*
X141822765Y-88036400D01*
X141804135Y-87799689D01*
X141799870Y-87781921D01*
X141750540Y-87576449D01*
X141754087Y-87505541D01*
X141783964Y-87457940D01*
X146467647Y-82774257D01*
X146475937Y-82766713D01*
X146482418Y-82762600D01*
X146529059Y-82712932D01*
X146531813Y-82710091D01*
X146551535Y-82690369D01*
X146554012Y-82687176D01*
X146561717Y-82678155D01*
X146586559Y-82651700D01*
X146591986Y-82645921D01*
X146595807Y-82638971D01*
X146601746Y-82628168D01*
X146612602Y-82611641D01*
X146620157Y-82601902D01*
X146620158Y-82601900D01*
X146625014Y-82595640D01*
X146642574Y-82555060D01*
X146647791Y-82544412D01*
X146665275Y-82512609D01*
X146665276Y-82512607D01*
X146669095Y-82505660D01*
X146674133Y-82486037D01*
X146680537Y-82467334D01*
X146685433Y-82456020D01*
X146685433Y-82456019D01*
X146688581Y-82448745D01*
X146689820Y-82440922D01*
X146689823Y-82440912D01*
X146695499Y-82405076D01*
X146697905Y-82393456D01*
X146706928Y-82358311D01*
X146706928Y-82358310D01*
X146708900Y-82350630D01*
X146708900Y-82330376D01*
X146710451Y-82310665D01*
X146712380Y-82298486D01*
X146713620Y-82290657D01*
X146709459Y-82246638D01*
X146708900Y-82234781D01*
X146708900Y-81432594D01*
X146728902Y-81364473D01*
X146762629Y-81329381D01*
X146915189Y-81222557D01*
X146915192Y-81222555D01*
X146919700Y-81219398D01*
X147081598Y-81057500D01*
X147212923Y-80869949D01*
X147215246Y-80864967D01*
X147215249Y-80864962D01*
X147231205Y-80830743D01*
X147278122Y-80777458D01*
X147346399Y-80757997D01*
X147414359Y-80778539D01*
X147459595Y-80830743D01*
X147475551Y-80864962D01*
X147475554Y-80864967D01*
X147477877Y-80869949D01*
X147609202Y-81057500D01*
X147771100Y-81219398D01*
X147803171Y-81241855D01*
X147847499Y-81297310D01*
X147856900Y-81345067D01*
X147856900Y-83878612D01*
X147836898Y-83946733D01*
X147783242Y-83993226D01*
X147712968Y-84003330D01*
X147648388Y-83973836D01*
X147641805Y-83967707D01*
X147554700Y-83880602D01*
X147550192Y-83877445D01*
X147550189Y-83877443D01*
X147424320Y-83789309D01*
X147367149Y-83749277D01*
X147362167Y-83746954D01*
X147362162Y-83746951D01*
X147164625Y-83654839D01*
X147164624Y-83654839D01*
X147159643Y-83652516D01*
X147154335Y-83651094D01*
X147154333Y-83651093D01*
X146943802Y-83594681D01*
X146943800Y-83594681D01*
X146938487Y-83593257D01*
X146710400Y-83573302D01*
X146482313Y-83593257D01*
X146477000Y-83594681D01*
X146476998Y-83594681D01*
X146266467Y-83651093D01*
X146266465Y-83651094D01*
X146261157Y-83652516D01*
X146256176Y-83654839D01*
X146256175Y-83654839D01*
X146058638Y-83746951D01*
X146058633Y-83746954D01*
X146053651Y-83749277D01*
X145996480Y-83789309D01*
X145870611Y-83877443D01*
X145870608Y-83877445D01*
X145866100Y-83880602D01*
X145704202Y-84042500D01*
X145572877Y-84230051D01*
X145570554Y-84235033D01*
X145570551Y-84235038D01*
X145570434Y-84235289D01*
X145476116Y-84437557D01*
X145474694Y-84442865D01*
X145474693Y-84442867D01*
X145453419Y-84522261D01*
X145416857Y-84658713D01*
X145396902Y-84886800D01*
X145416857Y-85114887D01*
X145476116Y-85336043D01*
X145478439Y-85341024D01*
X145478439Y-85341025D01*
X145570551Y-85538562D01*
X145570554Y-85538567D01*
X145572877Y-85543549D01*
X145704202Y-85731100D01*
X145866100Y-85892998D01*
X145870608Y-85896155D01*
X145870611Y-85896157D01*
X145871167Y-85896546D01*
X146053651Y-86024323D01*
X146058633Y-86026646D01*
X146058638Y-86026649D01*
X146255165Y-86118290D01*
X146261157Y-86121084D01*
X146266465Y-86122506D01*
X146266467Y-86122507D01*
X146476998Y-86178919D01*
X146477000Y-86178919D01*
X146482313Y-86180343D01*
X146710400Y-86200298D01*
X146938487Y-86180343D01*
X146943798Y-86178920D01*
X146943809Y-86178918D01*
X147001941Y-86163341D01*
X147072917Y-86165030D01*
X147123648Y-86195952D01*
X147309995Y-86382299D01*
X147344021Y-86444611D01*
X147346900Y-86471394D01*
X147346900Y-93766300D01*
X147326898Y-93834421D01*
X147273242Y-93880914D01*
X147220900Y-93892300D01*
X147032266Y-93892300D01*
X146970084Y-93899055D01*
X146833695Y-93950185D01*
X146717139Y-94037539D01*
X146629785Y-94154095D01*
X146626633Y-94162503D01*
X146626632Y-94162505D01*
X146605938Y-94217706D01*
X146563297Y-94274471D01*
X146496735Y-94299171D01*
X146427386Y-94283964D01*
X146404567Y-94267466D01*
X146404287Y-94267158D01*
X146271773Y-94162505D01*
X146226577Y-94126811D01*
X146226572Y-94126808D01*
X146222523Y-94123610D01*
X146218007Y-94121117D01*
X146218004Y-94121115D01*
X146024279Y-94014173D01*
X146024275Y-94014171D01*
X146019755Y-94011676D01*
X146014886Y-94009952D01*
X146014882Y-94009950D01*
X145806303Y-93936088D01*
X145806299Y-93936087D01*
X145801428Y-93934362D01*
X145796335Y-93933455D01*
X145796332Y-93933454D01*
X145578495Y-93894651D01*
X145578489Y-93894650D01*
X145573406Y-93893745D01*
X145500496Y-93892854D01*
X145346981Y-93890979D01*
X145346979Y-93890979D01*
X145341811Y-93890916D01*
X145112864Y-93925950D01*
X144892714Y-93997906D01*
X144888126Y-94000294D01*
X144888122Y-94000296D01*
X144795187Y-94048675D01*
X144687272Y-94104852D01*
X144683139Y-94107955D01*
X144683136Y-94107957D01*
X144506190Y-94240812D01*
X144502055Y-94243917D01*
X144498483Y-94247655D01*
X144402473Y-94348124D01*
X144342039Y-94411364D01*
X144211519Y-94602699D01*
X144114002Y-94812781D01*
X144052107Y-95035969D01*
X144027495Y-95266269D01*
X144040827Y-95497497D01*
X144041964Y-95502543D01*
X144041965Y-95502549D01*
X144074141Y-95645323D01*
X144091746Y-95723442D01*
X144178884Y-95938037D01*
X144299901Y-96135519D01*
X144451547Y-96310584D01*
X144629749Y-96458530D01*
X144829722Y-96575384D01*
X145046094Y-96658009D01*
X145051160Y-96659040D01*
X145051161Y-96659040D01*
X145104246Y-96669840D01*
X145273056Y-96704185D01*
X145402489Y-96708931D01*
X145499349Y-96712483D01*
X145499353Y-96712483D01*
X145504513Y-96712672D01*
X145509633Y-96712016D01*
X145509635Y-96712016D01*
X145583566Y-96702545D01*
X145734247Y-96683242D01*
X145739195Y-96681757D01*
X145739202Y-96681756D01*
X145951147Y-96618169D01*
X145956090Y-96616686D01*
X146036636Y-96577227D01*
X146159449Y-96517062D01*
X146159452Y-96517060D01*
X146164084Y-96514791D01*
X146352643Y-96380294D01*
X146397709Y-96335385D01*
X146460081Y-96301469D01*
X146530887Y-96306657D01*
X146587649Y-96349303D01*
X146604631Y-96380407D01*
X146629785Y-96447505D01*
X146717139Y-96564061D01*
X146833695Y-96651415D01*
X146970084Y-96702545D01*
X147032266Y-96709300D01*
X148928534Y-96709300D01*
X148990716Y-96702545D01*
X149127105Y-96651415D01*
X149243661Y-96564061D01*
X149331015Y-96447505D01*
X149382145Y-96311116D01*
X149388900Y-96248934D01*
X149388900Y-94352666D01*
X149382145Y-94290484D01*
X149331015Y-94154095D01*
X149243661Y-94037539D01*
X149127105Y-93950185D01*
X148990716Y-93899055D01*
X148928534Y-93892300D01*
X148739900Y-93892300D01*
X148671779Y-93872298D01*
X148625286Y-93818642D01*
X148613900Y-93766300D01*
X148613900Y-86810571D01*
X148633902Y-86742450D01*
X148687558Y-86695957D01*
X148757832Y-86685853D01*
X148822412Y-86715347D01*
X148828995Y-86721476D01*
X151309249Y-89201730D01*
X151343275Y-89264042D01*
X151345441Y-89304213D01*
X151327051Y-89476295D01*
X151327348Y-89481448D01*
X151327348Y-89481451D01*
X151333676Y-89591190D01*
X151339910Y-89699315D01*
X151341047Y-89704361D01*
X151341048Y-89704367D01*
X151364300Y-89807539D01*
X151389022Y-89917239D01*
X151438552Y-90039217D01*
X151466676Y-90108478D01*
X151473066Y-90124216D01*
X151510485Y-90185278D01*
X151587091Y-90310288D01*
X151589787Y-90314688D01*
X151736050Y-90483538D01*
X151907926Y-90626232D01*
X152100800Y-90738938D01*
X152309492Y-90818630D01*
X152314560Y-90819661D01*
X152314563Y-90819662D01*
X152419266Y-90840964D01*
X152528397Y-90863167D01*
X152533572Y-90863357D01*
X152533574Y-90863357D01*
X152746473Y-90871164D01*
X152746477Y-90871164D01*
X152751637Y-90871353D01*
X152756757Y-90870697D01*
X152756759Y-90870697D01*
X152968088Y-90843625D01*
X152968089Y-90843625D01*
X152973216Y-90842968D01*
X152979896Y-90840964D01*
X153182229Y-90780261D01*
X153182234Y-90780259D01*
X153187184Y-90778774D01*
X153387794Y-90680496D01*
X153569660Y-90550773D01*
X153727896Y-90393089D01*
X153779622Y-90321105D01*
X153858253Y-90211677D01*
X153859576Y-90212628D01*
X153906445Y-90169457D01*
X153976380Y-90157225D01*
X154041826Y-90184744D01*
X154069675Y-90216594D01*
X154129787Y-90314688D01*
X154276050Y-90483538D01*
X154423924Y-90606305D01*
X154425785Y-90607850D01*
X154465420Y-90666752D01*
X154471300Y-90704794D01*
X154471300Y-96539530D01*
X154469867Y-96558480D01*
X154466601Y-96579949D01*
X154467194Y-96587241D01*
X154467194Y-96587244D01*
X154470885Y-96632618D01*
X154471300Y-96642833D01*
X154471300Y-96650893D01*
X154471725Y-96654537D01*
X154474589Y-96679107D01*
X154475022Y-96683482D01*
X154479668Y-96740595D01*
X154480940Y-96756237D01*
X154483196Y-96763201D01*
X154484387Y-96769160D01*
X154485771Y-96775015D01*
X154486618Y-96782281D01*
X154511535Y-96850927D01*
X154512952Y-96855055D01*
X154529265Y-96905409D01*
X154535449Y-96924499D01*
X154539245Y-96930754D01*
X154541751Y-96936228D01*
X154544470Y-96941658D01*
X154546967Y-96948537D01*
X154550980Y-96954657D01*
X154550980Y-96954658D01*
X154586986Y-97009576D01*
X154589323Y-97013280D01*
X154627205Y-97075707D01*
X154630921Y-97079915D01*
X154630922Y-97079916D01*
X154634603Y-97084084D01*
X154634576Y-97084108D01*
X154637229Y-97087100D01*
X154639932Y-97090333D01*
X154643944Y-97096452D01*
X154649256Y-97101484D01*
X154700183Y-97149728D01*
X154702625Y-97152106D01*
X157791003Y-100240484D01*
X157825029Y-100302796D01*
X157819964Y-100373611D01*
X157777417Y-100430447D01*
X157720967Y-100454129D01*
X157687789Y-100459206D01*
X157570491Y-100477155D01*
X157358156Y-100546557D01*
X157160007Y-100649707D01*
X157155874Y-100652810D01*
X157155871Y-100652812D01*
X157090532Y-100701870D01*
X156981365Y-100783835D01*
X156827029Y-100945338D01*
X156719601Y-101102821D01*
X156664693Y-101147821D01*
X156594168Y-101155992D01*
X156530421Y-101124738D01*
X156509724Y-101100254D01*
X156429222Y-100975817D01*
X156429220Y-100975814D01*
X156426414Y-100971477D01*
X156276070Y-100806251D01*
X156272019Y-100803052D01*
X156272015Y-100803048D01*
X156104814Y-100671000D01*
X156104810Y-100670998D01*
X156100759Y-100667798D01*
X156089262Y-100661451D01*
X155984609Y-100603680D01*
X155905189Y-100559838D01*
X155900320Y-100558114D01*
X155900316Y-100558112D01*
X155699487Y-100486995D01*
X155699483Y-100486994D01*
X155694612Y-100485269D01*
X155689519Y-100484362D01*
X155689516Y-100484361D01*
X155479773Y-100447000D01*
X155479767Y-100446999D01*
X155474684Y-100446094D01*
X155400852Y-100445192D01*
X155256481Y-100443428D01*
X155256479Y-100443428D01*
X155251311Y-100443365D01*
X155030491Y-100477155D01*
X154818156Y-100546557D01*
X154620007Y-100649707D01*
X154615874Y-100652810D01*
X154615871Y-100652812D01*
X154550532Y-100701870D01*
X154441365Y-100783835D01*
X154437793Y-100787573D01*
X154360298Y-100868666D01*
X154298774Y-100904095D01*
X154227862Y-100900638D01*
X154170076Y-100859392D01*
X154151223Y-100825844D01*
X154109724Y-100715146D01*
X154101186Y-100699551D01*
X154024685Y-100597476D01*
X154012124Y-100584915D01*
X153910049Y-100508414D01*
X153894454Y-100499876D01*
X153774006Y-100454722D01*
X153758751Y-100451095D01*
X153707886Y-100445569D01*
X153701072Y-100445200D01*
X153078515Y-100445200D01*
X153063276Y-100449675D01*
X153062071Y-100451065D01*
X153060400Y-100458748D01*
X153060400Y-103143084D01*
X153064875Y-103158323D01*
X153066265Y-103159528D01*
X153073948Y-103161199D01*
X153701069Y-103161199D01*
X153707890Y-103160829D01*
X153758752Y-103155305D01*
X153774004Y-103151679D01*
X153894454Y-103106524D01*
X153910049Y-103097986D01*
X154012124Y-103021485D01*
X154024685Y-103008924D01*
X154101186Y-102906849D01*
X154109724Y-102891254D01*
X154150625Y-102782152D01*
X154193267Y-102725388D01*
X154259828Y-102700688D01*
X154329177Y-102715896D01*
X154363844Y-102743884D01*
X154389265Y-102773231D01*
X154389269Y-102773235D01*
X154392650Y-102777138D01*
X154564526Y-102919832D01*
X154568993Y-102922442D01*
X154650470Y-102970053D01*
X154699194Y-103021691D01*
X154712900Y-103078841D01*
X154712900Y-112265433D01*
X154712373Y-112276616D01*
X154710698Y-112284109D01*
X154710947Y-112292035D01*
X154710947Y-112292036D01*
X154712838Y-112352186D01*
X154712900Y-112356145D01*
X154712900Y-112384056D01*
X154713397Y-112387990D01*
X154713397Y-112387991D01*
X154713405Y-112388056D01*
X154714338Y-112399893D01*
X154715727Y-112444089D01*
X154721378Y-112463539D01*
X154725387Y-112482900D01*
X154727926Y-112502997D01*
X154730845Y-112510368D01*
X154730845Y-112510370D01*
X154744204Y-112544112D01*
X154748049Y-112555342D01*
X154752341Y-112570115D01*
X154760382Y-112597793D01*
X154764415Y-112604612D01*
X154764417Y-112604617D01*
X154770693Y-112615228D01*
X154779388Y-112632976D01*
X154786848Y-112651817D01*
X154791510Y-112658233D01*
X154791510Y-112658234D01*
X154812836Y-112687587D01*
X154819352Y-112697507D01*
X154841858Y-112735562D01*
X154856179Y-112749883D01*
X154869019Y-112764916D01*
X154880928Y-112781307D01*
X154903204Y-112799735D01*
X154915005Y-112809498D01*
X154923784Y-112817488D01*
X168264995Y-126158700D01*
X168299021Y-126221012D01*
X168301900Y-126247795D01*
X168301900Y-127253806D01*
X168281898Y-127321927D01*
X168248171Y-127357019D01*
X168095611Y-127463843D01*
X168095608Y-127463845D01*
X168091100Y-127467002D01*
X167929202Y-127628900D01*
X167797877Y-127816451D01*
X167795554Y-127821433D01*
X167795551Y-127821438D01*
X167779595Y-127855657D01*
X167732678Y-127908942D01*
X167664401Y-127928403D01*
X167596441Y-127907861D01*
X167551205Y-127855657D01*
X167535249Y-127821438D01*
X167535246Y-127821433D01*
X167532923Y-127816451D01*
X167401598Y-127628900D01*
X167239700Y-127467002D01*
X167235192Y-127463845D01*
X167235189Y-127463843D01*
X167082629Y-127357019D01*
X167038301Y-127301562D01*
X167028900Y-127253806D01*
X167028900Y-125681768D01*
X167029427Y-125670585D01*
X167031102Y-125663092D01*
X167028962Y-125595001D01*
X167028900Y-125591044D01*
X167028900Y-125563144D01*
X167028396Y-125559153D01*
X167027463Y-125547311D01*
X167026323Y-125511036D01*
X167026074Y-125503111D01*
X167023862Y-125495497D01*
X167023861Y-125495492D01*
X167020423Y-125483659D01*
X167016412Y-125464295D01*
X167014867Y-125452064D01*
X167013874Y-125444203D01*
X167010957Y-125436836D01*
X167010956Y-125436831D01*
X166997598Y-125403092D01*
X166993754Y-125391865D01*
X166983630Y-125357022D01*
X166981418Y-125349407D01*
X166971107Y-125331972D01*
X166962412Y-125314224D01*
X166954952Y-125295383D01*
X166928964Y-125259613D01*
X166922448Y-125249693D01*
X166903980Y-125218465D01*
X166903978Y-125218462D01*
X166899942Y-125211638D01*
X166885621Y-125197317D01*
X166872780Y-125182283D01*
X166865531Y-125172306D01*
X166860872Y-125165893D01*
X166826795Y-125137702D01*
X166818016Y-125129712D01*
X160599452Y-118911147D01*
X160591912Y-118902861D01*
X160587800Y-118896382D01*
X160538148Y-118849756D01*
X160535307Y-118847002D01*
X160515570Y-118827265D01*
X160512373Y-118824785D01*
X160503351Y-118817080D01*
X160471121Y-118786814D01*
X160464175Y-118782995D01*
X160464172Y-118782993D01*
X160453366Y-118777052D01*
X160436847Y-118766201D01*
X160436383Y-118765841D01*
X160420841Y-118753786D01*
X160413572Y-118750641D01*
X160413568Y-118750638D01*
X160380263Y-118736226D01*
X160369613Y-118731009D01*
X160330860Y-118709705D01*
X160311237Y-118704667D01*
X160292534Y-118698263D01*
X160281220Y-118693367D01*
X160281219Y-118693367D01*
X160273945Y-118690219D01*
X160266122Y-118688980D01*
X160266112Y-118688977D01*
X160230276Y-118683301D01*
X160218656Y-118680895D01*
X160183511Y-118671872D01*
X160183510Y-118671872D01*
X160175830Y-118669900D01*
X160155576Y-118669900D01*
X160135865Y-118668349D01*
X160123686Y-118666420D01*
X160115857Y-118665180D01*
X160107965Y-118665926D01*
X160071839Y-118669341D01*
X160059981Y-118669900D01*
X156333405Y-118669900D01*
X156265284Y-118649898D01*
X156227613Y-118612340D01*
X156139422Y-118476017D01*
X156139420Y-118476014D01*
X156136614Y-118471677D01*
X155986270Y-118306451D01*
X155982219Y-118303252D01*
X155982215Y-118303248D01*
X155815014Y-118171200D01*
X155815010Y-118171198D01*
X155810959Y-118167998D01*
X155615389Y-118060038D01*
X155610520Y-118058314D01*
X155610516Y-118058312D01*
X155409687Y-117987195D01*
X155409683Y-117987194D01*
X155404812Y-117985469D01*
X155399719Y-117984562D01*
X155399716Y-117984561D01*
X155189973Y-117947200D01*
X155189967Y-117947199D01*
X155184884Y-117946294D01*
X155111052Y-117945392D01*
X154966681Y-117943628D01*
X154966679Y-117943628D01*
X154961511Y-117943565D01*
X154740691Y-117977355D01*
X154528356Y-118046757D01*
X154498043Y-118062537D01*
X154433414Y-118096181D01*
X154330207Y-118149907D01*
X154326074Y-118153010D01*
X154326071Y-118153012D01*
X154171070Y-118269390D01*
X154151565Y-118284035D01*
X154147993Y-118287773D01*
X154004777Y-118437640D01*
X153997229Y-118445538D01*
X153889801Y-118603021D01*
X153834893Y-118648021D01*
X153764368Y-118656192D01*
X153700621Y-118624938D01*
X153679924Y-118600454D01*
X153599422Y-118476017D01*
X153599420Y-118476014D01*
X153596614Y-118471677D01*
X153446270Y-118306451D01*
X153442219Y-118303252D01*
X153442215Y-118303248D01*
X153275014Y-118171200D01*
X153275010Y-118171198D01*
X153270959Y-118167998D01*
X153233860Y-118147518D01*
X153140862Y-118096181D01*
X153075389Y-118060038D01*
X152994706Y-118031467D01*
X152947670Y-118001789D01*
X151250005Y-116304124D01*
X151215979Y-116241812D01*
X151213100Y-116215029D01*
X151213100Y-111276232D01*
X151233102Y-111208111D01*
X151265931Y-111173654D01*
X151334460Y-111124773D01*
X151442691Y-111016919D01*
X151505062Y-110983004D01*
X151575868Y-110988192D01*
X151632630Y-111030838D01*
X151649612Y-111061941D01*
X151687883Y-111164028D01*
X151693985Y-111180305D01*
X151781339Y-111296861D01*
X151897895Y-111384215D01*
X152034284Y-111435345D01*
X152096466Y-111442100D01*
X153892734Y-111442100D01*
X153954916Y-111435345D01*
X154091305Y-111384215D01*
X154207861Y-111296861D01*
X154295215Y-111180305D01*
X154346345Y-111043916D01*
X154353100Y-110981734D01*
X154353100Y-109185466D01*
X154346345Y-109123284D01*
X154295215Y-108986895D01*
X154207861Y-108870339D01*
X154091305Y-108782985D01*
X153954916Y-108731855D01*
X153892734Y-108725100D01*
X152096466Y-108725100D01*
X152034284Y-108731855D01*
X151897895Y-108782985D01*
X151781339Y-108870339D01*
X151693985Y-108986895D01*
X151690833Y-108995303D01*
X151649519Y-109105507D01*
X151606877Y-109162271D01*
X151540316Y-109186971D01*
X151470967Y-109171763D01*
X151438343Y-109146076D01*
X151387751Y-109090475D01*
X151387742Y-109090466D01*
X151384270Y-109086651D01*
X151380219Y-109083452D01*
X151380215Y-109083448D01*
X151213014Y-108951400D01*
X151213010Y-108951398D01*
X151208959Y-108948198D01*
X151013389Y-108840238D01*
X151008520Y-108838514D01*
X151008516Y-108838512D01*
X150807687Y-108767395D01*
X150807683Y-108767394D01*
X150802812Y-108765669D01*
X150797719Y-108764762D01*
X150797716Y-108764761D01*
X150587973Y-108727400D01*
X150587967Y-108727399D01*
X150582884Y-108726494D01*
X150509052Y-108725592D01*
X150364681Y-108723828D01*
X150364679Y-108723828D01*
X150359511Y-108723765D01*
X150138691Y-108757555D01*
X149926356Y-108826957D01*
X149896043Y-108842737D01*
X149809000Y-108888049D01*
X149728207Y-108930107D01*
X149724074Y-108933210D01*
X149724071Y-108933212D01*
X149583569Y-109038704D01*
X149549565Y-109064235D01*
X149510125Y-109105507D01*
X149455880Y-109162271D01*
X149395229Y-109225738D01*
X149287801Y-109383221D01*
X149232893Y-109428221D01*
X149162368Y-109436392D01*
X149098621Y-109405138D01*
X149077924Y-109380654D01*
X148997422Y-109256217D01*
X148997420Y-109256214D01*
X148994614Y-109251877D01*
X148844270Y-109086651D01*
X148840219Y-109083452D01*
X148840215Y-109083448D01*
X148673014Y-108951400D01*
X148673010Y-108951398D01*
X148668959Y-108948198D01*
X148473389Y-108840238D01*
X148468520Y-108838514D01*
X148468516Y-108838512D01*
X148267687Y-108767395D01*
X148267683Y-108767394D01*
X148262812Y-108765669D01*
X148257719Y-108764762D01*
X148257716Y-108764761D01*
X148047973Y-108727400D01*
X148047967Y-108727399D01*
X148042884Y-108726494D01*
X147969052Y-108725592D01*
X147824681Y-108723828D01*
X147824679Y-108723828D01*
X147819511Y-108723765D01*
X147598691Y-108757555D01*
X147386356Y-108826957D01*
X147356043Y-108842737D01*
X147269000Y-108888049D01*
X147188207Y-108930107D01*
X147184074Y-108933210D01*
X147184071Y-108933212D01*
X147043569Y-109038704D01*
X147009565Y-109064235D01*
X146970125Y-109105507D01*
X146915880Y-109162271D01*
X146855229Y-109225738D01*
X146852320Y-109230003D01*
X146852314Y-109230011D01*
X146783173Y-109331368D01*
X146729343Y-109410280D01*
X146687976Y-109499399D01*
X146650314Y-109580535D01*
X146635288Y-109612905D01*
X146575589Y-109828170D01*
X146551851Y-110050295D01*
X146552148Y-110055448D01*
X146552148Y-110055451D01*
X146557682Y-110151433D01*
X146564710Y-110273315D01*
X146565847Y-110278361D01*
X146565848Y-110278367D01*
X146582287Y-110351309D01*
X146613822Y-110491239D01*
X146697866Y-110698216D01*
X146735285Y-110759278D01*
X146811891Y-110884288D01*
X146814587Y-110888688D01*
X146960850Y-111057538D01*
X147064662Y-111143724D01*
X147112822Y-111183707D01*
X147132726Y-111200232D01*
X147325600Y-111312938D01*
X147534292Y-111392630D01*
X147539360Y-111393661D01*
X147539363Y-111393662D01*
X147646617Y-111415483D01*
X147753197Y-111437167D01*
X147758372Y-111437357D01*
X147758374Y-111437357D01*
X147971273Y-111445164D01*
X147971277Y-111445164D01*
X147976437Y-111445353D01*
X147981557Y-111444697D01*
X147981559Y-111444697D01*
X148192888Y-111417625D01*
X148192889Y-111417625D01*
X148198016Y-111416968D01*
X148202966Y-111415483D01*
X148407029Y-111354261D01*
X148407034Y-111354259D01*
X148411984Y-111352774D01*
X148612594Y-111254496D01*
X148794460Y-111124773D01*
X148952696Y-110967089D01*
X149012194Y-110884289D01*
X149083053Y-110785677D01*
X149084376Y-110786628D01*
X149131245Y-110743457D01*
X149201180Y-110731225D01*
X149266626Y-110758744D01*
X149294475Y-110790594D01*
X149305144Y-110808004D01*
X149354587Y-110888688D01*
X149500850Y-111057538D01*
X149648724Y-111180305D01*
X149650585Y-111181850D01*
X149690220Y-111240752D01*
X149696100Y-111278794D01*
X149696100Y-116514330D01*
X149694667Y-116533280D01*
X149691401Y-116554749D01*
X149691994Y-116562041D01*
X149691994Y-116562044D01*
X149695685Y-116607418D01*
X149696100Y-116617633D01*
X149696100Y-116625693D01*
X149696525Y-116629337D01*
X149699389Y-116653907D01*
X149699822Y-116658282D01*
X149704822Y-116719747D01*
X149705740Y-116731037D01*
X149707996Y-116738001D01*
X149709187Y-116743960D01*
X149710571Y-116749815D01*
X149711418Y-116757081D01*
X149736335Y-116825727D01*
X149737752Y-116829855D01*
X149760249Y-116899299D01*
X149764045Y-116905554D01*
X149766551Y-116911028D01*
X149769270Y-116916458D01*
X149771767Y-116923337D01*
X149775780Y-116929457D01*
X149775780Y-116929458D01*
X149811786Y-116984376D01*
X149814123Y-116988080D01*
X149852005Y-117050507D01*
X149855721Y-117054715D01*
X149855722Y-117054716D01*
X149859403Y-117058884D01*
X149859376Y-117058908D01*
X149862029Y-117061900D01*
X149864732Y-117065133D01*
X149868744Y-117071252D01*
X149874056Y-117076284D01*
X149924983Y-117124528D01*
X149927425Y-117126906D01*
X150530824Y-117730305D01*
X150564850Y-117792617D01*
X150559785Y-117863432D01*
X150517238Y-117920268D01*
X150450718Y-117945079D01*
X150441729Y-117945400D01*
X150248715Y-117945400D01*
X150233476Y-117949875D01*
X150232271Y-117951265D01*
X150230600Y-117958948D01*
X150230600Y-120643284D01*
X150235075Y-120658523D01*
X150236465Y-120659728D01*
X150244148Y-120661399D01*
X150871269Y-120661399D01*
X150878090Y-120661029D01*
X150928952Y-120655505D01*
X150944204Y-120651879D01*
X151064654Y-120606724D01*
X151080249Y-120598186D01*
X151182324Y-120521685D01*
X151194885Y-120509124D01*
X151271386Y-120407049D01*
X151279924Y-120391454D01*
X151320825Y-120282352D01*
X151363467Y-120225588D01*
X151430028Y-120200888D01*
X151499377Y-120216096D01*
X151534044Y-120244084D01*
X151559465Y-120273431D01*
X151559469Y-120273435D01*
X151562850Y-120277338D01*
X151734726Y-120420032D01*
X151927600Y-120532738D01*
X151932425Y-120534580D01*
X151932426Y-120534581D01*
X152005212Y-120562375D01*
X152136292Y-120612430D01*
X152141360Y-120613461D01*
X152141363Y-120613462D01*
X152248617Y-120635283D01*
X152355197Y-120656967D01*
X152360372Y-120657157D01*
X152360374Y-120657157D01*
X152573273Y-120664964D01*
X152573277Y-120664964D01*
X152578437Y-120665153D01*
X152583557Y-120664497D01*
X152583559Y-120664497D01*
X152794888Y-120637425D01*
X152794889Y-120637425D01*
X152800016Y-120636768D01*
X152804966Y-120635283D01*
X153009029Y-120574061D01*
X153009034Y-120574059D01*
X153013984Y-120572574D01*
X153214594Y-120474296D01*
X153396460Y-120344573D01*
X153554696Y-120186889D01*
X153585720Y-120143715D01*
X153685053Y-120005477D01*
X153686376Y-120006428D01*
X153733245Y-119963257D01*
X153803180Y-119951025D01*
X153868626Y-119978544D01*
X153896475Y-120010394D01*
X153956587Y-120108488D01*
X154102850Y-120277338D01*
X154274726Y-120420032D01*
X154312125Y-120441886D01*
X154360670Y-120470253D01*
X154409394Y-120521891D01*
X154423100Y-120579041D01*
X154423100Y-121285605D01*
X154403098Y-121353726D01*
X154386195Y-121374701D01*
X154003299Y-121757596D01*
X153940987Y-121791621D01*
X153914204Y-121794500D01*
X151665967Y-121794500D01*
X151654784Y-121793973D01*
X151647291Y-121792298D01*
X151639365Y-121792547D01*
X151639364Y-121792547D01*
X151579201Y-121794438D01*
X151575243Y-121794500D01*
X151547344Y-121794500D01*
X151543354Y-121795004D01*
X151531520Y-121795936D01*
X151487311Y-121797326D01*
X151479697Y-121799538D01*
X151479692Y-121799539D01*
X151467859Y-121802977D01*
X151448496Y-121806988D01*
X151428403Y-121809526D01*
X151421036Y-121812443D01*
X151421031Y-121812444D01*
X151387292Y-121825802D01*
X151376065Y-121829646D01*
X151333607Y-121841982D01*
X151326781Y-121846019D01*
X151316172Y-121852293D01*
X151298424Y-121860988D01*
X151279583Y-121868448D01*
X151273167Y-121873110D01*
X151273166Y-121873110D01*
X151243813Y-121894436D01*
X151233893Y-121900952D01*
X151202665Y-121919420D01*
X151202662Y-121919422D01*
X151195838Y-121923458D01*
X151181517Y-121937779D01*
X151166484Y-121950619D01*
X151150093Y-121962528D01*
X151145042Y-121968633D01*
X151145037Y-121968638D01*
X151121901Y-121996604D01*
X151113913Y-122005382D01*
X150498100Y-122621195D01*
X150435788Y-122655221D01*
X150409005Y-122658100D01*
X149209394Y-122658100D01*
X149141273Y-122638098D01*
X149120299Y-122621195D01*
X146697174Y-120198069D01*
X148618601Y-120198069D01*
X148618971Y-120204890D01*
X148624495Y-120255752D01*
X148628121Y-120271004D01*
X148673276Y-120391454D01*
X148681814Y-120407049D01*
X148758315Y-120509124D01*
X148770876Y-120521685D01*
X148872951Y-120598186D01*
X148888546Y-120606724D01*
X149008994Y-120651878D01*
X149024249Y-120655505D01*
X149075114Y-120661031D01*
X149081928Y-120661400D01*
X149704485Y-120661400D01*
X149719724Y-120656925D01*
X149720929Y-120655535D01*
X149722600Y-120647852D01*
X149722600Y-119575515D01*
X149718125Y-119560276D01*
X149716735Y-119559071D01*
X149709052Y-119557400D01*
X148636716Y-119557400D01*
X148621477Y-119561875D01*
X148620272Y-119563265D01*
X148618601Y-119570948D01*
X148618601Y-120198069D01*
X146697174Y-120198069D01*
X145530390Y-119031285D01*
X148618600Y-119031285D01*
X148623075Y-119046524D01*
X148624465Y-119047729D01*
X148632148Y-119049400D01*
X149704485Y-119049400D01*
X149719724Y-119044925D01*
X149720929Y-119043535D01*
X149722600Y-119035852D01*
X149722600Y-117963516D01*
X149718125Y-117948277D01*
X149716735Y-117947072D01*
X149709052Y-117945401D01*
X149081931Y-117945401D01*
X149075110Y-117945771D01*
X149024248Y-117951295D01*
X149008996Y-117954921D01*
X148888546Y-118000076D01*
X148872951Y-118008614D01*
X148770876Y-118085115D01*
X148758315Y-118097676D01*
X148681814Y-118199751D01*
X148673276Y-118215346D01*
X148628122Y-118335794D01*
X148624495Y-118351049D01*
X148618969Y-118401914D01*
X148618600Y-118408728D01*
X148618600Y-119031285D01*
X145530390Y-119031285D01*
X145232852Y-118733747D01*
X145225312Y-118725461D01*
X145221200Y-118718982D01*
X145171548Y-118672356D01*
X145168707Y-118669602D01*
X145148970Y-118649865D01*
X145145773Y-118647385D01*
X145136751Y-118639680D01*
X145110300Y-118614841D01*
X145104521Y-118609414D01*
X145097575Y-118605595D01*
X145097572Y-118605593D01*
X145086766Y-118599652D01*
X145070247Y-118588801D01*
X145069783Y-118588441D01*
X145054241Y-118576386D01*
X145046972Y-118573241D01*
X145046968Y-118573238D01*
X145013663Y-118558826D01*
X145003013Y-118553609D01*
X144964260Y-118532305D01*
X144944637Y-118527267D01*
X144925934Y-118520863D01*
X144914620Y-118515967D01*
X144914619Y-118515967D01*
X144907345Y-118512819D01*
X144899522Y-118511580D01*
X144899512Y-118511577D01*
X144863676Y-118505901D01*
X144852056Y-118503495D01*
X144816911Y-118494472D01*
X144816910Y-118494472D01*
X144809230Y-118492500D01*
X144788976Y-118492500D01*
X144769265Y-118490949D01*
X144757086Y-118489020D01*
X144749257Y-118487780D01*
X144741365Y-118488526D01*
X144705239Y-118491941D01*
X144693381Y-118492500D01*
X142255559Y-118492500D01*
X142187438Y-118472498D01*
X142149767Y-118434940D01*
X142132810Y-118408728D01*
X142038964Y-118263665D01*
X141883087Y-118092358D01*
X141879036Y-118089159D01*
X141879032Y-118089155D01*
X141705377Y-117952011D01*
X141705372Y-117952008D01*
X141701323Y-117948810D01*
X141696807Y-117946317D01*
X141696804Y-117946315D01*
X141503079Y-117839373D01*
X141503075Y-117839371D01*
X141498555Y-117836876D01*
X141493686Y-117835152D01*
X141493682Y-117835150D01*
X141285103Y-117761288D01*
X141285099Y-117761287D01*
X141280228Y-117759562D01*
X141275135Y-117758655D01*
X141275132Y-117758654D01*
X141057295Y-117719851D01*
X141057289Y-117719850D01*
X141052206Y-117718945D01*
X140979296Y-117718054D01*
X140825781Y-117716179D01*
X140825779Y-117716179D01*
X140820611Y-117716116D01*
X140591664Y-117751150D01*
X140371514Y-117823106D01*
X140366926Y-117825494D01*
X140366922Y-117825496D01*
X140225198Y-117899273D01*
X140166072Y-117930052D01*
X140161939Y-117933155D01*
X140161936Y-117933157D01*
X139989617Y-118062538D01*
X139980855Y-118069117D01*
X139971009Y-118079420D01*
X139963370Y-118087414D01*
X139901846Y-118122844D01*
X139830933Y-118119387D01*
X139773147Y-118078141D01*
X139754294Y-118044592D01*
X139732968Y-117987705D01*
X139732967Y-117987704D01*
X139729815Y-117979295D01*
X139642461Y-117862739D01*
X139525905Y-117775385D01*
X139389516Y-117724255D01*
X139327334Y-117717500D01*
X137918795Y-117717500D01*
X137850674Y-117697498D01*
X137829700Y-117680595D01*
X134564852Y-114415747D01*
X134557312Y-114407461D01*
X134553200Y-114400982D01*
X134503548Y-114354356D01*
X134500707Y-114351602D01*
X134480970Y-114331865D01*
X134477773Y-114329385D01*
X134468751Y-114321680D01*
X134442300Y-114296841D01*
X134436521Y-114291414D01*
X134429575Y-114287595D01*
X134429572Y-114287593D01*
X134418766Y-114281652D01*
X134402247Y-114270801D01*
X134401783Y-114270441D01*
X134386241Y-114258386D01*
X134378972Y-114255241D01*
X134378968Y-114255238D01*
X134345663Y-114240826D01*
X134335013Y-114235609D01*
X134296260Y-114214305D01*
X134276637Y-114209267D01*
X134257934Y-114202863D01*
X134246620Y-114197967D01*
X134246619Y-114197967D01*
X134239345Y-114194819D01*
X134231522Y-114193580D01*
X134231512Y-114193577D01*
X134195676Y-114187901D01*
X134184056Y-114185495D01*
X134148911Y-114176472D01*
X134148910Y-114176472D01*
X134141230Y-114174500D01*
X134120976Y-114174500D01*
X134101265Y-114172949D01*
X134089086Y-114171020D01*
X134081257Y-114169780D01*
X134073365Y-114170526D01*
X134037239Y-114173941D01*
X134025381Y-114174500D01*
X133654994Y-114174500D01*
X133586873Y-114154498D01*
X133551781Y-114120771D01*
X133444957Y-113968211D01*
X133444955Y-113968208D01*
X133441798Y-113963700D01*
X133279900Y-113801802D01*
X133275392Y-113798645D01*
X133275389Y-113798643D01*
X133184194Y-113734788D01*
X133092349Y-113670477D01*
X133087367Y-113668154D01*
X133087362Y-113668151D01*
X132889825Y-113576039D01*
X132889824Y-113576039D01*
X132884843Y-113573716D01*
X132879535Y-113572294D01*
X132879533Y-113572293D01*
X132669002Y-113515881D01*
X132669000Y-113515881D01*
X132663687Y-113514457D01*
X132435600Y-113494502D01*
X132207513Y-113514457D01*
X132202200Y-113515881D01*
X132202198Y-113515881D01*
X131991667Y-113572293D01*
X131991665Y-113572294D01*
X131986357Y-113573716D01*
X131981376Y-113576039D01*
X131981375Y-113576039D01*
X131783838Y-113668151D01*
X131783833Y-113668154D01*
X131778851Y-113670477D01*
X131687006Y-113734788D01*
X131595811Y-113798643D01*
X131595808Y-113798645D01*
X131591300Y-113801802D01*
X131429402Y-113963700D01*
X131298077Y-114151251D01*
X131295754Y-114156233D01*
X131295751Y-114156238D01*
X131215009Y-114329392D01*
X131201316Y-114358757D01*
X131199894Y-114364065D01*
X131199893Y-114364067D01*
X131167189Y-114486120D01*
X131142057Y-114579913D01*
X131122102Y-114808000D01*
X131142057Y-115036087D01*
X131143481Y-115041400D01*
X131143481Y-115041402D01*
X131192553Y-115224538D01*
X131201316Y-115257243D01*
X131203639Y-115262224D01*
X131203639Y-115262225D01*
X131295751Y-115459762D01*
X131295754Y-115459767D01*
X131298077Y-115464749D01*
X131347301Y-115535048D01*
X131411461Y-115626677D01*
X131429402Y-115652300D01*
X131591300Y-115814198D01*
X131595808Y-115817355D01*
X131595811Y-115817357D01*
X131629503Y-115840948D01*
X131778851Y-115945523D01*
X131783833Y-115947846D01*
X131783838Y-115947849D01*
X131919791Y-116011244D01*
X131986357Y-116042284D01*
X131991665Y-116043706D01*
X131991667Y-116043707D01*
X132202198Y-116100119D01*
X132202200Y-116100119D01*
X132207513Y-116101543D01*
X132435600Y-116121498D01*
X132663687Y-116101543D01*
X132669000Y-116100119D01*
X132669002Y-116100119D01*
X132879533Y-116043707D01*
X132879535Y-116043706D01*
X132884843Y-116042284D01*
X132951409Y-116011244D01*
X133087362Y-115947849D01*
X133087367Y-115947846D01*
X133092349Y-115945523D01*
X133241697Y-115840948D01*
X133275389Y-115817357D01*
X133275392Y-115817355D01*
X133279900Y-115814198D01*
X133441798Y-115652300D01*
X133444957Y-115647789D01*
X133551781Y-115495229D01*
X133607238Y-115450901D01*
X133654994Y-115441500D01*
X133746606Y-115441500D01*
X133814727Y-115461502D01*
X133835701Y-115478405D01*
X136933795Y-118576499D01*
X136967821Y-118638811D01*
X136970700Y-118665594D01*
X136970700Y-120074134D01*
X136977455Y-120136316D01*
X137028585Y-120272705D01*
X137115939Y-120389261D01*
X137232495Y-120476615D01*
X137368884Y-120527745D01*
X137431066Y-120534500D01*
X139327334Y-120534500D01*
X139389516Y-120527745D01*
X139525905Y-120476615D01*
X139642461Y-120389261D01*
X139729815Y-120272705D01*
X139754380Y-120207178D01*
X139797022Y-120150414D01*
X139863583Y-120125714D01*
X139932932Y-120140921D01*
X139952847Y-120154464D01*
X140060795Y-120244084D01*
X140108549Y-120283730D01*
X140308522Y-120400584D01*
X140524894Y-120483209D01*
X140529960Y-120484240D01*
X140529961Y-120484240D01*
X140583046Y-120495040D01*
X140751856Y-120529385D01*
X140881289Y-120534131D01*
X140978149Y-120537683D01*
X140978153Y-120537683D01*
X140983313Y-120537872D01*
X140988433Y-120537216D01*
X140988435Y-120537216D01*
X141062366Y-120527745D01*
X141213047Y-120508442D01*
X141217995Y-120506957D01*
X141218002Y-120506956D01*
X141429947Y-120443369D01*
X141434890Y-120441886D01*
X141486246Y-120416727D01*
X141638249Y-120342262D01*
X141638252Y-120342260D01*
X141642884Y-120339991D01*
X141831443Y-120205494D01*
X141995503Y-120042005D01*
X142130658Y-119853917D01*
X142142640Y-119829672D01*
X142190753Y-119777466D01*
X142255597Y-119759500D01*
X144414606Y-119759500D01*
X144482727Y-119779502D01*
X144503701Y-119796405D01*
X146464891Y-121757596D01*
X148391148Y-123683853D01*
X148398688Y-123692139D01*
X148402800Y-123698618D01*
X148408577Y-123704043D01*
X148452451Y-123745243D01*
X148455293Y-123747998D01*
X148475030Y-123767735D01*
X148478227Y-123770215D01*
X148487247Y-123777918D01*
X148519479Y-123808186D01*
X148526425Y-123812005D01*
X148526428Y-123812007D01*
X148537234Y-123817948D01*
X148553753Y-123828799D01*
X148569759Y-123841214D01*
X148577028Y-123844359D01*
X148577032Y-123844362D01*
X148610337Y-123858774D01*
X148620987Y-123863991D01*
X148659740Y-123885295D01*
X148667415Y-123887266D01*
X148667416Y-123887266D01*
X148679362Y-123890333D01*
X148698067Y-123896737D01*
X148716655Y-123904781D01*
X148724478Y-123906020D01*
X148724488Y-123906023D01*
X148760324Y-123911699D01*
X148771944Y-123914105D01*
X148803759Y-123922273D01*
X148814770Y-123925100D01*
X148835024Y-123925100D01*
X148854734Y-123926651D01*
X148874743Y-123929820D01*
X148882635Y-123929074D01*
X148901380Y-123927302D01*
X148918762Y-123925659D01*
X148930619Y-123925100D01*
X150644833Y-123925100D01*
X150656016Y-123925627D01*
X150663509Y-123927302D01*
X150671435Y-123927053D01*
X150671436Y-123927053D01*
X150731586Y-123925162D01*
X150735545Y-123925100D01*
X150763456Y-123925100D01*
X150767391Y-123924603D01*
X150767456Y-123924595D01*
X150779293Y-123923662D01*
X150811551Y-123922648D01*
X150815570Y-123922522D01*
X150823489Y-123922273D01*
X150842943Y-123916621D01*
X150862300Y-123912613D01*
X150874530Y-123911068D01*
X150874531Y-123911068D01*
X150882397Y-123910074D01*
X150889768Y-123907155D01*
X150889770Y-123907155D01*
X150923512Y-123893796D01*
X150934742Y-123889951D01*
X150969583Y-123879829D01*
X150969584Y-123879829D01*
X150977193Y-123877618D01*
X150984012Y-123873585D01*
X150984017Y-123873583D01*
X150994628Y-123867307D01*
X151012376Y-123858612D01*
X151031217Y-123851152D01*
X151066987Y-123825164D01*
X151076907Y-123818648D01*
X151108135Y-123800180D01*
X151108138Y-123800178D01*
X151114962Y-123796142D01*
X151129283Y-123781821D01*
X151144317Y-123768980D01*
X151154294Y-123761731D01*
X151160707Y-123757072D01*
X151165758Y-123750967D01*
X151165763Y-123750962D01*
X151188899Y-123722996D01*
X151196887Y-123714218D01*
X151812700Y-123098405D01*
X151875012Y-123064379D01*
X151901795Y-123061500D01*
X153895960Y-123061500D01*
X153947014Y-123073758D01*
X153947179Y-123073300D01*
X153951324Y-123074792D01*
X153953164Y-123075234D01*
X153954639Y-123075986D01*
X153954644Y-123075988D01*
X153961704Y-123079585D01*
X153969749Y-123081383D01*
X153992294Y-123088709D01*
X153999855Y-123091981D01*
X154040414Y-123098405D01*
X154055326Y-123100767D01*
X154063101Y-123102251D01*
X154085135Y-123107176D01*
X154117909Y-123114502D01*
X154125832Y-123114253D01*
X154125833Y-123114253D01*
X154125894Y-123114251D01*
X154126144Y-123114243D01*
X154149815Y-123115733D01*
X154150111Y-123115780D01*
X154150114Y-123115780D01*
X154157943Y-123117020D01*
X154165835Y-123116274D01*
X154165836Y-123116274D01*
X154213858Y-123111735D01*
X154221755Y-123111238D01*
X154254972Y-123110193D01*
X154277889Y-123109473D01*
X154285798Y-123107175D01*
X154309094Y-123102732D01*
X154309404Y-123102703D01*
X154309407Y-123102702D01*
X154317292Y-123101957D01*
X154370144Y-123082929D01*
X154377673Y-123080483D01*
X154423981Y-123067030D01*
X154423985Y-123067028D01*
X154431593Y-123064818D01*
X154438416Y-123060783D01*
X154438420Y-123060781D01*
X154438688Y-123060623D01*
X154460132Y-123050533D01*
X154460423Y-123050428D01*
X154460431Y-123050424D01*
X154467889Y-123047739D01*
X154514365Y-123016154D01*
X154520996Y-123011945D01*
X154569362Y-122983342D01*
X154575182Y-122977522D01*
X154593453Y-122962406D01*
X154593710Y-122962231D01*
X154600271Y-122957772D01*
X154637411Y-122915645D01*
X154642830Y-122909874D01*
X155448858Y-122103847D01*
X155457137Y-122096313D01*
X155463618Y-122092200D01*
X155510244Y-122042548D01*
X155512998Y-122039707D01*
X155532735Y-122019970D01*
X155535215Y-122016773D01*
X155542920Y-122007751D01*
X155567759Y-121981300D01*
X155573186Y-121975521D01*
X155577005Y-121968575D01*
X155577007Y-121968572D01*
X155582948Y-121957766D01*
X155593799Y-121941247D01*
X155601358Y-121931501D01*
X155606214Y-121925241D01*
X155609359Y-121917972D01*
X155609362Y-121917968D01*
X155623774Y-121884663D01*
X155628991Y-121874013D01*
X155650295Y-121835260D01*
X155652724Y-121825802D01*
X155655333Y-121815638D01*
X155661737Y-121796934D01*
X155666633Y-121785620D01*
X155666633Y-121785619D01*
X155669781Y-121778345D01*
X155671020Y-121770522D01*
X155671023Y-121770512D01*
X155676699Y-121734676D01*
X155679105Y-121723056D01*
X155688128Y-121687911D01*
X155688128Y-121687910D01*
X155690100Y-121680230D01*
X155690100Y-121659976D01*
X155691651Y-121640265D01*
X155693580Y-121628086D01*
X155694820Y-121620257D01*
X155690659Y-121576238D01*
X155690100Y-121564381D01*
X155690100Y-120583827D01*
X155710102Y-120515706D01*
X155751218Y-120475950D01*
X155754594Y-120474296D01*
X155936460Y-120344573D01*
X156094696Y-120186889D01*
X156125720Y-120143715D01*
X156222035Y-120009677D01*
X156225053Y-120005477D01*
X156227346Y-120000837D01*
X156229046Y-119998008D01*
X156281274Y-119949918D01*
X156337051Y-119936900D01*
X159781206Y-119936900D01*
X159849327Y-119956902D01*
X159870301Y-119973805D01*
X165724995Y-125828500D01*
X165759021Y-125890812D01*
X165761900Y-125917595D01*
X165761900Y-127253806D01*
X165741898Y-127321927D01*
X165708171Y-127357019D01*
X165555611Y-127463843D01*
X165555608Y-127463845D01*
X165551100Y-127467002D01*
X165389202Y-127628900D01*
X165257877Y-127816451D01*
X165255554Y-127821433D01*
X165255551Y-127821438D01*
X165239595Y-127855657D01*
X165192678Y-127908942D01*
X165124401Y-127928403D01*
X165056441Y-127907861D01*
X165011205Y-127855657D01*
X164995249Y-127821438D01*
X164995246Y-127821433D01*
X164992923Y-127816451D01*
X164861598Y-127628900D01*
X164699700Y-127467002D01*
X164695192Y-127463845D01*
X164695189Y-127463843D01*
X164542628Y-127357019D01*
X164512149Y-127335677D01*
X164507167Y-127333354D01*
X164507162Y-127333351D01*
X164309625Y-127241239D01*
X164309624Y-127241239D01*
X164304643Y-127238916D01*
X164299335Y-127237494D01*
X164299333Y-127237493D01*
X164088802Y-127181081D01*
X164088800Y-127181081D01*
X164083487Y-127179657D01*
X163855400Y-127159702D01*
X163627313Y-127179657D01*
X163622000Y-127181081D01*
X163621998Y-127181081D01*
X163411467Y-127237493D01*
X163411465Y-127237494D01*
X163406157Y-127238916D01*
X163401176Y-127241239D01*
X163401175Y-127241239D01*
X163203638Y-127333351D01*
X163203633Y-127333354D01*
X163198651Y-127335677D01*
X163168172Y-127357019D01*
X163015611Y-127463843D01*
X163015608Y-127463845D01*
X163011100Y-127467002D01*
X162849202Y-127628900D01*
X162717877Y-127816451D01*
X162715554Y-127821433D01*
X162715551Y-127821438D01*
X162699595Y-127855657D01*
X162652678Y-127908942D01*
X162584401Y-127928403D01*
X162516441Y-127907861D01*
X162471205Y-127855657D01*
X162455249Y-127821438D01*
X162455246Y-127821433D01*
X162452923Y-127816451D01*
X162321598Y-127628900D01*
X162159700Y-127467002D01*
X162155192Y-127463845D01*
X162155189Y-127463843D01*
X162002628Y-127357019D01*
X161972149Y-127335677D01*
X161967167Y-127333354D01*
X161967162Y-127333351D01*
X161769625Y-127241239D01*
X161769624Y-127241239D01*
X161764643Y-127238916D01*
X161759335Y-127237494D01*
X161759333Y-127237493D01*
X161548802Y-127181081D01*
X161548800Y-127181081D01*
X161543487Y-127179657D01*
X161315400Y-127159702D01*
X161087313Y-127179657D01*
X161082000Y-127181081D01*
X161081998Y-127181081D01*
X160871467Y-127237493D01*
X160871465Y-127237494D01*
X160866157Y-127238916D01*
X160861176Y-127241239D01*
X160861175Y-127241239D01*
X160663638Y-127333351D01*
X160663633Y-127333354D01*
X160658651Y-127335677D01*
X160628172Y-127357019D01*
X160475611Y-127463843D01*
X160475608Y-127463845D01*
X160471100Y-127467002D01*
X160309202Y-127628900D01*
X160177877Y-127816451D01*
X160175554Y-127821433D01*
X160175551Y-127821438D01*
X160159595Y-127855657D01*
X160112678Y-127908942D01*
X160044401Y-127928403D01*
X159976441Y-127907861D01*
X159931205Y-127855657D01*
X159915249Y-127821438D01*
X159915246Y-127821433D01*
X159912923Y-127816451D01*
X159781598Y-127628900D01*
X159619700Y-127467002D01*
X159615192Y-127463845D01*
X159615189Y-127463843D01*
X159462628Y-127357019D01*
X159432149Y-127335677D01*
X159427167Y-127333354D01*
X159427162Y-127333351D01*
X159229625Y-127241239D01*
X159229624Y-127241239D01*
X159224643Y-127238916D01*
X159219335Y-127237494D01*
X159219333Y-127237493D01*
X159008802Y-127181081D01*
X159008800Y-127181081D01*
X159003487Y-127179657D01*
X158775400Y-127159702D01*
X158547313Y-127179657D01*
X158542000Y-127181081D01*
X158541998Y-127181081D01*
X158331467Y-127237493D01*
X158331465Y-127237494D01*
X158326157Y-127238916D01*
X158321176Y-127241239D01*
X158321175Y-127241239D01*
X158123638Y-127333351D01*
X158123633Y-127333354D01*
X158118651Y-127335677D01*
X158088172Y-127357019D01*
X157935611Y-127463843D01*
X157935608Y-127463845D01*
X157931100Y-127467002D01*
X157769202Y-127628900D01*
X157637877Y-127816451D01*
X157635554Y-127821433D01*
X157635551Y-127821438D01*
X157562358Y-127978403D01*
X157541116Y-128023957D01*
X157481857Y-128245113D01*
X157461902Y-128473200D01*
X157481857Y-128701287D01*
X157541116Y-128922443D01*
X157543439Y-128927424D01*
X157543439Y-128927425D01*
X157635551Y-129124962D01*
X157635554Y-129124967D01*
X157637877Y-129129949D01*
X157769202Y-129317500D01*
X157931100Y-129479398D01*
X157935608Y-129482555D01*
X157935611Y-129482557D01*
X158013789Y-129537298D01*
X158118651Y-129610723D01*
X158123633Y-129613046D01*
X158123638Y-129613049D01*
X158312153Y-129700954D01*
X158326157Y-129707484D01*
X158331465Y-129708906D01*
X158331467Y-129708907D01*
X158541998Y-129765319D01*
X158542000Y-129765319D01*
X158547313Y-129766743D01*
X158775400Y-129786698D01*
X159003487Y-129766743D01*
X159008800Y-129765319D01*
X159008802Y-129765319D01*
X159219333Y-129708907D01*
X159219335Y-129708906D01*
X159224643Y-129707484D01*
X159238647Y-129700954D01*
X159427162Y-129613049D01*
X159427167Y-129613046D01*
X159432149Y-129610723D01*
X159537011Y-129537298D01*
X159615189Y-129482557D01*
X159615192Y-129482555D01*
X159619700Y-129479398D01*
X159781598Y-129317500D01*
X159912923Y-129129949D01*
X159915246Y-129124967D01*
X159915249Y-129124962D01*
X159931205Y-129090743D01*
X159978122Y-129037458D01*
X160046399Y-129017997D01*
X160114359Y-129038539D01*
X160159595Y-129090743D01*
X160175551Y-129124962D01*
X160175554Y-129124967D01*
X160177877Y-129129949D01*
X160309202Y-129317500D01*
X160471100Y-129479398D01*
X160475608Y-129482555D01*
X160475611Y-129482557D01*
X160553789Y-129537298D01*
X160658651Y-129610723D01*
X160663633Y-129613046D01*
X160663638Y-129613049D01*
X160852153Y-129700954D01*
X160866157Y-129707484D01*
X160871465Y-129708906D01*
X160871467Y-129708907D01*
X161081998Y-129765319D01*
X161082000Y-129765319D01*
X161087313Y-129766743D01*
X161315400Y-129786698D01*
X161543487Y-129766743D01*
X161548800Y-129765319D01*
X161548802Y-129765319D01*
X161759333Y-129708907D01*
X161759335Y-129708906D01*
X161764643Y-129707484D01*
X161778647Y-129700954D01*
X161967162Y-129613049D01*
X161967167Y-129613046D01*
X161972149Y-129610723D01*
X162077011Y-129537298D01*
X162155189Y-129482557D01*
X162155192Y-129482555D01*
X162159700Y-129479398D01*
X162321598Y-129317500D01*
X162452923Y-129129949D01*
X162455246Y-129124967D01*
X162455249Y-129124962D01*
X162471205Y-129090743D01*
X162518122Y-129037458D01*
X162586399Y-129017997D01*
X162654359Y-129038539D01*
X162699595Y-129090743D01*
X162715551Y-129124962D01*
X162715554Y-129124967D01*
X162717877Y-129129949D01*
X162849202Y-129317500D01*
X163011100Y-129479398D01*
X163015608Y-129482555D01*
X163015611Y-129482557D01*
X163093789Y-129537298D01*
X163198651Y-129610723D01*
X163203633Y-129613046D01*
X163203638Y-129613049D01*
X163392153Y-129700954D01*
X163406157Y-129707484D01*
X163411465Y-129708906D01*
X163411467Y-129708907D01*
X163621998Y-129765319D01*
X163622000Y-129765319D01*
X163627313Y-129766743D01*
X163855400Y-129786698D01*
X164083487Y-129766743D01*
X164088800Y-129765319D01*
X164088802Y-129765319D01*
X164299333Y-129708907D01*
X164299335Y-129708906D01*
X164304643Y-129707484D01*
X164318647Y-129700954D01*
X164507162Y-129613049D01*
X164507167Y-129613046D01*
X164512149Y-129610723D01*
X164617011Y-129537298D01*
X164695189Y-129482557D01*
X164695192Y-129482555D01*
X164699700Y-129479398D01*
X164861598Y-129317500D01*
X164992923Y-129129949D01*
X164995246Y-129124967D01*
X164995249Y-129124962D01*
X165011205Y-129090743D01*
X165058122Y-129037458D01*
X165126399Y-129017997D01*
X165194359Y-129038539D01*
X165239595Y-129090743D01*
X165255551Y-129124962D01*
X165255554Y-129124967D01*
X165257877Y-129129949D01*
X165389202Y-129317500D01*
X165551100Y-129479398D01*
X165555608Y-129482555D01*
X165555611Y-129482557D01*
X165633789Y-129537298D01*
X165738651Y-129610723D01*
X165743633Y-129613046D01*
X165743638Y-129613049D01*
X165932153Y-129700954D01*
X165946157Y-129707484D01*
X165951465Y-129708906D01*
X165951467Y-129708907D01*
X166161998Y-129765319D01*
X166162000Y-129765319D01*
X166167313Y-129766743D01*
X166395400Y-129786698D01*
X166623487Y-129766743D01*
X166628800Y-129765319D01*
X166628802Y-129765319D01*
X166839333Y-129708907D01*
X166839335Y-129708906D01*
X166844643Y-129707484D01*
X166858647Y-129700954D01*
X167047162Y-129613049D01*
X167047167Y-129613046D01*
X167052149Y-129610723D01*
X167157011Y-129537298D01*
X167235189Y-129482557D01*
X167235192Y-129482555D01*
X167239700Y-129479398D01*
X167401598Y-129317500D01*
X167532923Y-129129949D01*
X167535246Y-129124967D01*
X167535249Y-129124962D01*
X167551205Y-129090743D01*
X167598122Y-129037458D01*
X167666399Y-129017997D01*
X167734359Y-129038539D01*
X167779595Y-129090743D01*
X167795551Y-129124962D01*
X167795554Y-129124967D01*
X167797877Y-129129949D01*
X167929202Y-129317500D01*
X168091100Y-129479398D01*
X168095608Y-129482555D01*
X168095611Y-129482557D01*
X168173789Y-129537298D01*
X168278651Y-129610723D01*
X168283633Y-129613046D01*
X168283638Y-129613049D01*
X168472153Y-129700954D01*
X168486157Y-129707484D01*
X168491465Y-129708906D01*
X168491467Y-129708907D01*
X168701998Y-129765319D01*
X168702000Y-129765319D01*
X168707313Y-129766743D01*
X168935400Y-129786698D01*
X169163487Y-129766743D01*
X169168800Y-129765319D01*
X169168802Y-129765319D01*
X169379333Y-129708907D01*
X169379335Y-129708906D01*
X169384643Y-129707484D01*
X169398647Y-129700954D01*
X169587162Y-129613049D01*
X169587167Y-129613046D01*
X169592149Y-129610723D01*
X169697011Y-129537298D01*
X169775189Y-129482557D01*
X169775192Y-129482555D01*
X169779700Y-129479398D01*
X169941598Y-129317500D01*
X170072923Y-129129949D01*
X170075246Y-129124967D01*
X170075249Y-129124962D01*
X170091205Y-129090743D01*
X170138122Y-129037458D01*
X170206399Y-129017997D01*
X170274359Y-129038539D01*
X170319595Y-129090743D01*
X170335551Y-129124962D01*
X170335554Y-129124967D01*
X170337877Y-129129949D01*
X170469202Y-129317500D01*
X170631100Y-129479398D01*
X170635608Y-129482555D01*
X170635611Y-129482557D01*
X170713789Y-129537298D01*
X170818651Y-129610723D01*
X170823633Y-129613046D01*
X170823638Y-129613049D01*
X171012153Y-129700954D01*
X171026157Y-129707484D01*
X171031465Y-129708906D01*
X171031467Y-129708907D01*
X171241998Y-129765319D01*
X171242000Y-129765319D01*
X171247313Y-129766743D01*
X171475400Y-129786698D01*
X171703487Y-129766743D01*
X171708800Y-129765319D01*
X171708802Y-129765319D01*
X171919333Y-129708907D01*
X171919335Y-129708906D01*
X171924643Y-129707484D01*
X171938647Y-129700954D01*
X172127162Y-129613049D01*
X172127167Y-129613046D01*
X172132149Y-129610723D01*
X172237011Y-129537298D01*
X172315189Y-129482557D01*
X172315192Y-129482555D01*
X172319700Y-129479398D01*
X172481598Y-129317500D01*
X172612923Y-129129949D01*
X172615246Y-129124967D01*
X172615249Y-129124962D01*
X172631205Y-129090743D01*
X172678122Y-129037458D01*
X172746399Y-129017997D01*
X172814359Y-129038539D01*
X172859595Y-129090743D01*
X172875551Y-129124962D01*
X172875554Y-129124967D01*
X172877877Y-129129949D01*
X173009202Y-129317500D01*
X173171100Y-129479398D01*
X173175608Y-129482555D01*
X173175611Y-129482557D01*
X173253789Y-129537298D01*
X173358651Y-129610723D01*
X173363633Y-129613046D01*
X173363638Y-129613049D01*
X173552153Y-129700954D01*
X173566157Y-129707484D01*
X173571465Y-129708906D01*
X173571467Y-129708907D01*
X173781998Y-129765319D01*
X173782000Y-129765319D01*
X173787313Y-129766743D01*
X174015400Y-129786698D01*
X174243487Y-129766743D01*
X174248800Y-129765319D01*
X174248802Y-129765319D01*
X174459333Y-129708907D01*
X174459335Y-129708906D01*
X174464643Y-129707484D01*
X174478647Y-129700954D01*
X174667162Y-129613049D01*
X174667167Y-129613046D01*
X174672149Y-129610723D01*
X174777011Y-129537298D01*
X174855189Y-129482557D01*
X174855192Y-129482555D01*
X174859700Y-129479398D01*
X175021598Y-129317500D01*
X175152923Y-129129949D01*
X175155246Y-129124967D01*
X175155249Y-129124962D01*
X175171205Y-129090743D01*
X175218122Y-129037458D01*
X175286399Y-129017997D01*
X175354359Y-129038539D01*
X175399595Y-129090743D01*
X175415551Y-129124962D01*
X175415554Y-129124967D01*
X175417877Y-129129949D01*
X175549202Y-129317500D01*
X175711100Y-129479398D01*
X175715608Y-129482555D01*
X175715611Y-129482557D01*
X175793789Y-129537298D01*
X175898651Y-129610723D01*
X175903633Y-129613046D01*
X175903638Y-129613049D01*
X176092153Y-129700954D01*
X176106157Y-129707484D01*
X176111465Y-129708906D01*
X176111467Y-129708907D01*
X176321998Y-129765319D01*
X176322000Y-129765319D01*
X176327313Y-129766743D01*
X176555400Y-129786698D01*
X176783487Y-129766743D01*
X176788800Y-129765319D01*
X176788802Y-129765319D01*
X176999333Y-129708907D01*
X176999335Y-129708906D01*
X177004643Y-129707484D01*
X177018647Y-129700954D01*
X177207162Y-129613049D01*
X177207167Y-129613046D01*
X177212149Y-129610723D01*
X177317011Y-129537298D01*
X177395189Y-129482557D01*
X177395192Y-129482555D01*
X177399700Y-129479398D01*
X177561598Y-129317500D01*
X177692923Y-129129949D01*
X177695246Y-129124967D01*
X177695249Y-129124962D01*
X177787361Y-128927425D01*
X177787361Y-128927424D01*
X177789684Y-128922443D01*
X177848943Y-128701287D01*
X177868898Y-128473200D01*
X177848943Y-128245113D01*
X177789684Y-128023957D01*
X177768442Y-127978403D01*
X177695249Y-127821438D01*
X177695246Y-127821433D01*
X177692923Y-127816451D01*
X177561598Y-127628900D01*
X177399700Y-127467002D01*
X177395192Y-127463845D01*
X177395189Y-127463843D01*
X177242628Y-127357019D01*
X177212149Y-127335677D01*
X177207167Y-127333354D01*
X177207162Y-127333351D01*
X177009625Y-127241239D01*
X177009624Y-127241239D01*
X177004643Y-127238916D01*
X176999335Y-127237494D01*
X176999333Y-127237493D01*
X176788802Y-127181081D01*
X176788800Y-127181081D01*
X176783487Y-127179657D01*
X176555400Y-127159702D01*
X176327313Y-127179657D01*
X176322000Y-127181081D01*
X176321998Y-127181081D01*
X176111467Y-127237493D01*
X176111465Y-127237494D01*
X176106157Y-127238916D01*
X176101176Y-127241239D01*
X176101175Y-127241239D01*
X175903638Y-127333351D01*
X175903633Y-127333354D01*
X175898651Y-127335677D01*
X175868172Y-127357019D01*
X175715611Y-127463843D01*
X175715608Y-127463845D01*
X175711100Y-127467002D01*
X175549202Y-127628900D01*
X175417877Y-127816451D01*
X175415554Y-127821433D01*
X175415551Y-127821438D01*
X175399595Y-127855657D01*
X175352678Y-127908942D01*
X175284401Y-127928403D01*
X175216441Y-127907861D01*
X175171205Y-127855657D01*
X175155249Y-127821438D01*
X175155246Y-127821433D01*
X175152923Y-127816451D01*
X175021598Y-127628900D01*
X174859700Y-127467002D01*
X174855192Y-127463845D01*
X174855189Y-127463843D01*
X174702628Y-127357019D01*
X174672149Y-127335677D01*
X174667167Y-127333354D01*
X174667162Y-127333351D01*
X174469625Y-127241239D01*
X174469624Y-127241239D01*
X174464643Y-127238916D01*
X174459335Y-127237494D01*
X174459333Y-127237493D01*
X174248802Y-127181081D01*
X174248800Y-127181081D01*
X174243487Y-127179657D01*
X174015400Y-127159702D01*
X173787313Y-127179657D01*
X173782000Y-127181081D01*
X173781998Y-127181081D01*
X173571467Y-127237493D01*
X173571465Y-127237494D01*
X173566157Y-127238916D01*
X173561176Y-127241239D01*
X173561175Y-127241239D01*
X173363638Y-127333351D01*
X173363633Y-127333354D01*
X173358651Y-127335677D01*
X173328172Y-127357019D01*
X173175611Y-127463843D01*
X173175608Y-127463845D01*
X173171100Y-127467002D01*
X173009202Y-127628900D01*
X172877877Y-127816451D01*
X172875554Y-127821433D01*
X172875551Y-127821438D01*
X172859595Y-127855657D01*
X172812678Y-127908942D01*
X172744401Y-127928403D01*
X172676441Y-127907861D01*
X172631205Y-127855657D01*
X172615249Y-127821438D01*
X172615246Y-127821433D01*
X172612923Y-127816451D01*
X172481598Y-127628900D01*
X172319700Y-127467002D01*
X172315192Y-127463845D01*
X172315189Y-127463843D01*
X172160185Y-127355308D01*
X172115857Y-127299851D01*
X172106518Y-127256057D01*
X172106323Y-127249867D01*
X172106074Y-127241941D01*
X172100421Y-127222482D01*
X172096412Y-127203123D01*
X172096028Y-127200084D01*
X172093874Y-127183033D01*
X172090958Y-127175667D01*
X172090956Y-127175661D01*
X172077600Y-127141928D01*
X172073755Y-127130698D01*
X172063630Y-127095847D01*
X172063630Y-127095846D01*
X172061419Y-127088237D01*
X172051105Y-127070796D01*
X172042408Y-127053043D01*
X172037872Y-127041588D01*
X172034952Y-127034213D01*
X172008963Y-126998442D01*
X172002447Y-126988522D01*
X171983978Y-126957293D01*
X171979942Y-126950468D01*
X171965621Y-126936147D01*
X171952780Y-126921113D01*
X171945531Y-126911136D01*
X171940872Y-126904723D01*
X171906795Y-126876532D01*
X171898016Y-126868542D01*
X167294405Y-122264930D01*
X167260379Y-122202618D01*
X167257500Y-122175835D01*
X167257500Y-121869200D01*
X167793296Y-121869200D01*
X167793986Y-121875765D01*
X167806687Y-121996604D01*
X167813258Y-122059128D01*
X167872273Y-122240756D01*
X167967760Y-122406144D01*
X168095547Y-122548066D01*
X168169911Y-122602095D01*
X168243033Y-122655221D01*
X168250048Y-122660318D01*
X168256076Y-122663002D01*
X168256078Y-122663003D01*
X168408987Y-122731082D01*
X168424512Y-122737994D01*
X168517913Y-122757847D01*
X168604856Y-122776328D01*
X168604861Y-122776328D01*
X168611313Y-122777700D01*
X168802287Y-122777700D01*
X168808739Y-122776328D01*
X168808744Y-122776328D01*
X168895687Y-122757847D01*
X168989088Y-122737994D01*
X169004613Y-122731082D01*
X169157522Y-122663003D01*
X169157524Y-122663002D01*
X169163552Y-122660318D01*
X169170568Y-122655221D01*
X169296471Y-122563746D01*
X169318053Y-122548066D01*
X169322468Y-122543163D01*
X169327380Y-122538740D01*
X169328505Y-122539989D01*
X169381814Y-122507149D01*
X169415000Y-122502700D01*
X173612448Y-122502700D01*
X173680569Y-122522702D01*
X173727062Y-122576358D01*
X173737166Y-122646632D01*
X173730430Y-122672929D01*
X173708629Y-122731082D01*
X173708627Y-122731088D01*
X173705855Y-122738484D01*
X173699100Y-122800666D01*
X173699100Y-123497300D01*
X173679098Y-123565421D01*
X173625442Y-123611914D01*
X173573100Y-123623300D01*
X173228194Y-123623300D01*
X173160073Y-123603298D01*
X173124981Y-123569571D01*
X173018157Y-123417011D01*
X173018155Y-123417008D01*
X173014998Y-123412500D01*
X172853100Y-123250602D01*
X172848592Y-123247445D01*
X172848589Y-123247443D01*
X172722720Y-123159309D01*
X172665549Y-123119277D01*
X172660567Y-123116954D01*
X172660562Y-123116951D01*
X172463025Y-123024839D01*
X172463024Y-123024839D01*
X172458043Y-123022516D01*
X172452735Y-123021094D01*
X172452733Y-123021093D01*
X172242202Y-122964681D01*
X172242200Y-122964681D01*
X172236887Y-122963257D01*
X172008800Y-122943302D01*
X171780713Y-122963257D01*
X171775400Y-122964681D01*
X171775398Y-122964681D01*
X171564867Y-123021093D01*
X171564865Y-123021094D01*
X171559557Y-123022516D01*
X171554576Y-123024839D01*
X171554575Y-123024839D01*
X171357038Y-123116951D01*
X171357033Y-123116954D01*
X171352051Y-123119277D01*
X171294880Y-123159309D01*
X171169011Y-123247443D01*
X171169008Y-123247445D01*
X171164500Y-123250602D01*
X171002602Y-123412500D01*
X170871277Y-123600051D01*
X170868954Y-123605033D01*
X170868951Y-123605038D01*
X170791955Y-123770159D01*
X170774516Y-123807557D01*
X170773094Y-123812865D01*
X170773093Y-123812867D01*
X170742497Y-123927053D01*
X170715257Y-124028713D01*
X170695302Y-124256800D01*
X170715257Y-124484887D01*
X170716681Y-124490200D01*
X170716681Y-124490202D01*
X170762342Y-124660608D01*
X170774516Y-124706043D01*
X170776839Y-124711024D01*
X170776839Y-124711025D01*
X170868951Y-124908562D01*
X170868954Y-124908567D01*
X170871277Y-124913549D01*
X170910112Y-124969011D01*
X170997651Y-125094029D01*
X171002602Y-125101100D01*
X171164500Y-125262998D01*
X171169008Y-125266155D01*
X171169011Y-125266157D01*
X171201586Y-125288966D01*
X171352051Y-125394323D01*
X171357033Y-125396646D01*
X171357038Y-125396649D01*
X171502107Y-125464295D01*
X171559557Y-125491084D01*
X171564865Y-125492506D01*
X171564867Y-125492507D01*
X171775398Y-125548919D01*
X171775400Y-125548919D01*
X171780713Y-125550343D01*
X172008800Y-125570298D01*
X172236887Y-125550343D01*
X172242200Y-125548919D01*
X172242202Y-125548919D01*
X172452733Y-125492507D01*
X172452735Y-125492506D01*
X172458043Y-125491084D01*
X172515493Y-125464295D01*
X172660562Y-125396649D01*
X172660567Y-125396646D01*
X172665549Y-125394323D01*
X172816014Y-125288966D01*
X172848589Y-125266157D01*
X172848592Y-125266155D01*
X172853100Y-125262998D01*
X173014998Y-125101100D01*
X173018157Y-125096589D01*
X173124981Y-124944029D01*
X173180438Y-124899701D01*
X173228194Y-124890300D01*
X173690057Y-124890300D01*
X173758178Y-124910302D01*
X173790883Y-124940735D01*
X173844339Y-125012061D01*
X173960895Y-125099415D01*
X174097284Y-125150545D01*
X174159466Y-125157300D01*
X176055734Y-125157300D01*
X176117916Y-125150545D01*
X176254305Y-125099415D01*
X176370861Y-125012061D01*
X176458215Y-124895505D01*
X176482780Y-124829978D01*
X176525422Y-124773214D01*
X176591983Y-124748514D01*
X176661332Y-124763721D01*
X176681247Y-124777264D01*
X176746324Y-124831292D01*
X176836949Y-124906530D01*
X177036922Y-125023384D01*
X177253294Y-125106009D01*
X177258360Y-125107040D01*
X177258361Y-125107040D01*
X177311446Y-125117840D01*
X177480256Y-125152185D01*
X177609689Y-125156931D01*
X177706549Y-125160483D01*
X177706553Y-125160483D01*
X177711713Y-125160672D01*
X177716833Y-125160016D01*
X177716835Y-125160016D01*
X177790766Y-125150545D01*
X177941447Y-125131242D01*
X177946395Y-125129757D01*
X177946402Y-125129756D01*
X178158347Y-125066169D01*
X178163290Y-125064686D01*
X178243836Y-125025227D01*
X178366649Y-124965062D01*
X178366652Y-124965060D01*
X178371284Y-124962791D01*
X178559843Y-124828294D01*
X178723903Y-124664805D01*
X178859058Y-124476717D01*
X178961678Y-124269080D01*
X179029008Y-124047471D01*
X179059240Y-123817841D01*
X179060120Y-123781821D01*
X179060845Y-123752165D01*
X179060845Y-123752161D01*
X179060927Y-123748800D01*
X179046192Y-123569571D01*
X179042373Y-123523118D01*
X179042372Y-123523112D01*
X179041949Y-123517967D01*
X178985525Y-123293333D01*
X178983466Y-123288597D01*
X178895230Y-123085668D01*
X178895228Y-123085665D01*
X178893170Y-123080931D01*
X178767364Y-122886465D01*
X178611487Y-122715158D01*
X178607436Y-122711959D01*
X178607432Y-122711955D01*
X178433777Y-122574811D01*
X178433772Y-122574808D01*
X178429723Y-122571610D01*
X178425207Y-122569117D01*
X178425204Y-122569115D01*
X178231479Y-122462173D01*
X178231475Y-122462171D01*
X178226955Y-122459676D01*
X178222086Y-122457952D01*
X178222082Y-122457950D01*
X178013503Y-122384088D01*
X178013499Y-122384087D01*
X178008628Y-122382362D01*
X178003535Y-122381455D01*
X178003532Y-122381454D01*
X177785695Y-122342651D01*
X177785689Y-122342650D01*
X177780606Y-122341745D01*
X177707696Y-122340854D01*
X177554181Y-122338979D01*
X177554179Y-122338979D01*
X177549011Y-122338916D01*
X177320064Y-122373950D01*
X177279485Y-122387213D01*
X177208522Y-122389363D01*
X177151247Y-122356542D01*
X176271652Y-121476947D01*
X176264112Y-121468661D01*
X176260000Y-121462182D01*
X176210348Y-121415556D01*
X176207507Y-121412802D01*
X176187770Y-121393065D01*
X176184573Y-121390585D01*
X176175551Y-121382880D01*
X176149100Y-121358041D01*
X176143321Y-121352614D01*
X176136375Y-121348795D01*
X176136372Y-121348793D01*
X176125566Y-121342852D01*
X176109047Y-121332001D01*
X176103048Y-121327348D01*
X176093041Y-121319586D01*
X176085772Y-121316441D01*
X176085768Y-121316438D01*
X176052463Y-121302026D01*
X176041813Y-121296809D01*
X176003060Y-121275505D01*
X175983437Y-121270467D01*
X175964734Y-121264063D01*
X175953420Y-121259167D01*
X175953419Y-121259167D01*
X175946145Y-121256019D01*
X175938322Y-121254780D01*
X175938312Y-121254777D01*
X175902476Y-121249101D01*
X175890856Y-121246695D01*
X175855711Y-121237672D01*
X175855710Y-121237672D01*
X175848030Y-121235700D01*
X175827776Y-121235700D01*
X175808065Y-121234149D01*
X175795886Y-121232220D01*
X175788057Y-121230980D01*
X175780165Y-121231726D01*
X175744039Y-121235141D01*
X175732181Y-121235700D01*
X169415000Y-121235700D01*
X169346879Y-121215698D01*
X169327653Y-121199357D01*
X169327380Y-121199660D01*
X169322468Y-121195237D01*
X169318053Y-121190334D01*
X169163552Y-121078082D01*
X169157524Y-121075398D01*
X169157522Y-121075397D01*
X168995119Y-121003091D01*
X168995118Y-121003091D01*
X168989088Y-121000406D01*
X168895688Y-120980553D01*
X168808744Y-120962072D01*
X168808739Y-120962072D01*
X168802287Y-120960700D01*
X168611313Y-120960700D01*
X168604861Y-120962072D01*
X168604856Y-120962072D01*
X168517912Y-120980553D01*
X168424512Y-121000406D01*
X168418482Y-121003091D01*
X168418481Y-121003091D01*
X168256078Y-121075397D01*
X168256076Y-121075398D01*
X168250048Y-121078082D01*
X168095547Y-121190334D01*
X168091126Y-121195244D01*
X168091125Y-121195245D01*
X167982003Y-121316438D01*
X167967760Y-121332256D01*
X167872273Y-121497644D01*
X167813258Y-121679272D01*
X167812568Y-121685833D01*
X167812568Y-121685835D01*
X167797453Y-121829646D01*
X167793296Y-121869200D01*
X167257500Y-121869200D01*
X167257500Y-117967394D01*
X167277502Y-117899273D01*
X167294405Y-117878299D01*
X167844499Y-117328205D01*
X167906811Y-117294179D01*
X167933594Y-117291300D01*
X167989487Y-117291300D01*
X167995939Y-117289928D01*
X167995944Y-117289928D01*
X168082887Y-117271447D01*
X168176288Y-117251594D01*
X168182319Y-117248909D01*
X168344722Y-117176603D01*
X168344724Y-117176602D01*
X168350752Y-117173918D01*
X168368808Y-117160800D01*
X168492059Y-117071252D01*
X168505253Y-117061666D01*
X168523273Y-117041653D01*
X168628621Y-116924652D01*
X168628622Y-116924651D01*
X168633040Y-116919744D01*
X168728527Y-116754356D01*
X168787542Y-116572728D01*
X168807504Y-116382800D01*
X168787542Y-116192872D01*
X168728527Y-116011244D01*
X168633040Y-115845856D01*
X168607380Y-115817357D01*
X168509675Y-115708845D01*
X168509674Y-115708844D01*
X168505253Y-115703934D01*
X168350752Y-115591682D01*
X168344724Y-115588998D01*
X168344722Y-115588997D01*
X168182319Y-115516691D01*
X168182318Y-115516691D01*
X168176288Y-115514006D01*
X168082887Y-115494153D01*
X167995944Y-115475672D01*
X167995939Y-115475672D01*
X167989487Y-115474300D01*
X167798513Y-115474300D01*
X167792061Y-115475672D01*
X167792056Y-115475672D01*
X167705113Y-115494153D01*
X167611712Y-115514006D01*
X167605682Y-115516691D01*
X167605681Y-115516691D01*
X167443278Y-115588997D01*
X167443276Y-115588998D01*
X167437248Y-115591682D01*
X167282747Y-115703934D01*
X167278326Y-115708844D01*
X167278325Y-115708845D01*
X167180621Y-115817357D01*
X167154960Y-115845856D01*
X167059473Y-116011244D01*
X167000458Y-116192872D01*
X166999768Y-116199433D01*
X166999768Y-116199435D01*
X166983093Y-116358092D01*
X166956080Y-116423749D01*
X166946878Y-116434017D01*
X166231747Y-117149148D01*
X166223461Y-117156688D01*
X166216982Y-117160800D01*
X166211557Y-117166577D01*
X166170357Y-117210451D01*
X166167602Y-117213293D01*
X166147865Y-117233030D01*
X166145385Y-117236227D01*
X166137682Y-117245247D01*
X166107414Y-117277479D01*
X166103595Y-117284425D01*
X166103593Y-117284428D01*
X166097652Y-117295234D01*
X166086801Y-117311753D01*
X166074386Y-117327759D01*
X166071241Y-117335028D01*
X166071238Y-117335032D01*
X166056826Y-117368337D01*
X166051609Y-117378987D01*
X166030305Y-117417740D01*
X166028334Y-117425415D01*
X166028334Y-117425416D01*
X166025267Y-117437362D01*
X166018863Y-117456066D01*
X166016348Y-117461879D01*
X166010819Y-117474655D01*
X166009580Y-117482478D01*
X166009577Y-117482488D01*
X166003901Y-117518324D01*
X166001495Y-117529944D01*
X165990500Y-117572770D01*
X165990500Y-117593024D01*
X165988949Y-117612734D01*
X165985780Y-117632743D01*
X165986526Y-117640635D01*
X165989941Y-117676761D01*
X165990500Y-117688619D01*
X165990500Y-121788206D01*
X165970498Y-121856327D01*
X165916842Y-121902820D01*
X165846568Y-121912924D01*
X165781988Y-121883430D01*
X165775405Y-121877301D01*
X160974389Y-117076284D01*
X156016805Y-112118700D01*
X155982779Y-112056388D01*
X155979900Y-112029605D01*
X155979900Y-103083627D01*
X155999902Y-103015506D01*
X156041018Y-102975750D01*
X156044394Y-102974096D01*
X156226260Y-102844373D01*
X156384496Y-102686689D01*
X156514853Y-102505277D01*
X156516176Y-102506228D01*
X156563045Y-102463057D01*
X156632980Y-102450825D01*
X156698426Y-102478344D01*
X156726275Y-102510194D01*
X156786387Y-102608288D01*
X156932650Y-102777138D01*
X157104526Y-102919832D01*
X157297400Y-103032538D01*
X157302225Y-103034380D01*
X157302226Y-103034381D01*
X157323789Y-103042615D01*
X157506092Y-103112230D01*
X157511160Y-103113261D01*
X157511163Y-103113262D01*
X157618417Y-103135083D01*
X157724997Y-103156767D01*
X157730172Y-103156957D01*
X157730174Y-103156957D01*
X157943073Y-103164764D01*
X157943077Y-103164764D01*
X157948237Y-103164953D01*
X157953357Y-103164297D01*
X157953359Y-103164297D01*
X158164688Y-103137225D01*
X158164689Y-103137225D01*
X158169816Y-103136568D01*
X158174766Y-103135083D01*
X158378829Y-103073861D01*
X158378834Y-103073859D01*
X158383784Y-103072374D01*
X158584394Y-102974096D01*
X158766260Y-102844373D01*
X158924496Y-102686689D01*
X159054853Y-102505277D01*
X159056176Y-102506228D01*
X159103045Y-102463057D01*
X159172980Y-102450825D01*
X159238426Y-102478344D01*
X159266275Y-102510194D01*
X159326387Y-102608288D01*
X159472650Y-102777138D01*
X159644526Y-102919832D01*
X159837400Y-103032538D01*
X159842225Y-103034380D01*
X159842226Y-103034381D01*
X159863789Y-103042615D01*
X160046092Y-103112230D01*
X160051160Y-103113261D01*
X160051163Y-103113262D01*
X160158417Y-103135083D01*
X160264997Y-103156767D01*
X160270172Y-103156957D01*
X160270174Y-103156957D01*
X160483073Y-103164764D01*
X160483077Y-103164764D01*
X160488237Y-103164953D01*
X160493357Y-103164297D01*
X160493359Y-103164297D01*
X160704688Y-103137225D01*
X160704689Y-103137225D01*
X160709816Y-103136568D01*
X160714766Y-103135083D01*
X160918829Y-103073861D01*
X160918834Y-103073859D01*
X160923784Y-103072374D01*
X161124394Y-102974096D01*
X161306260Y-102844373D01*
X161464496Y-102686689D01*
X161594853Y-102505277D01*
X161615720Y-102463057D01*
X161691536Y-102309653D01*
X161691537Y-102309651D01*
X161693830Y-102305011D01*
X161738547Y-102157831D01*
X161757265Y-102096223D01*
X161757265Y-102096221D01*
X161758770Y-102091269D01*
X161787929Y-101869790D01*
X161789556Y-101803200D01*
X161771252Y-101580561D01*
X161716831Y-101363902D01*
X161627754Y-101159040D01*
X161506414Y-100971477D01*
X161356070Y-100806251D01*
X161352019Y-100803052D01*
X161352015Y-100803048D01*
X161184814Y-100671000D01*
X161184810Y-100670998D01*
X161180759Y-100667798D01*
X161169262Y-100661451D01*
X161064609Y-100603680D01*
X160985189Y-100559838D01*
X160980320Y-100558114D01*
X160980316Y-100558112D01*
X160779487Y-100486995D01*
X160779483Y-100486994D01*
X160774612Y-100485269D01*
X160769519Y-100484362D01*
X160769516Y-100484361D01*
X160559773Y-100447000D01*
X160559767Y-100446999D01*
X160554684Y-100446094D01*
X160481509Y-100445200D01*
X160336482Y-100443428D01*
X160336480Y-100443428D01*
X160331311Y-100443365D01*
X160307556Y-100447000D01*
X160227785Y-100459206D01*
X160157423Y-100449738D01*
X160119632Y-100423751D01*
X156025205Y-96329324D01*
X155991179Y-96267012D01*
X155988300Y-96240229D01*
X155988300Y-90702232D01*
X156008302Y-90634111D01*
X156041131Y-90599654D01*
X156109660Y-90550773D01*
X156217891Y-90442919D01*
X156280262Y-90409004D01*
X156351068Y-90414192D01*
X156407830Y-90456838D01*
X156424812Y-90487941D01*
X156469185Y-90606305D01*
X156556539Y-90722861D01*
X156673095Y-90810215D01*
X156809484Y-90861345D01*
X156871666Y-90868100D01*
X156885300Y-90868100D01*
X156953421Y-90888102D01*
X156999914Y-90941758D01*
X157011300Y-90994100D01*
X157011300Y-94558330D01*
X157009867Y-94577280D01*
X157006601Y-94598749D01*
X157007194Y-94606041D01*
X157007194Y-94606044D01*
X157010885Y-94651418D01*
X157011300Y-94661633D01*
X157011300Y-94669693D01*
X157011725Y-94673337D01*
X157014589Y-94697907D01*
X157015022Y-94702282D01*
X157020940Y-94775037D01*
X157023196Y-94782001D01*
X157024387Y-94787960D01*
X157025771Y-94793815D01*
X157026618Y-94801081D01*
X157051535Y-94869727D01*
X157052952Y-94873855D01*
X157075449Y-94943299D01*
X157079245Y-94949554D01*
X157081751Y-94955028D01*
X157084470Y-94960458D01*
X157086967Y-94967337D01*
X157090980Y-94973457D01*
X157090980Y-94973458D01*
X157126986Y-95028376D01*
X157129323Y-95032080D01*
X157167205Y-95094507D01*
X157170921Y-95098715D01*
X157170922Y-95098716D01*
X157174603Y-95102884D01*
X157174576Y-95102908D01*
X157177229Y-95105900D01*
X157179932Y-95109133D01*
X157183944Y-95115252D01*
X157189256Y-95120284D01*
X157240183Y-95168528D01*
X157242625Y-95170906D01*
X160096630Y-98024911D01*
X160109016Y-98039323D01*
X160117549Y-98050918D01*
X160117554Y-98050923D01*
X160121892Y-98056818D01*
X160127470Y-98061557D01*
X160127473Y-98061560D01*
X160162168Y-98091035D01*
X160169684Y-98097965D01*
X160175379Y-98103660D01*
X160178261Y-98105940D01*
X160197651Y-98121281D01*
X160201055Y-98124072D01*
X160251103Y-98166591D01*
X160256685Y-98171333D01*
X160263201Y-98174661D01*
X160268250Y-98178028D01*
X160273379Y-98181195D01*
X160279116Y-98185734D01*
X160345275Y-98216655D01*
X160349169Y-98218558D01*
X160414208Y-98251769D01*
X160421316Y-98253508D01*
X160426959Y-98255607D01*
X160432722Y-98257524D01*
X160439350Y-98260622D01*
X160446512Y-98262112D01*
X160446513Y-98262112D01*
X160510812Y-98275486D01*
X160515096Y-98276456D01*
X160586010Y-98293808D01*
X160591612Y-98294156D01*
X160591615Y-98294156D01*
X160597164Y-98294500D01*
X160597162Y-98294536D01*
X160601155Y-98294775D01*
X160605347Y-98295149D01*
X160612515Y-98296640D01*
X160689920Y-98294546D01*
X160693328Y-98294500D01*
X162193629Y-98294500D01*
X162261750Y-98314502D01*
X162282724Y-98331405D01*
X164863395Y-100912076D01*
X164897421Y-100974388D01*
X164900300Y-101001171D01*
X164900300Y-108904429D01*
X164880298Y-108972550D01*
X164863395Y-108993524D01*
X163797124Y-110059795D01*
X163734812Y-110093821D01*
X163708029Y-110096700D01*
X162576266Y-110096700D01*
X162514084Y-110103455D01*
X162377695Y-110154585D01*
X162261139Y-110241939D01*
X162173785Y-110358495D01*
X162122655Y-110494884D01*
X162115900Y-110557066D01*
X162115900Y-112353334D01*
X162122655Y-112415516D01*
X162173785Y-112551905D01*
X162261139Y-112668461D01*
X162377695Y-112755815D01*
X162386104Y-112758967D01*
X162386105Y-112758968D01*
X162494851Y-112799735D01*
X162551616Y-112842376D01*
X162576316Y-112908938D01*
X162561109Y-112978287D01*
X162541716Y-113004768D01*
X162415029Y-113137338D01*
X162412115Y-113141610D01*
X162412114Y-113141611D01*
X162360893Y-113216698D01*
X162289143Y-113321880D01*
X162278195Y-113345466D01*
X162203544Y-113506289D01*
X162195088Y-113524505D01*
X162135389Y-113739770D01*
X162111651Y-113961895D01*
X162111948Y-113967048D01*
X162111948Y-113967051D01*
X162123637Y-114169780D01*
X162124510Y-114184915D01*
X162125647Y-114189961D01*
X162125648Y-114189967D01*
X162144111Y-114271892D01*
X162173622Y-114402839D01*
X162203473Y-114476354D01*
X162243366Y-114574598D01*
X162257666Y-114609816D01*
X162374387Y-114800288D01*
X162520650Y-114969138D01*
X162692526Y-115111832D01*
X162697614Y-115114805D01*
X162765845Y-115154676D01*
X162814569Y-115206314D01*
X162827640Y-115276097D01*
X162800909Y-115341869D01*
X162760455Y-115375227D01*
X162748007Y-115381707D01*
X162743874Y-115384810D01*
X162743871Y-115384812D01*
X162573628Y-115512634D01*
X162569365Y-115515835D01*
X162415029Y-115677338D01*
X162289143Y-115861880D01*
X162273403Y-115895790D01*
X162205403Y-116042284D01*
X162195088Y-116064505D01*
X162135389Y-116279770D01*
X162111651Y-116501895D01*
X162111948Y-116507048D01*
X162111948Y-116507051D01*
X162117411Y-116601790D01*
X162124510Y-116724915D01*
X162125647Y-116729961D01*
X162125648Y-116729967D01*
X162144111Y-116811892D01*
X162173622Y-116942839D01*
X162257666Y-117149816D01*
X162272436Y-117173918D01*
X162366983Y-117328205D01*
X162374387Y-117340288D01*
X162520650Y-117509138D01*
X162692526Y-117651832D01*
X162885400Y-117764538D01*
X163094092Y-117844230D01*
X163099160Y-117845261D01*
X163099163Y-117845262D01*
X163185066Y-117862739D01*
X163312997Y-117888767D01*
X163318172Y-117888957D01*
X163318174Y-117888957D01*
X163531073Y-117896764D01*
X163531077Y-117896764D01*
X163536237Y-117896953D01*
X163541357Y-117896297D01*
X163541359Y-117896297D01*
X163752688Y-117869225D01*
X163752689Y-117869225D01*
X163757816Y-117868568D01*
X163774935Y-117863432D01*
X163966829Y-117805861D01*
X163966834Y-117805859D01*
X163971784Y-117804374D01*
X164172394Y-117706096D01*
X164354260Y-117576373D01*
X164512496Y-117418689D01*
X164526237Y-117399567D01*
X164639835Y-117241477D01*
X164642853Y-117237277D01*
X164655406Y-117211879D01*
X164739536Y-117041653D01*
X164739537Y-117041651D01*
X164741830Y-117037011D01*
X164806770Y-116823269D01*
X164835929Y-116601790D01*
X164836639Y-116572728D01*
X164837474Y-116538565D01*
X164837474Y-116538561D01*
X164837556Y-116535200D01*
X164819252Y-116312561D01*
X164764831Y-116095902D01*
X164675754Y-115891040D01*
X164623522Y-115810301D01*
X164557222Y-115707817D01*
X164557220Y-115707814D01*
X164554414Y-115703477D01*
X164404070Y-115538251D01*
X164400019Y-115535052D01*
X164400015Y-115535048D01*
X164232814Y-115403000D01*
X164232810Y-115402998D01*
X164228759Y-115399798D01*
X164187453Y-115376996D01*
X164137484Y-115326564D01*
X164122712Y-115257121D01*
X164147828Y-115190716D01*
X164175180Y-115164109D01*
X164244302Y-115114805D01*
X164354260Y-115036373D01*
X164512496Y-114878689D01*
X164564603Y-114806174D01*
X164620598Y-114762526D01*
X164666926Y-114753700D01*
X168137229Y-114753700D01*
X168205350Y-114773702D01*
X168226324Y-114790605D01*
X170835286Y-117399567D01*
X170869312Y-117461879D01*
X170871982Y-117481409D01*
X170874781Y-117529944D01*
X170881710Y-117650115D01*
X170882847Y-117655161D01*
X170882848Y-117655167D01*
X170904842Y-117752757D01*
X170930822Y-117868039D01*
X170967736Y-117958948D01*
X171012471Y-118069117D01*
X171014866Y-118075016D01*
X171044175Y-118122844D01*
X171128125Y-118259838D01*
X171131587Y-118265488D01*
X171277850Y-118434338D01*
X171449726Y-118577032D01*
X171642600Y-118689738D01*
X171647425Y-118691580D01*
X171647426Y-118691581D01*
X171675237Y-118702201D01*
X171851292Y-118769430D01*
X171856360Y-118770461D01*
X171856363Y-118770462D01*
X171963411Y-118792241D01*
X172070197Y-118813967D01*
X172075372Y-118814157D01*
X172075374Y-118814157D01*
X172288273Y-118821964D01*
X172288277Y-118821964D01*
X172293437Y-118822153D01*
X172298557Y-118821497D01*
X172298559Y-118821497D01*
X172509888Y-118794425D01*
X172509889Y-118794425D01*
X172515016Y-118793768D01*
X172570733Y-118777052D01*
X172724029Y-118731061D01*
X172724034Y-118731059D01*
X172728984Y-118729574D01*
X172929594Y-118631296D01*
X173111460Y-118501573D01*
X173137106Y-118476017D01*
X173266035Y-118347537D01*
X173269696Y-118343889D01*
X173327343Y-118263665D01*
X173397035Y-118166677D01*
X173400053Y-118162477D01*
X173406266Y-118149907D01*
X173496736Y-117966853D01*
X173496737Y-117966851D01*
X173499030Y-117962211D01*
X173534562Y-117845262D01*
X173562465Y-117753423D01*
X173562465Y-117753421D01*
X173563970Y-117748469D01*
X173593129Y-117526990D01*
X173593661Y-117505231D01*
X173594674Y-117463765D01*
X173594674Y-117463761D01*
X173594756Y-117460400D01*
X173576452Y-117237761D01*
X173522031Y-117021102D01*
X173432954Y-116816240D01*
X173377834Y-116731037D01*
X173314422Y-116633017D01*
X173314420Y-116633014D01*
X173311614Y-116628677D01*
X173161270Y-116463451D01*
X173157219Y-116460252D01*
X173157215Y-116460248D01*
X172990014Y-116328200D01*
X172990010Y-116328198D01*
X172985959Y-116324998D01*
X172944653Y-116302196D01*
X172894684Y-116251764D01*
X172879912Y-116182321D01*
X172905028Y-116115916D01*
X172932380Y-116089309D01*
X173041823Y-116011244D01*
X173111460Y-115961573D01*
X173269696Y-115803889D01*
X173400053Y-115622477D01*
X173439793Y-115542070D01*
X173496736Y-115426853D01*
X173496737Y-115426851D01*
X173499030Y-115422211D01*
X173531500Y-115315340D01*
X173562465Y-115213423D01*
X173562465Y-115213421D01*
X173563970Y-115208469D01*
X173593129Y-114986990D01*
X173594756Y-114920400D01*
X173576452Y-114697761D01*
X173522031Y-114481102D01*
X173432954Y-114276240D01*
X173379477Y-114193577D01*
X173314422Y-114093017D01*
X173314420Y-114093014D01*
X173311614Y-114088677D01*
X173161270Y-113923451D01*
X173157219Y-113920252D01*
X173157215Y-113920248D01*
X172990014Y-113788200D01*
X172990010Y-113788198D01*
X172985959Y-113784998D01*
X172944653Y-113762196D01*
X172894684Y-113711764D01*
X172879912Y-113642321D01*
X172905028Y-113575916D01*
X172932380Y-113549309D01*
X172992692Y-113506289D01*
X173111460Y-113421573D01*
X173269696Y-113263889D01*
X173329194Y-113181089D01*
X173397035Y-113086677D01*
X173400053Y-113082477D01*
X173452759Y-112975835D01*
X173496736Y-112886853D01*
X173496737Y-112886851D01*
X173499030Y-112882211D01*
X173556702Y-112692392D01*
X173562465Y-112673423D01*
X173562465Y-112673421D01*
X173563970Y-112668469D01*
X173593129Y-112446990D01*
X173593211Y-112443640D01*
X173594674Y-112383765D01*
X173594674Y-112383761D01*
X173594756Y-112380400D01*
X173576452Y-112157761D01*
X173522031Y-111941102D01*
X173432954Y-111736240D01*
X173311614Y-111548677D01*
X173308140Y-111544859D01*
X173308133Y-111544850D01*
X173164035Y-111386488D01*
X173132983Y-111322642D01*
X173141379Y-111252144D01*
X173186556Y-111197376D01*
X173213000Y-111183707D01*
X173319652Y-111143725D01*
X173335249Y-111135186D01*
X173437324Y-111058685D01*
X173449885Y-111046124D01*
X173526386Y-110944049D01*
X173534924Y-110928454D01*
X173580078Y-110808006D01*
X173583705Y-110792751D01*
X173589231Y-110741886D01*
X173589600Y-110735072D01*
X173589600Y-110112515D01*
X173585125Y-110097276D01*
X173583735Y-110096071D01*
X173576052Y-110094400D01*
X170891716Y-110094400D01*
X170876477Y-110098875D01*
X170875272Y-110100265D01*
X170873601Y-110107948D01*
X170873601Y-110735069D01*
X170873971Y-110741890D01*
X170879495Y-110792752D01*
X170883121Y-110808004D01*
X170928276Y-110928454D01*
X170936814Y-110944049D01*
X171013315Y-111046124D01*
X171025876Y-111058685D01*
X171127951Y-111135186D01*
X171143546Y-111143724D01*
X171252427Y-111184542D01*
X171309191Y-111227184D01*
X171333891Y-111293745D01*
X171318683Y-111363094D01*
X171299291Y-111389575D01*
X171175800Y-111518801D01*
X171172229Y-111522538D01*
X171046343Y-111707080D01*
X170952288Y-111909705D01*
X170892589Y-112124970D01*
X170868851Y-112347095D01*
X170869148Y-112352248D01*
X170869148Y-112352251D01*
X170874611Y-112446990D01*
X170881710Y-112570115D01*
X170882847Y-112575161D01*
X170882848Y-112575167D01*
X170903875Y-112668469D01*
X170930822Y-112788039D01*
X171014866Y-112995016D01*
X171017565Y-112999420D01*
X171127698Y-113179141D01*
X171131587Y-113185488D01*
X171277850Y-113354338D01*
X171449726Y-113497032D01*
X171520195Y-113538211D01*
X171523045Y-113539876D01*
X171571769Y-113591514D01*
X171584840Y-113661297D01*
X171558109Y-113727069D01*
X171517655Y-113760427D01*
X171505207Y-113766907D01*
X171501074Y-113770010D01*
X171501071Y-113770012D01*
X171330700Y-113897930D01*
X171326565Y-113901035D01*
X171172229Y-114062538D01*
X171169315Y-114066810D01*
X171169314Y-114066811D01*
X171092274Y-114179747D01*
X171046343Y-114247080D01*
X171006987Y-114331865D01*
X170968051Y-114415747D01*
X170952288Y-114449705D01*
X170892589Y-114664970D01*
X170868851Y-114887095D01*
X170873582Y-114969138D01*
X170874324Y-114982009D01*
X170858277Y-115051168D01*
X170807386Y-115100672D01*
X170737811Y-115114805D01*
X170671639Y-115089079D01*
X170659438Y-115078357D01*
X169087370Y-113506289D01*
X169074984Y-113491877D01*
X169066451Y-113480282D01*
X169066446Y-113480277D01*
X169062108Y-113474382D01*
X169056530Y-113469643D01*
X169056527Y-113469640D01*
X169021832Y-113440165D01*
X169014316Y-113433235D01*
X169008621Y-113427540D01*
X168996473Y-113417929D01*
X168986349Y-113409919D01*
X168982945Y-113407128D01*
X168932897Y-113364609D01*
X168932895Y-113364608D01*
X168927315Y-113359867D01*
X168920799Y-113356539D01*
X168915750Y-113353172D01*
X168910621Y-113350005D01*
X168904884Y-113345466D01*
X168838725Y-113314545D01*
X168834825Y-113312639D01*
X168769792Y-113279431D01*
X168762684Y-113277692D01*
X168757041Y-113275593D01*
X168751278Y-113273676D01*
X168744650Y-113270578D01*
X168673183Y-113255713D01*
X168668899Y-113254743D01*
X168597990Y-113237392D01*
X168592388Y-113237044D01*
X168592385Y-113237044D01*
X168586836Y-113236700D01*
X168586838Y-113236664D01*
X168582845Y-113236425D01*
X168578653Y-113236051D01*
X168571485Y-113234560D01*
X168505275Y-113236351D01*
X168494079Y-113236654D01*
X168490672Y-113236700D01*
X164670339Y-113236700D01*
X164602218Y-113216698D01*
X164564547Y-113179141D01*
X164557218Y-113167812D01*
X164554414Y-113163477D01*
X164550932Y-113159650D01*
X164407198Y-113001688D01*
X164376146Y-112937842D01*
X164384541Y-112867343D01*
X164429717Y-112812575D01*
X164456161Y-112798906D01*
X164562697Y-112758967D01*
X164571105Y-112755815D01*
X164687661Y-112668461D01*
X164775015Y-112551905D01*
X164826145Y-112415516D01*
X164832900Y-112353334D01*
X164832900Y-111221571D01*
X164852902Y-111153450D01*
X164869805Y-111132476D01*
X166147711Y-109854570D01*
X166162123Y-109842184D01*
X166173718Y-109833651D01*
X166173723Y-109833646D01*
X166179618Y-109829308D01*
X166184357Y-109823730D01*
X166184360Y-109823727D01*
X166213835Y-109789032D01*
X166220765Y-109781516D01*
X166226460Y-109775821D01*
X166244081Y-109753549D01*
X166246872Y-109750145D01*
X166289391Y-109700097D01*
X166289392Y-109700095D01*
X166294133Y-109694515D01*
X166297461Y-109687999D01*
X166300828Y-109682950D01*
X166303995Y-109677821D01*
X166308534Y-109672084D01*
X166339455Y-109605925D01*
X166341361Y-109602025D01*
X166344945Y-109595006D01*
X166358590Y-109568285D01*
X170873600Y-109568285D01*
X170878075Y-109583524D01*
X170879465Y-109584729D01*
X170887148Y-109586400D01*
X171959485Y-109586400D01*
X171974724Y-109581925D01*
X171975929Y-109580535D01*
X171977600Y-109572852D01*
X171977600Y-109568285D01*
X172485600Y-109568285D01*
X172490075Y-109583524D01*
X172491465Y-109584729D01*
X172499148Y-109586400D01*
X173571484Y-109586400D01*
X173586723Y-109581925D01*
X173587928Y-109580535D01*
X173589599Y-109572852D01*
X173589599Y-108945731D01*
X173589229Y-108938910D01*
X173583705Y-108888048D01*
X173580079Y-108872796D01*
X173534924Y-108752346D01*
X173526386Y-108736751D01*
X173449885Y-108634676D01*
X173437324Y-108622115D01*
X173335249Y-108545614D01*
X173319654Y-108537076D01*
X173199206Y-108491922D01*
X173183951Y-108488295D01*
X173133086Y-108482769D01*
X173126272Y-108482400D01*
X172503715Y-108482400D01*
X172488476Y-108486875D01*
X172487271Y-108488265D01*
X172485600Y-108495948D01*
X172485600Y-109568285D01*
X171977600Y-109568285D01*
X171977600Y-108500516D01*
X171973125Y-108485277D01*
X171971735Y-108484072D01*
X171964052Y-108482401D01*
X171336931Y-108482401D01*
X171330110Y-108482771D01*
X171279248Y-108488295D01*
X171263996Y-108491921D01*
X171143546Y-108537076D01*
X171127951Y-108545614D01*
X171025876Y-108622115D01*
X171013315Y-108634676D01*
X170936814Y-108736751D01*
X170928276Y-108752346D01*
X170883122Y-108872794D01*
X170879495Y-108888049D01*
X170873969Y-108938914D01*
X170873600Y-108945728D01*
X170873600Y-109568285D01*
X166358590Y-109568285D01*
X166374569Y-109536992D01*
X166376308Y-109529884D01*
X166378407Y-109524241D01*
X166380324Y-109518478D01*
X166383422Y-109511850D01*
X166398287Y-109440383D01*
X166399257Y-109436099D01*
X166415273Y-109370645D01*
X166416608Y-109365190D01*
X166417300Y-109354036D01*
X166417336Y-109354038D01*
X166417575Y-109350045D01*
X166417949Y-109345853D01*
X166419440Y-109338685D01*
X166417346Y-109261279D01*
X166417300Y-109257872D01*
X166417300Y-106394462D01*
X169204493Y-106394462D01*
X169213789Y-106406477D01*
X169264994Y-106442331D01*
X169274489Y-106447814D01*
X169471947Y-106539890D01*
X169482239Y-106543636D01*
X169692688Y-106600025D01*
X169703481Y-106601928D01*
X169920525Y-106620917D01*
X169931475Y-106620917D01*
X170148519Y-106601928D01*
X170159312Y-106600025D01*
X170369761Y-106543636D01*
X170380053Y-106539890D01*
X170577511Y-106447814D01*
X170587006Y-106442331D01*
X170639048Y-106405891D01*
X170647424Y-106395412D01*
X170640356Y-106381966D01*
X169938812Y-105680422D01*
X169924868Y-105672808D01*
X169923035Y-105672939D01*
X169916420Y-105677190D01*
X169210923Y-106382687D01*
X169204493Y-106394462D01*
X166417300Y-106394462D01*
X166417300Y-105313875D01*
X168613483Y-105313875D01*
X168632472Y-105530919D01*
X168634375Y-105541712D01*
X168690764Y-105752161D01*
X168694510Y-105762453D01*
X168786586Y-105959911D01*
X168792069Y-105969406D01*
X168828509Y-106021448D01*
X168838988Y-106029824D01*
X168852434Y-106022756D01*
X169553978Y-105321212D01*
X169560356Y-105309532D01*
X170290408Y-105309532D01*
X170290539Y-105311365D01*
X170294790Y-105317980D01*
X171000287Y-106023477D01*
X171012062Y-106029907D01*
X171024077Y-106020611D01*
X171059931Y-105969406D01*
X171065414Y-105959911D01*
X171157490Y-105762453D01*
X171161236Y-105752161D01*
X171217625Y-105541712D01*
X171219528Y-105530919D01*
X171238517Y-105313875D01*
X171238517Y-105302925D01*
X171219528Y-105085881D01*
X171217625Y-105075088D01*
X171161236Y-104864639D01*
X171157490Y-104854347D01*
X171065414Y-104656889D01*
X171059931Y-104647394D01*
X171023491Y-104595352D01*
X171013012Y-104586976D01*
X170999566Y-104594044D01*
X170298022Y-105295588D01*
X170290408Y-105309532D01*
X169560356Y-105309532D01*
X169561592Y-105307268D01*
X169561461Y-105305435D01*
X169557210Y-105298820D01*
X168851713Y-104593323D01*
X168839938Y-104586893D01*
X168827923Y-104596189D01*
X168792069Y-104647394D01*
X168786586Y-104656889D01*
X168694510Y-104854347D01*
X168690764Y-104864639D01*
X168634375Y-105075088D01*
X168632472Y-105085881D01*
X168613483Y-105302925D01*
X168613483Y-105313875D01*
X166417300Y-105313875D01*
X166417300Y-104221388D01*
X169204576Y-104221388D01*
X169211644Y-104234834D01*
X169913188Y-104936378D01*
X169927132Y-104943992D01*
X169928965Y-104943861D01*
X169935580Y-104939610D01*
X170641077Y-104234113D01*
X170647507Y-104222338D01*
X170638211Y-104210323D01*
X170587006Y-104174469D01*
X170577511Y-104168986D01*
X170380053Y-104076910D01*
X170369761Y-104073164D01*
X170159312Y-104016775D01*
X170148519Y-104014872D01*
X169931475Y-103995883D01*
X169920525Y-103995883D01*
X169703481Y-104014872D01*
X169692688Y-104016775D01*
X169482239Y-104073164D01*
X169471947Y-104076910D01*
X169274489Y-104168986D01*
X169264994Y-104174469D01*
X169212952Y-104210909D01*
X169204576Y-104221388D01*
X166417300Y-104221388D01*
X166417300Y-100701870D01*
X166418733Y-100682920D01*
X166420899Y-100668685D01*
X166420899Y-100668681D01*
X166421999Y-100661451D01*
X166421297Y-100652812D01*
X166417715Y-100608782D01*
X166417300Y-100598567D01*
X166417300Y-100590507D01*
X166414011Y-100562293D01*
X166413578Y-100557918D01*
X166408254Y-100492461D01*
X166408253Y-100492458D01*
X166407660Y-100485163D01*
X166405404Y-100478199D01*
X166404213Y-100472240D01*
X166402829Y-100466385D01*
X166401982Y-100459119D01*
X166377065Y-100390473D01*
X166375648Y-100386345D01*
X166355407Y-100323864D01*
X166355406Y-100323862D01*
X166353151Y-100316901D01*
X166349355Y-100310646D01*
X166346849Y-100305172D01*
X166344130Y-100299742D01*
X166341633Y-100292863D01*
X166301614Y-100231824D01*
X166299267Y-100228105D01*
X166261395Y-100165693D01*
X166253997Y-100157316D01*
X166254024Y-100157292D01*
X166251371Y-100154300D01*
X166248668Y-100151067D01*
X166244656Y-100144948D01*
X166188417Y-100091672D01*
X166185975Y-100089294D01*
X164664950Y-98568269D01*
X174664895Y-98568269D01*
X174678227Y-98799497D01*
X174679364Y-98804543D01*
X174679365Y-98804549D01*
X174711541Y-98947323D01*
X174729146Y-99025442D01*
X174731088Y-99030224D01*
X174731089Y-99030228D01*
X174788544Y-99171722D01*
X174816284Y-99240037D01*
X174937301Y-99437519D01*
X175088947Y-99612584D01*
X175221716Y-99722811D01*
X175262859Y-99756968D01*
X175267149Y-99760530D01*
X175467122Y-99877384D01*
X175683494Y-99960009D01*
X175688560Y-99961040D01*
X175688561Y-99961040D01*
X175700618Y-99963493D01*
X175910456Y-100006185D01*
X176039889Y-100010931D01*
X176136749Y-100014483D01*
X176136753Y-100014483D01*
X176141913Y-100014672D01*
X176147033Y-100014016D01*
X176147035Y-100014016D01*
X176220966Y-100004545D01*
X176371647Y-99985242D01*
X176376595Y-99983757D01*
X176376602Y-99983756D01*
X176588547Y-99920169D01*
X176593490Y-99918686D01*
X176598124Y-99916416D01*
X176796849Y-99819062D01*
X176796852Y-99819060D01*
X176801484Y-99816791D01*
X176990043Y-99682294D01*
X177035109Y-99637385D01*
X177097481Y-99603469D01*
X177168287Y-99608657D01*
X177225049Y-99651303D01*
X177242031Y-99682407D01*
X177258983Y-99727625D01*
X177267185Y-99749505D01*
X177354539Y-99866061D01*
X177471095Y-99953415D01*
X177607484Y-100004545D01*
X177669666Y-100011300D01*
X179078206Y-100011300D01*
X179146327Y-100031302D01*
X179167301Y-100048205D01*
X179415595Y-100296499D01*
X179449621Y-100358811D01*
X179452500Y-100385594D01*
X179452500Y-104089006D01*
X179432498Y-104157127D01*
X179398771Y-104192219D01*
X179246211Y-104299043D01*
X179246208Y-104299045D01*
X179241700Y-104302202D01*
X179079802Y-104464100D01*
X178948477Y-104651651D01*
X178946154Y-104656633D01*
X178946151Y-104656638D01*
X178946034Y-104656889D01*
X178851716Y-104859157D01*
X178850294Y-104864465D01*
X178850293Y-104864467D01*
X178829019Y-104943861D01*
X178792457Y-105080313D01*
X178772502Y-105308400D01*
X178792457Y-105536487D01*
X178793881Y-105541800D01*
X178793881Y-105541802D01*
X178831025Y-105680422D01*
X178851716Y-105757643D01*
X178854039Y-105762624D01*
X178854039Y-105762625D01*
X178946151Y-105960162D01*
X178946154Y-105960167D01*
X178948477Y-105965149D01*
X179079802Y-106152700D01*
X179241700Y-106314598D01*
X179246208Y-106317755D01*
X179246211Y-106317757D01*
X179324389Y-106372498D01*
X179429251Y-106445923D01*
X179434233Y-106448246D01*
X179434238Y-106448249D01*
X179630765Y-106539890D01*
X179636757Y-106542684D01*
X179642065Y-106544106D01*
X179642067Y-106544107D01*
X179852598Y-106600519D01*
X179852600Y-106600519D01*
X179857913Y-106601943D01*
X180086000Y-106621898D01*
X180314087Y-106601943D01*
X180319400Y-106600519D01*
X180319402Y-106600519D01*
X180529933Y-106544107D01*
X180529935Y-106544106D01*
X180535243Y-106542684D01*
X180541235Y-106539890D01*
X180737762Y-106448249D01*
X180737767Y-106448246D01*
X180742749Y-106445923D01*
X180847611Y-106372498D01*
X180925789Y-106317757D01*
X180925792Y-106317755D01*
X180930300Y-106314598D01*
X181092198Y-106152700D01*
X181223523Y-105965149D01*
X181225846Y-105960167D01*
X181225849Y-105960162D01*
X181317961Y-105762625D01*
X181317961Y-105762624D01*
X181320284Y-105757643D01*
X181340976Y-105680422D01*
X181378119Y-105541802D01*
X181378119Y-105541800D01*
X181379543Y-105536487D01*
X181399498Y-105308400D01*
X181379543Y-105080313D01*
X181342981Y-104943861D01*
X181321707Y-104864467D01*
X181321706Y-104864465D01*
X181320284Y-104859157D01*
X181225966Y-104656889D01*
X181225849Y-104656638D01*
X181225846Y-104656633D01*
X181223523Y-104651651D01*
X181092198Y-104464100D01*
X180930300Y-104302202D01*
X180925792Y-104299045D01*
X180925789Y-104299043D01*
X180773229Y-104192219D01*
X180728901Y-104136762D01*
X180719500Y-104089006D01*
X180719500Y-100149763D01*
X180720027Y-100138579D01*
X180721701Y-100131091D01*
X180719562Y-100063032D01*
X180719500Y-100059075D01*
X180719500Y-100031144D01*
X180718994Y-100027138D01*
X180718061Y-100015292D01*
X180717724Y-100004545D01*
X180716673Y-99971110D01*
X180711022Y-99951658D01*
X180707014Y-99932306D01*
X180705467Y-99920063D01*
X180704474Y-99912203D01*
X180701556Y-99904832D01*
X180688200Y-99871097D01*
X180684355Y-99859870D01*
X180683721Y-99857687D01*
X180672018Y-99817407D01*
X180667984Y-99810585D01*
X180667981Y-99810579D01*
X180661706Y-99799968D01*
X180653010Y-99782218D01*
X180648472Y-99770756D01*
X180648469Y-99770751D01*
X180645552Y-99763383D01*
X180619573Y-99727625D01*
X180613057Y-99717707D01*
X180594575Y-99686457D01*
X180590542Y-99679637D01*
X180576218Y-99665313D01*
X180563376Y-99650278D01*
X180551472Y-99633893D01*
X180517406Y-99605711D01*
X180508627Y-99597722D01*
X180063205Y-99152300D01*
X180029179Y-99089988D01*
X180026300Y-99063205D01*
X180026300Y-97654666D01*
X180019545Y-97592484D01*
X179968415Y-97456095D01*
X179881061Y-97339539D01*
X179764505Y-97252185D01*
X179628116Y-97201055D01*
X179565934Y-97194300D01*
X177669666Y-97194300D01*
X177607484Y-97201055D01*
X177471095Y-97252185D01*
X177354539Y-97339539D01*
X177267185Y-97456095D01*
X177264033Y-97464503D01*
X177264032Y-97464505D01*
X177243338Y-97519706D01*
X177200697Y-97576471D01*
X177134135Y-97601171D01*
X177064786Y-97585964D01*
X177041967Y-97569466D01*
X177041687Y-97569158D01*
X176909173Y-97464505D01*
X176863977Y-97428811D01*
X176863972Y-97428808D01*
X176859923Y-97425610D01*
X176855407Y-97423117D01*
X176855404Y-97423115D01*
X176661679Y-97316173D01*
X176661675Y-97316171D01*
X176657155Y-97313676D01*
X176652286Y-97311952D01*
X176652282Y-97311950D01*
X176443703Y-97238088D01*
X176443699Y-97238087D01*
X176438828Y-97236362D01*
X176433735Y-97235455D01*
X176433732Y-97235454D01*
X176215895Y-97196651D01*
X176215889Y-97196650D01*
X176210806Y-97195745D01*
X176137896Y-97194854D01*
X175984381Y-97192979D01*
X175984379Y-97192979D01*
X175979211Y-97192916D01*
X175750264Y-97227950D01*
X175530114Y-97299906D01*
X175525526Y-97302294D01*
X175525522Y-97302296D01*
X175329261Y-97404463D01*
X175324672Y-97406852D01*
X175320539Y-97409955D01*
X175320536Y-97409957D01*
X175143590Y-97542812D01*
X175139455Y-97545917D01*
X174979439Y-97713364D01*
X174848919Y-97904699D01*
X174751402Y-98114781D01*
X174689507Y-98337969D01*
X174664895Y-98568269D01*
X164664950Y-98568269D01*
X163143770Y-97047089D01*
X163131384Y-97032677D01*
X163122851Y-97021082D01*
X163122846Y-97021077D01*
X163118508Y-97015182D01*
X163112930Y-97010443D01*
X163112927Y-97010440D01*
X163078232Y-96980965D01*
X163070716Y-96974035D01*
X163065021Y-96968340D01*
X163058880Y-96963482D01*
X163042749Y-96950719D01*
X163039345Y-96947928D01*
X162989297Y-96905409D01*
X162989295Y-96905408D01*
X162983715Y-96900667D01*
X162977199Y-96897339D01*
X162972150Y-96893972D01*
X162967021Y-96890805D01*
X162961284Y-96886266D01*
X162895125Y-96855345D01*
X162891225Y-96853439D01*
X162886241Y-96850894D01*
X162826192Y-96820231D01*
X162819084Y-96818492D01*
X162813441Y-96816393D01*
X162807678Y-96814476D01*
X162801050Y-96811378D01*
X162729583Y-96796513D01*
X162725299Y-96795543D01*
X162654390Y-96778192D01*
X162648788Y-96777844D01*
X162648785Y-96777844D01*
X162643236Y-96777500D01*
X162643238Y-96777464D01*
X162639245Y-96777225D01*
X162635053Y-96776851D01*
X162627885Y-96775360D01*
X162561675Y-96777151D01*
X162550479Y-96777454D01*
X162547072Y-96777500D01*
X161046771Y-96777500D01*
X160978650Y-96757498D01*
X160957676Y-96740595D01*
X158565205Y-94348124D01*
X158531179Y-94285812D01*
X158528300Y-94259029D01*
X158528300Y-90994100D01*
X158548302Y-90925979D01*
X158601958Y-90879486D01*
X158654300Y-90868100D01*
X158667934Y-90868100D01*
X158730116Y-90861345D01*
X158866505Y-90810215D01*
X158983061Y-90722861D01*
X159070415Y-90606305D01*
X159121545Y-90469916D01*
X159128300Y-90407734D01*
X159128300Y-90394100D01*
X159148302Y-90325979D01*
X159201958Y-90279486D01*
X159254300Y-90268100D01*
X161019730Y-90268100D01*
X161038680Y-90269533D01*
X161052915Y-90271699D01*
X161052919Y-90271699D01*
X161060149Y-90272799D01*
X161067441Y-90272206D01*
X161067444Y-90272206D01*
X161112818Y-90268515D01*
X161123033Y-90268100D01*
X161131093Y-90268100D01*
X161144383Y-90266551D01*
X161159307Y-90264811D01*
X161163682Y-90264378D01*
X161229139Y-90259054D01*
X161229142Y-90259053D01*
X161236437Y-90258460D01*
X161243401Y-90256204D01*
X161249360Y-90255013D01*
X161255215Y-90253629D01*
X161262481Y-90252782D01*
X161331127Y-90227865D01*
X161335255Y-90226448D01*
X161397736Y-90206207D01*
X161397738Y-90206206D01*
X161404699Y-90203951D01*
X161410954Y-90200155D01*
X161416428Y-90197649D01*
X161421858Y-90194930D01*
X161428737Y-90192433D01*
X161489776Y-90152414D01*
X161493480Y-90150077D01*
X161555907Y-90112195D01*
X161564284Y-90104797D01*
X161564308Y-90104824D01*
X161567300Y-90102171D01*
X161570533Y-90099468D01*
X161576652Y-90095456D01*
X161629928Y-90039217D01*
X161632306Y-90036775D01*
X163904076Y-87765005D01*
X163966388Y-87730979D01*
X163993171Y-87728100D01*
X165037900Y-87728100D01*
X165106021Y-87748102D01*
X165152514Y-87801758D01*
X165163900Y-87854100D01*
X165163900Y-87867734D01*
X165170655Y-87929916D01*
X165221785Y-88066305D01*
X165309139Y-88182861D01*
X165425695Y-88270215D01*
X165434104Y-88273367D01*
X165434105Y-88273368D01*
X165542851Y-88314135D01*
X165599616Y-88356776D01*
X165624316Y-88423338D01*
X165609109Y-88492687D01*
X165589716Y-88519168D01*
X165523680Y-88588271D01*
X165463029Y-88651738D01*
X165460120Y-88656003D01*
X165460114Y-88656011D01*
X165432005Y-88697217D01*
X165337143Y-88836280D01*
X165243088Y-89038905D01*
X165183389Y-89254170D01*
X165159651Y-89476295D01*
X165159948Y-89481448D01*
X165159948Y-89481451D01*
X165166276Y-89591190D01*
X165172510Y-89699315D01*
X165173647Y-89704361D01*
X165173648Y-89704367D01*
X165196900Y-89807539D01*
X165221622Y-89917239D01*
X165271152Y-90039217D01*
X165299276Y-90108478D01*
X165305666Y-90124216D01*
X165343085Y-90185278D01*
X165419691Y-90310288D01*
X165422387Y-90314688D01*
X165568650Y-90483538D01*
X165740526Y-90626232D01*
X165759532Y-90637338D01*
X165813845Y-90669076D01*
X165862569Y-90720714D01*
X165875640Y-90790497D01*
X165848909Y-90856269D01*
X165808455Y-90889627D01*
X165796007Y-90896107D01*
X165791874Y-90899210D01*
X165791871Y-90899212D01*
X165621500Y-91027130D01*
X165617365Y-91030235D01*
X165463029Y-91191738D01*
X165337143Y-91376280D01*
X165243088Y-91578905D01*
X165183389Y-91794170D01*
X165159651Y-92016295D01*
X165159948Y-92021448D01*
X165159948Y-92021451D01*
X165168621Y-92171861D01*
X165172510Y-92239315D01*
X165173647Y-92244361D01*
X165173648Y-92244367D01*
X165193519Y-92332539D01*
X165221622Y-92457239D01*
X165305666Y-92664216D01*
X165308365Y-92668620D01*
X165416341Y-92844821D01*
X165422387Y-92854688D01*
X165568650Y-93023538D01*
X165740526Y-93166232D01*
X165933400Y-93278938D01*
X166142092Y-93358630D01*
X166147160Y-93359661D01*
X166147163Y-93359662D01*
X166220891Y-93374662D01*
X166360997Y-93403167D01*
X166366172Y-93403357D01*
X166366174Y-93403357D01*
X166579073Y-93411164D01*
X166579077Y-93411164D01*
X166584237Y-93411353D01*
X166589357Y-93410697D01*
X166589359Y-93410697D01*
X166800688Y-93383625D01*
X166800689Y-93383625D01*
X166805816Y-93382968D01*
X166810766Y-93381483D01*
X167014829Y-93320261D01*
X167014834Y-93320259D01*
X167019784Y-93318774D01*
X167220394Y-93220496D01*
X167402260Y-93090773D01*
X167472633Y-93020646D01*
X167556835Y-92936737D01*
X167560496Y-92933089D01*
X167619994Y-92850289D01*
X167687835Y-92755877D01*
X167690853Y-92751677D01*
X167780123Y-92571053D01*
X167787536Y-92556053D01*
X167787537Y-92556051D01*
X167789830Y-92551411D01*
X167841828Y-92380267D01*
X167853265Y-92342623D01*
X167853265Y-92342621D01*
X167854770Y-92337669D01*
X167883929Y-92116190D01*
X167884733Y-92083279D01*
X167885474Y-92052965D01*
X167885474Y-92052961D01*
X167885556Y-92049600D01*
X167867252Y-91826961D01*
X167812831Y-91610302D01*
X167723754Y-91405440D01*
X167602414Y-91217877D01*
X167452070Y-91052651D01*
X167448019Y-91049452D01*
X167448015Y-91049448D01*
X167280814Y-90917400D01*
X167280810Y-90917398D01*
X167276759Y-90914198D01*
X167235453Y-90891396D01*
X167185484Y-90840964D01*
X167170712Y-90771521D01*
X167195828Y-90705116D01*
X167223180Y-90678509D01*
X167285424Y-90634111D01*
X167402260Y-90550773D01*
X167560496Y-90393089D01*
X167612603Y-90320574D01*
X167668598Y-90276926D01*
X167714926Y-90268100D01*
X170972482Y-90268100D01*
X171040603Y-90288102D01*
X171073792Y-90322010D01*
X171075029Y-90321105D01*
X171078091Y-90325289D01*
X171080787Y-90329688D01*
X171227050Y-90498538D01*
X171398926Y-90641232D01*
X171460978Y-90677492D01*
X171472245Y-90684076D01*
X171520969Y-90735714D01*
X171534040Y-90805497D01*
X171507309Y-90871269D01*
X171466855Y-90904627D01*
X171454407Y-90911107D01*
X171450274Y-90914210D01*
X171450271Y-90914212D01*
X171279900Y-91042130D01*
X171275765Y-91045235D01*
X171210146Y-91113901D01*
X171139335Y-91188001D01*
X171121429Y-91206738D01*
X171118515Y-91211010D01*
X171118514Y-91211011D01*
X171060484Y-91296080D01*
X170995543Y-91391280D01*
X170979803Y-91425190D01*
X170906134Y-91583897D01*
X170901488Y-91593905D01*
X170841789Y-91809170D01*
X170818051Y-92031295D01*
X170818348Y-92036448D01*
X170818348Y-92036451D01*
X170829747Y-92234147D01*
X170830910Y-92254315D01*
X170832047Y-92259361D01*
X170832048Y-92259367D01*
X170842265Y-92304701D01*
X170880022Y-92472239D01*
X170964066Y-92679216D01*
X170966765Y-92683620D01*
X171065549Y-92844821D01*
X171080787Y-92869688D01*
X171227050Y-93038538D01*
X171398926Y-93181232D01*
X171591800Y-93293938D01*
X171800492Y-93373630D01*
X171805560Y-93374661D01*
X171805563Y-93374662D01*
X171904766Y-93394845D01*
X172019397Y-93418167D01*
X172024572Y-93418357D01*
X172024574Y-93418357D01*
X172237473Y-93426164D01*
X172237477Y-93426164D01*
X172242637Y-93426353D01*
X172247757Y-93425697D01*
X172247759Y-93425697D01*
X172459088Y-93398625D01*
X172459089Y-93398625D01*
X172464216Y-93397968D01*
X172469166Y-93396483D01*
X172673229Y-93335261D01*
X172673234Y-93335259D01*
X172678184Y-93333774D01*
X172878794Y-93235496D01*
X173060660Y-93105773D01*
X173218896Y-92948089D01*
X173232691Y-92928892D01*
X173346235Y-92770877D01*
X173349253Y-92766677D01*
X173356667Y-92751677D01*
X173445936Y-92571053D01*
X173445937Y-92571051D01*
X173448230Y-92566411D01*
X173513170Y-92352669D01*
X173542329Y-92131190D01*
X173542411Y-92127840D01*
X173543874Y-92067965D01*
X173543874Y-92067961D01*
X173543956Y-92064600D01*
X173525652Y-91841961D01*
X173471231Y-91625302D01*
X173382154Y-91420440D01*
X173260814Y-91232877D01*
X173110470Y-91067651D01*
X173106419Y-91064452D01*
X173106415Y-91064448D01*
X172939214Y-90932400D01*
X172939210Y-90932398D01*
X172935159Y-90929198D01*
X172893853Y-90906396D01*
X172843884Y-90855964D01*
X172829112Y-90786521D01*
X172854228Y-90720116D01*
X172881580Y-90693509D01*
X172925403Y-90662250D01*
X173060660Y-90565773D01*
X173218896Y-90408089D01*
X173232691Y-90388892D01*
X173346235Y-90230877D01*
X173349253Y-90226677D01*
X173354237Y-90216594D01*
X173445936Y-90031053D01*
X173445937Y-90031051D01*
X173448230Y-90026411D01*
X173513170Y-89812669D01*
X173542329Y-89591190D01*
X173543801Y-89530935D01*
X173543874Y-89527965D01*
X173543874Y-89527961D01*
X173543956Y-89524600D01*
X173525652Y-89301961D01*
X173471231Y-89085302D01*
X173382154Y-88880440D01*
X173296618Y-88748221D01*
X173263622Y-88697217D01*
X173263620Y-88697214D01*
X173260814Y-88692877D01*
X173257340Y-88689059D01*
X173257333Y-88689050D01*
X173113235Y-88530688D01*
X173082183Y-88466842D01*
X173090579Y-88396344D01*
X173135756Y-88341576D01*
X173162200Y-88327907D01*
X173268852Y-88287925D01*
X173284449Y-88279386D01*
X173386524Y-88202885D01*
X173399085Y-88190324D01*
X173475586Y-88088249D01*
X173484124Y-88072654D01*
X173529278Y-87952206D01*
X173532905Y-87936951D01*
X173538431Y-87886086D01*
X173538800Y-87879272D01*
X173538800Y-87256715D01*
X173534325Y-87241476D01*
X173532935Y-87240271D01*
X173525252Y-87238600D01*
X170840916Y-87238600D01*
X170825677Y-87243075D01*
X170824472Y-87244465D01*
X170822801Y-87252148D01*
X170822801Y-87879269D01*
X170823171Y-87886090D01*
X170828695Y-87936952D01*
X170832321Y-87952204D01*
X170877476Y-88072654D01*
X170886014Y-88088249D01*
X170962515Y-88190324D01*
X170975076Y-88202885D01*
X171077151Y-88279386D01*
X171092746Y-88287924D01*
X171201627Y-88328742D01*
X171258391Y-88371384D01*
X171283091Y-88437945D01*
X171267883Y-88507294D01*
X171248491Y-88533775D01*
X171131680Y-88656011D01*
X171121429Y-88666738D01*
X171101395Y-88696106D01*
X171046486Y-88741107D01*
X170997309Y-88751100D01*
X167718339Y-88751100D01*
X167650218Y-88731098D01*
X167612547Y-88693541D01*
X167612118Y-88692877D01*
X167602414Y-88677877D01*
X167596159Y-88671003D01*
X167455198Y-88516088D01*
X167424146Y-88452242D01*
X167432541Y-88381743D01*
X167477717Y-88326975D01*
X167504161Y-88313306D01*
X167610697Y-88273367D01*
X167619105Y-88270215D01*
X167735661Y-88182861D01*
X167823015Y-88066305D01*
X167874145Y-87929916D01*
X167880900Y-87867734D01*
X167880900Y-86712485D01*
X170822800Y-86712485D01*
X170827275Y-86727724D01*
X170828665Y-86728929D01*
X170836348Y-86730600D01*
X171908685Y-86730600D01*
X171923924Y-86726125D01*
X171925129Y-86724735D01*
X171926800Y-86717052D01*
X171926800Y-86712485D01*
X172434800Y-86712485D01*
X172439275Y-86727724D01*
X172440665Y-86728929D01*
X172448348Y-86730600D01*
X173520684Y-86730600D01*
X173535923Y-86726125D01*
X173537128Y-86724735D01*
X173538799Y-86717052D01*
X173538799Y-86089931D01*
X173538429Y-86083110D01*
X173532905Y-86032248D01*
X173529279Y-86016996D01*
X173484124Y-85896546D01*
X173475586Y-85880951D01*
X173399085Y-85778876D01*
X173386524Y-85766315D01*
X173284449Y-85689814D01*
X173268854Y-85681276D01*
X173148406Y-85636122D01*
X173133151Y-85632495D01*
X173082286Y-85626969D01*
X173075472Y-85626600D01*
X172452915Y-85626600D01*
X172437676Y-85631075D01*
X172436471Y-85632465D01*
X172434800Y-85640148D01*
X172434800Y-86712485D01*
X171926800Y-86712485D01*
X171926800Y-85644716D01*
X171922325Y-85629477D01*
X171920935Y-85628272D01*
X171913252Y-85626601D01*
X171286131Y-85626601D01*
X171279310Y-85626971D01*
X171228448Y-85632495D01*
X171213196Y-85636121D01*
X171092746Y-85681276D01*
X171077151Y-85689814D01*
X170975076Y-85766315D01*
X170962515Y-85778876D01*
X170886014Y-85880951D01*
X170877476Y-85896546D01*
X170832322Y-86016994D01*
X170828695Y-86032249D01*
X170823169Y-86083114D01*
X170822800Y-86089928D01*
X170822800Y-86712485D01*
X167880900Y-86712485D01*
X167880900Y-86071466D01*
X167874145Y-86009284D01*
X167823015Y-85872895D01*
X167735661Y-85756339D01*
X167619105Y-85668985D01*
X167482716Y-85617855D01*
X167420534Y-85611100D01*
X165624266Y-85611100D01*
X165562084Y-85617855D01*
X165425695Y-85668985D01*
X165309139Y-85756339D01*
X165221785Y-85872895D01*
X165170655Y-86009284D01*
X165163900Y-86071466D01*
X165163900Y-86085100D01*
X165143898Y-86153221D01*
X165090242Y-86199714D01*
X165037900Y-86211100D01*
X163693863Y-86211100D01*
X163674914Y-86209667D01*
X163674707Y-86209636D01*
X163653451Y-86206402D01*
X163646159Y-86206995D01*
X163646156Y-86206995D01*
X163600791Y-86210685D01*
X163590577Y-86211100D01*
X163582507Y-86211100D01*
X163578887Y-86211522D01*
X163578869Y-86211523D01*
X163554261Y-86214392D01*
X163549900Y-86214824D01*
X163524781Y-86216867D01*
X163484461Y-86220146D01*
X163484458Y-86220147D01*
X163477163Y-86220740D01*
X163470199Y-86222996D01*
X163464240Y-86224187D01*
X163458385Y-86225571D01*
X163451119Y-86226418D01*
X163382473Y-86251335D01*
X163378345Y-86252752D01*
X163315864Y-86272993D01*
X163315862Y-86272994D01*
X163308901Y-86275249D01*
X163302646Y-86279045D01*
X163297172Y-86281551D01*
X163291742Y-86284270D01*
X163284863Y-86286767D01*
X163223816Y-86326791D01*
X163220127Y-86329118D01*
X163212579Y-86333699D01*
X163162493Y-86364091D01*
X163162488Y-86364095D01*
X163157692Y-86367005D01*
X163149316Y-86374403D01*
X163149293Y-86374377D01*
X163146303Y-86377026D01*
X163143064Y-86379734D01*
X163136948Y-86383744D01*
X163131921Y-86389051D01*
X163131917Y-86389054D01*
X163083672Y-86439983D01*
X163081294Y-86442425D01*
X160809524Y-88714195D01*
X160747212Y-88748221D01*
X160720429Y-88751100D01*
X159254300Y-88751100D01*
X159186179Y-88731098D01*
X159139686Y-88677442D01*
X159128300Y-88625100D01*
X159128300Y-88611466D01*
X159121545Y-88549284D01*
X159070415Y-88412895D01*
X158983061Y-88296339D01*
X158866505Y-88208985D01*
X158730116Y-88157855D01*
X158667934Y-88151100D01*
X158602040Y-88151100D01*
X158533919Y-88131098D01*
X158487426Y-88077442D01*
X158482173Y-88063932D01*
X158466406Y-88015261D01*
X158466405Y-88015259D01*
X158464151Y-88008301D01*
X158460355Y-88002046D01*
X158457849Y-87996572D01*
X158455130Y-87991142D01*
X158452633Y-87984263D01*
X158448620Y-87978142D01*
X158412614Y-87923224D01*
X158410267Y-87919505D01*
X158372395Y-87857093D01*
X158364997Y-87848716D01*
X158365024Y-87848692D01*
X158362371Y-87845700D01*
X158359668Y-87842467D01*
X158355656Y-87836348D01*
X158299417Y-87783072D01*
X158296975Y-87780694D01*
X156919558Y-86403277D01*
X156885532Y-86340965D01*
X156890597Y-86270150D01*
X156933144Y-86213314D01*
X156997672Y-86188661D01*
X157092920Y-86180328D01*
X157103712Y-86178425D01*
X157314161Y-86122036D01*
X157324453Y-86118290D01*
X157521911Y-86026214D01*
X157531406Y-86020731D01*
X157583448Y-85984291D01*
X157591824Y-85973812D01*
X157584756Y-85960366D01*
X156512322Y-84887932D01*
X157234808Y-84887932D01*
X157234939Y-84889765D01*
X157239190Y-84896380D01*
X157944687Y-85601877D01*
X157956462Y-85608307D01*
X157968477Y-85599011D01*
X158004331Y-85547806D01*
X158009814Y-85538311D01*
X158101890Y-85340853D01*
X158105636Y-85330561D01*
X158162025Y-85120112D01*
X158163928Y-85109319D01*
X158182917Y-84892275D01*
X158182917Y-84881325D01*
X158163928Y-84664281D01*
X158162025Y-84653488D01*
X158105636Y-84443039D01*
X158101890Y-84432747D01*
X158009814Y-84235289D01*
X158004331Y-84225794D01*
X157967891Y-84173752D01*
X157957412Y-84165376D01*
X157943966Y-84172444D01*
X157242422Y-84873988D01*
X157234808Y-84887932D01*
X156512322Y-84887932D01*
X155796113Y-84171723D01*
X155784338Y-84165293D01*
X155772323Y-84174589D01*
X155736469Y-84225794D01*
X155730986Y-84235289D01*
X155638910Y-84432747D01*
X155635164Y-84443039D01*
X155578775Y-84653488D01*
X155576872Y-84664280D01*
X155568539Y-84759528D01*
X155542676Y-84825646D01*
X155485172Y-84867286D01*
X155414285Y-84871227D01*
X155353923Y-84837642D01*
X154316069Y-83799788D01*
X156148976Y-83799788D01*
X156156044Y-83813234D01*
X156857588Y-84514778D01*
X156871532Y-84522392D01*
X156873365Y-84522261D01*
X156879980Y-84518010D01*
X157585477Y-83812513D01*
X157591907Y-83800738D01*
X157582611Y-83788723D01*
X157531406Y-83752869D01*
X157521911Y-83747386D01*
X157324453Y-83655310D01*
X157314161Y-83651564D01*
X157103712Y-83595175D01*
X157092919Y-83593272D01*
X156875875Y-83574283D01*
X156864925Y-83574283D01*
X156647881Y-83593272D01*
X156637088Y-83595175D01*
X156426639Y-83651564D01*
X156416347Y-83655310D01*
X156218889Y-83747386D01*
X156209394Y-83752869D01*
X156157352Y-83789309D01*
X156148976Y-83799788D01*
X154316069Y-83799788D01*
X151950805Y-81434524D01*
X151916779Y-81372212D01*
X151913900Y-81345429D01*
X151913900Y-81345067D01*
X151933902Y-81276946D01*
X151967628Y-81241855D01*
X151999700Y-81219398D01*
X152161598Y-81057500D01*
X152292923Y-80869949D01*
X152295246Y-80864967D01*
X152295249Y-80864962D01*
X152311481Y-80830151D01*
X152358398Y-80776866D01*
X152426675Y-80757405D01*
X152494635Y-80777947D01*
X152539871Y-80830151D01*
X152555986Y-80864711D01*
X152561469Y-80874207D01*
X152686428Y-81052667D01*
X152693484Y-81061075D01*
X152847525Y-81215116D01*
X152855933Y-81222172D01*
X153034393Y-81347131D01*
X153043889Y-81352614D01*
X153241347Y-81444690D01*
X153251639Y-81448436D01*
X153423903Y-81494594D01*
X153437999Y-81494258D01*
X153441400Y-81486316D01*
X153441400Y-81481167D01*
X153949400Y-81481167D01*
X153953373Y-81494698D01*
X153961922Y-81495927D01*
X154139161Y-81448436D01*
X154149453Y-81444690D01*
X154346911Y-81352614D01*
X154356407Y-81347131D01*
X154534867Y-81222172D01*
X154543275Y-81215116D01*
X154697316Y-81061075D01*
X154704372Y-81052667D01*
X154829331Y-80874207D01*
X154834814Y-80864711D01*
X154851205Y-80829559D01*
X154898122Y-80776274D01*
X154966399Y-80756813D01*
X155034359Y-80777355D01*
X155079595Y-80829559D01*
X155095986Y-80864711D01*
X155101469Y-80874207D01*
X155226428Y-81052667D01*
X155233484Y-81061075D01*
X155387525Y-81215116D01*
X155395933Y-81222172D01*
X155574393Y-81347131D01*
X155583889Y-81352614D01*
X155781347Y-81444690D01*
X155791639Y-81448436D01*
X155963903Y-81494594D01*
X155977999Y-81494258D01*
X155981400Y-81486316D01*
X155981400Y-80485315D01*
X155976925Y-80470076D01*
X155975535Y-80468871D01*
X155967852Y-80467200D01*
X153967515Y-80467200D01*
X153952276Y-80471675D01*
X153951071Y-80473065D01*
X153949400Y-80480748D01*
X153949400Y-81481167D01*
X153441400Y-81481167D01*
X153441400Y-80085200D01*
X153461402Y-80017079D01*
X153515058Y-79970586D01*
X153567400Y-79959200D01*
X156363400Y-79959200D01*
X156431521Y-79979202D01*
X156478014Y-80032858D01*
X156489400Y-80085200D01*
X156489400Y-81481167D01*
X156493373Y-81494698D01*
X156501922Y-81495927D01*
X156679161Y-81448436D01*
X156689453Y-81444690D01*
X156735988Y-81422990D01*
X156806179Y-81412329D01*
X156870992Y-81441309D01*
X156909849Y-81500728D01*
X156915238Y-81537203D01*
X156915164Y-82059858D01*
X156915163Y-82064461D01*
X156915521Y-82067800D01*
X156915521Y-82067804D01*
X156916048Y-82072722D01*
X156926837Y-82173405D01*
X156938172Y-82225652D01*
X156972691Y-82329633D01*
X156976938Y-82336256D01*
X156976940Y-82336260D01*
X156986155Y-82350630D01*
X157051587Y-82452667D01*
X157098026Y-82506368D01*
X157101426Y-82509320D01*
X157101428Y-82509322D01*
X157141843Y-82544412D01*
X157208386Y-82602188D01*
X157246148Y-82619479D01*
X157337185Y-82661165D01*
X157337189Y-82661167D01*
X157341274Y-82663037D01*
X157409374Y-82683107D01*
X157413818Y-82683750D01*
X157413825Y-82683752D01*
X157526772Y-82700105D01*
X157554029Y-82704052D01*
X159684871Y-82706161D01*
X161312388Y-82707772D01*
X161312394Y-82707772D01*
X161315767Y-82707775D01*
X161425176Y-82696094D01*
X161428464Y-82695380D01*
X161428473Y-82695379D01*
X161474331Y-82685427D01*
X161474335Y-82685426D01*
X161477643Y-82684708D01*
X161482458Y-82683107D01*
X161574572Y-82652474D01*
X161574571Y-82652474D01*
X161582057Y-82649985D01*
X161705012Y-82570967D01*
X161723353Y-82555075D01*
X161755275Y-82527414D01*
X161758668Y-82524474D01*
X161808180Y-82467334D01*
X161848481Y-82420825D01*
X161848483Y-82420822D01*
X161854382Y-82414014D01*
X161915098Y-82281065D01*
X161935100Y-82212944D01*
X161936001Y-82206684D01*
X161955261Y-82072722D01*
X161955261Y-82072717D01*
X161955900Y-82068275D01*
X161955900Y-80213200D01*
X162541902Y-80213200D01*
X162561857Y-80441287D01*
X162563281Y-80446600D01*
X162563281Y-80446602D01*
X162572431Y-80480748D01*
X162621116Y-80662443D01*
X162623439Y-80667424D01*
X162623439Y-80667425D01*
X162715551Y-80864962D01*
X162715554Y-80864967D01*
X162717877Y-80869949D01*
X162849202Y-81057500D01*
X163011100Y-81219398D01*
X163015608Y-81222555D01*
X163015611Y-81222557D01*
X163043169Y-81241853D01*
X163198651Y-81350723D01*
X163203633Y-81353046D01*
X163203638Y-81353049D01*
X163400165Y-81444690D01*
X163406157Y-81447484D01*
X163411465Y-81448906D01*
X163411467Y-81448907D01*
X163621998Y-81505319D01*
X163622000Y-81505319D01*
X163627313Y-81506743D01*
X163855400Y-81526698D01*
X164083487Y-81506743D01*
X164088800Y-81505319D01*
X164088802Y-81505319D01*
X164299333Y-81448907D01*
X164299335Y-81448906D01*
X164304643Y-81447484D01*
X164310635Y-81444690D01*
X164507162Y-81353049D01*
X164507167Y-81353046D01*
X164512149Y-81350723D01*
X164667631Y-81241853D01*
X164695189Y-81222557D01*
X164695192Y-81222555D01*
X164699700Y-81219398D01*
X164861598Y-81057500D01*
X164992923Y-80869949D01*
X164995246Y-80864967D01*
X164995249Y-80864962D01*
X165011205Y-80830743D01*
X165058122Y-80777458D01*
X165126399Y-80757997D01*
X165194359Y-80778539D01*
X165239595Y-80830743D01*
X165255551Y-80864962D01*
X165255554Y-80864967D01*
X165257877Y-80869949D01*
X165389202Y-81057500D01*
X165551100Y-81219398D01*
X165555608Y-81222555D01*
X165555611Y-81222557D01*
X165583169Y-81241853D01*
X165738651Y-81350723D01*
X165743633Y-81353046D01*
X165743638Y-81353049D01*
X165940165Y-81444690D01*
X165946157Y-81447484D01*
X165951465Y-81448906D01*
X165951467Y-81448907D01*
X166161998Y-81505319D01*
X166162000Y-81505319D01*
X166167313Y-81506743D01*
X166395400Y-81526698D01*
X166623487Y-81506743D01*
X166628800Y-81505319D01*
X166628802Y-81505319D01*
X166839333Y-81448907D01*
X166839335Y-81448906D01*
X166844643Y-81447484D01*
X166850635Y-81444690D01*
X167047162Y-81353049D01*
X167047167Y-81353046D01*
X167052149Y-81350723D01*
X167207631Y-81241853D01*
X167235189Y-81222557D01*
X167235192Y-81222555D01*
X167239700Y-81219398D01*
X167401598Y-81057500D01*
X167532923Y-80869949D01*
X167535246Y-80864967D01*
X167535249Y-80864962D01*
X167551205Y-80830743D01*
X167598122Y-80777458D01*
X167666399Y-80757997D01*
X167734359Y-80778539D01*
X167779595Y-80830743D01*
X167795551Y-80864962D01*
X167795554Y-80864967D01*
X167797877Y-80869949D01*
X167929202Y-81057500D01*
X168091100Y-81219398D01*
X168095608Y-81222555D01*
X168095611Y-81222557D01*
X168123169Y-81241853D01*
X168278651Y-81350723D01*
X168283633Y-81353046D01*
X168283638Y-81353049D01*
X168480165Y-81444690D01*
X168486157Y-81447484D01*
X168491465Y-81448906D01*
X168491467Y-81448907D01*
X168701998Y-81505319D01*
X168702000Y-81505319D01*
X168707313Y-81506743D01*
X168935400Y-81526698D01*
X169163487Y-81506743D01*
X169168800Y-81505319D01*
X169168802Y-81505319D01*
X169379333Y-81448907D01*
X169379335Y-81448906D01*
X169384643Y-81447484D01*
X169390635Y-81444690D01*
X169587162Y-81353049D01*
X169587167Y-81353046D01*
X169592149Y-81350723D01*
X169747631Y-81241853D01*
X169775189Y-81222557D01*
X169775192Y-81222555D01*
X169779700Y-81219398D01*
X169941598Y-81057500D01*
X170072923Y-80869949D01*
X170075246Y-80864967D01*
X170075249Y-80864962D01*
X170091205Y-80830743D01*
X170138122Y-80777458D01*
X170206399Y-80757997D01*
X170274359Y-80778539D01*
X170319595Y-80830743D01*
X170335551Y-80864962D01*
X170335554Y-80864967D01*
X170337877Y-80869949D01*
X170469202Y-81057500D01*
X170631100Y-81219398D01*
X170635608Y-81222555D01*
X170635611Y-81222557D01*
X170663169Y-81241853D01*
X170818651Y-81350723D01*
X170823633Y-81353046D01*
X170823638Y-81353049D01*
X171020165Y-81444690D01*
X171026157Y-81447484D01*
X171031465Y-81448906D01*
X171031467Y-81448907D01*
X171241998Y-81505319D01*
X171242000Y-81505319D01*
X171247313Y-81506743D01*
X171475400Y-81526698D01*
X171703487Y-81506743D01*
X171708800Y-81505319D01*
X171708802Y-81505319D01*
X171919333Y-81448907D01*
X171919335Y-81448906D01*
X171924643Y-81447484D01*
X171930635Y-81444690D01*
X172127162Y-81353049D01*
X172127167Y-81353046D01*
X172132149Y-81350723D01*
X172287631Y-81241853D01*
X172315189Y-81222557D01*
X172315192Y-81222555D01*
X172319700Y-81219398D01*
X172481598Y-81057500D01*
X172612923Y-80869949D01*
X172615246Y-80864967D01*
X172615249Y-80864962D01*
X172631205Y-80830743D01*
X172678122Y-80777458D01*
X172746399Y-80757997D01*
X172814359Y-80778539D01*
X172859595Y-80830743D01*
X172875551Y-80864962D01*
X172875554Y-80864967D01*
X172877877Y-80869949D01*
X173009202Y-81057500D01*
X173171100Y-81219398D01*
X173175608Y-81222555D01*
X173175611Y-81222557D01*
X173203169Y-81241853D01*
X173358651Y-81350723D01*
X173363633Y-81353046D01*
X173363638Y-81353049D01*
X173560165Y-81444690D01*
X173566157Y-81447484D01*
X173571465Y-81448906D01*
X173571467Y-81448907D01*
X173781998Y-81505319D01*
X173782000Y-81505319D01*
X173787313Y-81506743D01*
X174015400Y-81526698D01*
X174243487Y-81506743D01*
X174248800Y-81505319D01*
X174248802Y-81505319D01*
X174459333Y-81448907D01*
X174459335Y-81448906D01*
X174464643Y-81447484D01*
X174470635Y-81444690D01*
X174667162Y-81353049D01*
X174667167Y-81353046D01*
X174672149Y-81350723D01*
X174827631Y-81241853D01*
X174855189Y-81222557D01*
X174855192Y-81222555D01*
X174859700Y-81219398D01*
X175021598Y-81057500D01*
X175152923Y-80869949D01*
X175155246Y-80864967D01*
X175155249Y-80864962D01*
X175171205Y-80830743D01*
X175218122Y-80777458D01*
X175286399Y-80757997D01*
X175354359Y-80778539D01*
X175399595Y-80830743D01*
X175415551Y-80864962D01*
X175415554Y-80864967D01*
X175417877Y-80869949D01*
X175549202Y-81057500D01*
X175711100Y-81219398D01*
X175715608Y-81222555D01*
X175715611Y-81222557D01*
X175743169Y-81241853D01*
X175898651Y-81350723D01*
X175903633Y-81353046D01*
X175903638Y-81353049D01*
X176100165Y-81444690D01*
X176106157Y-81447484D01*
X176111465Y-81448906D01*
X176111467Y-81448907D01*
X176321998Y-81505319D01*
X176322000Y-81505319D01*
X176327313Y-81506743D01*
X176555400Y-81526698D01*
X176783487Y-81506743D01*
X176788800Y-81505319D01*
X176788802Y-81505319D01*
X176999333Y-81448907D01*
X176999335Y-81448906D01*
X177004643Y-81447484D01*
X177010635Y-81444690D01*
X177207162Y-81353049D01*
X177207167Y-81353046D01*
X177212149Y-81350723D01*
X177367631Y-81241853D01*
X177395189Y-81222557D01*
X177395192Y-81222555D01*
X177399700Y-81219398D01*
X177561598Y-81057500D01*
X177692923Y-80869949D01*
X177695246Y-80864967D01*
X177695249Y-80864962D01*
X177787361Y-80667425D01*
X177787361Y-80667424D01*
X177789684Y-80662443D01*
X177838370Y-80480748D01*
X177847519Y-80446602D01*
X177847519Y-80446600D01*
X177848943Y-80441287D01*
X177868898Y-80213200D01*
X177848943Y-79985113D01*
X177847359Y-79979202D01*
X177791107Y-79769267D01*
X177791106Y-79769265D01*
X177789684Y-79763957D01*
X177786900Y-79757987D01*
X177695249Y-79561438D01*
X177695246Y-79561433D01*
X177692923Y-79556451D01*
X177561598Y-79368900D01*
X177399700Y-79207002D01*
X177395192Y-79203845D01*
X177395189Y-79203843D01*
X177317011Y-79149102D01*
X177212149Y-79075677D01*
X177207167Y-79073354D01*
X177207162Y-79073351D01*
X177009625Y-78981239D01*
X177009624Y-78981239D01*
X177004643Y-78978916D01*
X176999335Y-78977494D01*
X176999333Y-78977493D01*
X176788802Y-78921081D01*
X176788800Y-78921081D01*
X176783487Y-78919657D01*
X176555400Y-78899702D01*
X176327313Y-78919657D01*
X176322000Y-78921081D01*
X176321998Y-78921081D01*
X176111467Y-78977493D01*
X176111465Y-78977494D01*
X176106157Y-78978916D01*
X176101176Y-78981239D01*
X176101175Y-78981239D01*
X175903638Y-79073351D01*
X175903633Y-79073354D01*
X175898651Y-79075677D01*
X175793789Y-79149102D01*
X175715611Y-79203843D01*
X175715608Y-79203845D01*
X175711100Y-79207002D01*
X175549202Y-79368900D01*
X175417877Y-79556451D01*
X175415554Y-79561433D01*
X175415551Y-79561438D01*
X175399595Y-79595657D01*
X175352678Y-79648942D01*
X175284401Y-79668403D01*
X175216441Y-79647861D01*
X175171205Y-79595657D01*
X175155249Y-79561438D01*
X175155246Y-79561433D01*
X175152923Y-79556451D01*
X175021598Y-79368900D01*
X174859700Y-79207002D01*
X174855192Y-79203845D01*
X174855189Y-79203843D01*
X174777011Y-79149102D01*
X174672149Y-79075677D01*
X174667167Y-79073354D01*
X174667162Y-79073351D01*
X174469625Y-78981239D01*
X174469624Y-78981239D01*
X174464643Y-78978916D01*
X174459335Y-78977494D01*
X174459333Y-78977493D01*
X174248802Y-78921081D01*
X174248800Y-78921081D01*
X174243487Y-78919657D01*
X174015400Y-78899702D01*
X173787313Y-78919657D01*
X173782000Y-78921081D01*
X173781998Y-78921081D01*
X173571467Y-78977493D01*
X173571465Y-78977494D01*
X173566157Y-78978916D01*
X173561176Y-78981239D01*
X173561175Y-78981239D01*
X173363638Y-79073351D01*
X173363633Y-79073354D01*
X173358651Y-79075677D01*
X173253789Y-79149102D01*
X173175611Y-79203843D01*
X173175608Y-79203845D01*
X173171100Y-79207002D01*
X173009202Y-79368900D01*
X172877877Y-79556451D01*
X172875554Y-79561433D01*
X172875551Y-79561438D01*
X172859595Y-79595657D01*
X172812678Y-79648942D01*
X172744401Y-79668403D01*
X172676441Y-79647861D01*
X172631205Y-79595657D01*
X172615249Y-79561438D01*
X172615246Y-79561433D01*
X172612923Y-79556451D01*
X172481598Y-79368900D01*
X172319700Y-79207002D01*
X172315192Y-79203845D01*
X172315189Y-79203843D01*
X172237011Y-79149102D01*
X172132149Y-79075677D01*
X172127167Y-79073354D01*
X172127162Y-79073351D01*
X171929625Y-78981239D01*
X171929624Y-78981239D01*
X171924643Y-78978916D01*
X171919335Y-78977494D01*
X171919333Y-78977493D01*
X171708802Y-78921081D01*
X171708800Y-78921081D01*
X171703487Y-78919657D01*
X171475400Y-78899702D01*
X171247313Y-78919657D01*
X171242000Y-78921081D01*
X171241998Y-78921081D01*
X171031467Y-78977493D01*
X171031465Y-78977494D01*
X171026157Y-78978916D01*
X171021176Y-78981239D01*
X171021175Y-78981239D01*
X170823638Y-79073351D01*
X170823633Y-79073354D01*
X170818651Y-79075677D01*
X170713789Y-79149102D01*
X170635611Y-79203843D01*
X170635608Y-79203845D01*
X170631100Y-79207002D01*
X170469202Y-79368900D01*
X170337877Y-79556451D01*
X170335554Y-79561433D01*
X170335551Y-79561438D01*
X170319595Y-79595657D01*
X170272678Y-79648942D01*
X170204401Y-79668403D01*
X170136441Y-79647861D01*
X170091205Y-79595657D01*
X170075249Y-79561438D01*
X170075246Y-79561433D01*
X170072923Y-79556451D01*
X169941598Y-79368900D01*
X169779700Y-79207002D01*
X169775192Y-79203845D01*
X169775189Y-79203843D01*
X169697011Y-79149102D01*
X169592149Y-79075677D01*
X169587167Y-79073354D01*
X169587162Y-79073351D01*
X169389625Y-78981239D01*
X169389624Y-78981239D01*
X169384643Y-78978916D01*
X169379335Y-78977494D01*
X169379333Y-78977493D01*
X169168802Y-78921081D01*
X169168800Y-78921081D01*
X169163487Y-78919657D01*
X168935400Y-78899702D01*
X168707313Y-78919657D01*
X168702000Y-78921081D01*
X168701998Y-78921081D01*
X168491467Y-78977493D01*
X168491465Y-78977494D01*
X168486157Y-78978916D01*
X168481176Y-78981239D01*
X168481175Y-78981239D01*
X168283638Y-79073351D01*
X168283633Y-79073354D01*
X168278651Y-79075677D01*
X168173789Y-79149102D01*
X168095611Y-79203843D01*
X168095608Y-79203845D01*
X168091100Y-79207002D01*
X167929202Y-79368900D01*
X167797877Y-79556451D01*
X167795554Y-79561433D01*
X167795551Y-79561438D01*
X167779595Y-79595657D01*
X167732678Y-79648942D01*
X167664401Y-79668403D01*
X167596441Y-79647861D01*
X167551205Y-79595657D01*
X167535249Y-79561438D01*
X167535246Y-79561433D01*
X167532923Y-79556451D01*
X167401598Y-79368900D01*
X167239700Y-79207002D01*
X167235192Y-79203845D01*
X167235189Y-79203843D01*
X167157011Y-79149102D01*
X167052149Y-79075677D01*
X167047167Y-79073354D01*
X167047162Y-79073351D01*
X166849625Y-78981239D01*
X166849624Y-78981239D01*
X166844643Y-78978916D01*
X166839335Y-78977494D01*
X166839333Y-78977493D01*
X166628802Y-78921081D01*
X166628800Y-78921081D01*
X166623487Y-78919657D01*
X166395400Y-78899702D01*
X166167313Y-78919657D01*
X166162000Y-78921081D01*
X166161998Y-78921081D01*
X165951467Y-78977493D01*
X165951465Y-78977494D01*
X165946157Y-78978916D01*
X165941176Y-78981239D01*
X165941175Y-78981239D01*
X165743638Y-79073351D01*
X165743633Y-79073354D01*
X165738651Y-79075677D01*
X165633789Y-79149102D01*
X165555611Y-79203843D01*
X165555608Y-79203845D01*
X165551100Y-79207002D01*
X165389202Y-79368900D01*
X165257877Y-79556451D01*
X165255554Y-79561433D01*
X165255551Y-79561438D01*
X165239595Y-79595657D01*
X165192678Y-79648942D01*
X165124401Y-79668403D01*
X165056441Y-79647861D01*
X165011205Y-79595657D01*
X164995249Y-79561438D01*
X164995246Y-79561433D01*
X164992923Y-79556451D01*
X164861598Y-79368900D01*
X164699700Y-79207002D01*
X164695192Y-79203845D01*
X164695189Y-79203843D01*
X164617011Y-79149102D01*
X164512149Y-79075677D01*
X164507167Y-79073354D01*
X164507162Y-79073351D01*
X164309625Y-78981239D01*
X164309624Y-78981239D01*
X164304643Y-78978916D01*
X164299335Y-78977494D01*
X164299333Y-78977493D01*
X164088802Y-78921081D01*
X164088800Y-78921081D01*
X164083487Y-78919657D01*
X163855400Y-78899702D01*
X163627313Y-78919657D01*
X163622000Y-78921081D01*
X163621998Y-78921081D01*
X163411467Y-78977493D01*
X163411465Y-78977494D01*
X163406157Y-78978916D01*
X163401176Y-78981239D01*
X163401175Y-78981239D01*
X163203638Y-79073351D01*
X163203633Y-79073354D01*
X163198651Y-79075677D01*
X163093789Y-79149102D01*
X163015611Y-79203843D01*
X163015608Y-79203845D01*
X163011100Y-79207002D01*
X162849202Y-79368900D01*
X162717877Y-79556451D01*
X162715554Y-79561433D01*
X162715551Y-79561438D01*
X162623900Y-79757987D01*
X162621116Y-79763957D01*
X162619694Y-79769265D01*
X162619693Y-79769267D01*
X162563441Y-79979202D01*
X162561857Y-79985113D01*
X162541902Y-80213200D01*
X161955900Y-80213200D01*
X161955900Y-78408800D01*
X161944166Y-78299651D01*
X161932780Y-78247309D01*
X161898110Y-78143143D01*
X161884407Y-78121820D01*
X161864405Y-78053701D01*
X161884407Y-77985580D01*
X161938062Y-77939087D01*
X161990405Y-77927700D01*
X179586464Y-77927700D01*
X179609172Y-77929763D01*
G37*
%TD.AperFunction*%
%TD*%
M02*
