%TF.GenerationSoftware,KiCad,Pcbnew,(6.0.7)*%
%TF.CreationDate,2022-08-21T17:21:21+03:00*%
%TF.ProjectId,ArduinoUnoHat,41726475-696e-46f5-956e-6f4861742e6b,rev?*%
%TF.SameCoordinates,Original*%
%TF.FileFunction,Soldermask,Bot*%
%TF.FilePolarity,Negative*%
%FSLAX46Y46*%
G04 Gerber Fmt 4.6, Leading zero omitted, Abs format (unit mm)*
G04 Created by KiCad (PCBNEW (6.0.7)) date 2022-08-21 17:21:21*
%MOMM*%
%LPD*%
G01*
G04 APERTURE LIST*
%ADD10C,2.000000*%
%ADD11O,1.600000X1.600000*%
%ADD12C,1.600000*%
%ADD13R,1.700000X1.700000*%
%ADD14O,1.700000X1.700000*%
%ADD15R,3.960000X1.980000*%
%ADD16O,3.960000X1.980000*%
%ADD17C,1.800000*%
%ADD18R,1.800000X1.800000*%
%ADD19R,1.600000X1.600000*%
G04 APERTURE END LIST*
D10*
%TO.C,SW1*%
X133809600Y-92536400D03*
X140309600Y-92536400D03*
X140309600Y-88036400D03*
X133809600Y-88036400D03*
%TD*%
D11*
%TO.C,R4*%
X180086000Y-105308400D03*
D12*
X169926000Y-105308400D03*
%TD*%
D11*
%TO.C,R3*%
X132435600Y-114808000D03*
D12*
X132435600Y-124968000D03*
%TD*%
%TO.C,R2*%
X161848800Y-124256800D03*
D11*
X172008800Y-124256800D03*
%TD*%
%TO.C,R1*%
X146710400Y-84886800D03*
D12*
X156870400Y-84886800D03*
%TD*%
D13*
%TO.C,J9*%
X166522400Y-86969600D03*
D14*
X166522400Y-89509600D03*
X166522400Y-92049600D03*
%TD*%
D13*
%TO.C,J8*%
X152994600Y-110083600D03*
D14*
X150454600Y-110083600D03*
X147914600Y-110083600D03*
%TD*%
D13*
%TO.C,J7*%
X172180800Y-86984600D03*
D14*
X172180800Y-89524600D03*
X172180800Y-92064600D03*
%TD*%
D13*
%TO.C,J6*%
X149976600Y-119303400D03*
D14*
X152516600Y-119303400D03*
X155056600Y-119303400D03*
%TD*%
D13*
%TO.C,J5*%
X163474400Y-111455200D03*
D14*
X163474400Y-113995200D03*
X163474400Y-116535200D03*
%TD*%
D13*
%TO.C,J4*%
X157769800Y-89509600D03*
D14*
X155229800Y-89509600D03*
X152689800Y-89509600D03*
%TD*%
D13*
%TO.C,J3*%
X172231600Y-109840400D03*
D14*
X172231600Y-112380400D03*
X172231600Y-114920400D03*
X172231600Y-117460400D03*
%TD*%
%TO.C,J2*%
X160426400Y-101803200D03*
X157886400Y-101803200D03*
X155346400Y-101803200D03*
D13*
X152806400Y-101803200D03*
%TD*%
D15*
%TO.C,J1*%
X136042400Y-100660200D03*
D16*
X136042400Y-105660200D03*
%TD*%
D17*
%TO.C,D4*%
X140919200Y-119126000D03*
D18*
X138379200Y-119126000D03*
%TD*%
D17*
%TO.C,D3*%
X176077800Y-98602800D03*
D18*
X178617800Y-98602800D03*
%TD*%
D17*
%TO.C,D2*%
X177647600Y-123748800D03*
D18*
X175107600Y-123748800D03*
%TD*%
D17*
%TO.C,D1*%
X145440400Y-95300800D03*
D18*
X147980400Y-95300800D03*
%TD*%
D11*
%TO.C,A1*%
X131855400Y-128473200D03*
X134395400Y-128473200D03*
X136935400Y-128473200D03*
X139475400Y-128473200D03*
X142015400Y-128473200D03*
X144555400Y-128473200D03*
X147095400Y-128473200D03*
X149635400Y-128473200D03*
X152175400Y-128473200D03*
X154715400Y-128473200D03*
X158775400Y-128473200D03*
X161315400Y-128473200D03*
X163855400Y-128473200D03*
X166395400Y-128473200D03*
X168935400Y-128473200D03*
X171475400Y-128473200D03*
X174015400Y-128473200D03*
X176555400Y-128473200D03*
X176555400Y-80213200D03*
X174015400Y-80213200D03*
X171475400Y-80213200D03*
X168935400Y-80213200D03*
X166395400Y-80213200D03*
X163855400Y-80213200D03*
X158775400Y-80213200D03*
X156235400Y-80213200D03*
X153695400Y-80213200D03*
X151155400Y-80213200D03*
X148615400Y-80213200D03*
X146075400Y-80213200D03*
X143535400Y-80213200D03*
D19*
X140995400Y-80213200D03*
%TD*%
M02*
