%TF.GenerationSoftware,KiCad,Pcbnew,(6.0.7)*%
%TF.CreationDate,2022-08-21T17:21:21+03:00*%
%TF.ProjectId,ArduinoUnoHat,41726475-696e-46f5-956e-6f4861742e6b,rev?*%
%TF.SameCoordinates,Original*%
%TF.FileFunction,Legend,Bot*%
%TF.FilePolarity,Positive*%
%FSLAX46Y46*%
G04 Gerber Fmt 4.6, Leading zero omitted, Abs format (unit mm)*
G04 Created by KiCad (PCBNEW (6.0.7)) date 2022-08-21 17:21:21*
%MOMM*%
%LPD*%
G01*
G04 APERTURE LIST*
%ADD10C,0.150000*%
%ADD11C,0.120000*%
G04 APERTURE END LIST*
D10*
X172516704Y-83373980D02*
X171945276Y-83373980D01*
X172230990Y-84373980D02*
X172230990Y-83373980D01*
X171707180Y-83373980D02*
X171040514Y-84373980D01*
X171040514Y-83373980D02*
X171707180Y-84373980D01*
X153517504Y-116190780D02*
X152946076Y-116190780D01*
X153231790Y-117190780D02*
X153231790Y-116190780D01*
X152707980Y-116190780D02*
X152041314Y-117190780D01*
X152041314Y-116190780D02*
X152707980Y-117190780D01*
X156935466Y-99613980D02*
X157268800Y-99137790D01*
X157506895Y-99613980D02*
X157506895Y-98613980D01*
X157125942Y-98613980D01*
X157030704Y-98661600D01*
X156983085Y-98709219D01*
X156935466Y-98804457D01*
X156935466Y-98947314D01*
X156983085Y-99042552D01*
X157030704Y-99090171D01*
X157125942Y-99137790D01*
X157506895Y-99137790D01*
X156602133Y-98613980D02*
X155935466Y-99613980D01*
X155935466Y-98613980D02*
X156602133Y-99613980D01*
X169330666Y-114447580D02*
X169664000Y-113971390D01*
X169902095Y-114447580D02*
X169902095Y-113447580D01*
X169521142Y-113447580D01*
X169425904Y-113495200D01*
X169378285Y-113542819D01*
X169330666Y-113638057D01*
X169330666Y-113780914D01*
X169378285Y-113876152D01*
X169425904Y-113923771D01*
X169521142Y-113971390D01*
X169902095Y-113971390D01*
X168997333Y-113447580D02*
X168330666Y-114447580D01*
X168330666Y-113447580D02*
X168997333Y-114447580D01*
X156429104Y-109637580D02*
X156905295Y-109637580D01*
X156952914Y-110113771D01*
X156905295Y-110066152D01*
X156810057Y-110018533D01*
X156571961Y-110018533D01*
X156476723Y-110066152D01*
X156429104Y-110113771D01*
X156381485Y-110209009D01*
X156381485Y-110447104D01*
X156429104Y-110542342D01*
X156476723Y-110589961D01*
X156571961Y-110637580D01*
X156810057Y-110637580D01*
X156905295Y-110589961D01*
X156952914Y-110542342D01*
X163083904Y-107046780D02*
X163560095Y-107046780D01*
X163607714Y-107522971D01*
X163560095Y-107475352D01*
X163464857Y-107427733D01*
X163226761Y-107427733D01*
X163131523Y-107475352D01*
X163083904Y-107522971D01*
X163036285Y-107618209D01*
X163036285Y-107856304D01*
X163083904Y-107951542D01*
X163131523Y-107999161D01*
X163226761Y-108046780D01*
X163464857Y-108046780D01*
X163560095Y-107999161D01*
X163607714Y-107951542D01*
X166233504Y-82459580D02*
X166709695Y-82459580D01*
X166757314Y-82935771D01*
X166709695Y-82888152D01*
X166614457Y-82840533D01*
X166376361Y-82840533D01*
X166281123Y-82888152D01*
X166233504Y-82935771D01*
X166185885Y-83031009D01*
X166185885Y-83269104D01*
X166233504Y-83364342D01*
X166281123Y-83411961D01*
X166376361Y-83459580D01*
X166614457Y-83459580D01*
X166709695Y-83411961D01*
X166757314Y-83364342D01*
X161305904Y-89063580D02*
X161782095Y-89063580D01*
X161829714Y-89539771D01*
X161782095Y-89492152D01*
X161686857Y-89444533D01*
X161448761Y-89444533D01*
X161353523Y-89492152D01*
X161305904Y-89539771D01*
X161258285Y-89635009D01*
X161258285Y-89873104D01*
X161305904Y-89968342D01*
X161353523Y-90015961D01*
X161448761Y-90063580D01*
X161686857Y-90063580D01*
X161782095Y-90015961D01*
X161829714Y-89968342D01*
X167722419Y-94499180D02*
X167103371Y-94499180D01*
X167436704Y-94880133D01*
X167293847Y-94880133D01*
X167198609Y-94927752D01*
X167150990Y-94975371D01*
X167103371Y-95070609D01*
X167103371Y-95308704D01*
X167150990Y-95403942D01*
X167198609Y-95451561D01*
X167293847Y-95499180D01*
X167579561Y-95499180D01*
X167674800Y-95451561D01*
X167722419Y-95403942D01*
X166674800Y-95403942D02*
X166627180Y-95451561D01*
X166674800Y-95499180D01*
X166722419Y-95451561D01*
X166674800Y-95403942D01*
X166674800Y-95499180D01*
X166293847Y-94499180D02*
X165674800Y-94499180D01*
X166008133Y-94880133D01*
X165865276Y-94880133D01*
X165770038Y-94927752D01*
X165722419Y-94975371D01*
X165674800Y-95070609D01*
X165674800Y-95308704D01*
X165722419Y-95403942D01*
X165770038Y-95451561D01*
X165865276Y-95499180D01*
X166150990Y-95499180D01*
X166246228Y-95451561D01*
X166293847Y-95403942D01*
X164471219Y-118832380D02*
X163852171Y-118832380D01*
X164185504Y-119213333D01*
X164042647Y-119213333D01*
X163947409Y-119260952D01*
X163899790Y-119308571D01*
X163852171Y-119403809D01*
X163852171Y-119641904D01*
X163899790Y-119737142D01*
X163947409Y-119784761D01*
X164042647Y-119832380D01*
X164328361Y-119832380D01*
X164423600Y-119784761D01*
X164471219Y-119737142D01*
X163423600Y-119737142D02*
X163375980Y-119784761D01*
X163423600Y-119832380D01*
X163471219Y-119784761D01*
X163423600Y-119737142D01*
X163423600Y-119832380D01*
X163042647Y-118832380D02*
X162423600Y-118832380D01*
X162756933Y-119213333D01*
X162614076Y-119213333D01*
X162518838Y-119260952D01*
X162471219Y-119308571D01*
X162423600Y-119403809D01*
X162423600Y-119641904D01*
X162471219Y-119737142D01*
X162518838Y-119784761D01*
X162614076Y-119832380D01*
X162899790Y-119832380D01*
X162995028Y-119784761D01*
X163042647Y-119737142D01*
X145624419Y-110551980D02*
X145005371Y-110551980D01*
X145338704Y-110932933D01*
X145195847Y-110932933D01*
X145100609Y-110980552D01*
X145052990Y-111028171D01*
X145005371Y-111123409D01*
X145005371Y-111361504D01*
X145052990Y-111456742D01*
X145100609Y-111504361D01*
X145195847Y-111551980D01*
X145481561Y-111551980D01*
X145576800Y-111504361D01*
X145624419Y-111456742D01*
X144576800Y-111456742D02*
X144529180Y-111504361D01*
X144576800Y-111551980D01*
X144624419Y-111504361D01*
X144576800Y-111456742D01*
X144576800Y-111551980D01*
X144195847Y-110551980D02*
X143576800Y-110551980D01*
X143910133Y-110932933D01*
X143767276Y-110932933D01*
X143672038Y-110980552D01*
X143624419Y-111028171D01*
X143576800Y-111123409D01*
X143576800Y-111361504D01*
X143624419Y-111456742D01*
X143672038Y-111504361D01*
X143767276Y-111551980D01*
X144052990Y-111551980D01*
X144148228Y-111504361D01*
X144195847Y-111456742D01*
X150755219Y-89165180D02*
X150136171Y-89165180D01*
X150469504Y-89546133D01*
X150326647Y-89546133D01*
X150231409Y-89593752D01*
X150183790Y-89641371D01*
X150136171Y-89736609D01*
X150136171Y-89974704D01*
X150183790Y-90069942D01*
X150231409Y-90117561D01*
X150326647Y-90165180D01*
X150612361Y-90165180D01*
X150707600Y-90117561D01*
X150755219Y-90069942D01*
X149707600Y-90069942D02*
X149659980Y-90117561D01*
X149707600Y-90165180D01*
X149755219Y-90117561D01*
X149707600Y-90069942D01*
X149707600Y-90165180D01*
X149326647Y-89165180D02*
X148707600Y-89165180D01*
X149040933Y-89546133D01*
X148898076Y-89546133D01*
X148802838Y-89593752D01*
X148755219Y-89641371D01*
X148707600Y-89736609D01*
X148707600Y-89974704D01*
X148755219Y-90069942D01*
X148802838Y-90117561D01*
X148898076Y-90165180D01*
X149183790Y-90165180D01*
X149279028Y-90117561D01*
X149326647Y-90069942D01*
%TO.C,SW1*%
X138392933Y-86441161D02*
X138250076Y-86488780D01*
X138011980Y-86488780D01*
X137916742Y-86441161D01*
X137869123Y-86393542D01*
X137821504Y-86298304D01*
X137821504Y-86203066D01*
X137869123Y-86107828D01*
X137916742Y-86060209D01*
X138011980Y-86012590D01*
X138202457Y-85964971D01*
X138297695Y-85917352D01*
X138345314Y-85869733D01*
X138392933Y-85774495D01*
X138392933Y-85679257D01*
X138345314Y-85584019D01*
X138297695Y-85536400D01*
X138202457Y-85488780D01*
X137964361Y-85488780D01*
X137821504Y-85536400D01*
X137488171Y-85488780D02*
X137250076Y-86488780D01*
X137059600Y-85774495D01*
X136869123Y-86488780D01*
X136631028Y-85488780D01*
X135726266Y-86488780D02*
X136297695Y-86488780D01*
X136011980Y-86488780D02*
X136011980Y-85488780D01*
X136107219Y-85631638D01*
X136202457Y-85726876D01*
X136297695Y-85774495D01*
%TO.C,R4*%
X168009866Y-105811580D02*
X168343200Y-105335390D01*
X168581295Y-105811580D02*
X168581295Y-104811580D01*
X168200342Y-104811580D01*
X168105104Y-104859200D01*
X168057485Y-104906819D01*
X168009866Y-105002057D01*
X168009866Y-105144914D01*
X168057485Y-105240152D01*
X168105104Y-105287771D01*
X168200342Y-105335390D01*
X168581295Y-105335390D01*
X167152723Y-105144914D02*
X167152723Y-105811580D01*
X167390819Y-104763961D02*
X167628914Y-105478247D01*
X167009866Y-105478247D01*
%TO.C,R3*%
X135257980Y-119721333D02*
X134781790Y-119388000D01*
X135257980Y-119149904D02*
X134257980Y-119149904D01*
X134257980Y-119530857D01*
X134305600Y-119626095D01*
X134353219Y-119673714D01*
X134448457Y-119721333D01*
X134591314Y-119721333D01*
X134686552Y-119673714D01*
X134734171Y-119626095D01*
X134781790Y-119530857D01*
X134781790Y-119149904D01*
X134257980Y-120054666D02*
X134257980Y-120673714D01*
X134638933Y-120340380D01*
X134638933Y-120483238D01*
X134686552Y-120578476D01*
X134734171Y-120626095D01*
X134829409Y-120673714D01*
X135067504Y-120673714D01*
X135162742Y-120626095D01*
X135210361Y-120578476D01*
X135257980Y-120483238D01*
X135257980Y-120197523D01*
X135210361Y-120102285D01*
X135162742Y-120054666D01*
%TO.C,R2*%
X167095466Y-127079180D02*
X167428800Y-126602990D01*
X167666895Y-127079180D02*
X167666895Y-126079180D01*
X167285942Y-126079180D01*
X167190704Y-126126800D01*
X167143085Y-126174419D01*
X167095466Y-126269657D01*
X167095466Y-126412514D01*
X167143085Y-126507752D01*
X167190704Y-126555371D01*
X167285942Y-126602990D01*
X167666895Y-126602990D01*
X166714514Y-126174419D02*
X166666895Y-126126800D01*
X166571657Y-126079180D01*
X166333561Y-126079180D01*
X166238323Y-126126800D01*
X166190704Y-126174419D01*
X166143085Y-126269657D01*
X166143085Y-126364895D01*
X166190704Y-126507752D01*
X166762133Y-127079180D01*
X166143085Y-127079180D01*
%TO.C,R1*%
X159983466Y-85593180D02*
X160316800Y-85116990D01*
X160554895Y-85593180D02*
X160554895Y-84593180D01*
X160173942Y-84593180D01*
X160078704Y-84640800D01*
X160031085Y-84688419D01*
X159983466Y-84783657D01*
X159983466Y-84926514D01*
X160031085Y-85021752D01*
X160078704Y-85069371D01*
X160173942Y-85116990D01*
X160554895Y-85116990D01*
X159031085Y-85593180D02*
X159602514Y-85593180D01*
X159316800Y-85593180D02*
X159316800Y-84593180D01*
X159412038Y-84736038D01*
X159507276Y-84831276D01*
X159602514Y-84878895D01*
%TO.C,J9*%
X166855733Y-84091980D02*
X166855733Y-84806266D01*
X166903352Y-84949123D01*
X166998590Y-85044361D01*
X167141447Y-85091980D01*
X167236685Y-85091980D01*
X166331923Y-85091980D02*
X166141447Y-85091980D01*
X166046209Y-85044361D01*
X165998590Y-84996742D01*
X165903352Y-84853885D01*
X165855733Y-84663409D01*
X165855733Y-84282457D01*
X165903352Y-84187219D01*
X165950971Y-84139600D01*
X166046209Y-84091980D01*
X166236685Y-84091980D01*
X166331923Y-84139600D01*
X166379542Y-84187219D01*
X166427161Y-84282457D01*
X166427161Y-84520552D01*
X166379542Y-84615790D01*
X166331923Y-84663409D01*
X166236685Y-84711028D01*
X166046209Y-84711028D01*
X165950971Y-84663409D01*
X165903352Y-84615790D01*
X165855733Y-84520552D01*
%TO.C,J8*%
X154776980Y-109750266D02*
X155491266Y-109750266D01*
X155634123Y-109702647D01*
X155729361Y-109607409D01*
X155776980Y-109464552D01*
X155776980Y-109369314D01*
X155205552Y-110369314D02*
X155157933Y-110274076D01*
X155110314Y-110226457D01*
X155015076Y-110178838D01*
X154967457Y-110178838D01*
X154872219Y-110226457D01*
X154824600Y-110274076D01*
X154776980Y-110369314D01*
X154776980Y-110559790D01*
X154824600Y-110655028D01*
X154872219Y-110702647D01*
X154967457Y-110750266D01*
X155015076Y-110750266D01*
X155110314Y-110702647D01*
X155157933Y-110655028D01*
X155205552Y-110559790D01*
X155205552Y-110369314D01*
X155253171Y-110274076D01*
X155300790Y-110226457D01*
X155396028Y-110178838D01*
X155586504Y-110178838D01*
X155681742Y-110226457D01*
X155729361Y-110274076D01*
X155776980Y-110369314D01*
X155776980Y-110559790D01*
X155729361Y-110655028D01*
X155681742Y-110702647D01*
X155586504Y-110750266D01*
X155396028Y-110750266D01*
X155300790Y-110702647D01*
X155253171Y-110655028D01*
X155205552Y-110559790D01*
%TO.C,J7*%
X176894133Y-83666980D02*
X176894133Y-84381266D01*
X176941752Y-84524123D01*
X177036990Y-84619361D01*
X177179847Y-84666980D01*
X177275085Y-84666980D01*
X176513180Y-83666980D02*
X175846514Y-83666980D01*
X176275085Y-84666980D01*
%TO.C,J6*%
X146658980Y-118970066D02*
X147373266Y-118970066D01*
X147516123Y-118922447D01*
X147611361Y-118827209D01*
X147658980Y-118684352D01*
X147658980Y-118589114D01*
X146658980Y-119874828D02*
X146658980Y-119684352D01*
X146706600Y-119589114D01*
X146754219Y-119541495D01*
X146897076Y-119446257D01*
X147087552Y-119398638D01*
X147468504Y-119398638D01*
X147563742Y-119446257D01*
X147611361Y-119493876D01*
X147658980Y-119589114D01*
X147658980Y-119779590D01*
X147611361Y-119874828D01*
X147563742Y-119922447D01*
X147468504Y-119970066D01*
X147230409Y-119970066D01*
X147135171Y-119922447D01*
X147087552Y-119874828D01*
X147039933Y-119779590D01*
X147039933Y-119589114D01*
X147087552Y-119493876D01*
X147135171Y-119446257D01*
X147230409Y-119398638D01*
%TO.C,J5*%
X163807733Y-108577580D02*
X163807733Y-109291866D01*
X163855352Y-109434723D01*
X163950590Y-109529961D01*
X164093447Y-109577580D01*
X164188685Y-109577580D01*
X162855352Y-108577580D02*
X163331542Y-108577580D01*
X163379161Y-109053771D01*
X163331542Y-109006152D01*
X163236304Y-108958533D01*
X162998209Y-108958533D01*
X162902971Y-109006152D01*
X162855352Y-109053771D01*
X162807733Y-109149009D01*
X162807733Y-109387104D01*
X162855352Y-109482342D01*
X162902971Y-109529961D01*
X162998209Y-109577580D01*
X163236304Y-109577580D01*
X163331542Y-109529961D01*
X163379161Y-109482342D01*
%TO.C,J4*%
X159552180Y-89176266D02*
X160266466Y-89176266D01*
X160409323Y-89128647D01*
X160504561Y-89033409D01*
X160552180Y-88890552D01*
X160552180Y-88795314D01*
X159885514Y-90081028D02*
X160552180Y-90081028D01*
X159504561Y-89842933D02*
X160218847Y-89604838D01*
X160218847Y-90223885D01*
%TO.C,J3*%
X169852933Y-110094780D02*
X169852933Y-110809066D01*
X169900552Y-110951923D01*
X169995790Y-111047161D01*
X170138647Y-111094780D01*
X170233885Y-111094780D01*
X169471980Y-110094780D02*
X168852933Y-110094780D01*
X169186266Y-110475733D01*
X169043409Y-110475733D01*
X168948171Y-110523352D01*
X168900552Y-110570971D01*
X168852933Y-110666209D01*
X168852933Y-110904304D01*
X168900552Y-110999542D01*
X168948171Y-111047161D01*
X169043409Y-111094780D01*
X169329123Y-111094780D01*
X169424361Y-111047161D01*
X169471980Y-110999542D01*
%TO.C,J2*%
X149488780Y-101469866D02*
X150203066Y-101469866D01*
X150345923Y-101422247D01*
X150441161Y-101327009D01*
X150488780Y-101184152D01*
X150488780Y-101088914D01*
X149584019Y-101898438D02*
X149536400Y-101946057D01*
X149488780Y-102041295D01*
X149488780Y-102279390D01*
X149536400Y-102374628D01*
X149584019Y-102422247D01*
X149679257Y-102469866D01*
X149774495Y-102469866D01*
X149917352Y-102422247D01*
X150488780Y-101850819D01*
X150488780Y-102469866D01*
%TO.C,J1*%
X136121733Y-96556580D02*
X136121733Y-97270866D01*
X136169352Y-97413723D01*
X136264590Y-97508961D01*
X136407447Y-97556580D01*
X136502685Y-97556580D01*
X135121733Y-97556580D02*
X135693161Y-97556580D01*
X135407447Y-97556580D02*
X135407447Y-96556580D01*
X135502685Y-96699438D01*
X135597923Y-96794676D01*
X135693161Y-96842295D01*
%TO.C,D4*%
X140387295Y-123538380D02*
X140387295Y-122538380D01*
X140149200Y-122538380D01*
X140006342Y-122586000D01*
X139911104Y-122681238D01*
X139863485Y-122776476D01*
X139815866Y-122966952D01*
X139815866Y-123109809D01*
X139863485Y-123300285D01*
X139911104Y-123395523D01*
X140006342Y-123490761D01*
X140149200Y-123538380D01*
X140387295Y-123538380D01*
X138958723Y-122871714D02*
X138958723Y-123538380D01*
X139196819Y-122490761D02*
X139434914Y-123205047D01*
X138815866Y-123205047D01*
%TO.C,D3*%
X178085895Y-95095180D02*
X178085895Y-94095180D01*
X177847800Y-94095180D01*
X177704942Y-94142800D01*
X177609704Y-94238038D01*
X177562085Y-94333276D01*
X177514466Y-94523752D01*
X177514466Y-94666609D01*
X177562085Y-94857085D01*
X177609704Y-94952323D01*
X177704942Y-95047561D01*
X177847800Y-95095180D01*
X178085895Y-95095180D01*
X177181133Y-94095180D02*
X176562085Y-94095180D01*
X176895419Y-94476133D01*
X176752561Y-94476133D01*
X176657323Y-94523752D01*
X176609704Y-94571371D01*
X176562085Y-94666609D01*
X176562085Y-94904704D01*
X176609704Y-94999942D01*
X176657323Y-95047561D01*
X176752561Y-95095180D01*
X177038276Y-95095180D01*
X177133514Y-95047561D01*
X177181133Y-94999942D01*
%TO.C,D2*%
X178030095Y-120289580D02*
X178030095Y-119289580D01*
X177792000Y-119289580D01*
X177649142Y-119337200D01*
X177553904Y-119432438D01*
X177506285Y-119527676D01*
X177458666Y-119718152D01*
X177458666Y-119861009D01*
X177506285Y-120051485D01*
X177553904Y-120146723D01*
X177649142Y-120241961D01*
X177792000Y-120289580D01*
X178030095Y-120289580D01*
X177077714Y-119384819D02*
X177030095Y-119337200D01*
X176934857Y-119289580D01*
X176696761Y-119289580D01*
X176601523Y-119337200D01*
X176553904Y-119384819D01*
X176506285Y-119480057D01*
X176506285Y-119575295D01*
X176553904Y-119718152D01*
X177125333Y-120289580D01*
X176506285Y-120289580D01*
%TO.C,D1*%
X147448495Y-91793180D02*
X147448495Y-90793180D01*
X147210400Y-90793180D01*
X147067542Y-90840800D01*
X146972304Y-90936038D01*
X146924685Y-91031276D01*
X146877066Y-91221752D01*
X146877066Y-91364609D01*
X146924685Y-91555085D01*
X146972304Y-91650323D01*
X147067542Y-91745561D01*
X147210400Y-91793180D01*
X147448495Y-91793180D01*
X145924685Y-91793180D02*
X146496114Y-91793180D01*
X146210400Y-91793180D02*
X146210400Y-90793180D01*
X146305638Y-90936038D01*
X146400876Y-91031276D01*
X146496114Y-91078895D01*
D11*
%TO.C,SW1*%
X134809600Y-87036400D02*
X139309600Y-87036400D01*
X139309600Y-93536400D02*
X134809600Y-93536400D01*
X133559600Y-91036400D02*
X133559600Y-89536400D01*
X140559600Y-89536400D02*
X140559600Y-91036400D01*
%TO.C,R4*%
X178276000Y-106678400D02*
X171736000Y-106678400D01*
X171736000Y-103938400D02*
X178276000Y-103938400D01*
X178276000Y-103938400D02*
X178276000Y-106678400D01*
X171736000Y-106678400D02*
X171736000Y-103938400D01*
X170966000Y-105308400D02*
X171736000Y-105308400D01*
X179046000Y-105308400D02*
X178276000Y-105308400D01*
%TO.C,R3*%
X133805600Y-116618000D02*
X133805600Y-123158000D01*
X131065600Y-123158000D02*
X131065600Y-116618000D01*
X131065600Y-116618000D02*
X133805600Y-116618000D01*
X133805600Y-123158000D02*
X131065600Y-123158000D01*
X132435600Y-123928000D02*
X132435600Y-123158000D01*
X132435600Y-115848000D02*
X132435600Y-116618000D01*
%TO.C,R2*%
X170968800Y-124256800D02*
X170198800Y-124256800D01*
X162888800Y-124256800D02*
X163658800Y-124256800D01*
X163658800Y-125626800D02*
X163658800Y-122886800D01*
X170198800Y-122886800D02*
X170198800Y-125626800D01*
X163658800Y-122886800D02*
X170198800Y-122886800D01*
X170198800Y-125626800D02*
X163658800Y-125626800D01*
%TO.C,R1*%
X148520400Y-83516800D02*
X155060400Y-83516800D01*
X155060400Y-86256800D02*
X148520400Y-86256800D01*
X148520400Y-86256800D02*
X148520400Y-83516800D01*
X155060400Y-83516800D02*
X155060400Y-86256800D01*
X155830400Y-84886800D02*
X155060400Y-84886800D01*
X147750400Y-84886800D02*
X148520400Y-84886800D01*
%TO.C,J9*%
X167852400Y-93379600D02*
X165192400Y-93379600D01*
X167852400Y-88239600D02*
X167852400Y-93379600D01*
X167852400Y-86969600D02*
X167852400Y-85639600D01*
X165192400Y-88239600D02*
X165192400Y-93379600D01*
X167852400Y-85639600D02*
X166522400Y-85639600D01*
X167852400Y-88239600D02*
X165192400Y-88239600D01*
%TO.C,J8*%
X146584600Y-111413600D02*
X146584600Y-108753600D01*
X151724600Y-111413600D02*
X146584600Y-111413600D01*
X152994600Y-111413600D02*
X154324600Y-111413600D01*
X151724600Y-108753600D02*
X146584600Y-108753600D01*
X154324600Y-111413600D02*
X154324600Y-110083600D01*
X151724600Y-111413600D02*
X151724600Y-108753600D01*
%TO.C,J7*%
X173640800Y-89884600D02*
X173230800Y-89884600D01*
X182270800Y-86246980D02*
X173640800Y-86246980D01*
X182270800Y-87664120D02*
X173640800Y-87664120D01*
X182270800Y-87900310D02*
X173640800Y-87900310D01*
X173640800Y-87344600D02*
X173290800Y-87344600D01*
X182270800Y-85654600D02*
X173640800Y-85654600D01*
X182270800Y-90794600D02*
X173640800Y-90794600D01*
X182270800Y-87782215D02*
X173640800Y-87782215D01*
X182270800Y-86010790D02*
X173640800Y-86010790D01*
X173640800Y-86624600D02*
X173290800Y-86624600D01*
X182270800Y-86719360D02*
X173640800Y-86719360D01*
X173640800Y-91704600D02*
X173230800Y-91704600D01*
X182270800Y-86601265D02*
X173640800Y-86601265D01*
X182270800Y-85774600D02*
X173640800Y-85774600D01*
X182270800Y-87073645D02*
X173640800Y-87073645D01*
X182270800Y-88254600D02*
X173640800Y-88254600D01*
X182270800Y-88136500D02*
X173640800Y-88136500D01*
X182270800Y-85892695D02*
X173640800Y-85892695D01*
X182270800Y-86365075D02*
X173640800Y-86365075D01*
X182270800Y-86837455D02*
X173640800Y-86837455D01*
X173640800Y-85654600D02*
X173640800Y-93394600D01*
X182270800Y-87191740D02*
X173640800Y-87191740D01*
X182270800Y-86955550D02*
X173640800Y-86955550D01*
X173640800Y-89164600D02*
X173230800Y-89164600D01*
X182270800Y-87546025D02*
X173640800Y-87546025D01*
X182270800Y-93394600D02*
X173640800Y-93394600D01*
X182270800Y-86128885D02*
X173640800Y-86128885D01*
X172180800Y-85654600D02*
X171070800Y-85654600D01*
X182270800Y-87427930D02*
X173640800Y-87427930D01*
X182270800Y-86483170D02*
X173640800Y-86483170D01*
X182270800Y-88018405D02*
X173640800Y-88018405D01*
X182270800Y-85654600D02*
X182270800Y-93394600D01*
X173640800Y-92424600D02*
X173230800Y-92424600D01*
X182270800Y-87309835D02*
X173640800Y-87309835D01*
X171070800Y-85654600D02*
X171070800Y-86984600D01*
%TO.C,J6*%
X148646600Y-119303400D02*
X148646600Y-120633400D01*
X151246600Y-120633400D02*
X156386600Y-120633400D01*
X151246600Y-117973400D02*
X156386600Y-117973400D01*
X151246600Y-117973400D02*
X151246600Y-120633400D01*
X148646600Y-120633400D02*
X149976600Y-120633400D01*
X156386600Y-117973400D02*
X156386600Y-120633400D01*
%TO.C,J5*%
X164804400Y-117865200D02*
X162144400Y-117865200D01*
X164804400Y-112725200D02*
X164804400Y-117865200D01*
X164804400Y-111455200D02*
X164804400Y-110125200D01*
X162144400Y-112725200D02*
X162144400Y-117865200D01*
X164804400Y-110125200D02*
X163474400Y-110125200D01*
X164804400Y-112725200D02*
X162144400Y-112725200D01*
%TO.C,J4*%
X151359800Y-90839600D02*
X151359800Y-88179600D01*
X156499800Y-90839600D02*
X151359800Y-90839600D01*
X157769800Y-90839600D02*
X159099800Y-90839600D01*
X156499800Y-88179600D02*
X151359800Y-88179600D01*
X159099800Y-90839600D02*
X159099800Y-89509600D01*
X156499800Y-90839600D02*
X156499800Y-88179600D01*
%TO.C,J3*%
X182321600Y-110401825D02*
X173691600Y-110401825D01*
X182321600Y-109929445D02*
X173691600Y-109929445D01*
X182321600Y-110992300D02*
X173691600Y-110992300D01*
X182321600Y-109575160D02*
X173691600Y-109575160D01*
X182321600Y-108984685D02*
X173691600Y-108984685D01*
X182321600Y-110519920D02*
X173691600Y-110519920D01*
X182321600Y-111110400D02*
X173691600Y-111110400D01*
X173691600Y-112740400D02*
X173281600Y-112740400D01*
X173691600Y-117820400D02*
X173281600Y-117820400D01*
X182321600Y-108748495D02*
X173691600Y-108748495D01*
X182321600Y-109338970D02*
X173691600Y-109338970D01*
X173691600Y-109480400D02*
X173341600Y-109480400D01*
X173691600Y-108510400D02*
X173691600Y-118790400D01*
X182321600Y-108510400D02*
X182321600Y-118790400D01*
X182321600Y-108630400D02*
X173691600Y-108630400D01*
X182321600Y-109220875D02*
X173691600Y-109220875D01*
X182321600Y-113650400D02*
X173691600Y-113650400D01*
X173691600Y-117100400D02*
X173281600Y-117100400D01*
X182321600Y-108510400D02*
X173691600Y-108510400D01*
X182321600Y-109811350D02*
X173691600Y-109811350D01*
X182321600Y-110874205D02*
X173691600Y-110874205D01*
X172231600Y-108510400D02*
X171121600Y-108510400D01*
X182321600Y-109102780D02*
X173691600Y-109102780D01*
X182321600Y-110165635D02*
X173691600Y-110165635D01*
X173691600Y-112020400D02*
X173281600Y-112020400D01*
X173691600Y-115280400D02*
X173281600Y-115280400D01*
X182321600Y-109457065D02*
X173691600Y-109457065D01*
X182321600Y-110638015D02*
X173691600Y-110638015D01*
X182321600Y-108866590D02*
X173691600Y-108866590D01*
X182321600Y-116190400D02*
X173691600Y-116190400D01*
X173691600Y-114560400D02*
X173281600Y-114560400D01*
X182321600Y-110756110D02*
X173691600Y-110756110D01*
X182321600Y-110047540D02*
X173691600Y-110047540D01*
X182321600Y-109693255D02*
X173691600Y-109693255D01*
X173691600Y-110200400D02*
X173341600Y-110200400D01*
X182321600Y-110283730D02*
X173691600Y-110283730D01*
X171121600Y-108510400D02*
X171121600Y-109840400D01*
X182321600Y-118790400D02*
X173691600Y-118790400D01*
%TO.C,J2*%
X161756400Y-100473200D02*
X161756400Y-103133200D01*
X154076400Y-103133200D02*
X161756400Y-103133200D01*
X154076400Y-100473200D02*
X154076400Y-103133200D01*
X154076400Y-100473200D02*
X161756400Y-100473200D01*
X151476400Y-103133200D02*
X152806400Y-103133200D01*
X151476400Y-101803200D02*
X151476400Y-103133200D01*
%TO.C,J1*%
X141642400Y-108860200D02*
X139742400Y-108860200D01*
X142342400Y-108360200D02*
X141392400Y-108360200D01*
X134542400Y-108360200D02*
X134842400Y-108860200D01*
X141392400Y-108360200D02*
X141642400Y-108860200D01*
X139942400Y-108360200D02*
X134542400Y-108360200D01*
X129742400Y-98010200D02*
X142342400Y-98010200D01*
X129742400Y-108860200D02*
X129742400Y-98010200D01*
X134842400Y-108860200D02*
X129742400Y-108860200D01*
X139742400Y-108860200D02*
X139692400Y-108860200D01*
X142342400Y-98010200D02*
X142342400Y-108360200D01*
X139692400Y-108860200D02*
X139942400Y-108360200D01*
%TO.C,D4*%
X142149200Y-119126000D02*
G75*
G03*
X142149200Y-119126000I-2500000J0D01*
G01*
X137089200Y-120670830D02*
G75*
G03*
X142639200Y-119125538I2560000J1544830D01*
G01*
X142639200Y-119126462D02*
G75*
G03*
X137089200Y-117581170I-2990000J462D01*
G01*
X137089200Y-120671000D02*
X137089200Y-117581000D01*
%TO.C,D3*%
X179847800Y-98602800D02*
G75*
G03*
X179847800Y-98602800I-2500000J0D01*
G01*
X179907800Y-97057970D02*
G75*
G03*
X174357800Y-98603262I-2560000J-1544830D01*
G01*
X174357800Y-98602338D02*
G75*
G03*
X179907800Y-100147630I2990000J-462D01*
G01*
X179907800Y-97057800D02*
X179907800Y-100147800D01*
%TO.C,D2*%
X178877600Y-123748800D02*
G75*
G03*
X178877600Y-123748800I-2500000J0D01*
G01*
X173817600Y-125293630D02*
G75*
G03*
X179367600Y-123748338I2560000J1544830D01*
G01*
X179367600Y-123749262D02*
G75*
G03*
X173817600Y-122203970I-2990000J462D01*
G01*
X173817600Y-125293800D02*
X173817600Y-122203800D01*
%TO.C,D1*%
X149210400Y-95300800D02*
G75*
G03*
X149210400Y-95300800I-2500000J0D01*
G01*
X149270400Y-93755970D02*
G75*
G03*
X143720400Y-95301262I-2560000J-1544830D01*
G01*
X143720400Y-95300338D02*
G75*
G03*
X149270400Y-96845630I2990000J-462D01*
G01*
X149270400Y-93755800D02*
X149270400Y-96845800D01*
%TD*%
M02*
